<?xml version="1.0" encoding="UTF-8" standalone="no"?>
<svg
   height="128"
   width="128"
   version="1.1"
   id="svg30"
   sodipodi:docname="folder-templates.svg"
   inkscape:version="1.2.2 (b0a8486541, 2022-12-01)"
   xmlns:inkscape="http://www.inkscape.org/namespaces/inkscape"
   xmlns:sodipodi="http://sodipodi.sourceforge.net/DTD/sodipodi-0.dtd"
   xmlns:xlink="http://www.w3.org/1999/xlink"
   xmlns="http://www.w3.org/2000/svg"
   xmlns:svg="http://www.w3.org/2000/svg">
  <sodipodi:namedview
     id="namedview32"
     pagecolor="#ffffff"
     bordercolor="#000000"
     borderopacity="0.25"
     inkscape:showpageshadow="2"
     inkscape:pageopacity="0.0"
     inkscape:pagecheckerboard="0"
     inkscape:deskcolor="#d1d1d1"
     showgrid="true"
     guidecolor="#000000"
     guideopacity="0.6"
     showguides="true"
     inkscape:zoom="22.26119"
     inkscape:cx="54.624214"
     inkscape:cy="83.778092"
     inkscape:window-width="2560"
     inkscape:window-height="1371"
     inkscape:window-x="0"
     inkscape:window-y="32"
     inkscape:window-maximized="1"
     inkscape:current-layer="svg30">
    <inkscape:grid
       type="xygrid"
       id="grid261"
       color="#000000"
       opacity="0.14901961"
       empcolor="#000000"
       empopacity="0.30196078" />
    <sodipodi:guide
       position="-5,78"
       orientation="0,-1"
       id="guide920"
       inkscape:locked="false" />
    <sodipodi:guide
       position="5,33"
       orientation="0,-1"
       id="guide922"
       inkscape:locked="false" />
  </sodipodi:namedview>
  <defs
     id="defs18">
    <linearGradient
       id="linearGradient2553"
       inkscape:swatch="solid">
      <stop
         style="stop-color:#0867e1;stop-opacity:1;"
         offset="0"
         id="stop2551" />
    </linearGradient>
    <linearGradient
       id="linearGradient2547"
       inkscape:swatch="solid">
      <stop
         style="stop-color:#0867e1;stop-opacity:1;"
         offset="0"
         id="stop2545" />
    </linearGradient>
    <linearGradient
       id="linearGradient2541"
       inkscape:swatch="solid">
      <stop
         style="stop-color:#0867e1;stop-opacity:1;"
         offset="0"
         id="stop2539" />
    </linearGradient>
    <linearGradient
       id="blue-back"
       inkscape:swatch="solid">
      <stop
         style="stop-color:#0867e1;stop-opacity:1;"
         offset="0"
         id="stop2497" />
    </linearGradient>
    <linearGradient
       id="d">
      <stop
         style="stop-color:#1d7df7;stop-opacity:1"
         offset="0"
         id="stop2" />
    </linearGradient>
    <linearGradient
       id="c">
      <stop
         style="stop-color:#0855bd;stop-opacity:1"
         offset="0"
         id="stop5" />
    </linearGradient>
    <linearGradient
       id="a">
      <stop
         style="stop-color:#3f8ff8;stop-opacity:1"
         offset="0"
         id="stop11" />
    </linearGradient>
    <linearGradient
       xlink:href="#a"
       id="g"
       x1="216.756"
       y1="270"
       x2="328.756"
       y2="270"
       gradientUnits="userSpaceOnUse"
       gradientTransform="translate(-208.756,-208)" />
    <linearGradient
       xlink:href="#c"
       id="e"
       x1="216.882"
       y1="270"
       x2="328.882"
       y2="270"
       gradientUnits="userSpaceOnUse"
       gradientTransform="translate(-208.882,-208)" />
    <linearGradient
       xlink:href="#d"
       id="h"
       x1="232"
       y1="236"
       x2="256"
       y2="236"
       gradientUnits="userSpaceOnUse"
       gradientTransform="translate(-208,-208)" />
    <linearGradient
       inkscape:collect="always"
       xlink:href="#blue-back"
       id="linearGradient2501"
       x1="45"
       y1="90.5"
       x2="80"
       y2="90.5"
       gradientUnits="userSpaceOnUse"
       gradientTransform="translate(-208,-208)" />
    <linearGradient
       xlink:href="#i"
       id="n"
       gradientUnits="userSpaceOnUse"
       gradientTransform="matrix(1.21463,0,0,1.21463,-427.806,-220.807)"
       x1="428"
       y1="172"
       x2="468.09399"
       y2="172" />
    <linearGradient
       id="i">
      <stop
         offset="0"
         stop-color="#345086"
         stop-opacity=".278"
         id="stop287" />
    </linearGradient>
    <linearGradient
       xlink:href="#i"
       id="o"
       gradientUnits="userSpaceOnUse"
       gradientTransform="matrix(1.51829,0,0,1.51829,-348.633,-147.509)"
       x1="428"
       y1="172"
       x2="468.09399"
       y2="172" />
    <linearGradient
       inkscape:collect="always"
       xlink:href="#blue-back"
       id="linearGradient1983"
       gradientUnits="userSpaceOnUse"
       gradientTransform="matrix(1.0685864,0,0,1.0685864,-191.03146,-91.008745)"
       x1="28"
       y1="74"
       x2="96"
       y2="74" />
    <linearGradient
       inkscape:collect="always"
       xlink:href="#blue-back"
       id="linearGradient1985"
       gradientUnits="userSpaceOnUse"
       gradientTransform="matrix(1.0685864,0,0,1.0685864,-191.03146,-91.008745)"
       x1="28"
       y1="74"
       x2="96"
       y2="74" />
    <linearGradient
       inkscape:collect="always"
       xlink:href="#blue-back"
       id="linearGradient3542"
       gradientUnits="userSpaceOnUse"
       gradientTransform="matrix(1.4247818,0,0,1.2886325,-278.04194,-128.28253)"
       x1="28"
       y1="74"
       x2="96"
       y2="74" />
    <linearGradient
       inkscape:collect="always"
       xlink:href="#blue-back"
       id="linearGradient3928"
       gradientUnits="userSpaceOnUse"
       gradientTransform="matrix(1.0685864,0,0,1.0685864,-199.03146,-91.008745)"
       x1="28"
       y1="74"
       x2="96"
       y2="74" />
    <linearGradient
       inkscape:collect="always"
       xlink:href="#blue-back"
       id="linearGradient4001"
       gradientUnits="userSpaceOnUse"
       gradientTransform="matrix(0,-1.0685864,1.0685864,0,-108.00875,337.03146)"
       x1="28"
       y1="74"
       x2="96"
       y2="74" />
  </defs>
  <path
     style="display:inline;fill:url(#e);fill-opacity:1;stroke-width:1.03704"
     d="M 28,12 C 16.92,12 8,20.92 8,32 v 60 c 0,11.08 8.92,20 20,20 h 72 c 11.08,0 20,-8.92 20,-20 V 52 C 120,40.92 111.08,32.05 100,32 81.575,32 85.795,12 63.118,12 Z"
     id="path20" />
  <path
     style="font-variation-settings:normal;display:inline;vector-effect:none;fill:url(#linearGradient2501);fill-opacity:1;stroke:none;stroke-width:2;stroke-linecap:butt;stroke-linejoin:miter;stroke-miterlimit:4;stroke-dasharray:none;stroke-dashoffset:0;stroke-opacity:0.355871;-inkscape-stroke:none;paint-order:fill markers stroke;stop-color:#000000"
     d="M 28,12 C 16.92,12 8,20.92 8,32 v 64 c 0,11.08 8.92,20 20,20 h 72 c 11.08,0 20,-8.92 20,-20 V 52 C 120,40.92 111.076,32.297 100,32 63.118,32 79.118,12 51.118,12 Z"
     id="path22" />
  <path
     style="fill:url(#g);fill-opacity:1;stroke-width:1.03704"
     d="M 28,12 C 16.92,12 8,20.92 8,32 v 60 c 0,11.08 8.92,20 20,20 h 72 c 11.08,0 20,-8.92 20,-20 V 52 C 120,40.92 111.08,32.05 100,32 44,32 68,12 40,12 Z"
     id="path24"
     sodipodi:nodetypes="ssssssscss" />
  <path
     style="fill:url(#h);fill-opacity:1"
     d="m 28,24 h 16 c 2.216,0 4,1.784 4,4 0,2.216 -1.784,4 -4,4 H 28 c -2.216,0 -4,-1.784 -4,-4 0,-2.216 1.784,-4 4,-4 z"
     id="path26" />
  <path
     style="color:#000000;line-height:normal;font-variation-settings:normal;text-indent:0;text-align:start;text-decoration-line:none;text-decoration-style:solid;text-decoration-color:#000000;text-transform:none;isolation:auto;mix-blend-mode:normal;vector-effect:none;fill:url(#linearGradient1983);fill-opacity:1;stroke-width:1.06859;stroke-linecap:butt;stroke-linejoin:miter;stroke-miterlimit:4;stroke-dasharray:none;stroke-dashoffset:0;stroke-opacity:1;-inkscape-stroke:none;marker:none;paint-order:fill markers stroke;stop-color:#000000"
     d="m 43.119287,58.978546 v 33.267922 c 0,2.841824 2.777673,2.841824 2.74552,2.841824 h 27.808881 c 2.777672,0 2.777672,-2.785882 2.777672,-2.785882 V 70.089236 L 65.340669,56.200874 H 45.886435 c 0,0 -2.767148,0 -2.767148,2.777672 z m 3.653392,4.529112 c 0,-2.777673 2.776318,-2.777673 2.776318,-2.777673 h 15.791672 v 9.359251 h 7.457299 v 18.540067 c 0,0 0,2.805598 -2.777672,2.805598 H 49.523748 c 0,0 -2.751069,0 -2.751069,-2.777675 z"
     font-weight="400"
     font-family="sans-serif"
     overflow="visible"
     id="path2"
     sodipodi:nodetypes="ccccccccccccccccccc" />
  <path
     d="m 82.006706,89.532946 c 2.777673,0 2.777673,-2.783175 2.777673,-2.783175 V 61.756219 L 75.062524,49.769808 H 57.000623 c 0,0 -2.770645,0 -2.770645,2.777673 v 3.653393 h 3.653392 c -0.155718,-2.245136 1.870572,-2.777675 1.870572,-2.777675 h 13.919746 v 8.33302 h 7.457299 v 21.294707 c 0,0 0,2.828628 -2.777673,2.828628 H 76.45136 v 3.653392 z"
     style="color:#000000;line-height:normal;font-variation-settings:normal;text-indent:0;text-align:start;text-decoration-line:none;text-decoration-style:solid;text-decoration-color:#000000;text-transform:none;isolation:auto;mix-blend-mode:normal;vector-effect:none;fill:url(#linearGradient1985);fill-opacity:1;stroke-width:1.06859;stroke-linecap:butt;stroke-linejoin:miter;stroke-miterlimit:4;stroke-dasharray:none;stroke-dashoffset:0;stroke-opacity:1;-inkscape-stroke:none;marker:none;paint-order:fill markers stroke;stop-color:#000000"
     font-weight="400"
     font-family="sans-serif"
     overflow="visible"
     id="path4"
     sodipodi:nodetypes="ccccccccccccccccc" />
  <path
     id="rect3373"
     style="font-variation-settings:normal;opacity:1;vector-effect:none;fill:url(#linearGradient3542);fill-opacity:1;fill-rule:evenodd;stroke-width:1.355;stroke-linecap:butt;stroke-linejoin:miter;stroke-miterlimit:4;stroke-dasharray:none;stroke-dashoffset:0;stroke-opacity:1;-inkscape-stroke:none;marker:none;paint-order:fill markers stroke;stop-color:#000000;stop-opacity:1"
     d="M 70,77.941406 50,90 h 20 z m -2.530708,4.344987 0.143201,5.813479 -10.863292,0.230903 z"
     sodipodi:nodetypes="cccccccc" />
  <path
     id="rect3926"
     style="font-variation-settings:normal;opacity:1;vector-effect:none;fill:url(#linearGradient3928);fill-opacity:1;fill-rule:evenodd;stroke-width:1.06859;stroke-linecap:butt;stroke-linejoin:miter;stroke-miterlimit:4;stroke-dasharray:none;stroke-dashoffset:0;stroke-opacity:1;-inkscape-stroke:none;marker:none;paint-order:fill markers stroke;stop-color:#000000;stop-opacity:1"
     d="m 39,65 v 1 h 3 v -1 z m 0,3 v 1 h 3 v -1 z m 0,3 v 1 h 3 v -1 z m 0,3 v 1 h 3 v -1 z m 0,3 v 1 h 3 v -1 z m 0,3 v 1 h 3 v -1 z m 0,3 v 1 h 3 v -1 z m 0,3 v 1 h 3 v -1 z" />
  <path
     id="path3999"
     style="font-variation-settings:normal;opacity:1;vector-effect:none;fill:url(#linearGradient4001);fill-opacity:1;fill-rule:evenodd;stroke-width:1.06859;stroke-linecap:butt;stroke-linejoin:miter;stroke-miterlimit:4;stroke-dasharray:none;stroke-dashoffset:0;stroke-opacity:1;-inkscape-stroke:none;marker:none;paint-order:fill markers stroke;stop-color:#000000;stop-opacity:1"
     d="m 48,99 h 1 v -3 h -1 z m 3,0 h 1 v -3 h -1 z m 3,0 h 1 v -3 h -1 z m 3,0 h 1 v -3 h -1 z m 3,0 h 1 v -3 h -1 z m 3,0 h 1 v -3 h -1 z m 3,0 h 1 v -3 h -1 z m 3,0 h 1 v -3 h -1 z" />
</svg>
