<?xml version="1.0" encoding="UTF-8" standalone="no"?>
<svg
   height="128"
   width="128"
   version="1.1"
   id="svg30"
   sodipodi:docname="folder-download.svg"
   inkscape:version="1.2.2 (b0a8486541, 2022-12-01)"
   xmlns:inkscape="http://www.inkscape.org/namespaces/inkscape"
   xmlns:sodipodi="http://sodipodi.sourceforge.net/DTD/sodipodi-0.dtd"
   xmlns:xlink="http://www.w3.org/1999/xlink"
   xmlns="http://www.w3.org/2000/svg"
   xmlns:svg="http://www.w3.org/2000/svg">
  <sodipodi:namedview
     id="namedview32"
     pagecolor="#ffffff"
     bordercolor="#000000"
     borderopacity="0.25"
     inkscape:showpageshadow="2"
     inkscape:pageopacity="0.0"
     inkscape:pagecheckerboard="0"
     inkscape:deskcolor="#d1d1d1"
     showgrid="true"
     guidecolor="#000000"
     guideopacity="0.6"
     showguides="true"
     inkscape:zoom="6.992191"
     inkscape:cx="41.546348"
     inkscape:cy="94.820064"
     inkscape:window-width="2400"
     inkscape:window-height="1281"
     inkscape:window-x="1920"
     inkscape:window-y="32"
     inkscape:window-maximized="1"
     inkscape:current-layer="svg30">
    <inkscape:grid
       type="xygrid"
       id="grid261"
       color="#000000"
       opacity="0.14901961"
       empcolor="#000000"
       empopacity="0.30196078" />
    <sodipodi:guide
       position="-5,78"
       orientation="0,-1"
       id="guide920"
       inkscape:locked="false" />
    <sodipodi:guide
       position="5,33"
       orientation="0,-1"
       id="guide922"
       inkscape:locked="false" />
  </sodipodi:namedview>
  <defs
     id="defs18">
    <linearGradient
       id="linearGradient2553"
       inkscape:swatch="solid">
      <stop
         style="stop-color:#0867e1;stop-opacity:1;"
         offset="0"
         id="stop2551" />
    </linearGradient>
    <linearGradient
       id="linearGradient2547"
       inkscape:swatch="solid">
      <stop
         style="stop-color:#0867e1;stop-opacity:1;"
         offset="0"
         id="stop2545" />
    </linearGradient>
    <linearGradient
       id="linearGradient2541"
       inkscape:swatch="solid">
      <stop
         style="stop-color:#0867e1;stop-opacity:1;"
         offset="0"
         id="stop2539" />
    </linearGradient>
    <linearGradient
       id="blue-back"
       inkscape:swatch="solid">
      <stop
         style="stop-color:#0867e1;stop-opacity:1;"
         offset="0"
         id="stop2497" />
    </linearGradient>
    <linearGradient
       id="d">
      <stop
         style="stop-color:#1d7df7;stop-opacity:1"
         offset="0"
         id="stop2" />
    </linearGradient>
    <linearGradient
       id="c">
      <stop
         style="stop-color:#0855bd;stop-opacity:1"
         offset="0"
         id="stop5" />
    </linearGradient>
    <linearGradient
       id="a">
      <stop
         style="stop-color:#3f8ff8;stop-opacity:1"
         offset="0"
         id="stop11" />
    </linearGradient>
    <linearGradient
       xlink:href="#a"
       id="g"
       x1="216.756"
       y1="270"
       x2="328.756"
       y2="270"
       gradientUnits="userSpaceOnUse"
       gradientTransform="translate(-208.756,-208)" />
    <linearGradient
       xlink:href="#c"
       id="e"
       x1="216.882"
       y1="270"
       x2="328.882"
       y2="270"
       gradientUnits="userSpaceOnUse"
       gradientTransform="translate(-208.882,-208)" />
    <linearGradient
       xlink:href="#d"
       id="h"
       x1="232"
       y1="236"
       x2="256"
       y2="236"
       gradientUnits="userSpaceOnUse"
       gradientTransform="translate(-208,-208)" />
    <linearGradient
       inkscape:collect="always"
       xlink:href="#blue-back"
       id="linearGradient2501"
       x1="45"
       y1="90.5"
       x2="80"
       y2="90.5"
       gradientUnits="userSpaceOnUse"
       gradientTransform="translate(-208,-208)" />
    <linearGradient
       xlink:href="#i"
       id="n"
       gradientUnits="userSpaceOnUse"
       gradientTransform="matrix(1.21463,0,0,1.21463,-427.806,-220.807)"
       x1="428"
       y1="172"
       x2="468.09399"
       y2="172" />
    <linearGradient
       id="i">
      <stop
         offset="0"
         stop-color="#345086"
         stop-opacity=".278"
         id="stop287" />
    </linearGradient>
    <linearGradient
       xlink:href="#i"
       id="o"
       gradientUnits="userSpaceOnUse"
       gradientTransform="matrix(1.51829,0,0,1.51829,-348.633,-147.509)"
       x1="428"
       y1="172"
       x2="468.09399"
       y2="172" />
    <linearGradient
       inkscape:collect="always"
       xlink:href="#blue-back"
       id="linearGradient1096"
       gradientUnits="userSpaceOnUse"
       gradientTransform="matrix(1.4406838,0,0,1.4406838,-163.73251,-147.74021)"
       x1="28"
       y1="74"
       x2="96"
       y2="74" />
  </defs>
  <path
     style="display:inline;fill:url(#e);fill-opacity:1;stroke-width:1.03704"
     d="M 28,12 C 16.92,12 8,20.92 8,32 v 60 c 0,11.08 8.92,20 20,20 h 72 c 11.08,0 20,-8.92 20,-20 V 52 C 120,40.92 111.08,32.05 100,32 81.575,32 85.795,12 63.118,12 Z"
     id="path20" />
  <path
     style="font-variation-settings:normal;display:inline;vector-effect:none;fill:url(#linearGradient2501);fill-opacity:1;stroke:none;stroke-width:2;stroke-linecap:butt;stroke-linejoin:miter;stroke-miterlimit:4;stroke-dasharray:none;stroke-dashoffset:0;stroke-opacity:0.355871;-inkscape-stroke:none;paint-order:fill markers stroke;stop-color:#000000"
     d="M 28,12 C 16.92,12 8,20.92 8,32 v 64 c 0,11.08 8.92,20 20,20 h 72 c 11.08,0 20,-8.92 20,-20 V 52 C 120,40.92 111.076,32.297 100,32 63.118,32 79.118,12 51.118,12 Z"
     id="path22" />
  <path
     style="fill:url(#g);fill-opacity:1;stroke-width:1.03704"
     d="M 28,12 C 16.92,12 8,20.92 8,32 v 60 c 0,11.08 8.92,20 20,20 h 72 c 11.08,0 20,-8.92 20,-20 V 52 C 120,40.92 111.08,32.05 100,32 44,32 68,12 40,12 Z"
     id="path24"
     sodipodi:nodetypes="ssssssscss" />
  <path
     style="fill:url(#h);fill-opacity:1"
     d="m 28,24 h 16 c 2.216,0 4,1.784 4,4 0,2.216 -1.784,4 -4,4 H 28 c -2.216,0 -4,-1.784 -4,-4 0,-2.216 1.784,-4 4,-4 z"
     id="path26" />
  <path
     id="path4-6"
     style="font-variation-settings:normal;opacity:1;vector-effect:none;fill:url(#linearGradient1096);fill-opacity:1;stroke-width:1.39295;stroke-linecap:butt;stroke-linejoin:miter;stroke-miterlimit:4;stroke-dasharray:none;stroke-dashoffset:0;stroke-opacity:1;-inkscape-stroke:none;marker:none;paint-order:fill markers stroke;stop-color:#000000;stop-opacity:1"
     d="M 58.412109 52.205078 C 55.618157 52.205078 55.617188 55 55.617188 55 L 55.617188 60.587891 L 55.611328 60.587891 L 55.611328 68.970703 C 55.611328 68.970703 55.659192 71.732422 52.865234 71.732422 L 43.746094 71.732422 C 41.91904 71.672232 41.254726 73.485466 42.429688 74.683594 L 59.320312 91.568359 C 62.69263 95.103265 65.294604 95.113484 68.832031 91.492188 L 85.552734 74.919922 C 86.798042 73.263943 86.03134 71.993061 84.074219 71.748047 L 75.216797 71.732422 C 72.422846 71.732422 72.421875 68.939453 72.421875 68.939453 L 72.375 60.587891 L 72.382812 60.587891 L 72.382812 55 C 72.382813 55 72.381843 52.205078 69.587891 52.205078 L 58.412109 52.205078 z M 58.412109 55 L 69.587891 55 L 69.587891 60.587891 L 69.582031 60.587891 L 69.628906 71.732422 C 69.628906 74.526372 72.410156 74.53125 72.410156 74.53125 L 77.96875 74.544922 C 78.808263 74.644802 80.127194 75.365339 78.134766 77.197266 L 67.972656 87.316406 C 65.195078 90.09397 62.713931 90.221748 59.947266 87.455078 L 49.535156 76.785156 C 48.620195 75.980164 48.584237 74.593734 50.074219 74.527344 L 55.658203 74.527344 C 55.658203 74.527344 58.453125 74.526532 58.453125 71.720703 L 58.404297 60.587891 L 58.412109 60.587891 L 58.412109 55 z " />
</svg>
