<?xml version="1.0" encoding="UTF-8" standalone="no"?>
<svg
   height="128"
   width="128"
   version="1.1"
   id="svg1935"
   sodipodi:docname="folder.svg"
   inkscape:version="1.2.2 (b0a8486541, 2022-12-01)"
   xmlns:inkscape="http://www.inkscape.org/namespaces/inkscape"
   xmlns:sodipodi="http://sodipodi.sourceforge.net/DTD/sodipodi-0.dtd"
   xmlns:xlink="http://www.w3.org/1999/xlink"
   xmlns="http://www.w3.org/2000/svg"
   xmlns:svg="http://www.w3.org/2000/svg">
  <sodipodi:namedview
     id="namedview1937"
     pagecolor="#ffffff"
     bordercolor="#000000"
     borderopacity="0.25"
     inkscape:showpageshadow="2"
     inkscape:pageopacity="0.0"
     inkscape:pagecheckerboard="0"
     inkscape:deskcolor="#d1d1d1"
     showgrid="false"
     inkscape:zoom="8.0234375"
     inkscape:cx="63.937683"
     inkscape:cy="63.937683"
     inkscape:window-width="2400"
     inkscape:window-height="1281"
     inkscape:window-x="1920"
     inkscape:window-y="32"
     inkscape:window-maximized="1"
     inkscape:current-layer="g1933" />
  <defs
     id="defs1923">
    <linearGradient
       id="d">
      <stop
         style="stop-color:#1d7df7;stop-opacity:1"
         offset="0"
         id="stop1907" />
    </linearGradient>
    <linearGradient
       id="c">
      <stop
         style="stop-color:#0855bd;stop-opacity:1"
         offset="0"
         id="stop1910" />
    </linearGradient>
    <linearGradient
       id="b">
      <stop
         style="stop-color:#0867e1;stop-opacity:1"
         offset="0"
         id="stop1913" />
    </linearGradient>
    <linearGradient
       id="a">
      <stop
         style="stop-color:#3f8ff8;stop-opacity:1"
         offset="0"
         id="stop1916" />
    </linearGradient>
    <linearGradient
       xlink:href="#a"
       id="g"
       x1="216.756"
       y1="270"
       x2="328.756"
       y2="270"
       gradientUnits="userSpaceOnUse"
       gradientTransform="translate(-.756)" />
    <linearGradient
       xlink:href="#b"
       id="f"
       x1="216.882"
       y1="272"
       x2="328.882"
       y2="272"
       gradientUnits="userSpaceOnUse"
       gradientTransform="translate(-.882)" />
    <linearGradient
       xlink:href="#c"
       id="e"
       x1="216.882"
       y1="270"
       x2="328.882"
       y2="270"
       gradientUnits="userSpaceOnUse"
       gradientTransform="translate(-.882)" />
    <linearGradient
       xlink:href="#d"
       id="h"
       x1="232"
       y1="236"
       x2="256"
       y2="236"
       gradientUnits="userSpaceOnUse" />
  </defs>
  <g
     style="display:inline"
     id="g1933">
    <path
       style="display:inline;fill:url(#e);fill-opacity:1;stroke-width:1.03704"
       d="M236 220c-11.08 0-20 8.92-20 20v60c0 11.08 8.92 20 20 20h72c11.08 0 20-8.92 20-20v-40c0-11.08-8.92-19.95-20-20-18.425 0-14.205-20-36.882-20z"
       transform="translate(-208 -208)"
       id="path1925" />
    <path
       style="display:inline;fill:url(#f);fill-opacity:1;stroke-width:1.03704"
       d="M236 220c-11.08 0-20 8.92-20 20v64c0 11.08 8.92 20 20 20h72c11.08 0 20-8.92 20-20v-44c0-11.08-8.924-19.703-20-20-36.882 0-20.882-20-48.882-20z"
       transform="translate(-208 -208)"
       id="path1927" />
    <path
       style="fill:#3f8ff8;fill-opacity:1;stroke-width:1.03704"
       d="M236 220c-11.08 0-20 8.92-20 20v60c0 11.08 8.92 20 20 20h72c11.08 0 20-8.92 20-20v-40c0-11.08-8.92-19.95-20-20-56 0-32-20-60-20z"
       transform="translate(-208 -208)"
       id="path1929" />
    <path
       style="fill:url(#h);fill-opacity:1"
       d="M236 232h16c2.216 0 4 1.784 4 4s-1.784 4-4 4h-16c-2.216 0-4-1.784-4-4s1.784-4 4-4z"
       transform="translate(-208 -208)"
       id="path1931" />
  </g>
</svg>
