<?xml version="1.0" encoding="UTF-8" standalone="no"?>
<svg
   height="128"
   width="128"
   version="1.1"
   id="svg30"
   sodipodi:docname="folder-music.svg"
   inkscape:version="1.2.2 (b0a8486541, 2022-12-01)"
   xmlns:inkscape="http://www.inkscape.org/namespaces/inkscape"
   xmlns:sodipodi="http://sodipodi.sourceforge.net/DTD/sodipodi-0.dtd"
   xmlns:xlink="http://www.w3.org/1999/xlink"
   xmlns="http://www.w3.org/2000/svg"
   xmlns:svg="http://www.w3.org/2000/svg">
  <sodipodi:namedview
     id="namedview32"
     pagecolor="#ffffff"
     bordercolor="#000000"
     borderopacity="0.25"
     inkscape:showpageshadow="2"
     inkscape:pageopacity="0.0"
     inkscape:pagecheckerboard="0"
     inkscape:deskcolor="#d1d1d1"
     showgrid="true"
     guidecolor="#000000"
     guideopacity="0.6"
     showguides="true"
     inkscape:zoom="6.992191"
     inkscape:cx="26.029037"
     inkscape:cy="74.511695"
     inkscape:window-width="2560"
     inkscape:window-height="1371"
     inkscape:window-x="0"
     inkscape:window-y="32"
     inkscape:window-maximized="1"
     inkscape:current-layer="svg30">
    <inkscape:grid
       type="xygrid"
       id="grid261"
       color="#000000"
       opacity="0.14901961"
       empcolor="#000000"
       empopacity="0.30196078" />
    <sodipodi:guide
       position="-5,78"
       orientation="0,-1"
       id="guide920"
       inkscape:locked="false" />
    <sodipodi:guide
       position="5,33"
       orientation="0,-1"
       id="guide922"
       inkscape:locked="false" />
  </sodipodi:namedview>
  <defs
     id="defs18">
    <linearGradient
       id="linearGradient2553"
       inkscape:swatch="solid">
      <stop
         style="stop-color:#0867e1;stop-opacity:1;"
         offset="0"
         id="stop2551" />
    </linearGradient>
    <linearGradient
       id="linearGradient2547"
       inkscape:swatch="solid">
      <stop
         style="stop-color:#0867e1;stop-opacity:1;"
         offset="0"
         id="stop2545" />
    </linearGradient>
    <linearGradient
       id="linearGradient2541"
       inkscape:swatch="solid">
      <stop
         style="stop-color:#0867e1;stop-opacity:1;"
         offset="0"
         id="stop2539" />
    </linearGradient>
    <linearGradient
       id="blue-back"
       inkscape:swatch="solid">
      <stop
         style="stop-color:#0867e1;stop-opacity:1;"
         offset="0"
         id="stop2497" />
    </linearGradient>
    <linearGradient
       id="d">
      <stop
         style="stop-color:#1d7df7;stop-opacity:1"
         offset="0"
         id="stop2" />
    </linearGradient>
    <linearGradient
       id="c">
      <stop
         style="stop-color:#0855bd;stop-opacity:1"
         offset="0"
         id="stop5" />
    </linearGradient>
    <linearGradient
       id="a">
      <stop
         style="stop-color:#3f8ff8;stop-opacity:1"
         offset="0"
         id="stop11" />
    </linearGradient>
    <linearGradient
       xlink:href="#a"
       id="g"
       x1="216.756"
       y1="270"
       x2="328.756"
       y2="270"
       gradientUnits="userSpaceOnUse"
       gradientTransform="translate(-208.756,-208)" />
    <linearGradient
       xlink:href="#c"
       id="e"
       x1="216.882"
       y1="270"
       x2="328.882"
       y2="270"
       gradientUnits="userSpaceOnUse"
       gradientTransform="translate(-208.882,-208)" />
    <linearGradient
       xlink:href="#d"
       id="h"
       x1="232"
       y1="236"
       x2="256"
       y2="236"
       gradientUnits="userSpaceOnUse"
       gradientTransform="translate(-208,-208)" />
    <linearGradient
       inkscape:collect="always"
       xlink:href="#blue-back"
       id="linearGradient2501"
       x1="45"
       y1="90.5"
       x2="80"
       y2="90.5"
       gradientUnits="userSpaceOnUse"
       gradientTransform="translate(-208,-208)" />
    <linearGradient
       xlink:href="#i"
       id="n"
       gradientUnits="userSpaceOnUse"
       gradientTransform="matrix(1.21463,0,0,1.21463,-427.806,-220.807)"
       x1="428"
       y1="172"
       x2="468.09399"
       y2="172" />
    <linearGradient
       id="i">
      <stop
         offset="0"
         stop-color="#345086"
         stop-opacity=".278"
         id="stop287" />
    </linearGradient>
    <linearGradient
       xlink:href="#i"
       id="o"
       gradientUnits="userSpaceOnUse"
       gradientTransform="matrix(1.51829,0,0,1.51829,-348.633,-147.509)"
       x1="428"
       y1="172"
       x2="468.09399"
       y2="172" />
    <linearGradient
       inkscape:collect="always"
       xlink:href="#blue-back"
       id="linearGradient1985"
       gradientUnits="userSpaceOnUse"
       gradientTransform="matrix(1.2432994,0,0,1.2432994,-135.5002,-119.71856)"
       x1="28"
       y1="74"
       x2="96"
       y2="74" />
  </defs>
  <path
     style="display:inline;fill:url(#e);fill-opacity:1;stroke-width:1.03704"
     d="M 28,12 C 16.92,12 8,20.92 8,32 v 60 c 0,11.08 8.92,20 20,20 h 72 c 11.08,0 20,-8.92 20,-20 V 52 C 120,40.92 111.08,32.05 100,32 81.575,32 85.795,12 63.118,12 Z"
     id="path20" />
  <path
     style="font-variation-settings:normal;display:inline;vector-effect:none;fill:url(#linearGradient2501);fill-opacity:1;stroke:none;stroke-width:2;stroke-linecap:butt;stroke-linejoin:miter;stroke-miterlimit:4;stroke-dasharray:none;stroke-dashoffset:0;stroke-opacity:0.355871;-inkscape-stroke:none;paint-order:fill markers stroke;stop-color:#000000"
     d="M 28,12 C 16.92,12 8,20.92 8,32 v 64 c 0,11.08 8.92,20 20,20 h 72 c 11.08,0 20,-8.92 20,-20 V 52 C 120,40.92 111.076,32.297 100,32 63.118,32 79.118,12 51.118,12 Z"
     id="path22" />
  <path
     style="fill:url(#g);fill-opacity:1;stroke-width:1.03704"
     d="M 28,12 C 16.92,12 8,20.92 8,32 v 60 c 0,11.08 8.92,20 20,20 h 72 c 11.08,0 20,-8.92 20,-20 V 52 C 120,40.92 111.08,32.05 100,32 44,32 68,12 40,12 Z"
     id="path24"
     sodipodi:nodetypes="ssssssscss" />
  <path
     style="fill:url(#h);fill-opacity:1"
     d="m 28,24 h 16 c 2.216,0 4,1.784 4,4 0,2.216 -1.784,4 -4,4 H 28 c -2.216,0 -4,-1.784 -4,-4 0,-2.216 1.784,-4 4,-4 z"
     id="path26" />
  <path
     id="path1029"
     style="color:#000000;font-variation-settings:normal;opacity:1;isolation:auto;mix-blend-mode:normal;vector-effect:none;fill:url(#linearGradient1985);fill-opacity:1;stroke-width:1.20211;stroke-linecap:butt;stroke-linejoin:miter;stroke-miterlimit:4;stroke-dasharray:none;stroke-dashoffset:0;stroke-opacity:1;-inkscape-stroke:none;marker:none;paint-order:fill markers stroke;stop-color:#000000;stop-opacity:1"
     d="m 75.07723,54.176707 c -1.322026,-0.02738 -2.346636,0.276076 -2.346636,0.276076 l -15.770798,3.698255 c 0,0 -4.950047,1.781291 -4.641516,6.136925 l 0.04026,19.411539 c -0.407866,1.451243 -2.857379,1.898017 -4.555242,1.898017 -8.081441,0.147005 -8.261661,9.886944 0,9.886944 2.807639,0 9.392904,-1.801433 9.329043,-8.023435 L 57.000058,75.031889 c -0.01417,-3.933243 2.593956,-4.29642 2.593956,-4.29642 l 13.142333,-3.698256 c 0,0 3.252303,-1.215921 3.238131,2.001544 l 0.126538,7.051421 c -0.05215,2.010872 -2.12118,2.220107 -3.819041,2.220107 -8.081445,0.147034 -8.200011,11.353591 0,11.353591 2.807636,0 8.558333,-2.779475 8.558333,-9.058719 l -0.04026,-20.584858 c -0.49108,-4.830998 -3.519429,-5.797723 -5.722812,-5.843592 z m -0.126537,3.462443 c 0.994978,0.03127 1.815497,0.742388 1.972788,1.823248 l 0.06326,0.437117 c 0.193592,1.330292 -0.691781,2.696047 -1.98429,3.065586 l -16.16189,4.624263 c -1.292509,0.369539 -2.486644,-0.406687 -2.680229,-1.736975 l -0.06327,-0.437121 c -0.193587,-1.330288 0.69178,-2.696043 1.984289,-3.065582 l 16.156152,-4.61851 c 0.242357,-0.0693 0.483584,-0.09924 0.713196,-0.09202 z" />
</svg>
