<?xml version="1.0" encoding="UTF-8" standalone="no"?>
<svg
   height="128"
   viewBox="0 0 128 128"
   width="128"
   version="1.1"
   id="svg2532"
   sodipodi:docname="x-office-spreadsheet.svg"
   inkscape:version="1.2.2 (b0a8486541, 2022-12-01)"
   xmlns:inkscape="http://www.inkscape.org/namespaces/inkscape"
   xmlns:sodipodi="http://sodipodi.sourceforge.net/DTD/sodipodi-0.dtd"
   xmlns:xlink="http://www.w3.org/1999/xlink"
   xmlns="http://www.w3.org/2000/svg"
   xmlns:svg="http://www.w3.org/2000/svg"
   xmlns:osb="http://www.openswatchbook.org/uri/2009/osb">
  <sodipodi:namedview
     id="namedview2534"
     pagecolor="#ffffff"
     bordercolor="#000000"
     borderopacity="0.25"
     inkscape:showpageshadow="2"
     inkscape:pageopacity="0.0"
     inkscape:pagecheckerboard="0"
     inkscape:deskcolor="#d1d1d1"
     showgrid="true"
     inkscape:zoom="4.7686575"
     inkscape:cx="16.671359"
     inkscape:cy="75.912351"
     inkscape:window-width="2560"
     inkscape:window-height="1371"
     inkscape:window-x="0"
     inkscape:window-y="32"
     inkscape:window-maximized="1"
     inkscape:current-layer="svg2532">
    <inkscape:grid
       type="xygrid"
       id="grid2771" />
  </sodipodi:namedview>
  <title
     id="title2448">Template icons dark</title>
  <defs
     id="defs2496">
    <linearGradient
       id="linearGradient7739">
      <stop
         offset="0"
         stop-opacity="0"
         id="stop7735"
         style="stop-color:#42ec81;stop-opacity:1;" />
      <stop
         offset="1"
         stop-opacity=".083"
         id="stop7737"
         style="stop-color:#3add5c;stop-opacity:1;" />
    </linearGradient>
    <linearGradient
       id="i"
       osb:paint="solid">
      <stop
         offset="0"
         stop-color="#00e26e"
         id="stop2450" />
    </linearGradient>
    <linearGradient
       id="g"
       osb:paint="solid">
      <stop
         offset="0"
         stop-opacity=".196"
         id="stop2453" />
    </linearGradient>
    <linearGradient
       id="f"
       osb:paint="solid">
      <stop
         offset="0"
         stop-color="#fff"
         stop-opacity=".302"
         id="stop2456" />
    </linearGradient>
    <linearGradient
       id="e"
       osb:paint="solid">
      <stop
         offset="0"
         stop-opacity=".078"
         id="stop2459" />
    </linearGradient>
    <linearGradient
       id="d"
       osb:paint="solid">
      <stop
         offset="0"
         stop-opacity=".157"
         id="stop2462" />
    </linearGradient>
    <linearGradient
       id="b">
      <stop
         offset="0"
         stop-color="#9af5b5"
         id="stop2465" />
      <stop
         offset="1"
         stop-color="#56ee83"
         id="stop2467" />
    </linearGradient>
    <linearGradient
       id="a">
      <stop
         offset="0"
         stop-color="#42ec81"
         id="stop2470" />
      <stop
         offset="1"
         stop-color="#3add5c"
         id="stop2472" />
    </linearGradient>
    <linearGradient
       id="c">
      <stop
         offset="0"
         stop-opacity="0"
         id="stop2475" />
      <stop
         offset="1"
         stop-opacity=".102"
         id="stop2477" />
    </linearGradient>
    <linearGradient
       gradientTransform="matrix(1.33333,0,0,1.33333,58.667,56.167)"
       xlink:href="#e"
       id="j"
       x1="125"
       y1="161.5"
       x2="195"
       y2="161.5"
       gradientUnits="userSpaceOnUse" />
    <linearGradient
       gradientTransform="matrix(1.33333,0,0,1.33333,58.667,56.167)"
       xlink:href="#d"
       id="k"
       x1="126"
       y1="161.5"
       x2="194"
       y2="161.5"
       gradientUnits="userSpaceOnUse" />
    <linearGradient
       xlink:href="#linearGradient7739"
       id="l"
       gradientUnits="userSpaceOnUse"
       gradientTransform="matrix(2.92579,0,0,2.9282,201.838,201.731)"
       x1="-50.187469"
       y1="-65.477425"
       x2="-50.187469"
       y2="-29.619221" />
    <linearGradient
       xlink:href="#c"
       id="m"
       gradientUnits="userSpaceOnUse"
       gradientTransform="matrix(2.92579,0,0,2.9282,201.838,201.731)"
       x1="23.981"
       y1="23.144"
       x2="45.855"
       y2="45" />
    <linearGradient
       xlink:href="#c"
       id="n"
       gradientUnits="userSpaceOnUse"
       gradientTransform="matrix(2.92579,0,0,2.9282,201.838,201.731)"
       x1="23.981"
       y1="23.144"
       x2="2.106"
       y2="45" />
    <linearGradient
       xlink:href="#c"
       id="o"
       gradientUnits="userSpaceOnUse"
       gradientTransform="matrix(2.92579,0,0,2.9282,201.838,201.731)"
       x1="23.981"
       y1="23.144"
       x2="45.855"
       y2="1.287" />
    <linearGradient
       xlink:href="#c"
       id="p"
       gradientUnits="userSpaceOnUse"
       gradientTransform="matrix(2.92579,0,0,2.9282,201.838,201.731)"
       x1="23.981"
       y1="23.144"
       x2="2.106"
       y2="1.287" />
    <linearGradient
       gradientTransform="matrix(1.33333,0,0,1.33333,58.667,56.167)"
       xlink:href="#f"
       id="q"
       x1="127"
       y1="120.5"
       x2="169"
       y2="120.5"
       gradientUnits="userSpaceOnUse" />
    <linearGradient
       gradientTransform="matrix(1.33333,0,0,1.33333,58.667,56.167)"
       xlink:href="#g"
       id="r"
       x1="166"
       y1="133.472"
       x2="193"
       y2="133.472"
       gradientUnits="userSpaceOnUse" />
    <linearGradient
       xlink:href="#b"
       id="s"
       gradientUnits="userSpaceOnUse"
       gradientTransform="matrix(3.34375,0,0,2.9282,188.009,201.41)"
       x1="33.094"
       y1="10.504"
       x2="29.904"
       y2="14.147" />
    <linearGradient
       id="h">
      <stop
         offset="0"
         stop-opacity="0"
         id="stop2490" />
      <stop
         offset="1"
         stop-opacity=".083"
         id="stop2492" />
    </linearGradient>
    <linearGradient
       gradientTransform="matrix(2,0,0,1.98214,-232.063,-258.75)"
       xlink:href="#h"
       id="t"
       x1="127"
       y1="161.5"
       x2="148.031"
       y2="161.5"
       gradientUnits="userSpaceOnUse" />
    <linearGradient
       gradientTransform="matrix(1.33333,0,0,1.33333,58.667,56.166998)"
       xlink:href="#a-8"
       id="f-1"
       x1="125"
       y1="161.5"
       x2="195"
       y2="161.5"
       gradientUnits="userSpaceOnUse" />
    <linearGradient
       id="a-8"
       osb:paint="solid">
      <stop
         offset="0"
         stop-opacity=".078"
         style="stop-color:#000000;stop-opacity:0.11;"
         id="stop15" />
    </linearGradient>
    <linearGradient
       xlink:href="#e-9"
       id="g-7"
       x1="71"
       y1="114"
       x2="46"
       y2="32"
       gradientUnits="userSpaceOnUse" />
    <linearGradient
       id="e-9">
      <stop
         style="stop-color:#dadada;stop-opacity:1;"
         offset="0"
         id="stop2" />
      <stop
         style="stop-color:#e9e9e9;stop-opacity:1;"
         offset="0.50999999"
         id="stop4" />
      <stop
         style="stop-color:#f0f0f0;stop-opacity:1;"
         offset="1"
         id="stop6" />
    </linearGradient>
    <linearGradient
       xlink:href="#d-3"
       id="j-2"
       gradientUnits="userSpaceOnUse"
       gradientTransform="matrix(3.34375,0,0,2.9282,-19.991,-6.59)"
       x1="29.792999"
       y1="15.279"
       x2="33.865002"
       y2="11.077" />
    <linearGradient
       id="d-3">
      <stop
         offset="0"
         stop-color="#fff"
         id="stop18" />
      <stop
         offset="1"
         stop-color="#dfdfdf"
         id="stop20" />
    </linearGradient>
    <linearGradient
       inkscape:collect="always"
       xlink:href="#a-8"
       id="linearGradient2850"
       gradientUnits="userSpaceOnUse"
       gradientTransform="matrix(1.33333,0,0,1.33333,58.667,56.166998)"
       x1="125"
       y1="161.5"
       x2="195"
       y2="161.5" />
    <linearGradient
       inkscape:collect="always"
       xlink:href="#g"
       id="linearGradient2852"
       gradientUnits="userSpaceOnUse"
       gradientTransform="matrix(1.33333,0,0,1.33333,-149.333,-151.83293)"
       x1="166"
       y1="133.472"
       x2="193"
       y2="133.472" />
  </defs>
  <path
     style="vector-effect:none;fill:url(#linearGradient2850);fill-rule:evenodd;marker:none;paint-order:fill markers stroke;stop-color:#000000"
     d="m 26,6 h 50 l 34,33.999998 v 73.000072 c 0,4.432 -3.568,8 -8,8 H 26 c -4.432,0 -8,-3.568 -8,-8 V 13.999999 C 18,9.5679988 21.568,6 26,6 Z"
     id="path1311"
     sodipodi:nodetypes="sccssssss" />
  <path
     style="vector-effect:none;fill:url(#f-1);fill-rule:evenodd;marker:none;paint-order:fill markers stroke;stop-color:#000000"
     d="m 27,7 h 49 l 33,32.999998 v 72.000072 c 0,4.432 -3.568,8 -8,8 H 27 c -4.432,0 -8,-3.568 -8,-8 V 14.999999 C 19,10.567999 22.568,7 27,7 Z"
     id="path30" />
  <path
     style="font-variation-settings:normal;vector-effect:none;fill:url(#l);fill-opacity:1;fill-rule:evenodd;stroke-width:1;stroke-linecap:butt;stroke-linejoin:miter;stroke-miterlimit:4;stroke-dasharray:none;stroke-dashoffset:0;stroke-opacity:1;-inkscape-stroke:none;marker:none;paint-order:fill markers stroke;stop-color:#000000"
     d="m 28,8 h 48 l 32,31.999999 v 71.000071 c 0,4.432 -3.568,8 -8,8 H 28 c -4.432,0 -8,-3.568 -8,-8 V 15.999999 C 20,11.567999 23.568,8 28,8 Z"
     id="path32" />
  <path
     style="isolation:auto;mix-blend-mode:normal;fill:#ffffff;fill-opacity:0.52680665;marker:none"
     d="M 27,8 H 76 V 8.9999992 H 24 A 15.031,15.031 0 0 1 27,8 Z"
     color="#000000"
     display="block"
     overflow="visible"
     fill="url(#h)"
     paint-order="fill markers stroke"
     id="path34" />
  <path
     d="m 76,8 31.968,31.965998 -29.908,3.457 c 0,0 -5.312,0.403 -5.224,-5.356 z"
     fill="url(#i)"
     fill-rule="evenodd"
     style="display:inline;fill:url(#linearGradient2852)"
     id="path36" />
  <path
     d="m 76,8 32,31.999998 H 81.024 c 0,0 -5.024,0.042 -5.024,-6.084 z"
     fill="url(#j)"
     fill-rule="evenodd"
     style="fill:url(#j-2)"
     id="path38" />
  <path
     style="isolation:auto;mix-blend-mode:normal;fill:url(#t);marker:none"
     d="M 20,15 C 21.332465,9.8908965 24.051049,8.6260011 27,8 H 64 V 119 H 28 c -5.640796,0.0234 -8,-5 -8,-8 z"
     color="#000000"
     overflow="visible"
     fill="url(#t)"
     paint-order="fill markers stroke"
     id="path2518"
     sodipodi:nodetypes="ccccccc" />
  <path
     style="isolation:auto;mix-blend-mode:normal;marker:none"
     d="m 38.006,102.005 v -1.33 c 0,-0.736 0.593,-1.33 1.33,-1.33 h 10.348 c 0.737,0 1.33,0.594 1.33,1.33 v 1.33 c 0,0.737 -0.593,1.004 -1.33,1.004 H 39.336 c -0.737,0 -1.33,-0.267 -1.33,-1.004 z"
     color="#000000"
     display="block"
     overflow="visible"
     fill-opacity="0.208"
     id="path2520" />
  <path
     style="isolation:auto;mix-blend-mode:normal;marker:none"
     d="M 38.006,100.675 V 76.332 c 0,-0.737 0.593,-1.33 1.33,-1.33 h 10.348 c 0.737,0 1.33,0.593 1.33,1.33 v 24.343 c 0,0.737 -0.593,1.33 -1.33,1.33 H 39.336 c -0.737,0 -1.33,-0.593 -1.33,-1.33 z"
     color="#000000"
     display="block"
     overflow="visible"
     fill="#ffffff"
     fill-opacity="0.979"
     id="path2522" />
  <path
     style="isolation:auto;mix-blend-mode:normal;marker:none"
     d="m 56.999,102.004 v -1.327 c 0,-0.738 0.594,-1.332 1.331,-1.332 h 10.342 c 0.737,0 1.331,0.594 1.331,1.332 v 1.327 c 0,0.737 -0.594,1.005 -1.331,1.005 H 58.33 c -0.737,0 -1.331,-0.268 -1.331,-1.005 z"
     color="#000000"
     display="block"
     overflow="visible"
     fill-opacity="0.208"
     id="path2524" />
  <path
     style="isolation:auto;mix-blend-mode:normal;marker:none"
     d="m 56.999,100.675 v -34.34 c 0,-0.738 0.593,-1.33 1.33,-1.33 h 10.344 c 0.737,0 1.33,0.592 1.33,1.33 v 34.34 c 0,0.737 -0.593,1.33 -1.33,1.33 H 58.33 c -0.737,0 -1.33,-0.593 -1.33,-1.33 z"
     color="#000000"
     display="block"
     overflow="visible"
     fill="#ffffff"
     fill-opacity="0.979"
     id="path2526" />
  <path
     style="isolation:auto;mix-blend-mode:normal;marker:none"
     d="m 76.993,102.005 v -1.33 c 0,-0.736 0.594,-1.33 1.33,-1.33 H 88.67 c 0.737,0 1.33,0.594 1.33,1.33 v 1.33 c 0,0.737 -0.593,1.004 -1.33,1.004 H 78.323 c -0.736,0 -1.33,-0.267 -1.33,-1.004 z"
     color="#000000"
     display="block"
     overflow="visible"
     fill-opacity="0.208"
     id="path2528" />
  <path
     style="isolation:auto;mix-blend-mode:normal;marker:none"
     d="M 76.993,100.675 V 55.33 c 0,-0.737 0.594,-1.33 1.33,-1.33 H 88.67 c 0.737,0 1.33,0.593 1.33,1.33 v 45.345 c 0,0.737 -0.593,1.33 -1.33,1.33 H 78.323 c -0.736,0 -1.33,-0.593 -1.33,-1.33 z"
     color="#000000"
     display="block"
     overflow="visible"
     fill="#fafafa"
     id="path2530" />
</svg>
