<?xml version="1.0" encoding="UTF-8" standalone="no"?>
<svg
   height="128"
   viewBox="0 0 128 128"
   width="128"
   enable-background="new"
   version="1.1"
   id="svg85"
   sodipodi:docname="audio-x-generic.svg"
   inkscape:version="1.2.2 (b0a8486541, 2022-12-01)"
   xmlns:inkscape="http://www.inkscape.org/namespaces/inkscape"
   xmlns:sodipodi="http://sodipodi.sourceforge.net/DTD/sodipodi-0.dtd"
   xmlns:xlink="http://www.w3.org/1999/xlink"
   xmlns="http://www.w3.org/2000/svg"
   xmlns:svg="http://www.w3.org/2000/svg"
   xmlns:osb="http://www.openswatchbook.org/uri/2009/osb">
  <sodipodi:namedview
     id="namedview87"
     pagecolor="#ffffff"
     bordercolor="#000000"
     borderopacity="0.25"
     inkscape:showpageshadow="2"
     inkscape:pageopacity="0.0"
     inkscape:pagecheckerboard="0"
     inkscape:deskcolor="#d1d1d1"
     showgrid="true"
     inkscape:zoom="4.540226"
     inkscape:cx="25.879769"
     inkscape:cy="37.222817"
     inkscape:window-width="2400"
     inkscape:window-height="1281"
     inkscape:window-x="1920"
     inkscape:window-y="32"
     inkscape:window-maximized="1"
     inkscape:current-layer="svg85">
    <inkscape:grid
       type="xygrid"
       id="grid581" />
  </sodipodi:namedview>
  <title
     id="title2">Template icons dark</title>
  <defs
     id="defs47">
    <linearGradient
       id="h"
       osb:paint="solid">
      <stop
         offset="0"
         stop-color="#44e6b4"
         id="stop4" />
    </linearGradient>
    <linearGradient
       id="g"
       osb:paint="solid">
      <stop
         offset="0"
         stop-opacity=".196"
         id="stop7" />
    </linearGradient>
    <linearGradient
       id="f"
       osb:paint="solid">
      <stop
         offset="0"
         stop-color="#fff"
         stop-opacity=".469"
         id="stop10" />
    </linearGradient>
    <linearGradient
       id="e"
       osb:paint="solid">
      <stop
         offset="0"
         stop-opacity=".078"
         id="stop13" />
    </linearGradient>
    <linearGradient
       id="d"
       osb:paint="solid">
      <stop
         offset="0"
         stop-opacity=".157"
         id="stop16" />
    </linearGradient>
    <linearGradient
       id="b">
      <stop
         offset="0"
         stop-color="#92cbd1"
         id="stop19" />
      <stop
         offset="1"
         stop-color="#41bda9"
         id="stop21" />
    </linearGradient>
    <linearGradient
       id="a">
      <stop
         offset="0"
         stop-color="#44e9b3"
         id="stop24" />
      <stop
         offset="1"
         stop-color="#43a8ce"
         id="stop26" />
    </linearGradient>
    <linearGradient
       id="c">
      <stop
         offset="0"
         stop-opacity="0"
         id="stop29" />
      <stop
         offset="1"
         stop-opacity=".102"
         id="stop31" />
    </linearGradient>
    <linearGradient
       gradientTransform="matrix(1.33333,0,0,1.33333,58.667,56.167)"
       xlink:href="#e"
       id="i"
       x1="125"
       y1="161.5"
       x2="195"
       y2="161.5"
       gradientUnits="userSpaceOnUse" />
    <linearGradient
       gradientTransform="matrix(1.33333,0,0,1.33333,58.667,56.167)"
       xlink:href="#d"
       id="j"
       x1="126"
       y1="161.5"
       x2="194"
       y2="161.5"
       gradientUnits="userSpaceOnUse" />
    <linearGradient
       xlink:href="#a"
       id="k"
       gradientUnits="userSpaceOnUse"
       gradientTransform="matrix(2.92579,0,0,2.9282,201.838,201.731)"
       x1="24.117"
       y1="4.931"
       x2="24.058"
       y2="42.556" />
    <linearGradient
       xlink:href="#c"
       id="l"
       gradientUnits="userSpaceOnUse"
       gradientTransform="matrix(2.92579,0,0,2.9282,201.838,201.731)"
       x1="23.981"
       y1="23.144"
       x2="45.855"
       y2="45" />
    <linearGradient
       xlink:href="#c"
       id="m"
       gradientUnits="userSpaceOnUse"
       gradientTransform="matrix(2.92579,0,0,2.9282,201.838,201.731)"
       x1="23.981"
       y1="23.144"
       x2="2.106"
       y2="45" />
    <linearGradient
       xlink:href="#c"
       id="n"
       gradientUnits="userSpaceOnUse"
       gradientTransform="matrix(2.92579,0,0,2.9282,201.838,201.731)"
       x1="23.981"
       y1="23.144"
       x2="45.855"
       y2="1.287" />
    <linearGradient
       xlink:href="#c"
       id="o"
       gradientUnits="userSpaceOnUse"
       gradientTransform="matrix(2.92579,0,0,2.9282,201.838,201.731)"
       x1="23.981"
       y1="23.144"
       x2="2.106"
       y2="1.287" />
    <linearGradient
       gradientTransform="matrix(1.33333,0,0,1.33333,58.667,56.167)"
       xlink:href="#f"
       id="p"
       x1="127"
       y1="120.5"
       x2="169"
       y2="120.5"
       gradientUnits="userSpaceOnUse" />
    <linearGradient
       gradientTransform="matrix(1.33333,0,0,1.33333,58.667,56.167)"
       xlink:href="#g"
       id="q"
       x1="166"
       y1="133.472"
       x2="193"
       y2="133.472"
       gradientUnits="userSpaceOnUse" />
    <linearGradient
       xlink:href="#b"
       id="r"
       gradientUnits="userSpaceOnUse"
       gradientTransform="matrix(3.34375,0,0,2.9282,188.009,201.41)"
       x1="33.094"
       y1="10.504"
       x2="29.904"
       y2="14.147" />
    <filter
       id="s"
       x="-0.073470632"
       width="1.1449396"
       y="-0.85591888"
       height="2.7132565"
       color-interpolation-filters="sRGB">
      <feGaussianBlur
         stdDeviation="1.712"
         id="feGaussianBlur44" />
    </filter>
    <linearGradient
       gradientTransform="matrix(1.33333,0,0,1.33333,58.832081,56.167)"
       xlink:href="#a-6"
       id="f-3"
       x1="125"
       y1="161.5"
       x2="195"
       y2="161.5"
       gradientUnits="userSpaceOnUse" />
    <linearGradient
       id="a-6"
       osb:paint="solid">
      <stop
         offset="0"
         stop-opacity=".078"
         style="stop-color:#000000;stop-opacity:0.11;"
         id="stop15" />
    </linearGradient>
    <linearGradient
       xlink:href="#e-5"
       id="g-7"
       x1="46"
       y1="115"
       x2="46"
       y2="32"
       gradientUnits="userSpaceOnUse"
       gradientTransform="translate(0.1650814)" />
    <linearGradient
       id="e-5">
      <stop
         style="stop-color:#3d9cbc;stop-opacity:1;"
         offset="0"
         id="stop2" />
      <stop
         style="stop-color:#3fd5a6;stop-opacity:1;"
         offset="1"
         id="stop6" />
    </linearGradient>
    <linearGradient
       xlink:href="#d-9"
       id="j-2"
       gradientUnits="userSpaceOnUse"
       gradientTransform="matrix(3.34375,0,0,2.9282,-19.825919,-6.59)"
       x1="29.792999"
       y1="15.279"
       x2="33.865002"
       y2="11.077" />
    <linearGradient
       id="d-9">
      <stop
         offset="0"
         stop-color="#fff"
         id="stop18" />
      <stop
         offset="1"
         stop-color="#dfdfdf"
         id="stop20" />
    </linearGradient>
    <linearGradient
       inkscape:collect="always"
       xlink:href="#a-6"
       id="linearGradient660"
       gradientUnits="userSpaceOnUse"
       gradientTransform="matrix(1.33333,0,0,1.33333,58.832081,56.167)"
       x1="125"
       y1="161.5"
       x2="195"
       y2="161.5" />
    <linearGradient
       inkscape:collect="always"
       xlink:href="#g"
       id="linearGradient662"
       gradientUnits="userSpaceOnUse"
       gradientTransform="matrix(1.33333,0,0,1.33333,-149.16792,-151.833)"
       x1="166"
       y1="133.472"
       x2="193"
       y2="133.472" />
  </defs>
  <g
     id="g676">
    <path
       style="vector-effect:none;fill:url(#linearGradient660);fill-rule:evenodd;marker:none;paint-order:fill markers stroke;stop-color:#000000"
       d="m 26.165081,6 h 50 l 33.999999,34 v 73 c 0,4.432 -3.568,8 -8,8 H 26.165081 c -4.432,0 -8,-3.568 -8,-8 V 14 c 0,-4.432 3.568,-8 8,-8 z"
       id="path1311"
       sodipodi:nodetypes="sccssssss" />
    <path
       style="vector-effect:none;fill:url(#f-3);fill-rule:evenodd;marker:none;paint-order:fill markers stroke;stop-color:#000000"
       d="m 27.165081,7 h 49 l 32.999999,33 v 72 c 0,4.432 -3.568,8 -8,8 H 27.165081 c -4.432,0 -8,-3.568 -8,-8 V 15 c 0,-4.432 3.568,-8 8,-8 z"
       id="path30" />
    <path
       style="vector-effect:none;fill:url(#g-7);fill-rule:evenodd;marker:none;paint-order:fill markers stroke;stop-color:#000000"
       d="m 28.165081,8 h 48 l 31.999999,32 v 71 c 0,4.432 -3.568,8 -8,8 H 28.165081 c -4.432,0 -8,-3.568 -8,-8 V 16 c 0,-4.432 3.568,-8 8,-8 z"
       id="path32" />
    <path
       style="isolation:auto;mix-blend-mode:normal;fill:#ffffff;fill-opacity:0.32923439;marker:none"
       d="m 27.165081,8 h 49 v 1 h -52 a 15.031,15.031 0 0 1 3,-1 z"
       color="#000000"
       display="block"
       overflow="visible"
       fill="url(#h)"
       paint-order="fill markers stroke"
       id="path34" />
    <path
       d="m 76.165081,8 31.967999,31.966 -29.907999,3.457 c 0,0 -5.312,0.403 -5.224,-5.356 z"
       fill="url(#i)"
       fill-rule="evenodd"
       style="display:inline;fill:url(#linearGradient662)"
       id="path36" />
    <path
       d="M 76.165081,8 108.16508,40 H 81.189081 c 0,0 -5.024,0.042 -5.024,-6.084 z"
       fill="url(#j)"
       fill-rule="evenodd"
       style="fill:url(#j-2)"
       id="path38" />
  </g>
  <g
     id="g720"
     style="display:inline">
    <path
       d="m 126.921,163.017 c 0,0 8.084,-9.1 16.303,-9.1 8.22,0 24.66,14.802 32.88,14.802 8.22,0 16.917,-5.702 16.917,-5.702"
       transform="matrix(1.26035,0,0,1.40825,-137.675,-157.894)"
       fill="none"
       stroke="#ffffff"
       stroke-width="2"
       filter="url(#s)"
       id="path69" />
    <path
       transform="matrix(1.22916,0,0,1.41738,-132.679,-152.733)"
       d="m 126.134,163.016 c 0,0 23.19,-11.51 34.923,-10.787 11.735,0.723 17.11,12.51 22.727,12.39 5.616,-0.12 9.54,-3.894 9.54,-3.894"
       fill="none"
       stroke="#ffffff"
       stroke-width="2"
       filter="url(#s)"
       id="path73" />
    <path
       d="m 126.134,163.016 c 0,0 37.626,-12.067 47.42,-10.184 9.794,1.883 11.88,9.255 19.77,7.893"
       transform="matrix(1.23452,0,0,1.41789,-133.236,-152.802)"
       fill="none"
       stroke="#ffffff"
       stroke-width="2"
       filter="url(#s)"
       id="path77" />
    <path
       d="m 20.354,71.302 c 0,0 9.544,-12.148 20.981,-12.148 11.437,0 34.311,20.595 45.748,20.595 11.437,0 19.777,-6.554 19.777,-6.554"
       fill="none"
       stroke="#ffffff"
       stroke-width="1.391"
       stroke-opacity="0.518"
       id="path71" />
    <path
       d="m 19.845,78.243 c 0,0 30.073,-16.113 45.291,-15.101 15.218,1.013 22.19,17.515 29.473,17.346 7.284,-0.169 12.374,-5.452 12.374,-5.452"
       fill="none"
       stroke="#ffffff"
       stroke-width="1.391"
       stroke-opacity="0.366"
       id="path75" />
    <path
       d="m 19.845,78.243 c 0,0 48.178,-16.536 60.484,-13.75 12.307,2.785 11.766,8.678 26.654,10.543"
       fill="none"
       stroke="#ffffff"
       stroke-width="1.391"
       stroke-opacity="0.366"
       id="path79" />
    <path
       transform="matrix(1.2259,0,0,1.42615,-132.106,-154.277)"
       d="m 126.134,163.016 c 0,0 16.799,-2.421 25.421,-1.382 8.623,1.04 32.187,11.064 42.29,1.864"
       fill="none"
       stroke="#ffffff"
       stroke-width="2"
       filter="url(#s)"
       id="path81" />
    <path
       d="m 19.845,78.243 c 0,0 19.502,-2.346 32.968,-1.934 13.466,0.412 34.427,14.21 54.338,3.285"
       fill="none"
       stroke="#ffffff"
       stroke-width="1.391"
       stroke-opacity="0.366"
       id="path83" />
  </g>
</svg>
