<?xml version="1.0" encoding="UTF-8" standalone="no"?>
<svg
   height="128"
   viewBox="0 0 128 128"
   width="128"
   version="1.1"
   id="svg30"
   sodipodi:docname="image-loading.svg"
   inkscape:version="1.2.2 (b0a8486541, 2022-12-01)"
   xmlns:inkscape="http://www.inkscape.org/namespaces/inkscape"
   xmlns:sodipodi="http://sodipodi.sourceforge.net/DTD/sodipodi-0.dtd"
   xmlns="http://www.w3.org/2000/svg"
   xmlns:svg="http://www.w3.org/2000/svg"
   xmlns:rdf="http://www.w3.org/1999/02/22-rdf-syntax-ns#"
   xmlns:cc="http://creativecommons.org/ns#"
   xmlns:dc="http://purl.org/dc/elements/1.1/">
  <sodipodi:namedview
     id="namedview32"
     pagecolor="#ffffff"
     bordercolor="#000000"
     borderopacity="0.25"
     inkscape:showpageshadow="2"
     inkscape:pageopacity="0.0"
     inkscape:pagecheckerboard="0"
     inkscape:deskcolor="#d1d1d1"
     showgrid="false"
     inkscape:zoom="8.0234375"
     inkscape:cx="52.969815"
     inkscape:cy="63.937683"
     inkscape:window-width="2400"
     inkscape:window-height="1281"
     inkscape:window-x="1920"
     inkscape:window-y="32"
     inkscape:window-maximized="1"
     inkscape:current-layer="svg30" />
  <title
     id="title2">Template icons dark</title>
  <defs
     id="defs14">
    <linearGradient
       id="b">
      <stop
         offset="0"
         stop-color="#c4e0f4"
         stop-opacity=".26"
         id="stop4" />
      <stop
         offset="1"
         stop-color="#75c3ef"
         stop-opacity=".24"
         id="stop6" />
    </linearGradient>
    <linearGradient
       id="a">
      <stop
         offset="0"
         stop-color="#a8bac0"
         id="stop9" />
      <stop
         offset="1"
         stop-color="#52737e"
         id="stop11" />
    </linearGradient>
  </defs>
  <path
     id="circle16"
     style="display:block;overflow:visible;fill-opacity:0.078;marker:none;paint-order:fill markers stroke"
     d="m 70,65 a 6,6 0 0 1 -6,6 6,6 0 0 1 -6,-6 6,6 0 0 1 6,-6 6,6 0 0 1 6,6 z" />
  <path
     id="circle18"
     style="display:block;overflow:visible;fill-opacity:0.078;marker:none;paint-order:fill markers stroke"
     d="m 90,65 a 6,6 0 0 1 -6,6 6,6 0 0 1 -6,-6 6,6 0 0 1 6,-6 6,6 0 0 1 6,6 z" />
  <path
     id="circle20"
     style="display:block;overflow:visible;fill-opacity:0.078;marker:none;paint-order:fill markers stroke"
     d="m 50,65 a 6,6 0 0 1 -6,6 6,6 0 0 1 -6,-6 6,6 0 0 1 6,-6 6,6 0 0 1 6,6 z" />
  <path
     id="circle22"
     style="display:block;overflow:visible;fill:#a6a6a6;marker:none;paint-order:fill markers stroke"
     d="m 70,64 a 6,6 0 0 1 -6,6 6,6 0 0 1 -6,-6 6,6 0 0 1 6,-6 6,6 0 0 1 6,6 z" />
  <path
     id="circle24"
     style="display:block;overflow:visible;fill:#bfbfbf;marker:none;paint-order:fill markers stroke"
     d="m 90,64 a 6,6 0 0 1 -6,6 6,6 0 0 1 -6,-6 6,6 0 0 1 6,-6 6,6 0 0 1 6,6 z" />
  <path
     id="circle26"
     style="display:block;overflow:visible;fill:#828282;marker:none;paint-order:fill markers stroke"
     d="m 50,64 a 6,6 0 0 1 -6,6 6,6 0 0 1 -6,-6 6,6 0 0 1 6,-6 6,6 0 0 1 6,6 z" />
  <metadata
     id="metadata157">
    <rdf:RDF>
      <cc:Work
         rdf:about="">
        <dc:title>Template icons dark</dc:title>
      </cc:Work>
    </rdf:RDF>
  </metadata>
</svg>
