<?xml version="1.0" encoding="UTF-8" standalone="no"?>
<svg
   height="128"
   viewBox="0 0 128 128"
   width="128"
   version="1.1"
   id="svg191"
   sodipodi:docname="package-x-generic.svg"
   inkscape:version="1.2.2 (b0a8486541, 2022-12-01)"
   xmlns:inkscape="http://www.inkscape.org/namespaces/inkscape"
   xmlns:sodipodi="http://sodipodi.sourceforge.net/DTD/sodipodi-0.dtd"
   xmlns:xlink="http://www.w3.org/1999/xlink"
   xmlns="http://www.w3.org/2000/svg"
   xmlns:svg="http://www.w3.org/2000/svg"
   xmlns:osb="http://www.openswatchbook.org/uri/2009/osb">
  <sodipodi:namedview
     id="namedview193"
     pagecolor="#ffffff"
     bordercolor="#000000"
     borderopacity="0.25"
     inkscape:showpageshadow="2"
     inkscape:pageopacity="0.0"
     inkscape:pagecheckerboard="0"
     inkscape:deskcolor="#d1d1d1"
     showgrid="true"
     inkscape:zoom="11.90038"
     inkscape:cx="53.275608"
     inkscape:cy="47.477474"
     inkscape:window-width="2560"
     inkscape:window-height="1371"
     inkscape:window-x="0"
     inkscape:window-y="32"
     inkscape:window-maximized="1"
     inkscape:current-layer="g1698">
    <inkscape:grid
       type="xygrid"
       id="grid1608" />
  </sodipodi:namedview>
  <title
     id="title2">Template icons dark</title>
  <defs
     id="defs117">
    <linearGradient
       id="q"
       osb:paint="solid">
      <stop
         offset="0"
         stop-color="#afafaf"
         id="stop4" />
    </linearGradient>
    <linearGradient
       id="m">
      <stop
         offset="0"
         stop-color="#707070"
         id="stop7" />
      <stop
         offset="1"
         stop-color="#fff"
         id="stop9" />
    </linearGradient>
    <linearGradient
       id="l">
      <stop
         offset="0"
         stop-color="#c1c1c1"
         id="stop12" />
      <stop
         offset="1"
         stop-color="#9f9f9f"
         id="stop14" />
    </linearGradient>
    <linearGradient
       id="j">
      <stop
         offset="0"
         stop-color="#dfdfdf"
         id="stop17" />
      <stop
         offset=".489"
         stop-color="#aeaeae"
         stop-opacity=".459"
         id="stop19" />
      <stop
         offset="1"
         stop-color="#dfdfdf"
         id="stop21" />
    </linearGradient>
    <linearGradient
       id="h"
       osb:paint="solid">
      <stop
         offset="0"
         stop-opacity=".196"
         id="stop24" />
    </linearGradient>
    <linearGradient
       id="g"
       osb:paint="solid">
      <stop
         offset="0"
         stop-color="#fff"
         stop-opacity=".307"
         id="stop27" />
    </linearGradient>
    <linearGradient
       id="f"
       osb:paint="solid">
      <stop
         offset="0"
         stop-opacity=".078"
         id="stop30" />
    </linearGradient>
    <linearGradient
       id="e"
       osb:paint="solid">
      <stop
         offset="0"
         stop-opacity=".157"
         id="stop33" />
    </linearGradient>
    <linearGradient
       id="b">
      <stop
         offset="0"
         stop-color="#fff"
         id="stop36" />
      <stop
         offset="1"
         stop-color="#dfdfdf"
         id="stop38" />
    </linearGradient>
    <linearGradient
       id="a">
      <stop
         offset="0"
         stop-color="#f0f0f0"
         id="stop41" />
      <stop
         offset="1"
         stop-color="#fff"
         id="stop43" />
    </linearGradient>
    <linearGradient
       id="d">
      <stop
         offset="0"
         stop-color="#fff"
         stop-opacity=".046"
         id="stop46" />
      <stop
         offset="1"
         stop-color="#fff"
         stop-opacity=".059"
         id="stop48" />
    </linearGradient>
    <linearGradient
       id="c">
      <stop
         offset="0"
         stop-opacity="0"
         id="stop51" />
      <stop
         offset="1"
         stop-opacity=".102"
         id="stop53" />
    </linearGradient>
    <linearGradient
       gradientTransform="translate(58.667 56.167) scale(1.33333)"
       xlink:href="#f"
       id="r"
       x1="125"
       y1="161.5"
       x2="195"
       y2="161.5"
       gradientUnits="userSpaceOnUse" />
    <linearGradient
       gradientTransform="translate(58.667 56.167) scale(1.33333)"
       xlink:href="#e"
       id="s"
       x1="126"
       y1="161.5"
       x2="194"
       y2="161.5"
       gradientUnits="userSpaceOnUse" />
    <linearGradient
       xlink:href="#a"
       id="t"
       gradientUnits="userSpaceOnUse"
       gradientTransform="matrix(2.92579 0 0 2.9282 201.838 201.731)"
       x1="24.117"
       y1="4.931"
       x2="24.058"
       y2="42.556" />
    <linearGradient
       xlink:href="#c"
       id="u"
       gradientUnits="userSpaceOnUse"
       gradientTransform="matrix(2.92579 0 0 2.9282 201.838 201.731)"
       x1="23.981"
       y1="23.144"
       x2="45.855"
       y2="45" />
    <linearGradient
       xlink:href="#c"
       id="v"
       gradientUnits="userSpaceOnUse"
       gradientTransform="matrix(2.92579 0 0 2.9282 201.838 201.731)"
       x1="23.981"
       y1="23.144"
       x2="2.106"
       y2="45" />
    <linearGradient
       xlink:href="#c"
       id="w"
       gradientUnits="userSpaceOnUse"
       gradientTransform="matrix(2.92579 0 0 2.9282 201.838 201.731)"
       x1="23.981"
       y1="23.144"
       x2="45.855"
       y2="1.287" />
    <linearGradient
       xlink:href="#c"
       id="x"
       gradientUnits="userSpaceOnUse"
       gradientTransform="matrix(2.92579 0 0 2.9282 201.838 201.731)"
       x1="23.981"
       y1="23.144"
       x2="2.106"
       y2="1.287" />
    <linearGradient
       gradientTransform="translate(58.667 56.167) scale(1.33333)"
       xlink:href="#g"
       id="y"
       x1="127"
       y1="120.5"
       x2="169"
       y2="120.5"
       gradientUnits="userSpaceOnUse" />
    <linearGradient
       gradientTransform="matrix(1.33333,0,0,1.33333,-148.77214,-152.01849)"
       xlink:href="#h"
       id="z"
       x1="166"
       y1="133.472"
       x2="193"
       y2="133.472"
       gradientUnits="userSpaceOnUse" />
    <linearGradient
       xlink:href="#b"
       id="A"
       gradientUnits="userSpaceOnUse"
       gradientTransform="matrix(3.34375 0 0 2.9282 188.009 201.41)"
       x1="33.094"
       y1="10.504"
       x2="29.904"
       y2="14.147" />
    <linearGradient
       id="i">
      <stop
         offset="0"
         stop-color="#dfdfdf"
         id="stop66" />
      <stop
         offset=".489"
         stop-color="silver"
         stop-opacity=".459"
         id="stop68" />
      <stop
         offset="1"
         stop-color="#dfdfdf"
         id="stop70" />
    </linearGradient>
    <linearGradient
       id="k">
      <stop
         offset="0"
         stop-color="#2e2e2e"
         id="stop73" />
      <stop
         offset="1"
         stop-color="#b7b7b7"
         id="stop75" />
    </linearGradient>
    <linearGradient
       id="n">
      <stop
         offset="0"
         stop-color="#444"
         id="stop78" />
      <stop
         offset="1"
         stop-color="#ececec"
         id="stop80" />
    </linearGradient>
    <linearGradient
       id="o">
      <stop
         offset="0"
         stop-color="#737373"
         id="stop83" />
      <stop
         offset="1"
         stop-color="#eee"
         id="stop85" />
    </linearGradient>
    <linearGradient
       id="p">
      <stop
         offset="0"
         stop-color="#a7a7a7"
         id="stop88" />
      <stop
         offset=".505"
         stop-color="#5b5b5b"
         id="stop90" />
      <stop
         offset="1"
         stop-color="#303030"
         id="stop92" />
    </linearGradient>
    <linearGradient
       xlink:href="#i"
       id="E"
       x1="155.296"
       y1="153.204"
       x2="165.174"
       y2="153.204"
       gradientUnits="userSpaceOnUse" />
    <linearGradient
       xlink:href="#n"
       id="B"
       gradientUnits="userSpaceOnUse"
       gradientTransform="matrix(1.07772 0 0 .90037 -12.594 9.605)"
       x1="158.822"
       y1="98.639"
       x2="158.822"
       y2="88.728" />
    <linearGradient
       xlink:href="#o"
       id="C"
       gradientUnits="userSpaceOnUse"
       gradientTransform="matrix(.84789 0 0 .84296 23.882 13.537)"
       x1="160.167"
       y1="110.428"
       x2="160.167"
       y2="94.122" />
    <linearGradient
       xlink:href="#p"
       id="D"
       gradientUnits="userSpaceOnUse"
       gradientTransform="matrix(.75437 0 0 .75437 38.724 23.007)"
       x1="158.671"
       y1="97.368"
       x2="158.671"
       y2="90.163" />
    <linearGradient
       xlink:href="#i"
       id="F"
       gradientUnits="userSpaceOnUse"
       x1="155.296"
       y1="153.204"
       x2="165.174"
       y2="153.204" />
    <linearGradient
       xlink:href="#i"
       id="G"
       gradientUnits="userSpaceOnUse"
       x1="155.296"
       y1="153.204"
       x2="165.174"
       y2="153.204" />
    <linearGradient
       xlink:href="#i"
       id="H"
       gradientUnits="userSpaceOnUse"
       x1="155.296"
       y1="153.204"
       x2="165.174"
       y2="153.204" />
    <linearGradient
       xlink:href="#i"
       id="I"
       gradientUnits="userSpaceOnUse"
       x1="155.296"
       y1="153.204"
       x2="165.174"
       y2="153.204" />
    <linearGradient
       xlink:href="#i"
       id="J"
       gradientUnits="userSpaceOnUse"
       gradientTransform="translate(0 -.184)"
       x1="155.296"
       y1="153.204"
       x2="165.174"
       y2="153.204" />
    <linearGradient
       xlink:href="#i"
       id="K"
       gradientUnits="userSpaceOnUse"
       x1="155.296"
       y1="153.204"
       x2="165.174"
       y2="153.204" />
    <linearGradient
       xlink:href="#i"
       id="L"
       gradientUnits="userSpaceOnUse"
       x1="155.296"
       y1="153.204"
       x2="165.174"
       y2="153.204" />
    <linearGradient
       xlink:href="#i"
       id="M"
       gradientUnits="userSpaceOnUse"
       x1="155.296"
       y1="153.204"
       x2="165.174"
       y2="153.204" />
    <linearGradient
       xlink:href="#i"
       id="N"
       gradientUnits="userSpaceOnUse"
       x1="155.296"
       y1="153.204"
       x2="165.174"
       y2="153.204" />
    <linearGradient
       xlink:href="#i"
       id="O"
       gradientUnits="userSpaceOnUse"
       gradientTransform="translate(0 6)"
       x1="155.296"
       y1="153.204"
       x2="165.174"
       y2="153.204" />
    <linearGradient
       xlink:href="#i"
       id="P"
       gradientUnits="userSpaceOnUse"
       gradientTransform="translate(0 6)"
       x1="155.296"
       y1="153.204"
       x2="165.174"
       y2="153.204" />
    <linearGradient
       xlink:href="#i"
       id="Q"
       gradientUnits="userSpaceOnUse"
       gradientTransform="translate(0 12)"
       x1="155.296"
       y1="153.204"
       x2="165.174"
       y2="153.204" />
    <linearGradient
       xlink:href="#i"
       id="R"
       gradientUnits="userSpaceOnUse"
       gradientTransform="translate(0 17.678)"
       x1="155.296"
       y1="153.204"
       x2="165.174"
       y2="153.204" />
    <linearGradient
       xlink:href="#i"
       id="S"
       gradientUnits="userSpaceOnUse"
       gradientTransform="translate(0 17.678)"
       x1="155.296"
       y1="153.204"
       x2="165.174"
       y2="153.204" />
    <linearGradient
       xlink:href="#i"
       id="T"
       gradientUnits="userSpaceOnUse"
       gradientTransform="translate(0 17.678)"
       x1="155.296"
       y1="153.204"
       x2="165.174"
       y2="153.204" />
    <linearGradient
       xlink:href="#i"
       id="U"
       gradientUnits="userSpaceOnUse"
       gradientTransform="translate(0 23.678)"
       x1="155.296"
       y1="153.204"
       x2="165.174"
       y2="153.204" />
    <linearGradient
       xlink:href="#i"
       id="V"
       gradientUnits="userSpaceOnUse"
       gradientTransform="translate(0 23.678)"
       x1="155.296"
       y1="153.204"
       x2="165.174"
       y2="153.204" />
    <linearGradient
       xlink:href="#i"
       id="W"
       gradientUnits="userSpaceOnUse"
       gradientTransform="translate(0 29.678)"
       x1="155.296"
       y1="153.204"
       x2="165.174"
       y2="153.204" />
    <linearGradient
       gradientTransform="matrix(1.33333,0,0,1.33333,59.227857,55.981508)"
       xlink:href="#a-7"
       id="f-2"
       x1="125"
       y1="161.5"
       x2="195"
       y2="161.5"
       gradientUnits="userSpaceOnUse" />
    <linearGradient
       id="a-7"
       osb:paint="solid">
      <stop
         offset="0"
         stop-opacity=".078"
         style="stop-color:#000000;stop-opacity:0.11;"
         id="stop15" />
    </linearGradient>
    <linearGradient
       xlink:href="#e-9"
       id="g-0"
       x1="71"
       y1="114"
       x2="46"
       y2="32"
       gradientUnits="userSpaceOnUse"
       gradientTransform="translate(0.56085686,-0.18549172)" />
    <linearGradient
       id="e-9">
      <stop
         style="stop-color:#dbdbdb;stop-opacity:1;"
         offset="0"
         id="stop2" />
      <stop
         style="stop-color:#e9e9e9;stop-opacity:1;"
         offset="0.50999999"
         id="stop4-3" />
      <stop
         style="stop-color:#f0f0f0;stop-opacity:1;"
         offset="1"
         id="stop6" />
    </linearGradient>
    <linearGradient
       xlink:href="#b"
       id="j-2"
       gradientUnits="userSpaceOnUse"
       gradientTransform="matrix(3.34375,0,0,2.9282,-19.43014,-6.77549)"
       x1="29.792999"
       y1="15.279"
       x2="33.865002"
       y2="11.077" />
    <linearGradient
       inkscape:collect="always"
       xlink:href="#a-7"
       id="linearGradient1684"
       gradientUnits="userSpaceOnUse"
       gradientTransform="matrix(1.33333,0,0,1.33333,59.227857,55.981508)"
       x1="125"
       y1="161.5"
       x2="195"
       y2="161.5" />
  </defs>
  <g
     id="g1698"
     transform="translate(-0.560857,0.1854917)">
    <path
       style="vector-effect:none;fill:url(#linearGradient1684);fill-rule:evenodd;marker:none;paint-order:fill markers stroke;stop-color:#000000"
       d="m 26.560857,5.8145083 h 50 L 110.56086,39.814508 v 73.000002 c 0,4.432 -3.568,8 -8,8 H 26.560857 c -4.432,0 -8,-3.568 -8,-8 V 13.814508 c 0,-4.4319997 3.568,-7.9999997 8,-7.9999997 z"
       id="path1311"
       sodipodi:nodetypes="sccssssss" />
    <path
       style="vector-effect:none;fill:url(#f-2);fill-rule:evenodd;marker:none;paint-order:fill markers stroke;stop-color:#000000"
       d="m 27.560857,6.8145083 h 49 L 109.56086,39.814508 v 72.000002 c 0,4.432 -3.568,8 -8,8 H 27.560857 c -4.432,0 -8,-3.568 -8,-8 V 14.814508 c 0,-4.432 3.568,-7.9999997 8,-7.9999997 z"
       id="path30" />
    <path
       style="vector-effect:none;fill:url(#g-0);fill-rule:evenodd;marker:none;paint-order:fill markers stroke;stop-color:#000000"
       d="m 28.560857,7.8145083 h 48 L 108.56086,39.814508 v 71.000002 c 0,4.432 -3.568,8 -8,8 H 28.560857 c -4.432,0 -8,-3.568 -8,-8 V 15.814508 c 0,-4.432 3.568,-7.9999997 8,-7.9999997 z"
       id="path32" />
    <path
       style="isolation:auto;mix-blend-mode:normal;fill:#ffffff;fill-opacity:1;marker:none"
       d="m 27.56086,7.81451 h 49 v 1 h -52 a 15.031,15.031 0 0 1 3,-1 z"
       color="#000000"
       display="block"
       overflow="visible"
       fill="url(#h)"
       paint-order="fill markers stroke"
       id="path34" />
    <path
       d="M77.62 8.006v61.18c0 4.934-6.147 10.64-13.3 10.64-7.154 0-13.3-5.706-13.3-10.64V8.006z"
       style="isolation:auto;mix-blend-mode:normal;marker:none;fill:#000000;fill-opacity:0.1035834"
       color="#000"
       display="block"
       overflow="visible"
       fill-opacity=".094"
       paint-order="fill markers stroke"
       id="path137"
       transform="translate(0.5608592,-0.1854917)" />
    <path
       d="m 76.56086,7.81451 31.968,31.966 -29.908,3.457 c 0,0 -5.312,0.403 -5.224,-5.356 z"
       fill="url(#i)"
       fill-rule="evenodd"
       style="display:inline;fill:url(#z)"
       id="path36" />
    <path
       d="m 76.56086,7.81451 32,32 h -26.976 c 0,0 -5.024,0.042 -5.024,-6.084 z"
       fill="url(#j)"
       fill-rule="evenodd"
       style="fill:url(#j-2)"
       id="path38" />
  </g>
  <g
     transform="matrix(1.33 0 0 .95958 -148.874 -110.942)"
     fill="url(#E)"
     color="#000"
     id="g189">
    <path
       style="isolation:auto;mix-blend-mode:normal;marker:none;fill:#000000;fill-opacity:1"
       d="m 72.3,8.006 v 59.022 c 0,4.42 -3.56,7.98 -7.98,7.98 -4.421,0 -7.98,-3.56 -7.98,-7.98 V 8.006 Z"
       color="#000000"
       display="inline"
       overflow="visible"
       fill-opacity="0.848"
       paint-order="fill markers stroke"
       id="path135"
       transform="matrix(0.7518797,0,0,1.0421226,111.93534,115.61516)" />
    <path
       style="isolation:auto;mix-blend-mode:normal;marker:none"
       d="M159.296 138.704v-1h2v-2h-2v-1h-4v4z"
       display="block"
       overflow="visible"
       fill="url(#F)"
       paint-order="fill markers stroke"
       id="path153" />
    <path
       d="M161.296 131.704v1h-2v2h2v1h4v-4z"
       style="isolation:auto;mix-blend-mode:normal;marker:none"
       display="block"
       overflow="visible"
       fill="url(#G)"
       paint-order="fill markers stroke"
       id="path155" />
    <path
       style="isolation:auto;mix-blend-mode:normal;marker:none"
       d="M159.296 132.704v-1h2v-2h-2v-1h-4v4z"
       display="block"
       overflow="visible"
       fill="url(#H)"
       paint-order="fill markers stroke"
       id="path157" />
    <path
       style="isolation:auto;mix-blend-mode:normal;marker:none"
       d="M161.296 125.704v1h-2v2h2v1h4v-4z"
       display="block"
       overflow="visible"
       fill="url(#I)"
       paint-order="fill markers stroke"
       id="path159" />
    <path
       d="M159.296 126.52v-1h6v-1.414h-10v2.414z"
       style="isolation:auto;mix-blend-mode:normal;marker:none"
       display="block"
       overflow="visible"
       fill="url(#J)"
       paint-order="fill markers stroke"
       id="path161" />
    <path
       style="isolation:auto;mix-blend-mode:normal;marker:none"
       d="M161.296 143.704v1h-2v2h2v1h4v-4z"
       display="block"
       overflow="visible"
       fill="url(#K)"
       paint-order="fill markers stroke"
       id="path163" />
    <path
       d="M159.296 144.704v-1h2v-2h-2v-1h-4v4z"
       style="isolation:auto;mix-blend-mode:normal;marker:none"
       display="block"
       overflow="visible"
       fill="url(#L)"
       paint-order="fill markers stroke"
       id="path165" />
    <path
       d="M161.296 137.704v1h-2v2h2v1h4v-4z"
       style="isolation:auto;mix-blend-mode:normal;marker:none"
       display="block"
       overflow="visible"
       fill="url(#M)"
       paint-order="fill markers stroke"
       id="path167" />
    <path
       style="isolation:auto;mix-blend-mode:normal;marker:none"
       d="M159.296 150.704v-1h2v-2h-2v-1h-4v4z"
       display="block"
       overflow="visible"
       fill="url(#N)"
       paint-order="fill markers stroke"
       id="path169" />
    <path
       d="M161.296 149.704v1h-2v2h2v1h4v-4z"
       style="isolation:auto;mix-blend-mode:normal;marker:none"
       display="block"
       overflow="visible"
       fill="url(#O)"
       paint-order="fill markers stroke"
       id="path171" />
    <path
       d="M159.296 156.704v-1h2v-2h-2v-1h-4v4z"
       style="isolation:auto;mix-blend-mode:normal;marker:none"
       display="block"
       overflow="visible"
       fill="url(#P)"
       paint-order="fill markers stroke"
       id="path173" />
    <path
       style="isolation:auto;mix-blend-mode:normal;marker:none"
       d="M161.296 155.704v1h-2v2h2v1h4v-4z"
       display="block"
       overflow="visible"
       fill="url(#Q)"
       paint-order="fill markers stroke"
       id="path175" />
    <path
       d="M161.296 161.382v1h-2v2h2v1h4v-4z"
       style="isolation:auto;mix-blend-mode:normal;marker:none"
       display="block"
       overflow="visible"
       fill="url(#R)"
       paint-order="fill markers stroke"
       id="path177" />
    <path
       style="isolation:auto;mix-blend-mode:normal;marker:none"
       d="M159.296 162.382v-1h2v-2h-2v-1h-4v4z"
       display="block"
       overflow="visible"
       fill="url(#S)"
       paint-order="fill markers stroke"
       id="path179" />
    <path
       d="M159.296 168.382v-1h2v-2h-2v-1h-4v4z"
       style="isolation:auto;mix-blend-mode:normal;marker:none"
       display="block"
       overflow="visible"
       fill="url(#T)"
       paint-order="fill markers stroke"
       id="path181" />
    <path
       style="isolation:auto;mix-blend-mode:normal;marker:none"
       d="M161.296 167.382v1h-2v2h2v1h4v-4z"
       display="block"
       overflow="visible"
       fill="url(#U)"
       paint-order="fill markers stroke"
       id="path183" />
    <path
       style="isolation:auto;mix-blend-mode:normal;marker:none"
       d="M159.296 174.382v-1h2v-2h-2v-1h-4v4z"
       display="block"
       overflow="visible"
       fill="url(#V)"
       paint-order="fill markers stroke"
       id="path185" />
    <path
       d="M161.296 173.382v1h-2v2h2v1h4v-4z"
       style="isolation:auto;mix-blend-mode:normal;marker:none"
       display="block"
       overflow="visible"
       fill="url(#W)"
       paint-order="fill markers stroke"
       id="path187" />
  </g>
  <g
     transform="matrix(1.76305,0,0,1.76305,-215.035,-101.708)"
     color="#000000"
     id="g151"
     style="display:inline">
    <path
       d="m 158.45,89.573 c 1.956,0 3.947,1.353 3.53,2.95 l -0.927,3.555 c -0.307,1.177 -1.161,2.175 -2.603,2.175 -1.442,0 -2.296,-0.998 -2.603,-2.175 l -0.928,-3.555 c -0.416,-1.597 1.575,-2.95 3.53,-2.95 z"
       style="isolation:auto;mix-blend-mode:normal;marker:none"
       display="block"
       overflow="visible"
       fill="url(#B)"
       stroke="#2c2c2c"
       stroke-width="0.373"
       paint-order="fill markers stroke"
       id="path143" />
    <path
       style="isolation:auto;mix-blend-mode:normal;marker:none"
       d="m 158.45,92.404 c -1.546,0 -2.545,1.257 -2.79,2.774 l -1.33,8.218 c -0.363,2.24 1.838,4.096 4.12,4.096 2.282,0 4.482,-1.856 4.12,-4.096 l -1.33,-8.218 c -0.246,-1.517 -1.245,-2.774 -2.79,-2.774 z m 0,0.844 a 1.973,1.962 0 0 1 1.972,1.961 1.973,1.962 0 0 1 -1.972,1.964 1.973,1.962 0 0 1 -1.973,-1.964 1.973,1.962 0 0 1 1.973,-1.96 z m 0,6.717 a 3.424,3.404 0 0 1 3.423,3.405 3.424,3.404 0 0 1 -3.423,3.404 3.424,3.404 0 0 1 -3.426,-3.404 3.424,3.404 0 0 1 3.426,-3.405 z"
       display="block"
       overflow="visible"
       fill-opacity="0.215"
       paint-order="fill markers stroke"
       id="path145" />
    <path
       d="m 158.45,93.223 c -1.378,0 -2.269,1.12 -2.488,2.472 l -1.185,7.327 c -0.324,1.997 1.638,3.652 3.673,3.652 2.034,0 3.996,-1.655 3.673,-3.652 l -1.186,-7.327 c -0.219,-1.352 -1.11,-2.472 -2.487,-2.472 z m 0,0.752 a 1.76,1.749 0 0 1 1.758,1.748 1.76,1.749 0 0 1 -1.758,1.75 1.76,1.749 0 0 1 -1.76,-1.75 1.76,1.749 0 0 1 1.76,-1.748 z m 0,5.988 a 3.053,3.035 0 0 1 3.052,3.036 3.053,3.035 0 0 1 -3.052,3.034 3.053,3.035 0 0 1 -3.054,-3.034 3.053,3.035 0 0 1 3.054,-3.036 z"
       style="isolation:auto;mix-blend-mode:normal;marker:none"
       display="block"
       overflow="visible"
       fill="url(#C)"
       stroke="#646464"
       stroke-width="0.128"
       stroke-opacity="0.995"
       paint-order="fill markers stroke"
       id="path147" />
    <rect
       ry="0.75400001"
       y="90.896004"
       x="157.69501"
       height="6.0349998"
       width="1.5089999"
       style="isolation:auto;mix-blend-mode:normal;marker:none"
       display="block"
       overflow="visible"
       fill="url(#D)"
       paint-order="fill markers stroke"
       id="rect149" />
  </g>
</svg>
