<?xml version="1.0" encoding="UTF-8" standalone="no"?>
<svg
   height="128"
   viewBox="0 0 128 128"
   width="128"
   version="1.1"
   id="svg89"
   sodipodi:docname="text-x-script.svg"
   inkscape:version="1.2.2 (b0a8486541, 2022-12-01)"
   xmlns:inkscape="http://www.inkscape.org/namespaces/inkscape"
   xmlns:sodipodi="http://sodipodi.sourceforge.net/DTD/sodipodi-0.dtd"
   xmlns:xlink="http://www.w3.org/1999/xlink"
   xmlns="http://www.w3.org/2000/svg"
   xmlns:svg="http://www.w3.org/2000/svg"
   xmlns:rdf="http://www.w3.org/1999/02/22-rdf-syntax-ns#"
   xmlns:cc="http://creativecommons.org/ns#"
   xmlns:dc="http://purl.org/dc/elements/1.1/"
   xmlns:osb="http://www.openswatchbook.org/uri/2009/osb">
  <sodipodi:namedview
     id="namedview91"
     pagecolor="#ffffff"
     bordercolor="#000000"
     borderopacity="0.25"
     inkscape:showpageshadow="2"
     inkscape:pageopacity="0.0"
     inkscape:pagecheckerboard="0"
     inkscape:deskcolor="#d1d1d1"
     showgrid="true"
     inkscape:zoom="55.784669"
     inkscape:cx="99.543478"
     inkscape:cy="113.92019"
     inkscape:window-width="2560"
     inkscape:window-height="1371"
     inkscape:window-x="0"
     inkscape:window-y="32"
     inkscape:window-maximized="1"
     inkscape:current-layer="svg89">
    <inkscape:grid
       type="xygrid"
       id="grid421" />
  </sodipodi:namedview>
  <title
     id="title2">Template icons dark</title>
  <defs
     id="defs47">
    <linearGradient
       id="i"
       osb:paint="solid">
      <stop
         offset="0"
         stop-color="#dc88fe"
         id="stop4" />
    </linearGradient>
    <linearGradient
       id="h"
       osb:paint="solid">
      <stop
         offset="0"
         stop-color="#59b5ff"
         id="stop7" />
    </linearGradient>
    <linearGradient
       id="g"
       osb:paint="solid">
      <stop
         offset="0"
         stop-opacity=".196"
         id="stop10" />
    </linearGradient>
    <linearGradient
       id="f"
       osb:paint="solid">
      <stop
         offset="0"
         stop-color="#fff"
         stop-opacity=".052"
         id="stop13" />
    </linearGradient>
    <linearGradient
       id="e"
       osb:paint="solid">
      <stop
         offset="0"
         stop-opacity=".078"
         id="stop16" />
    </linearGradient>
    <linearGradient
       id="d"
       osb:paint="solid">
      <stop
         offset="0"
         stop-opacity=".157"
         id="stop19" />
    </linearGradient>
    <linearGradient
       id="b">
      <stop
         offset="0"
         stop-color="#525764"
         id="stop22" />
      <stop
         offset="1"
         stop-color="#464c57"
         id="stop24" />
    </linearGradient>
    <linearGradient
       id="a">
      <stop
         offset="0"
         stop-color="#494f5a"
         id="stop27" />
      <stop
         offset="1"
         stop-color="#494e5a"
         id="stop29" />
    </linearGradient>
    <linearGradient
       id="c">
      <stop
         offset="0"
         stop-opacity="0"
         id="stop32" />
      <stop
         offset="1"
         stop-opacity=".102"
         id="stop34" />
    </linearGradient>
    <linearGradient
       gradientTransform="matrix(1.33333,0,0,1.33333,-149.333,-151.833)"
       xlink:href="#e"
       id="j"
       x1="125"
       y1="161.5"
       x2="195"
       y2="161.5"
       gradientUnits="userSpaceOnUse" />
    <linearGradient
       gradientTransform="matrix(1.33333,0,0,1.33333,-149.333,-151.833)"
       xlink:href="#d"
       id="k"
       x1="126"
       y1="161.5"
       x2="194"
       y2="161.5"
       gradientUnits="userSpaceOnUse" />
    <linearGradient
       xlink:href="#a"
       id="l"
       gradientUnits="userSpaceOnUse"
       gradientTransform="matrix(2.92579,0,0,2.9282,-6.162,-6.269)"
       x1="24.117"
       y1="4.931"
       x2="24.058"
       y2="42.556" />
    <linearGradient
       xlink:href="#c"
       id="m"
       gradientUnits="userSpaceOnUse"
       gradientTransform="matrix(2.92579,0,0,2.9282,-6.162,-6.269)"
       x1="23.981"
       y1="23.144"
       x2="45.855"
       y2="45" />
    <linearGradient
       xlink:href="#c"
       id="n"
       gradientUnits="userSpaceOnUse"
       gradientTransform="matrix(2.92579,0,0,2.9282,-6.162,-6.269)"
       x1="23.981"
       y1="23.144"
       x2="2.106"
       y2="45" />
    <linearGradient
       xlink:href="#c"
       id="o"
       gradientUnits="userSpaceOnUse"
       gradientTransform="matrix(2.92579,0,0,2.9282,-6.162,-6.269)"
       x1="23.981"
       y1="23.144"
       x2="45.855"
       y2="1.287" />
    <linearGradient
       xlink:href="#c"
       id="p"
       gradientUnits="userSpaceOnUse"
       gradientTransform="matrix(2.92579,0,0,2.9282,-6.162,-6.269)"
       x1="23.981"
       y1="23.144"
       x2="2.106"
       y2="1.287" />
    <linearGradient
       gradientTransform="matrix(1.33333,0,0,1.33333,-149.333,-151.833)"
       xlink:href="#f"
       id="q"
       x1="127"
       y1="120.5"
       x2="169"
       y2="120.5"
       gradientUnits="userSpaceOnUse" />
    <linearGradient
       gradientTransform="matrix(1.33333,0,0,1.33333,-149.333,-151.833)"
       xlink:href="#g"
       id="r"
       x1="166"
       y1="133.472"
       x2="193"
       y2="133.472"
       gradientUnits="userSpaceOnUse" />
    <linearGradient
       xlink:href="#b"
       id="s"
       gradientUnits="userSpaceOnUse"
       gradientTransform="matrix(3.34375,0,0,2.9282,-19.991,-6.59)"
       x1="33.094"
       y1="10.504"
       x2="29.904"
       y2="14.147" />
  </defs>
  <path
     d="m 18,14 c 0,-8 8,-8 8,-8 h 50 l 34,34 v 73 c 0,0 0,8 -7,8 H 26 c -8,0 -8,-8 -8,-8 z"
     style="isolation:auto;mix-blend-mode:normal;fill:url(#j);marker:none"
     color="#000000"
     overflow="visible"
     fill="url(#j)"
     paint-order="fill markers stroke"
     id="path49"
     sodipodi:nodetypes="ccccccccc" />
  <path
     style="isolation:auto;mix-blend-mode:normal;fill:url(#k);marker:none"
     d="m 19,14 c 0,-7 7,-7 7,-7 h 50 l 33,33 v 73 c 0,0 0,7 -6,7 H 26 c -7,0 -7,-7 -7,-7 z"
     color="#000000"
     overflow="visible"
     fill="url(#k)"
     paint-order="fill markers stroke"
     id="path51"
     sodipodi:nodetypes="ccccccccc" />
  <path
     d="m 26,8 h 50 l 32,32 v 73 c 0,0 0,6 -6,6 H 26 c -6,0 -6,-6 -6,-6 V 14 c 0,-6 6,-6 6,-6 z"
     style="display:inline;isolation:auto;mix-blend-mode:normal;fill:url(#l);marker:none"
     color="#000000"
     overflow="visible"
     fill="url(#l)"
     paint-order="fill markers stroke"
     id="path53"
     sodipodi:nodetypes="ccccccccc" />
  <path
     style="isolation:auto;mix-blend-mode:normal;fill:url(#m);marker:none"
     d="m 20,14 c 0,-6 6,-6 6,-6 h 50 l 32,32 v 73 c 0,0 0,6 -6,6 H 26 c -6,0 -6,-6 -6,-6 z"
     color="#000000"
     overflow="visible"
     fill="url(#m)"
     paint-order="fill markers stroke"
     id="path55"
     sodipodi:nodetypes="ccccccccc" />
  <path
     d="m 26,8 h 50 l 32,32 v 73 c 0,0 0,6 -6,6 H 26 c -6,0 -6,-6 -6,-6 V 14 c 0,-6 6,-6 6,-6 z"
     style="isolation:auto;mix-blend-mode:normal;fill:url(#n);marker:none"
     color="#000000"
     overflow="visible"
     fill="url(#n)"
     paint-order="fill markers stroke"
     id="path57"
     sodipodi:nodetypes="ccccccccc" />
  <path
     style="isolation:auto;mix-blend-mode:normal;fill:url(#o);marker:none"
     d="M 20.000525,13.880817 C 20,8 26,8 26,8 h 50 l 32,32 v 73 c 0,0 0,6 -6,6 H 26 c -6,0 -6,-6 -6,-6 z"
     color="#000000"
     overflow="visible"
     fill="url(#o)"
     paint-order="fill markers stroke"
     id="path59"
     sodipodi:nodetypes="ccccccccc" />
  <path
     d="M 20.000408,13.926734 C 20,8 25.982747,8.0001838 25.982747,8.0001838 L 76,8 108,40 v 73 c 0,0 0,6 -6,6 H 26 c -6,0 -6,-6 -6,-6 z"
     style="display:inline;isolation:auto;mix-blend-mode:normal;fill:url(#p);marker:none"
     color="#000000"
     overflow="visible"
     fill="url(#p)"
     paint-order="fill markers stroke"
     id="path61"
     sodipodi:nodetypes="ccccccccc" />
  <path
     style="isolation:auto;mix-blend-mode:normal;fill:url(#q);marker:none"
     d="M 25.982763,8.0001827 76,8 V 9 H 22.584547 c 0.564031,-0.4988259 2.007159,-0.9066318 3.398216,-0.9998173 z"
     color="#000000"
     display="block"
     overflow="visible"
     fill="url(#q)"
     paint-order="fill markers stroke"
     id="path63"
     sodipodi:nodetypes="ccccc" />
  <path
     d="m 76,8 32,32 -26.379419,3.152961 c -4.252684,0.193863 -8.735473,0.745422 -8.38778,-6.21194 z"
     fill="url(#r)"
     fill-rule="evenodd"
     id="path65"
     style="fill:url(#r)"
     sodipodi:nodetypes="ccccc" />
  <path
     d="m 76,8 32,32 H 82 c -2.908529,-0.04452 -5.613459,-0.564648 -6,-5 z"
     fill="url(#s)"
     fill-rule="evenodd"
     id="path67"
     style="fill:url(#s)"
     sodipodi:nodetypes="ccccc" />
  <path
     d="m 26.377,27.268 -0.932,0.187 v 0.482 l 0.938,-0.189 v 2.977 h -0.862 v 0.443 h 2.247 v -0.443 h -0.862 v -3.457 z m 2.457,3.236 v 0.664 h 0.55 v -0.664 z m -2.457,5.414 c -0.153,0 -0.321,0.02 -0.506,0.064 a 4.19,4.19 0 0 0 -0.596,0.194 v 0.533 c 0.21,-0.117 0.405,-0.204 0.588,-0.262 0.185,-0.057 0.36,-0.086 0.526,-0.086 0.233,0 0.422,0.067 0.566,0.198 0.146,0.13 0.219,0.298 0.219,0.505 a 0.846,0.846 0 0 1 -0.102,0.39 2.43,2.43 0 0 1 -0.351,0.482 c -0.09,0.1 -0.308,0.325 -0.655,0.675 -0.344,0.349 -0.616,0.627 -0.816,0.834 v 0.444 h 2.477 v -0.444 h -1.842 c 0.425,-0.433 0.753,-0.771 0.986,-1.011 0.233,-0.242 0.373,-0.39 0.416,-0.44 0.159,-0.195 0.267,-0.363 0.326,-0.506 0.061,-0.144 0.092,-0.297 0.092,-0.457 0,-0.338 -0.12,-0.608 -0.361,-0.81 -0.24,-0.202 -0.563,-0.303 -0.967,-0.303 z m 2.457,3.307 v 0.664 h 0.55 v -0.664 z m -2.393,5.414 c -0.155,0 -0.322,0.013 -0.498,0.04 -0.174,0.029 -0.36,0.07 -0.56,0.126 v 0.47 c 0.198,-0.066 0.38,-0.115 0.545,-0.146 0.165,-0.031 0.32,-0.047 0.465,-0.047 0.264,0 0.468,0.054 0.609,0.162 a 0.54,0.54 0 0 1 0.215,0.461 0.53,0.53 0 0 1 -0.207,0.45 c -0.138,0.102 -0.336,0.154 -0.596,0.154 h -0.475 v 0.433 h 0.454 c 0.287,0 0.511,0.065 0.671,0.195 a 0.648,0.648 0 0 1 0.245,0.538 c 0,0.249 -0.088,0.44 -0.262,0.57 -0.173,0.13 -0.425,0.195 -0.756,0.195 -0.19,0 -0.37,-0.02 -0.545,-0.064 a 1.826,1.826 0 0 1 -0.48,-0.194 v 0.51 c 0.184,0.065 0.362,0.111 0.535,0.143 0.174,0.033 0.342,0.05 0.506,0.05 0.487,0 0.864,-0.105 1.129,-0.316 0.264,-0.21 0.396,-0.51 0.396,-0.894 0,-0.251 -0.07,-0.46 -0.213,-0.631 a 1.016,1.016 0 0 0 -0.592,-0.338 0.978,0.978 0 0 0 0.53,-0.309 0.834,0.834 0 0 0 0.185,-0.549 0.884,0.884 0 0 0 -0.351,-0.736 c -0.234,-0.183 -0.549,-0.273 -0.95,-0.273 z m 2.393,3.306 v 0.664 h 0.55 V 47.945 Z M 26.74,53.43 25.12,55.9 v 0.51 h 1.759 v 0.92 h 0.525 v -0.92 h 0.557 v -0.44 h -0.557 v -2.54 z m 0.139,0.459 v 2.082 h -1.332 z m 1.955,2.777 v 0.664 h 0.55 v -0.664 z m -3.398,5.484 v 1.96 a 1.954,1.954 0 0 1 0.852,-0.193 c 0.3,-0.001 0.538,0.079 0.714,0.237 0.176,0.159 0.264,0.373 0.264,0.645 0,0.271 -0.088,0.486 -0.264,0.644 -0.176,0.159 -0.414,0.239 -0.715,0.239 a 2.062,2.062 0 0 1 -1.018,-0.254 v 0.53 c 0.182,0.057 0.357,0.098 0.526,0.126 0.17,0.028 0.338,0.04 0.502,0.04 0.475,0 0.844,-0.113 1.105,-0.345 0.262,-0.233 0.391,-0.56 0.391,-0.98 0,-0.408 -0.127,-0.73 -0.38,-0.969 -0.255,-0.239 -0.6,-0.357 -1.036,-0.357 a 1.402,1.402 0 0 0 -0.459,0.078 v -0.957 h 1.588 V 62.15 Z m 3.398,3.237 v 0.664 h 0.55 v -0.664 z m -1.986,5.414 c -0.493,0 -0.886,0.183 -1.178,0.55 -0.293,0.366 -0.44,0.857 -0.44,1.473 0,0.657 0.121,1.16 0.36,1.506 0.238,0.345 0.582,0.516 1.033,0.516 0.394,0 0.709,-0.121 0.945,-0.364 0.237,-0.242 0.356,-0.562 0.356,-0.962 0,-0.41 -0.114,-0.732 -0.342,-0.97 -0.226,-0.238 -0.536,-0.359 -0.928,-0.359 -0.186,0 -0.356,0.042 -0.511,0.123 a 1.04,1.04 0 0 0 -0.387,0.348 c 0.026,-0.475 0.131,-0.83 0.314,-1.064 0.185,-0.235 0.45,-0.354 0.8,-0.354 0.132,0 0.265,0.016 0.4,0.049 0.135,0.033 0.27,0.082 0.402,0.144 v -0.48 a 2.894,2.894 0 0 0 -0.424,-0.117 2.095,2.095 0 0 0 -0.4,-0.04 z m -0.225,1.808 c 0.237,0 0.425,0.083 0.563,0.245 0.139,0.161 0.209,0.383 0.209,0.666 0,0.28 -0.07,0.502 -0.21,0.666 a 0.7,0.7 0 0 1 -0.562,0.242 0.706,0.706 0 0 1 -0.564,-0.242 C 25.921,74.022 25.854,73.8 25.854,73.52 c 0,-0.283 0.067,-0.505 0.205,-0.666 a 0.707,0.707 0 0 1 0.564,-0.245 z m 2.211,1.498 v 0.664 h 0.55 v -0.664 z m -3.537,5.485 v 0.443 h 1.873 l -1.332,3.455 h 0.55 l 1.417,-3.674 v -0.224 z m 3.537,3.236 v 0.662 h 0.55 v -0.662 z m -2.275,5.412 c -0.387,0 -0.692,0.09 -0.914,0.272 -0.222,0.18 -0.333,0.428 -0.333,0.74 a 0.87,0.87 0 0 0 0.188,0.566 0.96,0.96 0 0 0 0.531,0.317 c -0.254,0.059 -0.453,0.175 -0.595,0.347 a 0.96,0.96 0 0 0 -0.215,0.633 c 0,0.378 0.116,0.667 0.345,0.87 0.232,0.201 0.562,0.302 0.993,0.302 0.43,0 0.76,-0.1 0.99,-0.303 0.231,-0.202 0.347,-0.49 0.347,-0.869 a 0.96,0.96 0 0 0 -0.214,-0.633 1.046,1.046 0 0 0 -0.594,-0.347 0.944,0.944 0 0 0 0.525,-0.317 0.864,0.864 0 0 0 0.192,-0.566 c 0,-0.312 -0.111,-0.56 -0.332,-0.74 -0.222,-0.181 -0.526,-0.272 -0.914,-0.272 z m 0,0.418 c 0.226,0 0.402,0.057 0.529,0.17 0.129,0.113 0.193,0.27 0.193,0.473 0,0.202 -0.064,0.36 -0.193,0.472 -0.127,0.114 -0.303,0.17 -0.53,0.17 -0.228,0 -0.405,-0.056 -0.533,-0.17 -0.125,-0.113 -0.187,-0.27 -0.187,-0.472 0,-0.202 0.062,-0.36 0.187,-0.473 0.128,-0.113 0.305,-0.17 0.534,-0.17 z m 0,1.701 c 0.252,0 0.449,0.067 0.591,0.202 0.145,0.134 0.217,0.32 0.217,0.554 0,0.234 -0.072,0.417 -0.217,0.553 -0.144,0.134 -0.34,0.201 -0.591,0.201 -0.251,0 -0.45,-0.067 -0.594,-0.201 -0.143,-0.134 -0.215,-0.318 -0.215,-0.553 0,-0.235 0.072,-0.42 0.215,-0.554 0.144,-0.135 0.343,-0.202 0.594,-0.202 z m 2.275,1.19 v 0.662 h 0.55 v -0.662 z m -2.338,5.412 c -0.393,0 -0.71,0.121 -0.947,0.363 -0.237,0.242 -0.354,0.565 -0.354,0.965 0,0.41 0.112,0.732 0.338,0.969 0.228,0.235 0.538,0.351 0.928,0.351 0.188,0 0.36,-0.039 0.516,-0.119 0.155,-0.08 0.281,-0.196 0.382,-0.345 -0.026,0.477 -0.13,0.833 -0.314,1.068 -0.183,0.233 -0.449,0.351 -0.797,0.351 -0.13,0 -0.265,-0.017 -0.4,-0.05 a 2.096,2.096 0 0 1 -0.403,-0.143 v 0.48 c 0.147,0.053 0.288,0.092 0.424,0.118 0.136,0.026 0.27,0.039 0.402,0.039 0.493,0 0.885,-0.183 1.176,-0.549 0.293,-0.367 0.438,-0.858 0.438,-1.473 0,-0.658 -0.12,-1.16 -0.358,-1.506 -0.237,-0.346 -0.58,-0.519 -1.03,-0.519 z m 0,0.418 c 0.237,0 0.423,0.082 0.56,0.246 0.14,0.162 0.21,0.384 0.21,0.664 0,0.282 -0.07,0.504 -0.21,0.666 a 0.696,0.696 0 0 1 -0.56,0.242 0.706,0.706 0 0 1 -0.564,-0.242 c -0.138,-0.162 -0.207,-0.384 -0.207,-0.666 0,-0.28 0.069,-0.502 0.207,-0.664 a 0.704,0.704 0 0 1 0.564,-0.246 z m 2.338,2.89 v 0.663 h 0.55 v -0.662 z"
     style="line-height:163%;-inkscape-font-specification:sans-serif;text-align:end"
     font-weight="400"
     font-size="5.35px"
     font-family="sans-serif"
     letter-spacing="0"
     word-spacing="0"
     text-anchor="end"
     fill="#ffffff"
     fill-opacity="0.966"
     id="path69" />
  <path
     id="rect71"
     style="font-size:2.667px;line-height:120%;letter-spacing:0;word-spacing:0;overflow:visible;fill:#121823;fill-opacity:0.11;marker:none;paint-order:fill markers stroke"
     d="M 20.000039,13.973668 C 20,8 26,8 26,8 h 7 v 111 h -7 c -6,0 -6,-6 -6,-6 z"
     sodipodi:nodetypes="ccccccc" />
  <path
     style="font-size:2.667px;line-height:120%;font-family:sans-serif;letter-spacing:0;word-spacing:0;fill-opacity:0.89"
     d="m 38.858,29.264 -2.792,1.014 v 0.36 l 2.792,1.014 v -0.397 l -2.249,-0.794 2.25,-0.8 z m 25.862,7.367 v 1.21 h 0.371 v -1.21 z m 0.823,0 v 1.21 h 0.37 v -1.21 z m -26.685,0.66 -2.792,1.014 v 0.36 l 2.792,1.014 v -0.397 l -2.249,-0.794 2.25,-0.8 z m 22.168,0.568 v 0.365 h 2.793 v -0.365 z m 0,0.888 v 0.37 h 2.793 v -0.37 z m -22.168,6.572 -2.792,1.014 v 0.36 l 2.792,1.014 V 47.31 l -2.249,-0.794 2.25,-0.8 z m 12.087,0 v 0.397 l 2.244,0.8 -2.244,0.794 v 0.397 l 2.793,-1.014 v -0.36 z m 25.972,7.37 v 1.207 h 0.37 v -1.207 z m 0.823,0 v 1.207 h 0.37 v -1.207 z m 14.25,0 v 1.207 h 0.37 v -1.207 z m 0.823,0 v 1.207 h 0.37 v -1.207 z m -50.217,0.658 -2.792,1.014 v 0.36 l 2.792,1.014 v -0.397 l -2.249,-0.795 2.25,-0.799 z m 51.494,0 v 0.397 l 2.242,0.8 -2.242,0.794 v 0.397 l 2.793,-1.014 v -0.36 z m -20.867,0.567 v 0.366 h 2.793 v -0.366 z m 0,0.888 v 0.371 h 2.793 v -0.37 z m 10.295,5.914 -1.13,3.665 h 0.367 l 1.134,-3.665 z m -40.922,0.659 -2.792,1.013 v 0.36 l 2.792,1.014 v -0.397 l -2.249,-0.794 2.25,-0.8 z m 9.666,0 v 0.397 l 2.244,0.8 -2.244,0.793 v 0.397 l 2.793,-1.013 v -0.36 z m 29.652,0 -2.792,1.013 v 0.36 l 2.792,1.014 v -0.397 l -2.249,-0.794 2.25,-0.8 z m 11.173,0 v 0.397 l 2.244,0.8 -2.244,0.793 v 0.397 l 2.793,-1.013 v -0.36 z m -52.625,7.369 -1.13,3.665 h 0.367 l 1.134,-3.665 z m -1.604,0.658 -2.792,1.014 v 0.36 l 2.792,1.014 v -0.397 l -2.249,-0.794 2.25,-0.8 z m 13.595,0 v 0.397 l 2.244,0.8 -2.244,0.794 v 0.397 l 2.792,-1.014 v -0.36 z m -13.595,8.028 -2.792,1.013 v 0.364 l 2.792,1.01 v -0.394 l -2.249,-0.797 2.25,-0.8 z m 11.975,0 v 0.397 l 2.244,0.8 -2.244,0.796 v 0.395 l 2.793,-1.011 v -0.364 z m -10.37,10.047 -1.132,3.665 h 0.368 l 1.134,-3.665 z m -1.605,0.66 -2.792,1.012 v 0.363 l 2.792,1.01 v -0.394 l -2.249,-0.796 2.25,-0.8 z m 13.482,0 v 0.395 l 2.244,0.8 -2.244,0.796 v 0.395 l 2.793,-1.011 v -0.363 z m -11.878,7.367 -1.13,3.665 h 0.367 l 1.134,-3.665 z m -1.604,0.661 -2.792,1.011 v 0.363 l 2.792,1.014 v -0.397 l -2.249,-0.797 2.25,-0.8 z m 12.62,0 v 0.395 l 2.242,0.8 -2.242,0.796 v 0.397 l 2.793,-1.014 v -0.363 z"
     fill="#c3f7fe"
     id="path73" />
  <path
     style="font-size:2.667px;line-height:120%;font-family:sans-serif;letter-spacing:0;word-spacing:0"
     d="m 46.306,28.546 c -0.457,0 -0.823,0.153 -1.097,0.46 -0.273,0.304 -0.41,0.713 -0.41,1.227 0,0.514 0.137,0.923 0.41,1.228 0.274,0.305 0.64,0.457 1.097,0.457 0.456,0 0.822,-0.152 1.095,-0.457 0.273,-0.306 0.41,-0.715 0.41,-1.228 0,-0.514 -0.137,-0.923 -0.41,-1.227 -0.273,-0.307 -0.64,-0.46 -1.095,-0.46 z m 3.592,0 c -0.492,0 -0.88,0.15 -1.163,0.452 -0.283,0.3 -0.425,0.713 -0.425,1.235 0,0.522 0.142,0.934 0.425,1.236 0.284,0.3 0.67,0.45 1.163,0.45 a 1.786,1.786 0 0 0 1.034,-0.313 v -0.461 a 1.56,1.56 0 0 1 -0.475,0.31 1.393,1.393 0 0 1 -0.533,0.103 c -0.372,0 -0.657,-0.113 -0.854,-0.34 -0.198,-0.228 -0.295,-0.556 -0.295,-0.985 0,-0.43 0.097,-0.758 0.295,-0.984 0.197,-0.228 0.482,-0.343 0.854,-0.343 0.189,0 0.366,0.034 0.533,0.102 0.168,0.068 0.327,0.173 0.475,0.311 v -0.465 a 1.713,1.713 0 0 0 -0.486,-0.23 1.869,1.869 0 0 0 -0.548,-0.078 z m -9.896,0.057 v 1.427 l 0.047,0.778 h 0.353 l 0.044,-0.778 v -1.427 z m 1.552,0 v 3.253 h 0.904 c 0.627,0 1.088,-0.132 1.385,-0.395 0.296,-0.263 0.444,-0.675 0.444,-1.235 0,-0.558 -0.147,-0.967 -0.442,-1.228 -0.295,-0.263 -0.757,-0.395 -1.387,-0.395 z m 9.61,0 v 0.371 h 1.155 v 2.882 h 0.445 v -2.882 h 1.152 v -0.345 l 1.13,1.678 v 1.549 h 0.442 v -1.55 l 1.152,-1.703 h -0.473 l -0.896,1.338 -0.9,-1.338 h -0.455 z m 5.907,0 v 3.253 h 0.44 v -1.307 h 0.553 c 0.364,0 0.64,-0.081 0.825,-0.245 0.188,-0.164 0.283,-0.408 0.283,-0.729 0,-0.318 -0.095,-0.56 -0.283,-0.724 -0.185,-0.165 -0.46,-0.248 -0.825,-0.248 z m 2.69,0 v 3.253 h 2.096 v -0.371 h -1.654 v -1.178 h 1.55 v -0.369 h -1.55 v -0.964 h 1.615 v -0.37 z m -13.455,0.3 c 0.32,0 0.572,0.118 0.758,0.356 0.187,0.238 0.282,0.563 0.282,0.974 0,0.41 -0.095,0.734 -0.282,0.972 a 0.91,0.91 0 0 1 -0.758,0.358 0.923,0.923 0 0 1 -0.763,-0.358 c -0.187,-0.238 -0.28,-0.562 -0.28,-0.972 0,-0.41 0.093,-0.736 0.28,-0.974 a 0.921,0.921 0 0 1 0.763,-0.355 z m -4.313,0.063 h 0.533 c 0.449,0 0.777,0.1 0.985,0.303 0.209,0.202 0.313,0.521 0.313,0.957 0,0.438 -0.104,0.76 -0.313,0.964 -0.208,0.203 -0.536,0.305 -0.985,0.305 h -0.533 z m 15.517,0 h 0.554 c 0.205,0 0.364,0.054 0.475,0.16 0.112,0.106 0.168,0.255 0.168,0.45 0,0.195 -0.056,0.348 -0.168,0.454 -0.111,0.106 -0.27,0.156 -0.475,0.156 H 57.51 Z m -17.508,2.336 v 0.554 h 0.445 v -0.554 z"
     fill="#c382ff"
     fill-opacity="1"
     id="path75" />
  <path
     style="font-size:2.667px;line-height:120%;font-family:sans-serif;letter-spacing:0;word-spacing:0;fill-opacity:0.89"
     d="m 63.973,28.467 v 3.389 h 0.402 v -1.38 c 0,-0.238 0.064,-0.426 0.188,-0.564 0.125,-0.138 0.296,-0.206 0.512,-0.206 0.18,0 0.315,0.057 0.405,0.172 0.09,0.115 0.136,0.289 0.136,0.52 v 1.458 h 0.4 v -1.471 c 0,-0.337 -0.07,-0.593 -0.214,-0.766 -0.144,-0.174 -0.358,-0.26 -0.638,-0.26 a 0.907,0.907 0 0 0 -0.45,0.109 0.98,0.98 0 0 0 -0.339,0.326 v -1.327 z m 2.84,0.256 v 0.693 H 66.52 v 0.313 h 0.293 v 1.325 c 0,0.305 0.06,0.513 0.177,0.63 0.118,0.114 0.33,0.172 0.64,0.172 h 0.413 V 31.521 H 67.63 c -0.167,0 -0.279,-0.03 -0.334,-0.086 -0.054,-0.057 -0.079,-0.183 -0.079,-0.381 v -1.325 h 0.826 v -0.313 h -0.826 v -0.693 z m 2.93,0.635 a 0.93,0.93 0 0 0 -0.457,0.107 0.897,0.897 0 0 0 -0.326,0.33 v -0.38 h -0.405 v 2.44 h 0.405 v -1.379 c 0,-0.236 0.06,-0.423 0.18,-0.561 a 0.613,0.613 0 0 1 0.489,-0.21 c 0.172,0 0.298,0.057 0.381,0.17 0.083,0.112 0.125,0.288 0.125,0.523 v 1.458 h 0.403 v -1.38 c 0,-0.238 0.06,-0.426 0.18,-0.564 a 0.623,0.623 0 0 1 0.494,-0.206 c 0.17,0 0.296,0.056 0.379,0.17 0.082,0.113 0.122,0.288 0.122,0.522 v 1.458 h 0.403 v -1.471 c 0,-0.328 -0.069,-0.583 -0.207,-0.76 -0.138,-0.179 -0.333,-0.267 -0.588,-0.267 a 0.918,0.918 0 0 0 -0.49,0.128 c -0.14,0.086 -0.261,0.22 -0.361,0.4 a 0.782,0.782 0 0 0 -0.277,-0.392 0.74,0.74 0 0 0 -0.45,-0.136 z m -18.406,7.137 v 3.388 h 0.403 v -3.388 z m 2.095,0.89 c -0.13,0 -0.267,0.016 -0.405,0.045 a 2.59,2.59 0 0 0 -0.425,0.126 v 0.37 a 1.623,1.623 0 0 1 0.789,-0.2 c 0.219,0 0.388,0.05 0.509,0.15 0.122,0.101 0.183,0.245 0.183,0.43 v 0.038 h -0.562 c -0.364,0 -0.638,0.07 -0.823,0.21 -0.183,0.139 -0.274,0.344 -0.274,0.619 0,0.235 0.073,0.423 0.22,0.564 0.148,0.14 0.345,0.209 0.595,0.209 0.197,0 0.365,-0.035 0.502,-0.105 a 0.882,0.882 0 0 0 0.342,-0.329 v 0.371 h 0.4 v -1.39 -0.002 c -10e-4,-0.37 -0.088,-0.649 -0.262,-0.831 -0.174,-0.183 -0.436,-0.274 -0.789,-0.274 z m 3.054,0 a 0.908,0.908 0 0 0 -0.45,0.11 0.972,0.972 0 0 0 -0.336,0.327 v -0.379 h -0.405 v 2.44 H 55.7 v -1.38 c 0,-0.237 0.06,-0.423 0.185,-0.56 a 0.658,0.658 0 0 1 0.512,-0.21 c 0.18,0 0.315,0.058 0.405,0.173 0.09,0.114 0.136,0.289 0.136,0.52 v 1.457 h 0.4 v -1.47 c 0,-0.337 -0.07,-0.593 -0.214,-0.766 -0.144,-0.174 -0.358,-0.261 -0.638,-0.261 z m 2.48,0 c -0.3,0 -0.541,0.115 -0.724,0.343 -0.183,0.228 -0.275,0.532 -0.275,0.91 0,0.375 0.092,0.675 0.275,0.903 a 0.883,0.883 0 0 0 0.723,0.342 c 0.18,0 0.336,-0.036 0.465,-0.107 a 0.821,0.821 0 0 0 0.316,-0.321 v 0.198 c 0,0.278 -0.065,0.486 -0.196,0.622 -0.13,0.138 -0.327,0.206 -0.59,0.206 a 1.35,1.35 0 0 1 -0.35,-0.047 1.573,1.573 0 0 1 -0.348,-0.14 v 0.388 c 0.118,0.044 0.239,0.077 0.364,0.097 0.125,0.022 0.258,0.031 0.4,0.031 0.38,0 0.661,-0.1 0.846,-0.303 0.184,-0.201 0.277,-0.512 0.277,-0.927 v -2.137 h -0.403 v 0.371 A 0.82,0.82 0 0 0 59.43,37.493 0.952,0.952 0 0 0 58.965,37.386 Z m 0.098,0.335 c 0.217,0 0.383,0.08 0.502,0.24 0.12,0.16 0.18,0.384 0.18,0.675 0,0.288 -0.06,0.514 -0.18,0.673 a 0.589,0.589 0 0 1 -0.502,0.24 0.597,0.597 0 0 1 -0.504,-0.24 c -0.119,-0.16 -0.177,-0.385 -0.177,-0.673 0,-0.29 0.058,-0.515 0.177,-0.674 0.12,-0.16 0.29,-0.24 0.504,-0.24 z m -5.38,0.938 h 0.399 v 0.089 c 0,0.261 -0.069,0.471 -0.204,0.63 a 0.664,0.664 0 0 1 -0.533,0.235 0.564,0.564 0 0 1 -0.384,-0.126 0.435,0.435 0 0 1 -0.138,-0.34 c 0,-0.178 0.063,-0.304 0.188,-0.378 0.125,-0.074 0.347,-0.11 0.671,-0.11 z m 5.245,13.892 v 3.388 h 0.402 v -1.376 c 0,-0.238 0.063,-0.427 0.188,-0.565 a 0.658,0.658 0 0 1 0.512,-0.208 c 0.18,0 0.315,0.057 0.405,0.172 0.09,0.115 0.136,0.289 0.136,0.52 v 1.457 h 0.4 v -1.47 c 0,-0.337 -0.071,-0.593 -0.215,-0.766 -0.144,-0.174 -0.357,-0.26 -0.637,-0.26 a 0.917,0.917 0 0 0 -0.452,0.109 0.982,0.982 0 0 0 -0.337,0.329 v -1.33 z m 12.484,0.256 v 0.695 H 71.12 v 0.311 h 0.293 v 1.324 c 0,0.305 0.06,0.516 0.177,0.633 0.118,0.114 0.331,0.17 0.64,0.17 h 0.41 v -0.335 h -0.41 c -0.167,0 -0.279,-0.03 -0.334,-0.086 -0.054,-0.057 -0.081,-0.183 -0.081,-0.382 v -1.324 h 0.826 v -0.31 h -0.826 v -0.696 z m -13.874,0.635 c -0.38,0 -0.68,0.114 -0.899,0.342 -0.218,0.228 -0.326,0.54 -0.326,0.938 0,0.392 0.107,0.704 0.324,0.935 0.216,0.231 0.507,0.348 0.875,0.348 0.135,0 0.262,-0.014 0.381,-0.04 0.12,-0.026 0.236,-0.065 0.348,-0.117 v -0.371 c -0.114,0.062 -0.228,0.11 -0.343,0.141 -0.113,0.03 -0.226,0.047 -0.342,0.047 -0.26,0 -0.462,-0.084 -0.606,-0.248 -0.144,-0.166 -0.217,-0.397 -0.217,-0.695 0,-0.298 0.073,-0.528 0.217,-0.692 0.144,-0.166 0.346,-0.248 0.606,-0.248 0.116,0 0.23,0.015 0.342,0.047 0.115,0.03 0.23,0.078 0.343,0.14 v -0.375 a 1.596,1.596 0 0 0 -0.343,-0.113 1.655,1.655 0 0 0 -0.36,-0.039 z m 5.091,0 c -0.13,0 -0.264,0.015 -0.402,0.044 a 2.59,2.59 0 0 0 -0.426,0.126 v 0.37 a 1.618,1.618 0 0 1 0.789,-0.2 c 0.22,0 0.389,0.05 0.51,0.151 0.121,0.1 0.182,0.244 0.182,0.429 V 54.4 h -0.561 c -0.365,0 -0.641,0.07 -0.826,0.209 -0.183,0.14 -0.274,0.347 -0.274,0.621 0,0.236 0.075,0.424 0.222,0.565 0.148,0.14 0.346,0.209 0.596,0.209 0.197,0 0.365,-0.035 0.501,-0.105 a 0.882,0.882 0 0 0 0.342,-0.329 v 0.368 h 0.4 v -1.39 c 0,-0.371 -0.087,-0.65 -0.261,-0.833 -0.174,-0.183 -0.439,-0.274 -0.792,-0.274 z m 3.09,0 c -0.193,0 -0.358,0.037 -0.493,0.11 a 0.815,0.815 0 0 0 -0.33,0.329 v -0.379 h -0.402 v 2.437 h 0.403 v -1.285 c 0,-0.276 0.062,-0.485 0.183,-0.632 0.122,-0.148 0.296,-0.222 0.522,-0.222 a 0.71,0.71 0 0 1 0.172,0.018 0.528,0.528 0 0 1 0.15,0.058 l -0.003,-0.413 c -0.041,-0.007 -0.077,-0.01 -0.11,-0.013 -0.033,-0.004 -0.064,-0.008 -0.091,-0.008 z m 1.403,0 c -0.299,0 -0.53,0.063 -0.692,0.188 -0.163,0.125 -0.243,0.301 -0.243,0.53 0,0.19 0.054,0.338 0.165,0.447 0.11,0.108 0.29,0.188 0.538,0.24 l 0.141,0.032 c 0.248,0.053 0.408,0.111 0.48,0.17 0.075,0.058 0.11,0.139 0.11,0.248 0,0.117 -0.05,0.211 -0.151,0.277 -0.102,0.064 -0.248,0.094 -0.436,0.094 a 1.66,1.66 0 0 1 -0.426,-0.055 2.226,2.226 0 0 1 -0.44,-0.175 v 0.413 c 0.158,0.05 0.307,0.09 0.448,0.114 0.142,0.027 0.279,0.04 0.41,0.04 0.313,0 0.56,-0.067 0.739,-0.199 a 0.632,0.632 0 0 0 0.269,-0.538 c 0,-0.199 -0.06,-0.355 -0.18,-0.465 -0.12,-0.112 -0.322,-0.198 -0.606,-0.259 l -0.136,-0.03 c -0.215,-0.049 -0.36,-0.098 -0.431,-0.15 a 0.26,0.26 0 0 1 -0.107,-0.22 c 0,-0.121 0.05,-0.213 0.149,-0.274 0.1,-0.06 0.25,-0.091 0.449,-0.091 a 1.558,1.558 0 0 1 0.731,0.172 v -0.378 a 1.768,1.768 0 0 0 -0.36,-0.097 2.568,2.568 0 0 0 -0.42,-0.034 z m 2.574,0 c -0.366,0 -0.657,0.117 -0.873,0.353 -0.215,0.233 -0.324,0.551 -0.324,0.95 0,0.387 0.113,0.691 0.34,0.918 0.228,0.226 0.538,0.342 0.927,0.342 a 2.393,2.393 0 0 0 0.901,-0.188 v -0.38 a 1.988,1.988 0 0 1 -0.43,0.17 1.748,1.748 0 0 1 -0.447,0.058 c -0.266,0 -0.473,-0.073 -0.622,-0.217 -0.148,-0.145 -0.23,-0.356 -0.248,-0.632 h 1.841 v -0.196 c 0,-0.363 -0.095,-0.649 -0.287,-0.86 -0.19,-0.211 -0.45,-0.318 -0.778,-0.318 z m 0.005,0.34 c 0.197,0 0.356,0.065 0.475,0.196 0.12,0.13 0.18,0.305 0.183,0.525 l -1.426,0.002 c 0.02,-0.23 0.096,-0.406 0.23,-0.533 0.135,-0.126 0.314,-0.19 0.538,-0.19 z m -6.818,0.932 h 0.4 v 0.09 c 0,0.26 -0.07,0.47 -0.204,0.629 a 0.664,0.664 0 0 1 -0.533,0.235 0.562,0.562 0 0 1 -0.384,-0.123 0.435,0.435 0 0 1 -0.139,-0.34 c 0,-0.178 0.06,-0.304 0.186,-0.378 0.125,-0.075 0.35,-0.113 0.674,-0.113 z"
     fill="#f7fd93"
     id="path77" />
  <path
     style="font-size:2.667px;line-height:120%;font-family:sans-serif;letter-spacing:0;word-spacing:0"
     d="m 39.736,36.495 v 3.388 h 0.402 v -1.38 c 0,-0.237 0.064,-0.423 0.188,-0.56 a 0.658,0.658 0 0 1 0.512,-0.21 c 0.18,0 0.315,0.058 0.405,0.173 0.09,0.114 0.134,0.289 0.134,0.52 v 1.457 h 0.402 v -1.47 c 0,-0.337 -0.073,-0.593 -0.217,-0.766 -0.144,-0.174 -0.355,-0.261 -0.635,-0.261 a 0.919,0.919 0 0 0 -0.452,0.11 0.972,0.972 0 0 0 -0.337,0.326 v -1.327 z m 8.945,0 v 3.388 h 0.4 v -3.388 z m -6.105,0.256 v 0.692 H 42.28 v 0.314 h 0.296 v 1.324 c 0,0.305 0.06,0.514 0.177,0.63 0.118,0.115 0.33,0.172 0.64,0.172 h 0.41 v -0.334 h -0.41 c -0.167,0 -0.279,-0.03 -0.334,-0.086 -0.054,-0.057 -0.081,-0.183 -0.081,-0.382 v -1.324 h 0.825 v -0.314 h -0.825 v -0.692 z m 2.928,0.635 a 0.919,0.919 0 0 0 -0.455,0.107 0.911,0.911 0 0 0 -0.329,0.332 v -0.382 h -0.402 v 2.44 h 0.402 v -1.38 c 0,-0.236 0.063,-0.423 0.183,-0.56 a 0.608,0.608 0 0 1 0.486,-0.21 c 0.173,0 0.301,0.057 0.384,0.17 0.083,0.112 0.125,0.287 0.125,0.523 v 1.457 h 0.403 v -1.38 c 0,-0.237 0.06,-0.423 0.18,-0.56 a 0.62,0.62 0 0 1 0.491,-0.21 c 0.17,0 0.296,0.057 0.379,0.17 0.083,0.113 0.125,0.289 0.125,0.523 v 1.457 h 0.402 v -1.47 c 0,-0.329 -0.068,-0.584 -0.206,-0.76 -0.138,-0.18 -0.334,-0.267 -0.588,-0.267 a 0.927,0.927 0 0 0 -0.493,0.128 c -0.14,0.086 -0.258,0.22 -0.358,0.4 a 0.782,0.782 0 0 0 -0.277,-0.392 0.748,0.748 0 0 0 -0.452,-0.136 z m -5.768,7.137 v 3.388 h 0.402 v -1.377 c 0,-0.238 0.064,-0.426 0.188,-0.564 a 0.658,0.658 0 0 1 0.512,-0.21 c 0.18,0 0.315,0.059 0.405,0.173 0.09,0.115 0.134,0.29 0.134,0.52 v 1.458 h 0.402 v -1.47 c 0,-0.338 -0.073,-0.594 -0.217,-0.766 -0.144,-0.175 -0.355,-0.262 -0.635,-0.262 a 0.917,0.917 0 0 0 -0.452,0.11 0.98,0.98 0 0 0 -0.337,0.33 v -1.33 z m 9.932,0 v 1.319 a 0.823,0.823 0 0 0 -0.321,-0.321 0.938,0.938 0 0 0 -0.463,-0.108 0.877,0.877 0 0 0 -0.72,0.353 c -0.185,0.235 -0.275,0.544 -0.275,0.927 0,0.384 0.09,0.693 0.274,0.928 a 0.88,0.88 0 0 0 0.721,0.355 c 0.18,0 0.335,-0.037 0.463,-0.107 a 0.84,0.84 0 0 0 0.321,-0.324 v 0.366 h 0.4 v -3.388 z m -6.063,0.89 c -0.366,0 -0.659,0.118 -0.875,0.353 -0.215,0.234 -0.322,0.55 -0.322,0.948 0,0.387 0.114,0.693 0.34,0.92 0.228,0.226 0.536,0.34 0.925,0.34 0.155,0 0.308,-0.016 0.46,-0.048 0.15,-0.031 0.297,-0.077 0.441,-0.138 v -0.379 a 1.989,1.989 0 0 1 -0.431,0.17 1.747,1.747 0 0 1 -0.447,0.055 c -0.265,0 -0.472,-0.07 -0.621,-0.214 -0.149,-0.146 -0.231,-0.357 -0.249,-0.633 h 1.842 v -0.195 c 0,-0.363 -0.096,-0.65 -0.287,-0.86 -0.19,-0.212 -0.448,-0.319 -0.776,-0.319 z m 2.578,0 c -0.13,0 -0.267,0.016 -0.405,0.045 a 2.59,2.59 0 0 0 -0.426,0.125 v 0.371 a 1.623,1.623 0 0 1 0.79,-0.201 c 0.219,0 0.388,0.05 0.509,0.151 0.122,0.1 0.183,0.245 0.183,0.429 v 0.04 h -0.562 c -0.364,0 -0.638,0.069 -0.823,0.208 -0.183,0.14 -0.274,0.345 -0.274,0.62 0,0.234 0.073,0.423 0.22,0.563 0.147,0.14 0.345,0.21 0.595,0.21 0.197,0 0.365,-0.035 0.501,-0.105 a 0.875,0.875 0 0 0 0.343,-0.327 v 0.369 h 0.4 v -1.39 c 0,-0.372 -0.088,-0.65 -0.262,-0.833 -0.174,-0.183 -0.436,-0.275 -0.789,-0.275 z m 2.8,0.335 c 0.213,0 0.38,0.085 0.502,0.253 0.122,0.167 0.183,0.398 0.183,0.692 0,0.295 -0.06,0.527 -0.183,0.695 a 0.588,0.588 0 0 1 -0.501,0.251 0.588,0.588 0 0 1 -0.502,-0.25 c -0.12,-0.17 -0.18,-0.4 -0.18,-0.696 0,-0.294 0.06,-0.525 0.18,-0.692 a 0.587,0.587 0 0 1 0.502,-0.253 z m -5.376,0.005 c 0.198,0 0.357,0.065 0.476,0.196 0.12,0.13 0.182,0.306 0.185,0.525 l -1.429,0.003 c 0.02,-0.23 0.097,-0.407 0.23,-0.533 a 0.757,0.757 0 0 1 0.538,-0.19 z m 2.827,0.933 h 0.4 v 0.089 c 0,0.261 -0.07,0.47 -0.204,0.63 a 0.664,0.664 0 0 1 -0.533,0.234 0.562,0.562 0 0 1 -0.384,-0.123 0.44,0.44 0 0 1 -0.139,-0.342 c 0,-0.178 0.064,-0.304 0.189,-0.379 0.125,-0.074 0.347,-0.11 0.67,-0.11 z m 4.14,6.12 v 0.695 h -0.295 v 0.311 h 0.295 v 1.325 c 0,0.305 0.058,0.516 0.175,0.632 0.118,0.115 0.331,0.17 0.64,0.17 h 0.413 v -0.335 h -0.413 c -0.166,0 -0.276,-0.03 -0.331,-0.086 -0.054,-0.057 -0.081,-0.183 -0.081,-0.381 v -1.325 h 0.825 v -0.31 h -0.825 v -0.696 z m -5.914,0.635 a 0.919,0.919 0 0 0 -0.454,0.107 0.911,0.911 0 0 0 -0.33,0.332 v -0.379 h -0.402 v 2.438 h 0.402 v -1.377 c 0,-0.237 0.06,-0.424 0.18,-0.562 a 0.615,0.615 0 0 1 0.49,-0.211 c 0.172,0 0.3,0.059 0.383,0.172 0.083,0.112 0.123,0.285 0.123,0.52 v 1.458 h 0.402 v -1.377 c 0,-0.238 0.06,-0.426 0.18,-0.564 a 0.625,0.625 0 0 1 0.494,-0.21 c 0.17,0 0.296,0.06 0.38,0.173 0.082,0.113 0.124,0.286 0.124,0.52 v 1.458 h 0.403 v -1.471 c 0,-0.328 -0.069,-0.58 -0.207,-0.758 -0.138,-0.178 -0.336,-0.269 -0.59,-0.269 a 0.918,0.918 0 0 0 -0.491,0.128 c -0.14,0.086 -0.26,0.22 -0.36,0.4 A 0.778,0.778 0 0 0 45.112,53.577 0.748,0.748 0 0 0 44.66,53.441 Z m 4.198,0 c -0.366,0 -0.659,0.118 -0.875,0.353 -0.215,0.234 -0.321,0.551 -0.321,0.95 0,0.387 0.113,0.691 0.34,0.918 0.227,0.226 0.535,0.342 0.924,0.342 a 2.393,2.393 0 0 0 0.901,-0.188 v -0.379 a 1.988,1.988 0 0 1 -0.43,0.17 1.748,1.748 0 0 1 -0.447,0.057 c -0.266,0 -0.473,-0.073 -0.622,-0.217 -0.148,-0.145 -0.23,-0.356 -0.248,-0.632 h 1.841 v -0.196 c 0,-0.363 -0.095,-0.649 -0.287,-0.86 -0.19,-0.211 -0.448,-0.318 -0.776,-0.318 z m 4.329,0 c -0.13,0 -0.265,0.016 -0.403,0.045 a 2.617,2.617 0 0 0 -0.428,0.125 v 0.37 a 1.618,1.618 0 0 1 0.789,-0.2 c 0.22,0 0.389,0.05 0.51,0.151 0.121,0.1 0.182,0.244 0.182,0.429 V 54.4 h -0.561 c -0.365,0 -0.639,0.07 -0.823,0.209 -0.183,0.14 -0.275,0.347 -0.275,0.622 0,0.235 0.073,0.423 0.22,0.564 0.148,0.14 0.348,0.209 0.598,0.209 0.198,0 0.365,-0.035 0.502,-0.105 a 0.876,0.876 0 0 0 0.34,-0.329 v 0.369 h 0.402 v -1.39 c 0,-0.372 -0.087,-0.65 -0.262,-0.834 -0.174,-0.183 -0.438,-0.274 -0.791,-0.274 z m -4.326,0.34 c 0.197,0 0.356,0.065 0.475,0.196 0.12,0.13 0.182,0.306 0.186,0.525 l -1.43,0.002 c 0.021,-0.229 0.097,-0.406 0.23,-0.532 0.136,-0.127 0.315,-0.191 0.539,-0.191 z m 4.58,0.932 h 0.396 v 0.09 c 0,0.26 -0.066,0.47 -0.2,0.629 a 0.664,0.664 0 0 1 -0.534,0.235 0.562,0.562 0 0 1 -0.384,-0.123 0.435,0.435 0 0 1 -0.138,-0.34 c 0,-0.178 0.06,-0.304 0.185,-0.378 0.125,-0.074 0.35,-0.113 0.674,-0.113 z m -8.2,5.865 v 0.507 h 0.399 v -0.507 z m 2.988,0 v 3.388 h 0.4 v -3.388 z m 37.836,0 v 0.507 h 0.4 v -0.507 z m 2.989,0 v 3.388 h 0.4 v -3.388 z m -45.572,0.259 v 0.692 h -0.295 v 0.31 h 0.295 v 1.325 c 0,0.305 0.057,0.516 0.175,0.632 0.118,0.115 0.333,0.17 0.643,0.17 h 0.41 V 63.632 H 44.3 c -0.167,0 -0.28,-0.027 -0.335,-0.084 -0.053,-0.056 -0.08,-0.185 -0.08,-0.384 V 61.84 h 0.825 v -0.311 h -0.826 v -0.692 z m 2.989,0 v 0.692 h -0.296 v 0.31 h 0.296 v 1.325 c 0,0.305 0.057,0.516 0.175,0.632 0.117,0.115 0.33,0.17 0.64,0.17 h 0.412 v -0.334 h -0.412 c -0.167,0 -0.277,-0.027 -0.332,-0.084 C 46.9,63.492 46.873,63.363 46.873,63.164 V 61.84 h 0.825 v -0.311 h -0.825 v -0.692 z m 37.836,0 v 0.692 h -0.292 v 0.31 h 0.292 v 1.325 c 0,0.305 0.06,0.516 0.178,0.632 0.117,0.115 0.33,0.17 0.64,0.17 h 0.41 v -0.334 h -0.41 c -0.167,0 -0.28,-0.027 -0.335,-0.084 -0.053,-0.056 -0.08,-0.185 -0.08,-0.384 V 61.84 h 0.825 V 61.529 H 84.71 v -0.692 z m 2.989,0 v 0.692 h -0.293 v 0.31 h 0.293 v 1.325 c 0,0.305 0.06,0.516 0.177,0.632 0.118,0.115 0.331,0.17 0.64,0.17 h 0.41 v -0.334 h -0.41 c -0.167,0 -0.279,-0.027 -0.334,-0.084 -0.054,-0.056 -0.081,-0.185 -0.081,-0.384 V 61.84 h 0.825 v -0.311 h -0.825 v -0.692 z m -36.81,0.632 c -0.366,0 -0.657,0.117 -0.873,0.352 -0.215,0.234 -0.321,0.552 -0.321,0.951 0,0.387 0.113,0.693 0.34,0.92 0.227,0.226 0.535,0.34 0.924,0.34 a 2.392,2.392 0 0 0 0.901,-0.188 v -0.38 a 1.988,1.988 0 0 1 -0.43,0.17 1.748,1.748 0 0 1 -0.447,0.058 c -0.266,0 -0.473,-0.073 -0.622,-0.217 -0.148,-0.145 -0.23,-0.356 -0.248,-0.632 h 1.841 v -0.196 c 0,-0.363 -0.095,-0.649 -0.287,-0.86 -0.19,-0.211 -0.45,-0.318 -0.778,-0.318 z m 40.827,0 c -0.366,0 -0.658,0.117 -0.875,0.352 -0.215,0.234 -0.321,0.552 -0.321,0.951 0,0.387 0.113,0.693 0.34,0.92 0.227,0.226 0.535,0.34 0.924,0.34 a 2.393,2.393 0 0 0 0.901,-0.188 v -0.38 a 1.988,1.988 0 0 1 -0.43,0.17 1.748,1.748 0 0 1 -0.447,0.058 c -0.266,0 -0.472,-0.073 -0.622,-0.217 -0.148,-0.145 -0.23,-0.356 -0.248,-0.632 h 1.842 v -0.196 c 0,-0.363 -0.096,-0.649 -0.288,-0.86 -0.19,-0.211 -0.447,-0.318 -0.776,-0.318 z m -46.073,0.06 v 2.437 h 0.4 v -2.437 z m 40.825,0 v 2.437 h 0.4 v -2.437 z m -35.574,0.28 c 0.197,0 0.356,0.065 0.475,0.195 0.12,0.131 0.182,0.306 0.186,0.525 l -1.43,0.003 c 0.021,-0.23 0.097,-0.407 0.23,-0.533 a 0.757,0.757 0 0 1 0.539,-0.19 z m 40.825,0 c 0.197,0 0.356,0.065 0.475,0.195 0.12,0.131 0.183,0.306 0.186,0.525 l -1.429,0.003 c 0.02,-0.23 0.096,-0.407 0.23,-0.533 a 0.757,0.757 0 0 1 0.538,-0.19 z m -50.073,6.797 v 3.39 h 0.403 v -1.379 c 0,-0.238 0.063,-0.426 0.188,-0.564 0.125,-0.138 0.295,-0.207 0.512,-0.207 0.18,0 0.315,0.058 0.405,0.173 0.09,0.115 0.133,0.286 0.133,0.517 v 1.46 h 0.402 v -1.473 c 0,-0.337 -0.073,-0.593 -0.217,-0.765 -0.143,-0.175 -0.354,-0.262 -0.635,-0.262 a 0.917,0.917 0 0 0 -0.451,0.11 0.98,0.98 0 0 0 -0.337,0.33 v -1.33 z m 9.932,0 v 1.319 a 0.823,0.823 0 0 0 -0.321,-0.322 0.938,0.938 0 0 0 -0.462,-0.107 0.877,0.877 0 0 0 -0.721,0.353 c -0.185,0.235 -0.275,0.544 -0.275,0.927 0,0.384 0.09,0.695 0.275,0.93 a 0.877,0.877 0 0 0 0.72,0.353 c 0.18,0 0.335,-0.035 0.463,-0.104 a 0.847,0.847 0 0 0 0.321,-0.327 v 0.368 h 0.4 v -3.39 z m -6.063,0.89 c -0.366,0 -0.659,0.118 -0.875,0.353 -0.215,0.234 -0.321,0.552 -0.321,0.95 0,0.387 0.113,0.694 0.34,0.92 0.227,0.227 0.535,0.34 0.924,0.34 a 2.383,2.383 0 0 0 0.901,-0.188 v -0.379 a 1.989,1.989 0 0 1 -0.43,0.17 1.748,1.748 0 0 1 -0.447,0.058 c -0.266,0 -0.473,-0.073 -0.622,-0.217 -0.148,-0.145 -0.23,-0.357 -0.248,-0.632 h 1.841 v -0.196 c 0,-0.363 -0.095,-0.65 -0.287,-0.86 -0.19,-0.212 -0.448,-0.319 -0.776,-0.319 z m 2.578,0 c -0.13,0 -0.266,0.016 -0.404,0.045 a 2.59,2.59 0 0 0 -0.426,0.125 v 0.371 a 1.623,1.623 0 0 1 0.789,-0.201 c 0.219,0 0.389,0.053 0.51,0.154 0.121,0.1 0.182,0.241 0.182,0.426 v 0.04 h -0.562 c -0.364,0 -0.638,0.069 -0.823,0.208 -0.183,0.14 -0.274,0.347 -0.274,0.622 0,0.235 0.073,0.423 0.22,0.564 0.148,0.14 0.345,0.209 0.595,0.209 0.198,0 0.365,-0.035 0.502,-0.104 a 0.882,0.882 0 0 0 0.342,-0.33 v 0.371 h 0.4 v -1.392 c 0,-0.372 -0.087,-0.65 -0.262,-0.833 -0.174,-0.183 -0.436,-0.275 -0.789,-0.275 z m 2.8,0.337 c 0.213,0 0.38,0.083 0.502,0.251 0.122,0.167 0.183,0.398 0.183,0.692 0,0.295 -0.06,0.527 -0.183,0.695 a 0.588,0.588 0 0 1 -0.501,0.251 0.588,0.588 0 0 1 -0.502,-0.25 c -0.12,-0.17 -0.18,-0.4 -0.18,-0.696 0,-0.294 0.06,-0.525 0.18,-0.692 a 0.585,0.585 0 0 1 0.502,-0.25 z m -5.375,0.003 c 0.197,0 0.356,0.065 0.475,0.196 0.12,0.13 0.182,0.306 0.186,0.525 l -1.43,0.003 c 0.021,-0.23 0.097,-0.407 0.23,-0.533 a 0.757,0.757 0 0 1 0.539,-0.19 z m 2.826,0.933 h 0.4 v 0.088 c 0,0.262 -0.069,0.472 -0.204,0.63 a 0.664,0.664 0 0 1 -0.533,0.235 0.562,0.562 0 0 1 -0.384,-0.123 0.435,0.435 0 0 1 -0.138,-0.34 c 0,-0.178 0.063,-0.304 0.188,-0.378 0.125,-0.074 0.347,-0.112 0.671,-0.112 z m -8.205,5.864 v 3.391 h 0.402 v -0.366 c 0.085,0.146 0.191,0.253 0.319,0.324 0.13,0.07 0.284,0.105 0.462,0.105 a 0.869,0.869 0 0 0 0.719,-0.353 c 0.186,-0.235 0.28,-0.544 0.28,-0.927 0,-0.384 -0.094,-0.695 -0.28,-0.93 a 0.869,0.869 0 0 0 -0.719,-0.353 0.946,0.946 0 0 0 -0.462,0.107 0.833,0.833 0 0 0 -0.319,0.324 v -1.322 z m 7.179,0 v 1.322 a 0.83,0.83 0 0 0 -0.322,-0.324 0.928,0.928 0 0 0 -0.46,-0.107 0.877,0.877 0 0 0 -0.72,0.353 c -0.185,0.235 -0.277,0.546 -0.277,0.93 0,0.383 0.092,0.692 0.277,0.927 a 0.877,0.877 0 0 0 0.72,0.353 c 0.18,0 0.333,-0.035 0.46,-0.105 a 0.84,0.84 0 0 0 0.322,-0.324 v 0.366 h 0.4 v -3.39 z m -3.389,0.891 c -0.35,0 -0.623,0.113 -0.822,0.34 -0.198,0.226 -0.296,0.542 -0.296,0.943 0,0.399 0.098,0.712 0.296,0.94 0.199,0.227 0.473,0.34 0.822,0.34 0.349,0 0.624,-0.113 0.823,-0.34 0.2,-0.228 0.298,-0.541 0.298,-0.94 0,-0.401 -0.099,-0.717 -0.298,-0.943 -0.199,-0.227 -0.474,-0.34 -0.823,-0.34 z m 4.326,0.06 0.988,2.4 -0.073,0.184 c -0.074,0.194 -0.14,0.316 -0.201,0.368 a 0.38,0.38 0 0 1 -0.256,0.078 h -0.238 v 0.337 h 0.321 c 0.18,0 0.324,-0.044 0.431,-0.133 0.108,-0.088 0.219,-0.279 0.332,-0.57 l 1.071,-2.664 h -0.426 l -0.76,1.907 -0.763,-1.907 z m -7.032,0.277 c 0.212,0 0.379,0.082 0.499,0.25 0.122,0.168 0.183,0.4 0.183,0.696 0,0.294 -0.06,0.526 -0.183,0.695 A 0.58,0.58 0 0 1 40.82,79.75 0.586,0.586 0 0 1 40.319,79.502 c -0.121,-0.169 -0.18,-0.4 -0.18,-0.695 0,-0.295 0.06,-0.528 0.18,-0.695 a 0.585,0.585 0 0 1 0.501,-0.251 z m 5.41,0 c 0.212,0 0.38,0.082 0.502,0.25 0.122,0.168 0.183,0.4 0.183,0.696 0,0.294 -0.061,0.526 -0.183,0.695 A 0.586,0.586 0 0 1 46.23,79.75 0.586,0.586 0 0 1 45.729,79.502 c -0.12,-0.169 -0.18,-0.4 -0.18,-0.695 0,-0.295 0.059,-0.528 0.18,-0.695 a 0.585,0.585 0 0 1 0.501,-0.251 z m -2.704,0.003 c 0.214,0 0.385,0.086 0.51,0.256 0.125,0.168 0.185,0.398 0.185,0.687 0,0.29 -0.06,0.518 -0.185,0.687 a 0.603,0.603 0 0 1 -0.51,0.253 0.605,0.605 0 0 1 -0.512,-0.25 c -0.123,-0.169 -0.182,-0.398 -0.182,-0.69 0,-0.292 0.06,-0.523 0.185,-0.69 a 0.601,0.601 0 0 1 0.51,-0.253 z m -2.283,9.475 v 3.39 h 0.403 v -0.365 c 0.084,0.145 0.19,0.252 0.318,0.324 0.13,0.07 0.281,0.104 0.46,0.104 a 0.873,0.873 0 0 0 0.721,-0.353 c 0.186,-0.235 0.28,-0.544 0.28,-0.927 0,-0.383 -0.094,-0.692 -0.28,-0.927 a 0.876,0.876 0 0 0 -0.72,-0.356 0.935,0.935 0 0 0 -0.46,0.107 0.833,0.833 0 0 0 -0.32,0.324 v -1.321 z m 7.179,0 v 1.321 a 0.83,0.83 0 0 0 -0.321,-0.324 0.928,0.928 0 0 0 -0.46,-0.107 0.88,0.88 0 0 0 -0.721,0.356 c -0.185,0.235 -0.277,0.544 -0.277,0.927 0,0.383 0.092,0.692 0.277,0.927 a 0.877,0.877 0 0 0 0.72,0.353 c 0.18,0 0.333,-0.035 0.46,-0.104 a 0.84,0.84 0 0 0 0.322,-0.324 v 0.365 h 0.4 v -3.39 z m -3.388,0.89 c -0.35,0 -0.624,0.116 -0.823,0.343 -0.198,0.226 -0.295,0.54 -0.295,0.94 0,0.4 0.097,0.712 0.295,0.94 0.199,0.227 0.473,0.34 0.823,0.34 0.348,0 0.624,-0.113 0.823,-0.34 0.199,-0.228 0.297,-0.54 0.297,-0.94 0,-0.4 -0.098,-0.714 -0.297,-0.94 -0.2,-0.227 -0.475,-0.343 -0.823,-0.343 z m 4.326,0.06 0.987,2.401 -0.073,0.183 c -0.074,0.195 -0.14,0.319 -0.201,0.37 a 0.387,0.387 0 0 1 -0.259,0.08 h -0.235 v 0.334 H 49.9 c 0.18,0 0.324,-0.045 0.431,-0.134 0.108,-0.088 0.219,-0.276 0.332,-0.566 l 1.071,-2.668 h -0.426 l -0.76,1.907 -0.762,-1.907 z m -7.033,0.277 a 0.58,0.58 0 0 1 0.5,0.254 c 0.121,0.167 0.182,0.397 0.182,0.692 0,0.295 -0.06,0.526 -0.183,0.695 a 0.582,0.582 0 0 1 -0.499,0.25 0.588,0.588 0 0 1 -0.501,-0.25 c -0.12,-0.169 -0.18,-0.4 -0.18,-0.695 0,-0.295 0.06,-0.525 0.18,-0.692 a 0.587,0.587 0 0 1 0.501,-0.254 z m 5.41,0 c 0.212,0 0.38,0.085 0.502,0.254 0.122,0.167 0.183,0.397 0.183,0.692 0,0.295 -0.06,0.526 -0.183,0.695 a 0.588,0.588 0 0 1 -0.502,0.25 0.588,0.588 0 0 1 -0.501,-0.25 c -0.12,-0.169 -0.18,-0.4 -0.18,-0.695 0,-0.295 0.06,-0.525 0.18,-0.692 a 0.587,0.587 0 0 1 0.501,-0.254 z m -2.703,0.006 a 0.6,0.6 0 0 1 0.51,0.253 c 0.124,0.168 0.185,0.398 0.185,0.687 0,0.29 -0.061,0.519 -0.186,0.687 a 0.603,0.603 0 0 1 -0.51,0.254 0.605,0.605 0 0 1 -0.511,-0.251 c -0.124,-0.169 -0.183,-0.398 -0.183,-0.69 0,-0.292 0.06,-0.523 0.185,-0.69 a 0.599,0.599 0 0 1 0.51,-0.25 z m -3.79,6.797 v 3.388 h 0.402 v -1.38 c 0,-0.237 0.063,-0.426 0.188,-0.564 0.125,-0.137 0.295,-0.206 0.512,-0.206 0.18,0 0.315,0.058 0.405,0.173 0.09,0.114 0.133,0.286 0.133,0.517 v 1.46 h 0.402 v -1.473 c 0,-0.337 -0.073,-0.59 -0.217,-0.763 -0.143,-0.174 -0.354,-0.261 -0.635,-0.261 a 0.916,0.916 0 0 0 -0.451,0.107 0.98,0.98 0 0 0 -0.337,0.329 v -1.327 z m 8.944,0 v 3.388 h 0.4 v -3.388 z m -6.105,0.256 v 0.692 h -0.295 v 0.311 h 0.295 v 1.324 c 0,0.305 0.06,0.516 0.178,0.633 0.117,0.114 0.33,0.172 0.64,0.172 h 0.41 v -0.334 h -0.41 c -0.167,0 -0.28,-0.03 -0.335,-0.086 -0.054,-0.057 -0.08,-0.186 -0.08,-0.384 v -1.325 h 0.825 v -0.31 h -0.826 v -0.693 z m 2.928,0.635 a 0.918,0.918 0 0 0 -0.454,0.104 0.91,0.91 0 0 0 -0.33,0.332 v -0.379 h -0.402 v 2.44 h 0.403 v -1.38 c 0,-0.236 0.06,-0.423 0.18,-0.56 a 0.613,0.613 0 0 1 0.488,-0.21 c 0.173,0 0.302,0.057 0.384,0.17 0.083,0.112 0.126,0.284 0.126,0.52 v 1.46 h 0.402 v -1.38 c 0,-0.237 0.06,-0.426 0.18,-0.564 a 0.617,0.617 0 0 1 0.491,-0.206 c 0.17,0 0.296,0.057 0.38,0.17 0.082,0.113 0.124,0.286 0.124,0.52 v 1.46 h 0.403 v -1.473 c 0,-0.329 -0.069,-0.58 -0.207,-0.758 -0.138,-0.179 -0.333,-0.266 -0.587,-0.266 a 0.927,0.927 0 0 0 -0.494,0.128 c -0.14,0.085 -0.258,0.217 -0.358,0.397 A 0.782,0.782 0 0 0 47.463,96.393 0.747,0.747 0 0 0 47.011,96.26 Z"
     fill="#66efff"
     fill-opacity="1"
     id="path79" />
  <path
     style="font-size:2.667px;line-height:120%;font-family:sans-serif;letter-spacing:0;word-spacing:0;fill-opacity:0.89"
     d="m 67.79,37.386 c -0.366,0 -0.66,0.117 -0.876,0.352 -0.214,0.234 -0.32,0.55 -0.32,0.949 0,0.386 0.112,0.693 0.339,0.92 0.228,0.226 0.535,0.339 0.924,0.339 0.156,0 0.31,-0.015 0.46,-0.047 0.151,-0.032 0.3,-0.078 0.444,-0.139 v -0.378 a 1.988,1.988 0 0 1 -0.43,0.17 1.747,1.747 0 0 1 -0.447,0.054 c -0.266,0 -0.475,-0.07 -0.625,-0.214 -0.148,-0.145 -0.23,-0.356 -0.248,-0.632 h 1.844 v -0.196 c 0,-0.363 -0.098,-0.649 -0.29,-0.86 -0.19,-0.212 -0.447,-0.318 -0.775,-0.318 z m 2.9,0 a 0.919,0.919 0 0 0 -0.453,0.11 0.972,0.972 0 0 0 -0.337,0.326 v -0.379 h -0.405 v 2.44 H 69.9 v -1.38 c 0,-0.237 0.06,-0.423 0.186,-0.56 a 0.658,0.658 0 0 1 0.512,-0.21 c 0.18,0 0.315,0.058 0.405,0.173 0.09,0.114 0.136,0.289 0.136,0.52 v 1.457 h 0.402 v -1.47 c 0,-0.337 -0.073,-0.593 -0.217,-0.766 -0.144,-0.174 -0.355,-0.261 -0.635,-0.261 z m -2.898,0.34 c 0.198,0 0.357,0.065 0.476,0.195 0.12,0.131 0.182,0.306 0.185,0.525 l -1.429,0.003 c 0.02,-0.23 0.099,-0.406 0.233,-0.533 a 0.75,0.75 0 0 1 0.535,-0.19 z m 22.346,14.903 c -0.323,0 -0.577,0.076 -0.763,0.227 a 0.755,0.755 0 0 0 -0.277,0.616 c 0,0.186 0.052,0.344 0.157,0.473 0.106,0.13 0.255,0.218 0.444,0.264 a 0.877,0.877 0 0 0 -0.496,0.287 0.802,0.802 0 0 0 -0.18,0.528 c 0,0.315 0.095,0.558 0.287,0.726 0.193,0.169 0.47,0.254 0.828,0.254 0.358,0 0.634,-0.085 0.825,-0.254 0.193,-0.168 0.29,-0.41 0.29,-0.726 a 0.8,0.8 0 0 0 -0.177,-0.528 0.873,0.873 0 0 0 -0.497,-0.287 0.79,0.79 0 0 0 0.44,-0.264 0.722,0.722 0 0 0 0.159,-0.473 0.755,0.755 0 0 0 -0.277,-0.616 c -0.185,-0.151 -0.44,-0.227 -0.763,-0.227 z m -11.207,0.06 v 2.03 c 0,0.423 0.104,0.742 0.314,0.958 0.21,0.217 0.521,0.327 0.932,0.327 0.41,0 0.718,-0.11 0.927,-0.327 0.211,-0.216 0.317,-0.535 0.317,-0.959 v -2.03 h -0.442 v 1.976 c 0,0.348 -0.062,0.598 -0.188,0.752 -0.126,0.152 -0.332,0.23 -0.614,0.23 -0.283,0 -0.487,-0.078 -0.614,-0.23 -0.126,-0.154 -0.188,-0.404 -0.188,-0.752 v -1.975 z m 2.868,0 v 0.368 h 1.155 v 2.881 h 0.441 v -2.881 h 1.155 v -0.368 z m 3.177,0 v 3.25 h 0.441 v -1.552 h 1.288 v -0.371 h -1.288 v -0.959 h 1.427 v -0.368 z m 5.162,0.287 c 0.189,0 0.335,0.05 0.441,0.144 a 0.498,0.498 0 0 1 0.162,0.394 0.492,0.492 0 0 1 -0.162,0.392 C 90.473,54 90.327,54.05 90.138,54.05 89.948,54.05 89.8,54 89.694,53.906 a 0.5,0.5 0 0 1 -0.157,-0.392 c 0,-0.168 0.052,-0.3 0.157,-0.394 0.106,-0.095 0.254,-0.144 0.444,-0.144 z m 0,1.419 c 0.21,0 0.374,0.055 0.494,0.167 0.12,0.112 0.182,0.266 0.182,0.462 0,0.195 -0.062,0.35 -0.182,0.462 -0.121,0.112 -0.285,0.168 -0.494,0.168 -0.21,0 -0.373,-0.056 -0.494,-0.168 -0.119,-0.111 -0.178,-0.266 -0.178,-0.462 0,-0.196 0.059,-0.35 0.178,-0.462 0.12,-0.112 0.285,-0.167 0.494,-0.167 z m -2.811,0.143 v 0.358 H 88.5 v -0.358 z"
     fill="#f8bebe"
     id="path81" />
  <path
     style="font-size:2.667px;line-height:120%;font-family:sans-serif;letter-spacing:0;word-spacing:0"
     d="m 55.964,60.716 v 3.25 h 0.903 c 0.628,0 1.091,-0.129 1.388,-0.392 0.296,-0.263 0.444,-0.675 0.444,-1.235 0,-0.558 -0.15,-0.967 -0.444,-1.228 -0.295,-0.263 -0.757,-0.395 -1.388,-0.395 z m 21.347,0.12 v 0.693 h -0.295 v 0.31 h 0.295 v 1.325 c 0,0.305 0.06,0.516 0.178,0.632 0.118,0.115 0.33,0.17 0.64,0.17 h 0.41 v -0.334 h -0.41 c -0.167,0 -0.28,-0.027 -0.334,-0.084 -0.054,-0.057 -0.081,-0.185 -0.081,-0.384 V 61.84 h 0.825 v -0.311 h -0.825 v -0.693 z m -20.906,0.24 h 0.53 c 0.45,0 0.778,0.103 0.985,0.306 0.21,0.202 0.314,0.52 0.314,0.957 0,0.438 -0.105,0.758 -0.314,0.96 -0.207,0.204 -0.536,0.306 -0.985,0.306 h -0.53 z m 3.919,0.393 c -0.35,0 -0.624,0.113 -0.823,0.34 -0.198,0.226 -0.295,0.539 -0.295,0.94 0,0.399 0.097,0.715 0.295,0.943 0.199,0.226 0.473,0.34 0.823,0.34 0.348,0 0.624,-0.114 0.822,-0.34 0.2,-0.228 0.298,-0.544 0.298,-0.943 0,-0.401 -0.099,-0.714 -0.298,-0.94 -0.198,-0.227 -0.474,-0.34 -0.822,-0.34 z m 2.834,0 c -0.38,0 -0.68,0.114 -0.899,0.342 -0.218,0.228 -0.326,0.54 -0.326,0.938 0,0.392 0.107,0.704 0.324,0.935 0.216,0.23 0.507,0.347 0.875,0.347 a 1.629,1.629 0 0 0 0.729,-0.157 v -0.37 c -0.114,0.062 -0.225,0.109 -0.34,0.14 -0.113,0.031 -0.229,0.048 -0.345,0.048 -0.26,0 -0.462,-0.085 -0.606,-0.249 -0.144,-0.165 -0.214,-0.397 -0.214,-0.694 0,-0.298 0.07,-0.529 0.214,-0.693 0.144,-0.165 0.346,-0.248 0.606,-0.248 a 1.49,1.49 0 0 1 0.684,0.188 v -0.373 a 1.679,1.679 0 0 0 -0.703,-0.154 z m 5.407,0 a 0.919,0.919 0 0 0 -0.454,0.107 0.911,0.911 0 0 0 -0.33,0.332 v -0.38 h -0.402 v 2.44 h 0.403 v -1.379 c 0,-0.236 0.062,-0.423 0.183,-0.561 a 0.608,0.608 0 0 1 0.485,-0.21 c 0.173,0 0.302,0.057 0.384,0.17 0.083,0.112 0.126,0.285 0.126,0.52 v 1.46 h 0.402 v -1.379 c 0,-0.238 0.06,-0.426 0.18,-0.564 a 0.617,0.617 0 0 1 0.491,-0.206 c 0.17,0 0.296,0.056 0.38,0.17 0.082,0.113 0.125,0.286 0.125,0.52 v 1.46 h 0.402 v -1.474 c 0,-0.328 -0.069,-0.58 -0.207,-0.757 -0.137,-0.179 -0.333,-0.27 -0.587,-0.27 a 0.927,0.927 0 0 0 -0.494,0.129 c -0.14,0.085 -0.258,0.22 -0.358,0.4 a 0.782,0.782 0 0 0 -0.277,-0.393 0.748,0.748 0 0 0 -0.452,-0.135 z m 4.198,0 c -0.366,0 -0.656,0.117 -0.872,0.352 -0.215,0.234 -0.324,0.552 -0.324,0.951 0,0.386 0.113,0.693 0.34,0.92 0.228,0.226 0.538,0.34 0.927,0.34 a 2.392,2.392 0 0 0 0.901,-0.188 v -0.38 a 1.988,1.988 0 0 1 -0.43,0.17 1.748,1.748 0 0 1 -0.448,0.058 c -0.265,0 -0.472,-0.073 -0.621,-0.217 -0.148,-0.145 -0.234,-0.356 -0.251,-0.632 h 1.844 v -0.196 c 0,-0.363 -0.095,-0.65 -0.287,-0.86 -0.19,-0.212 -0.45,-0.318 -0.779,-0.318 z m 2.9,0 a 0.918,0.918 0 0 0 -0.452,0.11 0.98,0.98 0 0 0 -0.337,0.328 v -0.378 h -0.402 v 2.437 h 0.402 v -1.377 c 0,-0.238 0.063,-0.426 0.188,-0.564 0.125,-0.138 0.296,-0.206 0.512,-0.206 0.18,0 0.315,0.055 0.405,0.17 0.09,0.114 0.133,0.288 0.133,0.52 v 1.457 h 0.403 v -1.47 c 0,-0.338 -0.073,-0.593 -0.217,-0.766 -0.144,-0.174 -0.355,-0.261 -0.635,-0.261 z m -11.141,0.06 v 1.476 c 0,0.335 0.071,0.59 0.216,0.765 0.146,0.174 0.36,0.261 0.64,0.261 0.17,0 0.32,-0.036 0.447,-0.107 a 0.995,0.995 0 0 0 0.34,-0.332 v 0.374 h 0.4 v -2.437 h -0.4 v 1.382 c 0,0.238 -0.065,0.426 -0.191,0.564 -0.125,0.138 -0.296,0.206 -0.512,0.206 -0.18,0 -0.315,-0.057 -0.405,-0.172 -0.09,-0.116 -0.133,-0.29 -0.133,-0.52 v -1.46 z m -4.198,0.28 c 0.213,0 0.384,0.085 0.509,0.255 0.125,0.169 0.185,0.396 0.185,0.685 0,0.29 -0.06,0.52 -0.185,0.69 a 0.603,0.603 0 0 1 -0.51,0.253 0.6,0.6 0 0 1 -0.509,-0.251 c -0.123,-0.169 -0.185,-0.4 -0.185,-0.692 0,-0.292 0.06,-0.52 0.185,-0.687 a 0.601,0.601 0 0 1 0.51,-0.254 z m 12.445,0 c 0.197,0 0.356,0.064 0.475,0.195 0.12,0.13 0.18,0.306 0.183,0.525 l -1.429,0.003 c 0.02,-0.23 0.099,-0.407 0.232,-0.533 a 0.757,0.757 0 0 1 0.539,-0.19 z"
     fill="#f8f8f8"
     fill-opacity="0.974"
     id="path83" />
  <metadata
     id="metadata576">
    <rdf:RDF>
      <cc:Work
         rdf:about="">
        <dc:title>Template icons dark</dc:title>
      </cc:Work>
    </rdf:RDF>
  </metadata>
</svg>
