<?xml version="1.0" encoding="UTF-8" standalone="no"?>
<svg
   height="128"
   viewBox="0 0 128 128"
   width="128"
   version="1.1"
   id="svg2257"
   sodipodi:docname="text-x-generic-template.svg"
   inkscape:version="1.2.2 (b0a8486541, 2022-12-01)"
   xmlns:inkscape="http://www.inkscape.org/namespaces/inkscape"
   xmlns:sodipodi="http://sodipodi.sourceforge.net/DTD/sodipodi-0.dtd"
   xmlns:xlink="http://www.w3.org/1999/xlink"
   xmlns="http://www.w3.org/2000/svg"
   xmlns:svg="http://www.w3.org/2000/svg"
   xmlns:osb="http://www.openswatchbook.org/uri/2009/osb">
  <sodipodi:namedview
     id="namedview2259"
     pagecolor="#ffffff"
     bordercolor="#000000"
     borderopacity="0.25"
     inkscape:showpageshadow="2"
     inkscape:pageopacity="0.0"
     inkscape:pagecheckerboard="0"
     inkscape:deskcolor="#d1d1d1"
     showgrid="false"
     inkscape:zoom="8.0234375"
     inkscape:cx="55.213242"
     inkscape:cy="63.937683"
     inkscape:window-width="2560"
     inkscape:window-height="1371"
     inkscape:window-x="0"
     inkscape:window-y="32"
     inkscape:window-maximized="1"
     inkscape:current-layer="svg2257" />
  <title
     id="title2182">Template icons dark</title>
  <defs
     id="defs2225">
    <linearGradient
       id="g"
       osb:paint="solid">
      <stop
         offset="0"
         stop-opacity=".196"
         id="stop2184" />
    </linearGradient>
    <linearGradient
       id="f"
       osb:paint="solid">
      <stop
         offset="0"
         stop-color="#fff"
         stop-opacity=".333"
         id="stop2187" />
    </linearGradient>
    <linearGradient
       id="e"
       osb:paint="solid">
      <stop
         offset="0"
         stop-opacity=".078"
         id="stop2190" />
    </linearGradient>
    <linearGradient
       id="d"
       osb:paint="solid">
      <stop
         offset="0"
         stop-opacity=".157"
         id="stop2193" />
    </linearGradient>
    <linearGradient
       id="b">
      <stop
         offset="0"
         stop-color="#5ebfff"
         id="stop2196" />
      <stop
         offset="1"
         stop-color="#40b3ff"
         id="stop2198" />
    </linearGradient>
    <linearGradient
       id="a">
      <stop
         offset="0"
         stop-color="#36afff"
         id="stop2201" />
      <stop
         offset="1"
         stop-color="#0090ee"
         id="stop2203" />
    </linearGradient>
    <linearGradient
       id="c">
      <stop
         offset="0"
         stop-opacity="0"
         id="stop2206" />
      <stop
         offset="1"
         stop-opacity=".102"
         id="stop2208" />
    </linearGradient>
    <linearGradient
       gradientTransform="translate(58.667 56.167) scale(1.33333)"
       xlink:href="#e"
       id="i"
       x1="125"
       y1="161.5"
       x2="195"
       y2="161.5"
       gradientUnits="userSpaceOnUse" />
    <linearGradient
       gradientTransform="translate(58.667 56.167) scale(1.33333)"
       xlink:href="#d"
       id="j"
       x1="126"
       y1="161.5"
       x2="194"
       y2="161.5"
       gradientUnits="userSpaceOnUse" />
    <linearGradient
       xlink:href="#a"
       id="k"
       gradientUnits="userSpaceOnUse"
       gradientTransform="matrix(2.92579 0 0 2.9282 201.838 201.731)"
       x1="24.117"
       y1="4.931"
       x2="24.058"
       y2="42.556" />
    <linearGradient
       xlink:href="#c"
       id="l"
       gradientUnits="userSpaceOnUse"
       gradientTransform="matrix(2.92579 0 0 2.9282 201.838 201.731)"
       x1="23.981"
       y1="23.144"
       x2="45.855"
       y2="45" />
    <linearGradient
       xlink:href="#c"
       id="m"
       gradientUnits="userSpaceOnUse"
       gradientTransform="matrix(2.92579 0 0 2.9282 201.838 201.731)"
       x1="23.981"
       y1="23.144"
       x2="2.106"
       y2="45" />
    <linearGradient
       xlink:href="#c"
       id="n"
       gradientUnits="userSpaceOnUse"
       gradientTransform="matrix(2.92579 0 0 2.9282 201.838 201.731)"
       x1="23.981"
       y1="23.144"
       x2="45.855"
       y2="1.287" />
    <linearGradient
       xlink:href="#c"
       id="o"
       gradientUnits="userSpaceOnUse"
       gradientTransform="matrix(2.92579 0 0 2.9282 201.838 201.731)"
       x1="23.981"
       y1="23.144"
       x2="2.106"
       y2="1.287" />
    <linearGradient
       gradientTransform="translate(58.667 56.167) scale(1.33333)"
       xlink:href="#f"
       id="p"
       x1="127"
       y1="120.5"
       x2="169"
       y2="120.5"
       gradientUnits="userSpaceOnUse" />
    <linearGradient
       gradientTransform="translate(58.667 56.167) scale(1.33333)"
       xlink:href="#g"
       id="r"
       x1="166"
       y1="133.472"
       x2="193"
       y2="133.472"
       gradientUnits="userSpaceOnUse" />
    <linearGradient
       xlink:href="#b"
       id="s"
       gradientUnits="userSpaceOnUse"
       gradientTransform="matrix(3.34375 0 0 2.9282 188.009 201.41)"
       x1="33.094"
       y1="10.504"
       x2="29.904"
       y2="14.147" />
    <linearGradient
       id="h"
       osb:paint="solid">
      <stop
         offset="0"
         stop-color="#fff"
         stop-opacity=".278"
         id="stop2221" />
    </linearGradient>
    <linearGradient
       gradientTransform="matrix(1.33315 0 0 1.33744 58.69 55.498)"
       xlink:href="#h"
       id="q"
       gradientUnits="userSpaceOnUse"
       x1="188"
       y1="173.5"
       x2="189"
       y2="173.5" />
    <linearGradient
       inkscape:collect="always"
       xlink:href="#a-2"
       id="linearGradient1679"
       gradientUnits="userSpaceOnUse"
       gradientTransform="matrix(1.33333,0,0,1.33333,58.667002,56.167)"
       x1="125"
       y1="161.5"
       x2="195"
       y2="161.5" />
    <linearGradient
       id="a-2"
       osb:paint="solid">
      <stop
         offset="0"
         stop-opacity=".078"
         style="stop-color:#000000;stop-opacity:0.11;"
         id="stop15" />
    </linearGradient>
    <linearGradient
       xlink:href="#a-3"
       id="l-9"
       gradientUnits="userSpaceOnUse"
       gradientTransform="matrix(2.92579,0,0,2.9282,-6.162,-6.269)"
       x1="24.117001"
       y1="4.9310002"
       x2="24.058001"
       y2="42.556" />
    <linearGradient
       id="a-3">
      <stop
         offset="0"
         stop-color="#15b5ff"
         id="stop1348" />
      <stop
         offset="1"
         stop-color="#1385ff"
         id="stop1350" />
    </linearGradient>
    <linearGradient
       gradientTransform="matrix(1.33333,0,0,1.33333,-149.333,-151.833)"
       xlink:href="#g"
       id="i-9"
       x1="166"
       y1="133.472"
       x2="193"
       y2="133.472"
       gradientUnits="userSpaceOnUse" />
    <linearGradient
       xlink:href="#d-0"
       id="j-6"
       gradientUnits="userSpaceOnUse"
       gradientTransform="matrix(3.34375,0,0,2.9282,-19.990998,-6.589998)"
       x1="29.792999"
       y1="15.279"
       x2="33.865002"
       y2="11.077" />
    <linearGradient
       id="d-0">
      <stop
         offset="0"
         stop-color="#fff"
         id="stop18" />
      <stop
         offset="1"
         stop-color="#dfdfdf"
         id="stop20" />
    </linearGradient>
    <linearGradient
       gradientTransform="matrix(2,0,0,1.98214,-232.063,-258.75)"
       xlink:href="#h-6"
       id="t"
       x1="127"
       y1="161.5"
       x2="148.03101"
       y2="161.5"
       gradientUnits="userSpaceOnUse" />
    <linearGradient
       id="h-6">
      <stop
         offset="0"
         stop-opacity="0"
         id="stop1368" />
      <stop
         offset="1"
         stop-opacity=".083"
         id="stop1370" />
    </linearGradient>
    <linearGradient
       inkscape:collect="always"
       xlink:href="#a-2"
       id="linearGradient2613"
       gradientUnits="userSpaceOnUse"
       gradientTransform="matrix(1.33333,0,0,1.33333,58.667002,56.167)"
       x1="125"
       y1="161.5"
       x2="195"
       y2="161.5" />
  </defs>
  <g
     id="g2408"
     style="display:inline">
    <path
       style="display:inline;vector-effect:none;fill:url(#linearGradient2613);fill-rule:evenodd;marker:none;paint-order:fill markers stroke;stop-color:#000000"
       d="M 26,6 H 76.000002 L 110,40 v 73 c 0,4.432 -3.568,8 -8,8 H 26 c -4.432,0 -8,-3.568 -8,-8 V 14 c 0,-4.432 3.568,-8 8,-8 z"
       id="path1311"
       sodipodi:nodetypes="sccssssss" />
    <path
       style="display:inline;vector-effect:none;fill:url(#linearGradient1679);fill-rule:evenodd;marker:none;paint-order:fill markers stroke;stop-color:#000000"
       d="M 27,7 H 76.000002 L 109,40 v 72 c 0,4.432 -3.568,8 -8,8 H 27 c -4.432,0 -8,-3.568 -8,-8 V 15 c 0,-4.432 3.568,-8 8,-8 z"
       id="path30" />
    <path
       style="font-variation-settings:normal;display:inline;vector-effect:none;fill:url(#l-9);fill-opacity:1;fill-rule:evenodd;stroke-width:1;stroke-linecap:butt;stroke-linejoin:miter;stroke-miterlimit:4;stroke-dasharray:none;stroke-dashoffset:0;stroke-opacity:1;-inkscape-stroke:none;marker:none;paint-order:fill markers stroke;stop-color:#000000"
       d="M 28,8 H 76.000002 L 108,40 v 71 c 0,4.432 -3.568,8 -8,8 H 28 c -4.432,0 -8,-3.568 -8,-8 V 16 c 0,-4.432 3.568,-8 8,-8 z"
       id="path32" />
    <path
       style="isolation:auto;mix-blend-mode:normal;fill:#ffffff;fill-opacity:0.551077;marker:none"
       d="m 28,8 48.000002,2e-6 v 1 L 24.055375,9.009972 C 24.703838,8.6868626 26.123811,7.9865309 28,8 Z"
       color="#000000"
       display="block"
       overflow="visible"
       fill="url(#h)"
       paint-order="fill markers stroke"
       id="path34"
       sodipodi:nodetypes="ccccc" />
    <path
       d="m 76.000002,8.000002 31.967998,31.966 -29.907998,3.457 c 0,0 -5.312,0.403 -5.224,-5.356 z"
       fill="url(#i)"
       fill-rule="evenodd"
       style="display:inline;fill:url(#i-9)"
       id="path36" />
    <path
       d="m 76.000002,8.000002 31.999998,32 H 81.024002 c 0,0 -5.024,0.042 -5.024,-6.084 z"
       fill="url(#j)"
       fill-rule="evenodd"
       style="fill:url(#j-6)"
       id="path38" />
    <path
       style="display:inline;isolation:auto;mix-blend-mode:normal;fill:url(#t);marker:none"
       d="m 20,16 c 0,0 0,-8 8,-8 H 64 V 119 H 28 c 0,0 -8,0 -8,-8 z"
       color="#000000"
       overflow="visible"
       fill="url(#t)"
       paint-order="fill markers stroke"
       id="path1396"
       sodipodi:nodetypes="ccccccc" />
  </g>
  <path
     style="display:inline;isolation:auto;mix-blend-mode:normal;marker:none"
     d="m 229.333,215.991 v 4.012 H 228 v 1.338 h 1.333 v 4.012 H 228 v 1.338 h 1.333 v 4.012 H 228 v 1.337 h 1.333 v 4.013 H 228 v 1.337 h 1.333 v 4.012 H 228 v 1.338 h 1.333 v 4.012 H 228 v 1.338 h 1.333 v 4.012 H 228 v 1.337 h 1.333 v 4.013 H 228 v 1.337 h 1.333 v 4.012 H 228 v 1.338 h 1.333 v 4.012 H 228 v 1.338 h 1.333 v 4.012 H 228 v 1.337 h 1.333 v 4.013 H 228 v 1.337 h 1.333 V 284.2 H 228 v 1.338 h 1.333 v 4.012 H 228 v 1.338 h 1.333 V 294.9 H 228 v 1.337 h 1.333 v 4.013 H 228 v 1.337 h 1.333 V 305.6 H 228 v 1.337 h 1.333 v 4.012 H 228 v 1.338 h 1.333 v 4.012 H 228 v 1.338 h 1.333 v 4.012 H 228 v 1.337 h 1.333 V 327 h 1.334 v -4.013 h 4 V 327 h 1.332 v -4.013 h 4 V 327 h 1.333 v -4.013 h 4 V 327 h 1.332 v -4.013 h 4 V 327 h 1.333 v -4.013 h 4 V 327 h 1.333 v -4.013 h 4 V 327 h 1.332 v -4.013 h 4 V 327 h 1.333 v -4.013 h 4 V 327 h 1.333 v -4.013 h 3.999 V 327 h 1.333 v -4.013 h 4 V 327 h 1.333 v -4.013 h 4 V 327 h 1.332 v -4.013 h 4 V 327 h 1.333 v -4.013 h 4 v 3.887 h 1.333 v -3.887 h 3.999 V 327 h 1.333 v -4.013 h 4 V 327 h 1.333 v -4.013 h 5.332 v -1.337 h -5.332 v -4.012 h 5.332 V 316.3 h -5.332 v -4.012 h 5.332 v -1.338 h -5.332 v -4.012 h 5.332 V 305.6 h -5.332 v -4.013 h 5.332 v -1.337 h -5.332 v -4.013 h 5.332 V 294.9 h -5.332 v -4.012 h 5.332 v -1.338 h -5.332 v -4.012 h 5.332 V 284.2 h -5.332 v -4.012 h 5.332 v -1.337 h -5.332 v -4.013 h 5.332 v -1.337 h -5.332 v -4.012 h 5.332 v -1.338 h -5.332 v -4.012 h 5.332 V 262.8 h -5.332 v -4.012 h 5.332 v -1.337 h -5.332 v -4.013 h 5.332 v -1.337 h -5.332 v -4.012 h -1.333 v 4.012 h -4 v -4.012 h -1.333 v 4.012 h -4 v -4.138 h -1.333 v 4.138 h -3.999 v -4.012 h -1.333 v 4.012 h -4 v -4.012 h -1.333 v 4.012 h -4 V 215.99 h -1.332 v 4.012 h -4 v -4.012 h -1.333 v 4.012 h -4 v -4.012 h -1.333 v 4.012 h -4 v -4.012 h -1.332 v 4.012 h -4 v -4.012 h -1.333 v 4.012 h -4 v -4.012 h -1.332 v 4.012 h -4 v -4.012 h -1.333 v 4.012 h -4 v -4.012 h -1.333 v 4.012 h -4 V 215.99 H 240 v 4.012 h -4 v -4.012 h -1.333 v 4.012 h -4 v -4.012 z m 1.334,5.35 h 4 v 4.012 h -4 z m 5.332,0 h 4 v 4.012 h -4 z m 5.333,0 h 4 v 4.012 h -4 z m 5.332,0 h 4 v 4.012 h -4 z m 5.333,0 h 4 v 4.012 h -4 z m 5.333,0 h 4 v 4.012 h -4 z m 5.332,0 h 4 v 4.012 h -4 z m 5.333,0 h 4 v 4.012 h -4 z m 5.333,0 h 3.999 v 4.012 h -4 z m 5.332,0 h 4 v 4.012 h -4 z m -47.993,5.35 h 4 v 4.012 h -4 z m 5.332,0 h 4 v 4.012 h -4 z m 5.333,0 h 4 v 4.012 h -4 z m 5.332,0 h 4 v 4.012 h -4 z m 5.333,0 h 4 v 4.012 h -4 z m 5.333,0 h 4 v 4.012 h -4 z m 5.332,0 h 4 v 4.012 h -4 z m 5.333,0 h 4 v 4.012 h -4 z m 5.333,0 h 3.999 v 4.012 h -4 z m 5.332,0 h 4 v 4.012 h -4 z m -47.993,5.35 h 4 v 4.012 h -4 z m 5.332,0 h 4 v 4.012 h -4 z m 5.333,0 h 4 v 4.012 h -4 z m 5.332,0 h 4 v 4.012 h -4 z m 5.333,0 h 4 v 4.012 h -4 z m 5.333,0 h 4 v 4.012 h -4 z m 5.332,0 h 4 v 4.012 h -4 z m 5.333,0 h 4 v 4.012 h -4 z m 5.333,0 h 3.999 v 4.012 h -4 z m 5.332,0 h 4 v 4.012 h -4 z m -47.993,5.35 h 4 v 4.011 h -4 z m 5.332,0 h 4 v 4.011 h -4 z m 5.333,0 h 4 v 4.011 h -4 z m 5.332,0 h 4 v 4.011 h -4 z m 5.333,0 h 4 v 4.011 h -4 z m 5.333,0 h 4 v 4.011 h -4 z m 5.332,0 h 4 v 4.011 h -4 z m 5.333,0 h 4 v 4.011 h -4 z m 5.333,0 h 3.999 v 4.011 h -4 z m 5.332,0 h 4 v 4.011 h -4 z m -47.993,5.349 h 4 v 4.012 h -4 z m 5.332,0 h 4 v 4.012 h -4 z m 5.333,0 h 4 v 4.012 h -4 z m 5.332,0 h 4 v 4.012 h -4 z m 5.333,0 h 4 v 4.012 h -4 z m 5.333,0 h 4 v 4.012 h -4 z m 5.332,0 h 4 v 4.012 h -4 z m 5.333,0 h 4 v 4.012 h -4 z m 5.333,0 h 3.999 v 4.012 h -4 z m 5.332,0 h 4 v 4.012 h -4 z m -47.993,5.35 h 4 v 4.012 h -4 z m 5.332,0 h 4 v 4.012 h -4 z m 5.333,0 h 4 v 4.012 h -4 z m 5.332,0 h 4 v 4.012 h -4 z m 5.333,0 h 4 v 4.012 h -4 z m 5.333,0 h 4 v 4.012 h -4 z m 5.332,0 h 4 v 4.012 h -4 z m 5.333,0 h 4 v 4.012 h -4 z m 5.333,0 h 3.999 v 4.012 h -4 z m 5.332,0 h 4 v 4.012 h -4 z m -47.993,5.35 h 4 v 4.012 h -4 z m 5.332,0 h 4 v 4.012 h -4 z m 5.333,0 h 4 v 4.012 h -4 z m 5.332,0 h 4 v 4.012 h -4 z m 5.333,0 h 4 v 4.012 h -4 z m 5.333,0 h 4 v 4.012 h -4 z m 5.332,0 h 4 v 4.012 h -4 z m 5.333,0 h 4 v 4.012 h -4 z m 5.333,0 h 3.999 v 4.012 h -4 z m 5.332,0 h 4 v 4.012 h -4 z m 5.333,0 h 4 v 4.012 h -4 z m 5.332,0 h 4 v 4.012 h -4 z m 5.333,0 h 4 v 4.012 h -4 z m 5.333,0 h 3.999 v 4.012 h -4 z m 5.332,0 h 4 v 4.012 h -4 z m -74.656,5.35 h 4 v 4.011 h -4 z m 5.332,0 h 4 v 4.011 h -4 z m 5.333,0 h 4 v 4.011 h -4 z m 5.332,0 h 4 v 4.011 h -4 z m 5.333,0 h 4 v 4.011 h -4 z m 5.333,0 h 4 v 4.011 h -4 z m 5.332,0 h 4 v 4.011 h -4 z m 5.333,0 h 4 v 4.011 h -4 z m 5.333,0 h 3.999 v 4.011 h -4 z m 5.332,0 h 4 v 4.011 h -4 z m 5.333,0 h 4 v 4.011 h -4 z m 5.332,0 h 4 v 4.011 h -4 z m 5.333,0 h 4 v 4.011 h -4 z m 5.333,0 h 3.999 v 4.011 h -4 z m 5.332,0 h 4 v 4.011 h -4 z m -74.656,5.349 h 4 v 4.012 h -4 z m 5.332,0 h 4 v 4.012 h -4 z m 5.333,0 h 4 v 4.012 h -4 z m 5.332,0 h 4 v 4.012 h -4 z m 5.333,0 h 4 v 4.012 h -4 z m 5.333,0 h 4 v 4.012 h -4 z m 5.332,0 h 4 v 4.012 h -4 z m 5.333,0 h 4 v 4.012 h -4 z m 5.333,0 h 3.999 v 4.012 h -4 z m 5.332,0 h 4 v 4.012 h -4 z m 5.333,0 h 4 v 4.012 h -4 z m 5.332,0 h 4 v 4.012 h -4 z m 5.333,0 h 4 v 4.012 h -4 z m 5.333,0 h 3.999 v 4.012 h -4 z m 5.332,0 h 4 v 4.012 h -4 z m -74.656,5.35 h 4 v 4.012 h -4 z m 5.332,0 h 4 v 4.012 h -4 z m 5.333,0 h 4 v 4.012 h -4 z m 5.332,0 h 4 v 4.012 h -4 z m 5.333,0 h 4 v 4.012 h -4 z m 5.333,0 h 4 v 4.012 h -4 z m 5.332,0 h 4 v 4.012 h -4 z m 5.333,0 h 4 v 4.012 h -4 z m 5.333,0 h 3.999 v 4.012 h -4 z m 5.332,0 h 4 v 4.012 h -4 z m 5.333,0 h 4 v 4.012 h -4 z m 5.332,0 h 4 v 4.012 h -4 z m 5.333,0 h 4 v 4.012 h -4 z m 5.333,0 h 3.999 v 4.012 h -4 z m 5.332,0 h 4 v 4.012 h -4 z m -74.656,5.35 h 4 v 4.012 h -4 z m 5.332,0 h 4 v 4.012 h -4 z m 5.333,0 h 4 v 4.012 h -4 z m 5.332,0 h 4 v 4.012 h -4 z m 5.333,0 h 4 v 4.012 h -4 z m 5.333,0 h 4 v 4.012 h -4 z m 5.332,0 h 4 v 4.012 h -4 z m 5.333,0 h 4 v 4.012 h -4 z m 5.333,0 h 3.999 v 4.012 h -4 z m 5.332,0 h 4 v 4.012 h -4 z m 5.333,0 h 4 v 4.012 h -4 z m 5.332,0 h 4 v 4.012 h -4 z m 5.333,0 h 4 v 4.012 h -4 z m 5.333,0 h 3.999 v 4.012 h -4 z m 5.332,0 h 4 v 4.012 h -4 z m -74.656,5.35 h 4 v 4.011 h -4 z m 5.332,0 h 4 v 4.011 h -4 z m 5.333,0 h 4 v 4.011 h -4 z m 5.332,0 h 4 v 4.011 h -4 z m 5.333,0 h 4 v 4.011 h -4 z m 5.333,0 h 4 v 4.011 h -4 z m 5.332,0 h 4 v 4.011 h -4 z m 5.333,0 h 4 v 4.011 h -4 z m 5.333,0 h 3.999 v 4.011 h -4 z m 5.332,0 h 4 v 4.011 h -4 z m 5.333,0 h 4 v 4.011 h -4 z m 5.332,0 h 4 v 4.011 h -4 z m 5.333,0 h 4 v 4.011 h -4 z m 5.333,0 h 3.999 v 4.011 h -4 z m 5.332,0 h 4 v 4.011 h -4 z m -74.656,5.349 h 4 v 4.012 h -4 z m 5.332,0 h 4 v 4.012 h -4 z m 5.333,0 h 4 v 4.012 h -4 z m 5.332,0 h 4 v 4.012 h -4 z m 5.333,0 h 4 v 4.012 h -4 z m 5.333,0 h 4 v 4.012 h -4 z m 5.332,0 h 4 v 4.012 h -4 z m 5.333,0 h 4 v 4.012 h -4 z m 5.333,0 h 3.999 v 4.012 h -4 z m 5.332,0 h 4 v 4.012 h -4 z m 5.333,0 h 4 v 4.012 h -4 z m 5.332,0 h 4 v 4.012 h -4 z m 5.333,0 h 4 v 4.012 h -4 z m 5.333,0 h 3.999 v 4.012 h -4 z m 5.332,0 h 4 v 4.012 h -4 z m -74.656,5.35 h 4 v 4.012 h -4 z m 5.332,0 h 4 v 4.012 h -4 z m 5.333,0 h 4 v 4.012 h -4 z m 5.332,0 h 4 v 4.012 h -4 z m 5.333,0 h 4 v 4.012 h -4 z m 5.333,0 h 4 v 4.012 h -4 z m 5.332,0 h 4 v 4.012 h -4 z m 5.333,0 h 4 v 4.012 h -4 z m 5.333,0 h 3.999 v 4.012 h -4 z m 5.332,0 h 4 v 4.012 h -4 z m 5.333,0 h 4 v 4.012 h -4 z m 5.332,0 h 4 v 4.012 h -4 z m 5.333,0 h 4 v 4.012 h -4 z m 5.333,0 h 3.999 v 4.012 h -4 z m 5.332,0 h 4 v 4.012 h -4 z m -74.656,5.35 h 4 v 4.012 h -4 z m 5.332,0 h 4 v 4.012 h -4 z m 5.333,0 h 4 v 4.012 h -4 z m 5.332,0 h 4 v 4.012 h -4 z m 5.333,0 h 4 v 4.012 h -4 z m 5.333,0 h 4 v 4.012 h -4 z m 5.332,0 h 4 v 4.012 h -4 z m 5.333,0 h 4 v 4.012 h -4 z m 5.333,0 h 3.999 v 4.012 h -4 z m 5.332,0 h 4 v 4.012 h -4 z m 5.333,0 h 4 v 4.012 h -4 z m 5.332,0 h 4 v 4.012 h -4 z m 5.333,0 h 4 v 4.012 h -4 z m 5.333,0 h 3.999 v 4.012 h -4 z m 5.332,0 h 4 v 4.012 h -4 z m -74.656,5.35 h 4 v 4.012 h -4 z m 5.332,0 h 4 v 4.012 h -4 z m 5.333,0 h 4 v 4.012 h -4 z m 5.332,0 h 4 v 4.012 h -4 z m 5.333,0 h 4 v 4.012 h -4 z m 5.333,0 h 4 v 4.012 h -4 z m 5.332,0 h 4 v 4.012 h -4 z m 5.333,0 h 4 v 4.012 h -4 z m 5.333,0 h 3.999 v 4.012 h -4 z m 5.332,0 h 4 v 4.012 h -4 z m 5.333,0 h 4 v 4.012 h -4 z m 5.332,0 h 4 v 4.012 h -4 z m 5.333,0 h 4 v 4.012 h -4 z m 5.333,0 h 3.999 v 4.012 h -4 z m 5.332,0 h 4 v 4.012 h -4 z m -74.656,5.349 h 4 v 4.012 h -4 z m 5.332,0 h 4 v 4.012 h -4 z m 5.333,0 h 4 v 4.012 h -4 z m 5.332,0 h 4 v 4.012 h -4 z m 5.333,0 h 4 v 4.012 h -4 z m 5.333,0 h 4 v 4.012 h -4 z m 5.332,0 h 4 v 4.012 h -4 z m 5.333,0 h 4 v 4.012 h -4 z m 5.333,0 h 3.999 v 4.012 h -4 z m 5.332,0 h 4 v 4.012 h -4 z m 5.333,0 h 4 v 4.012 h -4 z m 5.332,0 h 4 v 4.012 h -4 z m 5.333,0 h 4 v 4.012 h -4 z m 5.333,0 h 3.999 v 4.012 h -4 z m 5.332,0 h 4 v 4.012 h -4 z m -74.656,5.35 h 4 v 4.012 h -4 z m 5.332,0 h 4 v 4.012 h -4 z m 5.333,0 h 4 v 4.012 h -4 z m 5.332,0 h 4 v 4.012 h -4 z m 5.333,0 h 4 v 4.012 h -4 z m 5.333,0 h 4 v 4.012 h -4 z m 5.332,0 h 4 v 4.012 h -4 z m 5.333,0 h 4 v 4.012 h -4 z m 5.333,0 h 3.999 v 4.012 h -4 z m 5.332,0 h 4 v 4.012 h -4 z m 5.333,0 h 4 v 4.012 h -4 z m 5.332,0 h 4 v 4.012 h -4 z m 5.333,0 h 4 v 4.012 h -4 z m 5.333,0 h 3.999 v 4.012 h -4 z m 5.332,0 h 4 v 4.012 h -4 z m -74.656,5.35 h 4 v 4.012 h -4 z m 5.332,0 h 4 v 4.012 h -4 z m 5.333,0 h 4 v 4.012 h -4 z m 5.332,0 h 4 v 4.012 h -4 z m 5.333,0 h 4 v 4.012 h -4 z m 5.333,0 h 4 v 4.012 h -4 z m 5.332,0 h 4 v 4.012 h -4 z m 5.333,0 h 4 v 4.012 h -4 z m 5.333,0 h 3.999 v 4.012 h -4 z m 5.332,0 h 4 v 4.012 h -4 z m 5.333,0 h 4 v 4.012 h -4 z m 5.332,0 h 4 v 4.012 h -4 z m 5.333,0 h 4 v 4.012 h -4 z m 5.333,0 h 3.999 v 4.012 h -4 z m 5.332,0 h 4 v 4.012 h -4 z"
     color="#000000"
     overflow="visible"
     opacity="0.4"
     fill="url(#q)"
     paint-order="fill markers stroke"
     transform="translate(-208,-208)"
     id="path2243" />
  <path
     style="display:none;isolation:auto;mix-blend-mode:normal;marker:none"
     d="m 26.685,13.338 h 48.143 l 26.03,26.63 0.716,73.684 h -74.89 z"
     color="#000000"
     overflow="visible"
     fill="none"
     stroke="#b3d4ee"
     stroke-width="2.669"
     stroke-opacity="0.214"
     paint-order="fill markers stroke"
     id="path2245" />
  <g
     id="g2508">
    <path
       d="M33.375 86.9h53.497V56.139z"
       fill="none"
       stroke="#b8eff9"
       stroke-width="2.675"
       id="path2247" />
    <path
       style="line-height:normal;font-variant-ligatures:normal;font-variant-position:normal;font-variant-caps:normal;font-variant-numeric:normal;font-variant-alternates:normal;font-feature-settings:normal;text-indent:0;text-align:start;text-decoration-line:none;text-decoration-style:solid;text-decoration-color:#000000;text-transform:none;text-orientation:mixed;shape-padding:0;display:inline;isolation:auto;mix-blend-mode:normal"
       d="m 86.029,44.507 -0.303,2.233 -2.08,-0.87 -0.135,0.324 2.165,0.907 -0.047,0.347 -59.064,34.102 0.177,-1.3 -0.347,-0.05 -0.214,1.572 -0.614,0.356 0.065,0.114 -1.62,-0.679 -0.135,0.324 2.165,0.91 -0.316,2.324 0.35,0.05 0.303,-2.234 2.077,0.87 0.138,-0.324 -2.168,-0.909 0.055,-0.4 59.064,-34.102 -0.185,1.356 0.35,0.047 0.222,-1.627 0.643,-0.371 1.517,0.637 0.136,-0.326 -1.424,-0.596 -0.182,-0.316 -0.24,0.139 -0.32,-0.134 0.317,-2.327 z m 6.52,7.228 -0.21,0.269 1.584,1.225 v 0.209 l -1.594,1.212 0.207,0.272 1.387,-1.056 v 34.147 l -1.602,-1.241 -0.198,0.256 1.633,1.264 -1.644,1.249 0.196,0.256 1.711,-1.3 1.7,1.313 0.2,-0.253 -1.453,-1.124 v -0.277 l 1.463,-1.112 -0.196,-0.256 -1.267,0.964 V 53.649 l 1.664,1.286 0.209,-0.267 -1.721,-1.332 1.731,-1.317 -0.206,-0.271 -1.682,1.277 h -0.246 z m -36.456,3.618 -1.711,0.987 0.935,1.62 c 0.09,-0.125 0.185,-0.235 0.285,-0.327 0.102,-0.093 0.21,-0.173 0.326,-0.24 0.25,-0.144 0.485,-0.194 0.706,-0.147 0.22,0.048 0.395,0.183 0.525,0.408 0.13,0.224 0.158,0.446 0.089,0.66 -0.07,0.216 -0.23,0.395 -0.478,0.539 a 1.958,1.958 0 0 1 -0.959,0.274 l 0.25,0.439 c 0.177,-0.04 0.341,-0.091 0.494,-0.149 a 2.98,2.98 0 0 0 0.437,-0.204 c 0.392,-0.226 0.641,-0.499 0.747,-0.815 0.104,-0.317 0.056,-0.648 -0.144,-0.995 -0.194,-0.337 -0.455,-0.543 -0.778,-0.619 -0.324,-0.076 -0.665,-0.009 -1.024,0.199 a 1.328,1.328 0 0 0 -0.342,0.285 l -0.458,-0.792 1.312,-0.758 z m -2.837,1.893 c -0.295,-0.052 -0.609,0.017 -0.943,0.21 a 2.143,2.143 0 0 0 -0.39,0.297 4.013,4.013 0 0 0 -0.399,0.444 l 0.256,0.44 c 0.117,-0.197 0.237,-0.362 0.36,-0.497 a 1.68,1.68 0 0 1 0.393,-0.321 c 0.192,-0.112 0.38,-0.15 0.561,-0.11 a 0.621,0.621 0 0 1 0.423,0.316 c 0.06,0.105 0.095,0.226 0.102,0.368 0.008,0.14 -0.013,0.33 -0.062,0.567 -0.026,0.126 -0.098,0.415 -0.217,0.87 -0.119,0.452 -0.21,0.812 -0.277,1.079 l 0.211,0.368 2.046,-1.183 -0.212,-0.366 -1.52,0.878 c 0.144,-0.561 0.253,-0.996 0.332,-1.306 0.077,-0.312 0.124,-0.5 0.136,-0.562 a 2.06,2.06 0 0 0 0.026,-0.575 1.105,1.105 0 0 0 -0.142,-0.42 0.957,0.957 0 0 0 -0.684,-0.497 z m -3.289,1.64 -0.436,0.254 -0.679,0.601 0.227,0.397 0.687,-0.603 1.419,2.458 -0.713,0.413 0.211,0.365 1.857,-1.07 -0.211,-0.37 -0.713,0.414 z m 51.306,11.361 c -0.417,0 -0.737,0.166 -0.958,0.497 -0.22,0.329 -0.33,0.806 -0.33,1.434 0,0.626 0.11,1.106 0.33,1.436 0.22,0.33 0.541,0.494 0.958,0.494 0.417,0 0.735,-0.165 0.954,-0.494 0.22,-0.33 0.332,-0.81 0.332,-1.436 0,-0.628 -0.111,-1.105 -0.332,-1.434 -0.22,-0.331 -0.537,-0.497 -0.954,-0.497 z m -4.323,0.066 v 1.87 c 0.14,-0.063 0.277,-0.109 0.41,-0.139 0.135,-0.03 0.268,-0.044 0.403,-0.044 0.287,0 0.516,0.073 0.684,0.225 0.168,0.15 0.25,0.357 0.25,0.616 0,0.26 -0.082,0.465 -0.25,0.617 -0.168,0.15 -0.397,0.227 -0.684,0.227 a 1.956,1.956 0 0 1 -0.97,-0.243 v 0.507 c 0.173,0.053 0.34,0.09 0.502,0.117 0.163,0.027 0.322,0.042 0.478,0.042 0.454,0 0.806,-0.11 1.055,-0.332 0.25,-0.222 0.374,-0.534 0.374,-0.935 0,-0.389 -0.123,-0.697 -0.366,-0.925 -0.242,-0.227 -0.572,-0.342 -0.987,-0.342 -0.073,0 -0.144,0.008 -0.217,0.021 -0.073,0.012 -0.146,0.03 -0.22,0.055 v -0.912 h 1.516 v -0.426 z m 4.323,0.331 c 0.261,0 0.456,0.128 0.586,0.384 0.13,0.255 0.195,0.638 0.195,1.15 0,0.51 -0.064,0.893 -0.195,1.15 -0.13,0.253 -0.325,0.38 -0.586,0.38 -0.259,0 -0.456,-0.127 -0.587,-0.38 -0.13,-0.257 -0.194,-0.64 -0.194,-1.15 0,-0.512 0.064,-0.895 0.194,-1.15 0.13,-0.256 0.328,-0.384 0.587,-0.384 z M 26.097,82.397 26.092,82.433 26.058,82.42 Z m 5.104,11.501 -0.269,0.206 1.26,1.654 v 0.293 l -1.275,1.648 0.269,0.209 1.332,-1.719 1.317,1.73 0.269,-0.207 -1.244,-1.633 h 52.453 l -1.18,1.528 0.255,0.199 1.262,-1.633 1.251,1.643 0.256,-0.196 -1.18,-1.551 V 95.753 L 87.17,94.209 86.914,94.01 85.83,95.41 H 85.475 L 84.4,94 l -0.256,0.196 0.925,1.215 h -51.95 l 1,-1.294 -0.269,-0.208 -1.162,1.502 h -0.335 z m 29.445,6.024 c -0.417,0 -0.735,0.165 -0.956,0.496 -0.22,0.33 -0.33,0.809 -0.33,1.437 0,0.626 0.11,1.103 0.33,1.434 0.221,0.329 0.539,0.494 0.956,0.494 0.417,0 0.737,-0.165 0.956,-0.494 0.221,-0.33 0.33,-0.808 0.33,-1.434 0,-0.628 -0.109,-1.108 -0.33,-1.437 -0.22,-0.33 -0.539,-0.496 -0.956,-0.496 z m 3.25,0 c -0.417,0 -0.735,0.165 -0.956,0.496 -0.22,0.33 -0.33,0.809 -0.33,1.437 0,0.626 0.11,1.103 0.33,1.434 0.22,0.329 0.539,0.494 0.956,0.494 0.417,0 0.736,-0.165 0.956,-0.494 0.22,-0.33 0.331,-0.808 0.331,-1.434 0,-0.628 -0.11,-1.108 -0.331,-1.437 -0.22,-0.33 -0.54,-0.496 -0.956,-0.496 z m -6.672,0.068 -0.89,0.18 v 0.457 l 0.895,-0.18 v 2.84 h -0.823 v 0.423 h 2.145 v -0.424 H 57.728 V 99.99 Z m 3.422,0.332 c 0.26,0 0.456,0.128 0.585,0.384 0.131,0.254 0.199,0.637 0.199,1.149 0,0.51 -0.068,0.89 -0.199,1.147 -0.13,0.254 -0.324,0.381 -0.585,0.381 -0.26,0 -0.454,-0.127 -0.585,-0.381 -0.13,-0.256 -0.196,-0.637 -0.196,-1.147 0,-0.512 0.066,-0.895 0.196,-1.15 0.131,-0.255 0.326,-0.383 0.585,-0.383 z m 3.25,0 c 0.26,0 0.458,0.128 0.587,0.384 0.132,0.254 0.196,0.637 0.196,1.149 0,0.51 -0.064,0.89 -0.196,1.147 -0.13,0.254 -0.327,0.381 -0.587,0.381 -0.26,0 -0.454,-0.127 -0.586,-0.381 -0.13,-0.256 -0.193,-0.637 -0.193,-1.147 0,-0.512 0.064,-0.895 0.193,-1.15 0.132,-0.255 0.326,-0.383 0.586,-0.383 z"
       color="#000000"
       font-weight="400"
       font-family="sans-serif"
       white-space="normal"
       overflow="visible"
       fill="#f8f8f8"
       fill-rule="evenodd"
       id="path2249" />
    <path
       d="m 49.844,24.329 v 4.513 h 0.533 V 24.33 Z m -16.415,0.182 v 0.494 h 1.538 v 3.837 h 0.588 v -3.837 h 1.539 v -0.494 z m 21.697,0.16 v 0.922 h -0.392 v 0.415 h 0.392 v 1.763 c 0,0.406 0.078,0.687 0.235,0.841 0.156,0.153 0.44,0.23 0.851,0.23 h 0.549 v -0.446 h -0.549 c -0.222,0 -0.368,-0.037 -0.441,-0.113 -0.072,-0.075 -0.11,-0.247 -0.11,-0.512 v -1.763 h 1.1 v -0.415 h -1.1 V 24.671 Z M 37.99,25.514 c -0.488,0 -0.875,0.157 -1.163,0.47 -0.286,0.312 -0.43,0.733 -0.43,1.265 0,0.514 0.152,0.923 0.454,1.225 0.303,0.302 0.712,0.452 1.23,0.452 0.207,0 0.413,-0.02 0.614,-0.063 0.201,-0.042 0.396,-0.104 0.588,-0.185 v -0.507 c -0.19,0.1 -0.382,0.177 -0.575,0.227 -0.191,0.05 -0.388,0.076 -0.593,0.076 -0.354,0 -0.631,-0.096 -0.83,-0.287 -0.198,-0.194 -0.306,-0.474 -0.33,-0.841 h 2.453 v -0.262 c 0,-0.483 -0.129,-0.866 -0.384,-1.146 -0.253,-0.283 -0.597,-0.424 -1.034,-0.424 z m 3.855,0 c -0.234,0 -0.436,0.05 -0.606,0.144 -0.17,0.095 -0.317,0.24 -0.439,0.439 v -0.504 h -0.538 v 3.25 H 40.8 v -1.837 c 0,-0.315 0.08,-0.566 0.24,-0.75 0.161,-0.185 0.379,-0.277 0.651,-0.277 0.23,0 0.4,0.074 0.51,0.225 0.11,0.149 0.164,0.382 0.164,0.695 v 1.943 h 0.538 v -1.836 c 0,-0.317 0.08,-0.569 0.24,-0.752 0.161,-0.184 0.38,-0.275 0.656,-0.275 0.226,0 0.394,0.074 0.504,0.225 0.11,0.15 0.168,0.384 0.168,0.695 v 1.943 h 0.535 v -1.961 c 0,-0.437 -0.093,-0.773 -0.277,-1.009 -0.184,-0.238 -0.442,-0.358 -0.78,-0.358 -0.252,0 -0.47,0.059 -0.657,0.173 -0.185,0.114 -0.347,0.29 -0.48,0.53 a 1.043,1.043 0 0 0 -0.368,-0.522 0.985,0.985 0 0 0 -0.599,-0.18 z m 5.784,0 c -0.238,0 -0.445,0.05 -0.617,0.144 a 1.1,1.1 0 0 0 -0.423,0.429 v -0.494 h -0.535 v 4.485 h 0.535 v -1.724 c 0.112,0.193 0.253,0.339 0.423,0.434 0.172,0.092 0.379,0.138 0.617,0.138 0.394,0 0.713,-0.157 0.958,-0.47 0.248,-0.313 0.371,-0.725 0.371,-1.236 0,-0.51 -0.123,-0.922 -0.37,-1.235 a 1.16,1.16 0 0 0 -0.96,-0.47 z m 5.002,0 c -0.174,0 -0.352,0.02 -0.535,0.058 a 3.47,3.47 0 0 0 -0.57,0.17 v 0.493 a 2.15,2.15 0 0 1 1.05,-0.269 c 0.292,0 0.519,0.069 0.68,0.204 0.162,0.134 0.242,0.324 0.242,0.57 v 0.052 h -0.747 c -0.485,0 -0.851,0.091 -1.097,0.277 -0.244,0.185 -0.366,0.462 -0.366,0.828 0,0.313 0.098,0.562 0.293,0.75 0.197,0.185 0.461,0.279 0.794,0.279 0.263,0 0.487,-0.046 0.669,-0.138 0.182,-0.095 0.332,-0.242 0.454,-0.44 v 0.494 h 0.533 v -1.854 c 0,-0.495 -0.115,-0.864 -0.347,-1.108 -0.232,-0.243 -0.583,-0.366 -1.053,-0.366 z m 6.196,0 c -0.487,0 -0.874,0.157 -1.162,0.47 -0.286,0.312 -0.431,0.733 -0.431,1.265 0,0.514 0.15,0.923 0.452,1.225 0.303,0.302 0.714,0.452 1.233,0.452 0.207,0 0.412,-0.02 0.613,-0.063 0.202,-0.042 0.397,-0.104 0.588,-0.185 v -0.507 c -0.19,0.1 -0.381,0.177 -0.574,0.227 -0.192,0.05 -0.388,0.076 -0.593,0.076 -0.354,0 -0.632,-0.096 -0.831,-0.287 -0.197,-0.194 -0.309,-0.474 -0.332,-0.841 h 2.456 v -0.262 c 0,-0.483 -0.13,-0.866 -0.384,-1.146 -0.254,-0.283 -0.598,-0.424 -1.035,-0.424 z m -11.329,0.447 c 0.282,0 0.503,0.113 0.664,0.337 0.162,0.222 0.243,0.53 0.243,0.922 0,0.393 -0.081,0.7 -0.243,0.925 a 0.774,0.774 0 0 1 -0.664,0.334 0.785,0.785 0 0 1 -0.669,-0.334 c -0.16,-0.224 -0.24,-0.532 -0.24,-0.925 0,-0.392 0.08,-0.7 0.24,-0.922 a 0.783,0.783 0 0 1 0.67,-0.337 z m -9.503,0.005 c 0.263,0 0.474,0.087 0.632,0.261 0.16,0.174 0.245,0.408 0.248,0.7 l -1.904,0.003 c 0.027,-0.305 0.13,-0.542 0.308,-0.71 0.18,-0.168 0.418,-0.253 0.716,-0.253 z m 20.837,0 c 0.263,0 0.474,0.087 0.633,0.261 0.16,0.174 0.244,0.408 0.248,0.7 l -1.905,0.003 c 0.028,-0.305 0.13,-0.542 0.309,-0.71 0.18,-0.168 0.418,-0.253 0.715,-0.253 z m -5.864,1.244 h 0.53 v 0.117 c 0,0.348 -0.089,0.628 -0.269,0.839 a 0.887,0.887 0 0 1 -0.71,0.313 c -0.215,0 -0.387,-0.054 -0.512,-0.164 a 0.58,0.58 0 0 1 -0.186,-0.452 c 0,-0.238 0.085,-0.409 0.251,-0.507 0.166,-0.099 0.465,-0.146 0.896,-0.146 z"
       style="line-height:1000%;display:inline"
       font-family="sans-serif"
       letter-spacing="0"
       word-spacing="0"
       fill="#ffffff"
       fill-opacity="0.531"
       id="path2251" />
  </g>
  <path
     d="m 284,216 32,32 -36,4 z"
     fill="url(#r)"
     fill-rule="evenodd"
     transform="translate(-208,-208)"
     id="path2253"
     style="display:none" />
  <path
     d="m 284,216 32,32 h -32 z"
     fill="url(#s)"
     fill-rule="evenodd"
     transform="translate(-208,-208)"
     id="path2255"
     style="display:none" />
</svg>
