<?xml version="1.0" encoding="UTF-8" standalone="no"?>
<svg
   height="128"
   width="128"
   version="1.1"
   id="svg40"
   sodipodi:docname="text-x-generic.svg"
   inkscape:version="1.2.2 (b0a8486541, 2022-12-01)"
   xmlns:inkscape="http://www.inkscape.org/namespaces/inkscape"
   xmlns:sodipodi="http://sodipodi.sourceforge.net/DTD/sodipodi-0.dtd"
   xmlns:xlink="http://www.w3.org/1999/xlink"
   xmlns="http://www.w3.org/2000/svg"
   xmlns:svg="http://www.w3.org/2000/svg"
   xmlns:osb="http://www.openswatchbook.org/uri/2009/osb">
  <sodipodi:namedview
     id="namedview42"
     pagecolor="#ffffff"
     bordercolor="#000000"
     borderopacity="0.25"
     inkscape:showpageshadow="2"
     inkscape:pageopacity="0.0"
     inkscape:pagecheckerboard="0"
     inkscape:deskcolor="#d1d1d1"
     showgrid="true"
     inkscape:zoom="8.0234375"
     inkscape:cx="53.219085"
     inkscape:cy="64.062317"
     inkscape:window-width="2400"
     inkscape:window-height="1281"
     inkscape:window-x="1920"
     inkscape:window-y="32"
     inkscape:window-maximized="1"
     inkscape:current-layer="svg40">
    <inkscape:grid
       type="xygrid"
       id="grid330" />
  </sodipodi:namedview>
  <defs
     id="defs28">
    <linearGradient
       id="e">
      <stop
         style="stop-color:#dadada;stop-opacity:1;"
         offset="0"
         id="stop2" />
      <stop
         style="stop-color:#e9e9e9;stop-opacity:1;"
         offset="0.50999999"
         id="stop4" />
      <stop
         style="stop-color:#f0f0f0;stop-opacity:1;"
         offset="1"
         id="stop6" />
    </linearGradient>
    <linearGradient
       id="c"
       osb:paint="solid">
      <stop
         offset="0"
         stop-opacity=".196"
         id="stop9" />
    </linearGradient>
    <linearGradient
       id="b"
       osb:paint="solid">
      <stop
         offset="0"
         stop-color="#fff"
         stop-opacity=".782"
         id="stop12" />
    </linearGradient>
    <linearGradient
       id="a"
       osb:paint="solid">
      <stop
         offset="0"
         stop-opacity=".078"
         style="stop-color:#000000;stop-opacity:0.11;"
         id="stop15" />
    </linearGradient>
    <linearGradient
       id="d">
      <stop
         offset="0"
         stop-color="#fff"
         id="stop18" />
      <stop
         offset="1"
         stop-color="#dfdfdf"
         id="stop20" />
    </linearGradient>
    <linearGradient
       gradientTransform="translate(58.667 56.167) scale(1.33333)"
       xlink:href="#a"
       id="f"
       x1="125"
       y1="161.5"
       x2="195"
       y2="161.5"
       gradientUnits="userSpaceOnUse" />
    <linearGradient
       gradientTransform="translate(58.667 56.167) scale(1.33333)"
       xlink:href="#b"
       id="h"
       x1="127"
       y1="120.5"
       x2="169"
       y2="120.5"
       gradientUnits="userSpaceOnUse" />
    <linearGradient
       gradientTransform="translate(58.667 56.167) scale(1.33333)"
       xlink:href="#c"
       id="i"
       x1="166"
       y1="133.472"
       x2="193"
       y2="133.472"
       gradientUnits="userSpaceOnUse" />
    <linearGradient
       xlink:href="#d"
       id="j"
       gradientUnits="userSpaceOnUse"
       gradientTransform="matrix(3.34375 0 0 2.9282 188.009 201.41)"
       x1="29.793"
       y1="15.279"
       x2="33.865"
       y2="11.077" />
    <linearGradient
       xlink:href="#e"
       id="g"
       x1="71"
       y1="114"
       x2="46"
       y2="32"
       gradientUnits="userSpaceOnUse" />
  </defs>
  <path
     style="opacity:1;vector-effect:none;fill:url(#f);fill-rule:evenodd;marker:none;paint-order:fill markers stroke;stop-color:#000000;stop-opacity:1"
     d="m 26,6 h 50 l 34,34 v 73 c 0,4.432 -3.568,8 -8,8 H 26 c -4.432,0 -8,-3.568 -8,-8 V 14 c 0,-4.432 3.568,-8 8,-8 z"
     id="path1311"
     sodipodi:nodetypes="sccssssss" />
  <path
     style="opacity:1;vector-effect:none;fill:url(#f);fill-rule:evenodd;marker:none;paint-order:fill markers stroke;stop-color:#000;stop-opacity:1"
     d="M27 7h49l33 33v72c0 4.432-3.568 8-8 8H27c-4.432 0-8-3.568-8-8V15c0-4.432 3.568-8 8-8z"
     id="path30" />
  <path
     style="opacity:1;vector-effect:none;fill:url(#g);fill-rule:evenodd;marker:none;paint-order:fill markers stroke;stop-color:#000;stop-opacity:1"
     d="M28 8h48l32 32v71c0 4.432-3.568 8-8 8H28c-4.432 0-8-3.568-8-8V16c0-4.432 3.568-8 8-8z"
     id="path32" />
  <path
     style="isolation:auto;mix-blend-mode:normal;fill:#fff;fill-opacity:1;marker:none"
     d="M235 216h49v1h-52a15.031 15.031 0 0 1 3-1z"
     color="#000"
     display="block"
     overflow="visible"
     fill="url(#h)"
     paint-order="fill markers stroke"
     transform="translate(-208 -208)"
     id="path34" />
  <path
     d="m284 216 31.968 31.966-29.908 3.457s-5.312.403-5.224-5.356z"
     fill="url(#i)"
     fill-rule="evenodd"
     transform="translate(-208 -208)"
     style="display:inline"
     id="path36" />
  <path
     d="m284 216 32 32h-26.976s-5.024.042-5.024-6.084z"
     fill="url(#j)"
     fill-rule="evenodd"
     transform="translate(-208 -208)"
     style="fill:url(#j)"
     id="path38" />
</svg>
