<?xml version="1.0" encoding="UTF-8" standalone="no"?>
<svg
   height="128"
   viewBox="0 0 128 128"
   width="128"
   version="1.1"
   id="svg134"
   sodipodi:docname="video-x-generic.svg"
   inkscape:version="1.2.2 (b0a8486541, 2022-12-01)"
   xmlns:inkscape="http://www.inkscape.org/namespaces/inkscape"
   xmlns:sodipodi="http://sodipodi.sourceforge.net/DTD/sodipodi-0.dtd"
   xmlns:xlink="http://www.w3.org/1999/xlink"
   xmlns="http://www.w3.org/2000/svg"
   xmlns:svg="http://www.w3.org/2000/svg"
   xmlns:osb="http://www.openswatchbook.org/uri/2009/osb">
  <sodipodi:namedview
     id="namedview136"
     pagecolor="#ffffff"
     bordercolor="#000000"
     borderopacity="0.25"
     inkscape:showpageshadow="2"
     inkscape:pageopacity="0.0"
     inkscape:pagecheckerboard="0"
     inkscape:deskcolor="#d1d1d1"
     showgrid="true"
     inkscape:zoom="111.15155"
     inkscape:cx="25.2763"
     inkscape:cy="116.7685"
     inkscape:window-width="2400"
     inkscape:window-height="1281"
     inkscape:window-x="1920"
     inkscape:window-y="32"
     inkscape:window-maximized="1"
     inkscape:current-layer="svg134">
    <inkscape:grid
       type="xygrid"
       id="grid491" />
  </sodipodi:namedview>
  <title
     id="title2">Template icons dark</title>
  <defs
     id="defs86">
    <linearGradient
       id="g"
       osb:paint="solid">
      <stop
         offset="0"
         stop-opacity=".196"
         id="stop4" />
    </linearGradient>
    <linearGradient
       id="f"
       osb:paint="solid">
      <stop
         offset="0"
         stop-color="#fff"
         stop-opacity=".208"
         id="stop7" />
    </linearGradient>
    <linearGradient
       id="e"
       osb:paint="solid">
      <stop
         offset="0"
         stop-opacity=".078"
         id="stop10" />
    </linearGradient>
    <linearGradient
       id="d"
       osb:paint="solid">
      <stop
         offset="0"
         stop-opacity=".157"
         id="stop13" />
    </linearGradient>
    <linearGradient
       id="b">
      <stop
         offset="0"
         stop-color="#bf72f7"
         id="stop16" />
      <stop
         offset="1"
         stop-color="#ae37d5"
         id="stop18" />
    </linearGradient>
    <linearGradient
       id="a">
      <stop
         offset="0"
         stop-color="#e730f4"
         id="stop21" />
      <stop
         offset="1"
         stop-color="#894bed"
         id="stop23" />
    </linearGradient>
    <linearGradient
       id="c">
      <stop
         offset="0"
         stop-opacity="0"
         id="stop26" />
      <stop
         offset="1"
         stop-opacity=".102"
         id="stop28" />
    </linearGradient>
    <linearGradient
       gradientTransform="translate(58.667 56.167) scale(1.33333)"
       xlink:href="#e"
       id="o"
       x1="125"
       y1="161.5"
       x2="195"
       y2="161.5"
       gradientUnits="userSpaceOnUse" />
    <linearGradient
       gradientTransform="translate(58.667 56.167) scale(1.33333)"
       xlink:href="#d"
       id="p"
       x1="126"
       y1="161.5"
       x2="194"
       y2="161.5"
       gradientUnits="userSpaceOnUse" />
    <linearGradient
       xlink:href="#a"
       id="q"
       gradientUnits="userSpaceOnUse"
       gradientTransform="matrix(2.92579 0 0 2.9282 201.838 201.731)"
       x1="24.117"
       y1="4.931"
       x2="24.058"
       y2="42.556" />
    <linearGradient
       xlink:href="#c"
       id="r"
       gradientUnits="userSpaceOnUse"
       gradientTransform="matrix(2.92579 0 0 2.9282 201.838 201.731)"
       x1="23.981"
       y1="23.144"
       x2="45.855"
       y2="45" />
    <linearGradient
       xlink:href="#c"
       id="s"
       gradientUnits="userSpaceOnUse"
       gradientTransform="matrix(2.92579 0 0 2.9282 201.838 201.731)"
       x1="23.981"
       y1="23.144"
       x2="2.106"
       y2="45" />
    <linearGradient
       xlink:href="#c"
       id="t"
       gradientUnits="userSpaceOnUse"
       gradientTransform="matrix(2.92579 0 0 2.9282 201.838 201.731)"
       x1="23.981"
       y1="23.144"
       x2="45.855"
       y2="1.287" />
    <linearGradient
       xlink:href="#c"
       id="u"
       gradientUnits="userSpaceOnUse"
       gradientTransform="matrix(2.92579 0 0 2.9282 201.838 201.731)"
       x1="23.981"
       y1="23.144"
       x2="2.106"
       y2="1.287" />
    <linearGradient
       gradientTransform="translate(58.667 56.167) scale(1.33333)"
       xlink:href="#f"
       id="v"
       x1="127"
       y1="120.5"
       x2="169"
       y2="120.5"
       gradientUnits="userSpaceOnUse" />
    <linearGradient
       gradientTransform="translate(58.667 56.167) scale(1.33333)"
       xlink:href="#g"
       id="D"
       x1="166"
       y1="133.472"
       x2="193"
       y2="133.472"
       gradientUnits="userSpaceOnUse" />
    <linearGradient
       xlink:href="#b"
       id="E"
       gradientUnits="userSpaceOnUse"
       gradientTransform="matrix(3.34375 0 0 2.9282 188.009 201.41)"
       x1="33.094"
       y1="10.504"
       x2="29.904"
       y2="14.147" />
    <linearGradient
       id="h">
      <stop
         offset="0"
         stop-color="#e8b2ff"
         id="stop41" />
      <stop
         offset="1"
         stop-color="#bfa4fc"
         stop-opacity=".908"
         id="stop43" />
    </linearGradient>
    <linearGradient
       id="n">
      <stop
         offset="0"
         stop-color="#fff"
         id="stop46" />
      <stop
         offset="1"
         stop-color="#b5b2b5"
         id="stop48" />
    </linearGradient>
    <linearGradient
       id="i">
      <stop
         offset="0"
         stop-color="#1d1f23"
         id="stop51" />
      <stop
         offset=".361"
         stop-color="#515359"
         id="stop53" />
      <stop
         offset="1"
         stop-color="#484848"
         id="stop55" />
    </linearGradient>
    <linearGradient
       id="j">
      <stop
         offset="0"
         stop-color="#a5a6ad"
         id="stop58" />
      <stop
         offset="1"
         stop-color="#ded7de"
         id="stop60" />
    </linearGradient>
    <linearGradient
       id="k">
      <stop
         offset="0"
         stop-color="#ada6ad"
         id="stop63" />
      <stop
         offset="1"
         stop-color="#ded7de"
         id="stop65" />
    </linearGradient>
    <linearGradient
       id="l">
      <stop
         offset="0"
         stop-color="#242424"
         id="stop68" />
      <stop
         offset="1"
         stop-color="#3a333a"
         id="stop70" />
    </linearGradient>
    <linearGradient
       id="m">
      <stop
         offset="0"
         stop-color="#211721"
         id="stop73" />
      <stop
         offset="1"
         stop-color="#332f39"
         id="stop75" />
    </linearGradient>
    <linearGradient
       xlink:href="#i"
       id="C"
       gradientUnits="userSpaceOnUse"
       gradientTransform="matrix(.8233 0 0 .8233 222.347 210.309)"
       x1="14.128"
       y1="36.045"
       x2="14.128"
       y2="11.771" />
    <linearGradient
       xlink:href="#j"
       id="B"
       x1="64.483"
       y1="994.038"
       x2="64.483"
       y2="980.267"
       gradientUnits="userSpaceOnUse"
       gradientTransform="matrix(.8233 0 0 .8233 225.311 -576.97)" />
    <linearGradient
       xlink:href="#j"
       id="A"
       gradientUnits="userSpaceOnUse"
       gradientTransform="matrix(.8233 0 0 .8233 227.922 -577.132)"
       x1="64.483"
       y1="994.038"
       x2="64.483"
       y2="980.267" />
    <linearGradient
       xlink:href="#k"
       id="z"
       gradientUnits="userSpaceOnUse"
       gradientTransform="matrix(.8233 0 0 .8233 227.922 -577.132)"
       x1="40.574"
       y1="978.823"
       x2="40.574"
       y2="962.158" />
    <linearGradient
       xlink:href="#k"
       id="y"
       gradientUnits="userSpaceOnUse"
       gradientTransform="matrix(.8233 0 0 .8233 225.311 -576.97)"
       x1="40.574"
       y1="978.823"
       x2="40.574"
       y2="962.158" />
    <linearGradient
       xlink:href="#l"
       id="x"
       gradientUnits="userSpaceOnUse"
       gradientTransform="matrix(.8233 0 0 .77184 222.347 -527.49)"
       x1="52.891"
       y1="995.124"
       x2="52.891"
       y2="980.244" />
    <linearGradient
       xlink:href="#m"
       id="w"
       x1="49.087"
       y1="22.098"
       x2="49.087"
       y2="7.789"
       gradientUnits="userSpaceOnUse"
       gradientTransform="matrix(.8233 0 0 .8233 222.347 209.486)" />
    <radialGradient
       xlink:href="#n"
       id="F"
       cx="-3.76"
       cy="21.906"
       fx="-3.76"
       fy="21.906"
       r="3.906"
       gradientUnits="userSpaceOnUse"
       gradientTransform="matrix(.61744 -.58938 .59105 .6192 223.129 212.943)" />
  </defs>
  <g
     transform="translate(-208 -208)"
     id="g132">
    <path
       d="m 226,221 c 0,0 0,-7 7.99522,-7 H 284 l 34,34 v 73 c 0,0 0,8 -8,8 h -77 c -7,0 -7,-6 -7,-6 z"
       style="isolation:auto;mix-blend-mode:normal;marker:none"
       color="#000000"
       overflow="visible"
       fill="url(#o)"
       paint-order="fill markers stroke"
       id="path88"
       sodipodi:nodetypes="ccccccccc" />
    <path
       style="isolation:auto;mix-blend-mode:normal;marker:none"
       d="m 227,222 c 0,0 0,-7 7,-7 h 50 l 33,33 v 73 c 0,0 0,7 -7,7 h -77 c -6.08631,-0.0717 -6,-6 -6,-6 z"
       color="#000000"
       overflow="visible"
       fill="url(#p)"
       paint-order="fill markers stroke"
       id="path90"
       sodipodi:nodetypes="ccccccccc" />
    <path
       d="m 228,222 c 0,0 0,-6 6,-6 h 50 l 32,32 v 73 c 0,0 0,6 -6,6 h -76 c -6,0 -6,-6 -6,-6 z"
       style="display:inline;isolation:auto;mix-blend-mode:normal;marker:none"
       color="#000000"
       overflow="visible"
       fill="url(#q)"
       paint-order="fill markers stroke"
       id="path92"
       sodipodi:nodetypes="ccccccccc" />
    <path
       style="display:inline;isolation:auto;mix-blend-mode:normal;marker:none"
       d="m 228,222 c 0,0 0,-6 6,-6 h 50 l 32,32 v 73 c 0,0 0,6 -6,6 h -76 c -6,0 -6,-6 -6,-6 z"
       color="#000000"
       overflow="visible"
       fill="url(#r)"
       paint-order="fill markers stroke"
       id="path94"
       sodipodi:nodetypes="ccccccccc" />
    <path
       d="m 228,222 c 0,0 0,-6 6,-6 h 50 l 32,32 v 73 c 0,0 0,6 -6,6 -25.66667,0 279.74508,0 -76,0 -6,0 -6,-6 -6,-6 z"
       style="display:inline;isolation:auto;mix-blend-mode:normal;marker:none"
       color="#000000"
       overflow="visible"
       fill="url(#s)"
       paint-order="fill markers stroke"
       id="path96"
       sodipodi:nodetypes="ccccccccc" />
    <path
       style="display:inline;isolation:auto;mix-blend-mode:normal;marker:none"
       d="m 228,222 c 0,0 0,-6 6,-6 h 50 l 32,32 v 73 c 0,0 0,6 -6,6 h -76 c -6,0 -6,-6 -6,-6 z"
       color="#000000"
       overflow="visible"
       fill="url(#t)"
       paint-order="fill markers stroke"
       id="path98"
       sodipodi:nodetypes="ccccccccc" />
    <path
       d="m 228,222 c 0,0 0,-6 6,-6 h 50 l 32,32 v 73 c 0,0 0,6 -6,6 h -76 c -6,0 -6,-6 -6,-6 z"
       style="display:inline;isolation:auto;mix-blend-mode:normal;marker:none"
       color="#000000"
       overflow="visible"
       fill="url(#u)"
       paint-order="fill markers stroke"
       id="path100"
       sodipodi:nodetypes="ccccccccc" />
    <path
       style="isolation:auto;mix-blend-mode:normal;marker:none"
       d="m 228,222 c 0,0 0,-6 6,-6 h 50 v 1 h -53.53639 c -1.52482,1.15984 -2.1188,2.34809 -2.46361,5 z"
       color="#000000"
       display="block"
       overflow="visible"
       fill="url(#v)"
       paint-order="fill markers stroke"
       id="path102"
       sodipodi:nodetypes="cccccc" />
    <path
       d="m 228,222 0.029,7.334 h 69.336 L 284.031,216 H 234 c -6,0 -6,6 -6,6 z"
       fill="url(#w)"
       id="path104"
       sodipodi:nodetypes="cccccc" />
    <path
       d="M228.029 229.334h69.336l13.334 13.334h-82.67z"
       fill="url(#x)"
       id="path106" />
    <path
       d="m 229.22655,218.22253 0.13545,24.44547 12.544,0.076 -0.089,-13.428 -11.95191,-11.83781 c -0.37592,0.36533 -0.54032,0.59445 -0.63854,0.74434 z"
       fill-opacity="0.995"
       id="path108"
       sodipodi:nodetypes="cccccc" />
    <path
       d="M242.696 216l13.334 13.334h13.334L256.03 216z"
       fill="url(#y)"
       id="path110" />
    <path
       d="M270.698 216l13.333 13.334h12.99L283.917 216z"
       fill="url(#z)"
       id="path112" />
    <path
       d="M284.031 229.334l-13.333 13.334h13.333l13.334-13.334z"
       fill="url(#A)"
       id="path114" />
    <path
       d="M256.03 229.334l-13.334 13.334h13.334l13.334-13.334z"
       fill="url(#B)"
       id="path116" />
    <path
       d="m 228.00677,222.98787 0.0222,19.68013 12.544,0.076 -0.09,-13.428 -11.26205,-11.0917 c -1.1031,1.56243 -1.30018,3.15349 -1.21418,4.76357 z"
       fill="url(#C)"
       id="path118"
       sodipodi:nodetypes="ccccccc" />
    <path
       d="m 284,216 32,32 -28.55943,3.17327 c -3.87919,-0.29097 -6.36614,-1.77766 -5.99791,-5.71648 z"
       fill="url(#D)"
       fill-rule="evenodd"
       id="path120"
       sodipodi:nodetypes="ccccc" />
    <path
       d="m 284,216 32,32 h -24.98941 c -4.2489,0.044 -7.05741,-1.44442 -7.02347,-5.95715 z"
       fill="url(#E)"
       fill-rule="evenodd"
       id="path122"
       sodipodi:nodetypes="ccccc" />
    <path
       id="circle124"
       style="fill-opacity:0.245"
       d="m 237.193,231.00999 a 3.3440001,3.3440001 0 0 1 -3.344,3.344 3.3440001,3.3440001 0 0 1 -3.344,-3.344 3.3440001,3.3440001 0 0 1 3.344,-3.344 3.3440001,3.3440001 0 0 1 3.344,3.344 z" />
    <path
       id="circle126"
       style="fill:url(#F)"
       d="m 237.193,230.039 a 3.3440001,3.3440001 0 0 1 -3.344,3.344 3.3440001,3.3440001 0 0 1 -3.344,-3.344 3.3440001,3.3440001 0 0 1 3.344,-3.344 3.3440001,3.3440001 0 0 1 3.344,3.344 z" />
    <path
       style="isolation:auto;mix-blend-mode:normal;marker:none"
       color="#000"
       display="block"
       overflow="visible"
       fill-opacity=".224"
       paint-order="fill markers stroke"
       d="M228.029 242.668h56.003v2.691h-56.003z"
       id="path128" />
    <path
       style="isolation:auto;mix-blend-mode:normal;marker:none"
       color="#000"
       display="block"
       overflow="visible"
       fill-opacity=".224"
       paint-order="fill markers stroke"
       d="M228.029 242.668h56.003v1.356h-56.003z"
       id="path130" />
  </g>
  <rect
     style="fill:#000000;fill-rule:evenodd;stroke:none;-inkscape-stroke:none;paint-order:fill markers stroke;stop-color:#000000;fill-opacity:1"
     id="rect1156"
     width="1"
     height="1"
     x="16"
     y="14" />
</svg>
