<?xml version="1.0" encoding="UTF-8" standalone="no"?>
<svg
   height="16"
   width="16"
   version="1.1"
   id="svg694"
   sodipodi:docname="folder-videos.svg"
   inkscape:version="1.2.2 (b0a8486541, 2022-12-01)"
   xmlns:inkscape="http://www.inkscape.org/namespaces/inkscape"
   xmlns:sodipodi="http://sodipodi.sourceforge.net/DTD/sodipodi-0.dtd"
   xmlns:xlink="http://www.w3.org/1999/xlink"
   xmlns="http://www.w3.org/2000/svg"
   xmlns:svg="http://www.w3.org/2000/svg"
   xmlns:osb="http://www.openswatchbook.org/uri/2009/osb">
  <sodipodi:namedview
     id="namedview696"
     pagecolor="#ffffff"
     bordercolor="#000000"
     borderopacity="0.25"
     inkscape:showpageshadow="2"
     inkscape:pageopacity="0.0"
     inkscape:pagecheckerboard="0"
     inkscape:deskcolor="#d1d1d1"
     showgrid="true"
     inkscape:zoom="75.013283"
     inkscape:cx="4.6791713"
     inkscape:cy="8.8384347"
     inkscape:window-width="2400"
     inkscape:window-height="1281"
     inkscape:window-x="1920"
     inkscape:window-y="32"
     inkscape:window-maximized="1"
     inkscape:current-layer="svg694">
    <inkscape:grid
       type="xygrid"
       id="grid955" />
  </sodipodi:namedview>
  <defs
     id="defs684">
    <linearGradient
       id="c">
      <stop
         style="stop-color:#1277f7;stop-opacity:1"
         offset="0"
         id="stop672" />
    </linearGradient>
    <linearGradient
       id="b">
      <stop
         style="stop-color:#0855bd;stop-opacity:1"
         offset="0"
         id="stop675" />
    </linearGradient>
    <linearGradient
       id="a">
      <stop
         style="stop-color:#3f8ff8;stop-opacity:1"
         offset="0"
         id="stop678" />
    </linearGradient>
    <linearGradient
       xlink:href="#a"
       id="e"
       x1="216.756"
       y1="270"
       x2="328.756"
       y2="270"
       gradientUnits="userSpaceOnUse"
       gradientTransform="matrix(0.125,0,0,0.125,-26.095,-25.56)" />
    <linearGradient
       xlink:href="#b"
       id="d"
       x1="216.882"
       y1="270"
       x2="328.882"
       y2="270"
       gradientUnits="userSpaceOnUse"
       gradientTransform="matrix(0.125,0,0,0.125,-26.11,-25.5)" />
    <linearGradient
       xlink:href="#c"
       id="f"
       x1="232"
       y1="236"
       x2="256"
       y2="236"
       gradientUnits="userSpaceOnUse"
       gradientTransform="matrix(0.125,0,0,0.125,-26,-26)" />
    <linearGradient
       id="blue-back"
       inkscape:swatch="solid">
      <stop
         style="stop-color:#0867e1;stop-opacity:1;"
         offset="0"
         id="stop2497" />
    </linearGradient>
    <linearGradient
       id="16px-primary-color-0"
       inkscape:swatch="solid">
      <stop
         style="stop-color:#000000;stop-opacity:1;"
         offset="0"
         id="stop8106" />
    </linearGradient>
    <linearGradient
       inkscape:collect="always"
       xlink:href="#blue-back"
       id="linearGradient3065"
       gradientUnits="userSpaceOnUse"
       gradientTransform="matrix(0.13962795,0,0,0.13962795,6.2573908,-0.5767444)"
       x1="28"
       y1="74"
       x2="96"
       y2="74" />
    <linearGradient
       id="folder_icono_fondo-1"
       osb:paint="solid">
      <stop
         style="stop-color:#b09a7d;stop-opacity:1;"
         offset="0"
         id="stop8478" />
    </linearGradient>
  </defs>
  <path
     style="display:inline;fill:url(#d);fill-opacity:1;stroke-width:0.129629"
     d="M 3.5,2 A 2.495,2.495 0 0 0 1,4.5 v 7.988 A 2.505,2.505 0 0 0 3.5,15 h 9 C 13.885,15 15,13.873 15,12.488 V 7 A 2.499,2.499 0 0 0 12.5,4.5 C 10.197,4.5 10.724,2 7.89,2 Z"
     id="path686" />
  <path
     style="display:inline;fill:url(#e);fill-opacity:1;stroke-width:0.129629"
     d="M 3.5,2 A 2.486,2.486 0 0 0 1,4.49 v 7.002 A 2.501,2.501 0 0 0 3.5,14 h 9 C 13.885,14 15,12.877 15,11.492 V 6.941 C 15,5.556 13.885,4.496 12.5,4.49 5.5,4.49 8.5,2 5,2 Z"
     id="path688" />
  <path
     style="display:inline;fill:url(#f);fill-opacity:1;stroke-width:0.125"
     d="m 3.5,3 h 2 a 0.5,0.5 0 1 1 0,1 h -2 a 0.5,0.5 0 1 1 0,-1 z"
     id="path690" />
  <path
     sodipodi:nodetypes="ccccccccccccccccccccccccccccccccccccccccccccc"
     inkscape:connector-curvature="0"
     id="path7989-6-3"
     d="m 3,6 v 7 H 13 V 6 Z m 3,1 h 4 V 9 H 6 Z M 4,7 H 5 V 8 H 4 Z m 7,0 h 1 v 1 h -1 z m -5,3 h 4 v 2 H 6 Z M 4,9 h 1 v 1 H 4 Z m 7,0 h 1 v 1.02534 h -1 z m -7,2 h 1 v 1 H 4 Z m 7,0 h 1 v 1 h -1 z"
     style="color:#000000;font-variation-settings:normal;clip-rule:nonzero;display:block;overflow:visible;visibility:visible;opacity:1;isolation:auto;mix-blend-mode:normal;color-interpolation:sRGB;color-interpolation-filters:linearRGB;solid-color:#000000;solid-opacity:1;vector-effect:none;fill:url(#linearGradient3065);fill-opacity:1;fill-rule:nonzero;stroke:none;stroke-width:0.139628;stroke-linecap:butt;stroke-linejoin:miter;stroke-miterlimit:4;stroke-dasharray:none;stroke-dashoffset:0;stroke-opacity:1;-inkscape-stroke:none;marker:none;marker-start:none;marker-mid:none;marker-end:none;paint-order:fill markers stroke;color-rendering:auto;image-rendering:auto;shape-rendering:auto;text-rendering:auto;enable-background:accumulate;stop-color:#000000;stop-opacity:1" />
</svg>
