<?xml version="1.0" encoding="UTF-8" standalone="no"?>
<svg
   height="16"
   viewBox="0 0 16 16"
   width="16"
   version="1.1"
   id="svg37"
   sodipodi:docname="application-x-executable.svg"
   inkscape:version="1.2.2 (b0a8486541, 2022-12-01)"
   xmlns:inkscape="http://www.inkscape.org/namespaces/inkscape"
   xmlns:sodipodi="http://sodipodi.sourceforge.net/DTD/sodipodi-0.dtd"
   xmlns:xlink="http://www.w3.org/1999/xlink"
   xmlns="http://www.w3.org/2000/svg"
   xmlns:svg="http://www.w3.org/2000/svg"
   xmlns:rdf="http://www.w3.org/1999/02/22-rdf-syntax-ns#"
   xmlns:cc="http://creativecommons.org/ns#"
   xmlns:dc="http://purl.org/dc/elements/1.1/"
   xmlns:osb="http://www.openswatchbook.org/uri/2009/osb">
  <sodipodi:namedview
     id="namedview39"
     pagecolor="#ffffff"
     bordercolor="#000000"
     borderopacity="0.25"
     inkscape:showpageshadow="2"
     inkscape:pageopacity="0.0"
     inkscape:pagecheckerboard="0"
     inkscape:deskcolor="#d1d1d1"
     showgrid="true"
     inkscape:zoom="64.9602"
     inkscape:cx="8.1588419"
     inkscape:cy="9.5904878"
     inkscape:window-width="2400"
     inkscape:window-height="1281"
     inkscape:window-x="1920"
     inkscape:window-y="32"
     inkscape:window-maximized="1"
     inkscape:current-layer="svg37">
    <inkscape:grid
       type="xygrid"
       id="grid218" />
    <inkscape:grid
       type="xygrid"
       id="grid1014"
       spacingx="0.2"
       spacingy="0.2"
       dotted="true"
       color="#b900e5"
       opacity="0.14901961"
       visible="true"
       empspacing="0"
       enabled="false" />
  </sodipodi:namedview>
  <title
     id="title2">Template icons dark</title>
  <defs
     id="defs27">
    <linearGradient
       id="e"
       osb:paint="solid">
      <stop
         offset="0"
         stop-color="#3284ca"
         id="stop4"
         style="stop-color:#346ffc;stop-opacity:1;" />
      <stop
         offset="1"
         stop-color="#3284ca"
         id="stop2088"
         style="stop-color:#3297ca;stop-opacity:1;" />
    </linearGradient>
    <linearGradient
       id="d"
       osb:paint="solid">
      <stop
         offset="0"
         stop-color="#b0b0b0"
         id="stop7"
         style="stop-color:#8896c7;stop-opacity:1;" />
    </linearGradient>
    <linearGradient
       id="a">
      <stop
         offset="0"
         stop-color="#496fa4"
         id="stop10" />
      <stop
         offset="1"
         stop-color="#343b41"
         id="stop12" />
    </linearGradient>
    <linearGradient
       id="b">
      <stop
         offset="0"
         stop-color="#2b84d0"
         id="stop15" />
      <stop
         offset="1"
         stop-color="#1767a9"
         id="stop17" />
    </linearGradient>
    <linearGradient
       id="c">
      <stop
         offset="0"
         stop-color="#fff"
         id="stop20" />
      <stop
         offset="1"
         stop-color="#fff"
         stop-opacity="0"
         id="stop22" />
    </linearGradient>
    <linearGradient
       xlink:href="#d"
       id="f"
       x1="-70"
       y1="-64"
       x2="-58"
       y2="-64"
       gradientUnits="userSpaceOnUse"
       gradientTransform="translate(72,72)" />
    <linearGradient
       xlink:href="#e"
       id="g"
       x1="-61.337097"
       y1="-61.474098"
       x2="-66.872047"
       y2="-66.722099"
       gradientUnits="userSpaceOnUse"
       gradientTransform="translate(71.938595,72)" />
    <linearGradient
       gradientTransform="matrix(0.5375539,0,0,0.5375539,-64.958137,-83.413035)"
       xlink:href="#c"
       id="h"
       x1="141.39301"
       y1="166.845"
       x2="131.722"
       y2="175.073"
       gradientUnits="userSpaceOnUse" />
  </defs>
  <path
     style="color:#000000;isolation:auto;mix-blend-mode:normal;fill:#4a5f79;marker:none;fill-opacity:1"
     d="M 8,1 2,4 v 8 l 6,3 6,-3 V 4 Z M 8,2.4 13,5 v 6 L 8,13.6 3,11 V 5 Z"
     display="block"
     overflow="visible"
     fill="url(#f)"
     id="path29"
     sodipodi:nodetypes="cccccccccccccc" />
  <path
     style="color:#000000;display:inline;isolation:auto;mix-blend-mode:normal;marker:none"
     d="M 8,13.6 3,11 V 5 L 8,2.4 13,5 v 6 z"
     overflow="visible"
     fill="#5db4ff"
     fill-opacity="0.161"
     id="path31"
     sodipodi:nodetypes="ccccccc" />
  <path
     d="m 7.9385953,12.6 -4,-2.2 V 5.6 l 4,-2.2 3.9999997,2.2 v 4.8 z"
     style="color:#000000;isolation:auto;mix-blend-mode:normal;fill:url(#g);fill-opacity:1;marker:none"
     overflow="visible"
     fill="url(#g)"
     id="path33"
     sodipodi:nodetypes="ccccccc" />
  <path
     style="color:#000000;fill:#ffffff;stroke-linecap:round;stroke-linejoin:round;-inkscape-stroke:none;paint-order:stroke fill markers"
     d="m 8.7714844,5.0117187 a 0.20002,0.20002 0 0 0 -0.00977,0.00195 c -0.070271,-0.023351 -0.1540153,-0.019352 -0.2109375,0.00781 -0.059554,0.028421 -0.095571,0.068264 -0.1230469,0.1054687 a 0.20002,0.20002 0 0 0 -0.00195,0 L 8.0605469,5.625 c -0.079576,-0.0024 -0.1588595,-0.0016 -0.2382813,0.00391 L 7.4335937,5.1503906 C 7.4043781,5.1142192 7.3660624,5.0764574 7.3046875,5.0507812 7.2433126,5.0251051 7.1543499,5.0216419 7.0839844,5.0527344 a 0.20002,0.20002 0 0 0 -0.00195,0 L 6.4355469,5.3417969 c -0.070481,0.030903 -0.1301901,0.09911 -0.1523438,0.1621093 -0.022154,0.063 -0.018507,0.1173143 -0.011719,0.1621094 l 0.089844,0.5957031 C 6.297978,6.3202005 6.2383482,6.382321 6.1816406,6.4472656 l -0.5976562,-0.0625 C 5.5383191,6.3802835 5.4832191,6.3809078 5.421875,6.40625 5.3605309,6.4315922 5.2952552,6.4928333 5.2675781,6.5644531 L 5.0136719,7.2285156 a 0.20002,0.20002 0 0 0 -0.00195,0 c -0.027304,0.07208 -0.017366,0.1629821 0.011719,0.2226563 0.029085,0.059674 0.066837,0.094263 0.1035156,0.1210937 l 0.4707031,0.3457031 c -0.00362,0.093657 -0.00147,0.1878092 0.00586,0.2812501 l -0.453125,0.3671875 c -0.035716,0.029191 -0.074022,0.069368 -0.099609,0.1308593 -0.025587,0.061491 -0.028029,0.150224 0.00391,0.2207032 l 0.2871094,0.6484375 c 0.031214,0.070099 0.099404,0.1282055 0.1621093,0.1503906 0.062705,0.022185 0.1178918,0.019062 0.1640625,0.011719 l 0.5644532,-0.085937 c 0.066874,0.072179 0.1376837,0.1396754 0.2128906,0.203125 l -0.060547,0.5703129 c -0.00444,0.04557 -0.00384,0.100776 0.021484,0.162109 0.02532,0.06133 0.086557,0.126615 0.1582031,0.154297 l 0.6640625,0.253906 a 0.20002,0.20002 0 0 0 0,0.002 c 0.071822,0.02719 0.1609795,0.01913 0.2207031,-0.0098 0.059724,-0.02889 0.096108,-0.06876 0.1230469,-0.105469 l 0.3398438,-0.464844 c 0.09662,0.0029 0.1927988,9.32e-4 0.2890625,-0.0078 l 0.3652344,0.449218 a 0.20002,0.20002 0 0 0 0.00195,0.002 c 0.02916,0.03534 0.067877,0.07226 0.1289062,0.09766 0.061029,0.0254 0.1501534,0.02753 0.2207032,-0.0039 l 0.6484375,-0.28711 c 0.070073,-0.03122 0.1282028,-0.09965 0.1503906,-0.162109 0.022188,-0.06246 0.020541,-0.116414 0.013672,-0.16211 a 0.20002,0.20002 0 0 0 0,-0.002 L 9.640625,9.75 C 9.7056272,9.6878476 9.7665836,9.6217715 9.8242188,9.5527344 l 0.5917972,0.060547 c 0.04547,0.00477 0.0984,0.00555 0.160156,-0.019531 0.06176,-0.025077 0.128533,-0.086382 0.15625,-0.1582031 l 0.253906,-0.6640625 a 0.20002,0.20002 0 0 0 0.002,-0.00195 c 0.02725,-0.071976 0.01898,-0.1590512 -0.0098,-0.21875 -0.02874,-0.059699 -0.06845,-0.097824 -0.105469,-0.125 l -0.492188,-0.359375 c 0.0017,-0.082945 -9.62e-4,-0.1653779 -0.0078,-0.2480469 l 0.476562,-0.3847657 a 0.20002,0.20002 0 0 0 0,-0.00195 c 0.03571,-0.029186 0.07401,-0.067731 0.09961,-0.1289062 0.0256,-0.061175 0.02947,-0.1501499 -0.002,-0.2207032 L 10.658203,6.4335937 c -0.03122,-0.070073 -0.09965,-0.1282019 -0.162109,-0.1503906 -0.06246,-0.022189 -0.116412,-0.020542 -0.16211,-0.013672 a 0.20002,0.20002 0 0 0 -0.002,0 L 9.7226563,6.3652344 C 9.6678106,6.3078217 9.6110372,6.2528841 9.5507813,6.2011719 l 0.0625,-0.6171875 C 9.6180105,5.5385672 9.6188998,5.4838318 9.59375,5.421875 9.5687593,5.36031 9.5072437,5.2952504 9.4355469,5.2675781 h -0.00195 z M 8.8417969,5.3417969 8.75,5.4335937 9.2089844,5.609375 9.1601563,6.0761719 H 9.3398438 A 0.20002,0.20002 0 0 0 9.2167969,6.4335937 c 0.1069461,0.082751 0.2048117,0.1767556 0.2929687,0.2792969 a 0.20002,0.20002 0 0 0 0.1816407,0.060547 l 0.6367187,-0.097656 0.216797,0.4902344 -0.5,0.4042969 a 0.20002,0.20002 0 0 0 -0.072266,0.1816406 c 0.017915,0.1345464 0.023254,0.270897 0.013672,0.40625 a 0.20002,0.20002 0 0 0 0.082031,0.1738282 l 0.513672,0.3769531 -0.191406,0.5 -0.6230469,-0.064453 a 0.20002,0.20002 0 0 0 -0.1796875,0.078125 c -0.085773,0.1141502 -0.1830052,0.2191146 -0.2910156,0.3125 a 0.20002,0.20002 0 0 0 -0.066406,0.1816406 l 0.09375,0.6093751 -0.4902344,0.21875 -0.3828125,-0.472656 A 0.20002,0.20002 0 0 0 8.2675781,10 c -0.1467741,0.02098 -0.2955703,0.02548 -0.4433594,0.01367 a 0.20002,0.20002 0 0 0 -0.1777343,0.08203 l -0.3574219,0.486328 -0.4980469,-0.191406 0.0625,-0.5996094 A 0.20002,0.20002 0 0 0 6.7753906,9.6113281 C 6.6560067,9.5205604 6.5473861,9.4158212 6.4511719,9.3007813 A 0.20002,0.20002 0 0 0 6.2675781,9.2324219 L 5.671875,9.3242188 5.4550781,8.8339844 5.9296875,8.4492188 A 0.20002,0.20002 0 0 0 6.0019531,8.2695313 C 5.9832163,8.1246237 5.9810298,7.9775531 5.9941406,7.8320312 A 0.20002,0.20002 0 0 0 5.9121094,7.6523437 L 5.4179687,7.2890625 5.609375,6.7910156 l 0.625,0.064453 A 0.20002,0.20002 0 0 0 6.4121094,6.78125 C 6.4985855,6.6715868 6.5957931,6.5698219 6.703125,6.4804687 A 0.20002,0.20002 0 0 0 6.7734375,6.296875 l -0.097656,-0.625 0.4882813,-0.21875 0.4082031,0.5019531 A 0.20002,0.20002 0 0 0 7.75,6.0292969 c 0.1340971,-0.016013 0.2697159,-0.019015 0.4042969,-0.00781 a 0.20002,0.20002 0 0 0 0.171875,-0.09375 L 8.328125,5.9375 8.7480469,5.3652344 c -2.414e-4,3.268e-4 -0.00358,0.00717 -0.025391,0.017578 -0.021807,0.010407 -0.066724,0.014222 -0.09375,0.00391 a 0.20002,0.20002 0 0 0 0.2128906,-0.044922 z"
     id="path1725" />
  <metadata
     id="metadata1012">
    <rdf:RDF>
      <cc:Work
         rdf:about="">
        <dc:title>Template icons dark</dc:title>
      </cc:Work>
    </rdf:RDF>
  </metadata>
  <path
     id="path2614"
     style="fill:#8096b1;fill-opacity:1;fill-rule:evenodd;stroke:none;stroke-width:0.439606;stroke-dasharray:none;stroke-opacity:1;paint-order:fill markers stroke;stop-color:#000000"
     d="M 8.0117188 1.2597656 A 0.47593227 0.47593227 0 0 0 7.5351562 1.7363281 A 0.47593227 0.47593227 0 0 0 8.0117188 2.2128906 A 0.47593227 0.47593227 0 0 0 8.4882812 1.7363281 A 0.47593227 0.47593227 0 0 0 8.0117188 1.2597656 z M 2.7753906 3.890625 A 0.47593227 0.47593227 0 0 0 2.2988281 4.3671875 A 0.47593227 0.47593227 0 0 0 2.7753906 4.84375 A 0.47593227 0.47593227 0 0 0 3.2519531 4.3671875 A 0.47593227 0.47593227 0 0 0 2.7753906 3.890625 z M 13.322266 4.015625 A 0.47593227 0.47593227 0 0 0 12.847656 4.4921875 A 0.47593227 0.47593227 0 0 0 13.322266 4.96875 A 0.47593227 0.47593227 0 0 0 13.798828 4.4921875 A 0.47593227 0.47593227 0 0 0 13.322266 4.015625 z M 2.5292969 10.880859 A 0.47593227 0.47593227 0 0 0 2.0546875 11.355469 A 0.47593227 0.47593227 0 0 0 2.5292969 11.832031 A 0.47593227 0.47593227 0 0 0 3.0058594 11.355469 A 0.47593227 0.47593227 0 0 0 2.5292969 10.880859 z M 13.310547 11.083984 A 0.47593227 0.47593227 0 0 0 13.076172 11.144531 A 0.47593227 0.47593227 0 0 0 13.072266 11.146484 A 0.47593227 0.47593227 0 0 0 13.070312 11.148438 A 0.47593227 0.47593227 0 0 0 12.902344 11.316406 A 0.47593227 0.47593227 0 0 0 12.896484 11.326172 A 0.47593227 0.47593227 0 0 0 12.833984 11.558594 A 0.47593227 0.47593227 0 0 0 12.898438 11.794922 A 0.47593227 0.47593227 0 0 0 12.900391 11.798828 A 0.47593227 0.47593227 0 0 0 13.070312 11.96875 A 0.47593227 0.47593227 0 0 0 13.072266 11.970703 A 0.47593227 0.47593227 0 0 0 13.074219 11.970703 A 0.47593227 0.47593227 0 0 0 13.310547 12.035156 A 0.47593227 0.47593227 0 0 0 13.392578 12.027344 A 0.47593227 0.47593227 0 0 0 13.462891 12.007812 A 0.47593227 0.47593227 0 0 0 13.472656 12.005859 A 0.47593227 0.47593227 0 0 0 13.482422 12.001953 A 0.47593227 0.47593227 0 0 0 13.53125 11.978516 A 0.47593227 0.47593227 0 0 0 13.560547 11.960938 A 0.47593227 0.47593227 0 0 0 13.566406 11.958984 A 0.47593227 0.47593227 0 0 0 13.615234 11.923828 A 0.47593227 0.47593227 0 0 0 13.621094 11.919922 A 0.47593227 0.47593227 0 0 0 13.673828 11.865234 A 0.47593227 0.47593227 0 0 0 13.716797 11.804688 A 0.47593227 0.47593227 0 0 0 13.728516 11.783203 A 0.47593227 0.47593227 0 0 0 13.753906 11.722656 A 0.47593227 0.47593227 0 0 0 13.755859 11.720703 A 0.47593227 0.47593227 0 0 0 13.755859 11.71875 A 0.47593227 0.47593227 0 0 0 13.777344 11.640625 A 0.47593227 0.47593227 0 0 0 13.785156 11.558594 A 0.47593227 0.47593227 0 0 0 13.310547 11.083984 z M 7.96875 13.816406 A 0.47593227 0.47593227 0 0 0 7.4921875 14.291016 A 0.47593227 0.47593227 0 0 0 7.96875 14.767578 A 0.47593227 0.47593227 0 0 0 8.4433594 14.291016 A 0.47593227 0.47593227 0 0 0 7.96875 13.816406 z " />
</svg>
