<?xml version="1.0" encoding="UTF-8" standalone="no"?>
<svg
   height="16"
   viewBox="0 0 16 16"
   width="16"
   version="1.1"
   id="svg30"
   sodipodi:docname="image-loading.svg"
   inkscape:version="1.2.2 (b0a8486541, 2022-12-01)"
   xmlns:inkscape="http://www.inkscape.org/namespaces/inkscape"
   xmlns:sodipodi="http://sodipodi.sourceforge.net/DTD/sodipodi-0.dtd"
   xmlns="http://www.w3.org/2000/svg"
   xmlns:svg="http://www.w3.org/2000/svg">
  <sodipodi:namedview
     id="namedview32"
     pagecolor="#ffffff"
     bordercolor="#000000"
     borderopacity="0.25"
     inkscape:showpageshadow="2"
     inkscape:pageopacity="0.0"
     inkscape:pagecheckerboard="0"
     inkscape:deskcolor="#d1d1d1"
     showgrid="true"
     inkscape:zoom="64.1875"
     inkscape:cx="6.6212269"
     inkscape:cy="7.9922103"
     inkscape:window-width="2400"
     inkscape:window-height="1281"
     inkscape:window-x="1920"
     inkscape:window-y="32"
     inkscape:window-maximized="1"
     inkscape:current-layer="g28">
    <inkscape:grid
       type="xygrid"
       id="grid390" />
  </sodipodi:namedview>
  <title
     id="title2">Template icons dark</title>
  <defs
     id="defs14">
    <linearGradient
       id="b">
      <stop
         offset="0"
         stop-color="#c4e0f4"
         stop-opacity=".26"
         id="stop4" />
      <stop
         offset="1"
         stop-color="#75c3ef"
         stop-opacity=".24"
         id="stop6" />
    </linearGradient>
    <linearGradient
       id="a">
      <stop
         offset="0"
         stop-color="#a8bac0"
         id="stop9" />
      <stop
         offset="1"
         stop-color="#52737e"
         id="stop11" />
    </linearGradient>
  </defs>
  <g
     color="#000"
     transform="translate(72 72)"
     id="g28">
    <path
       id="circle16"
       style="display:block;overflow:visible;fill-opacity:0.078;marker:none;paint-order:fill markers stroke"
       d="m -62.135002,-63.474998 a 1.834,1.834 0 0 1 -1.834,1.834 1.834,1.834 0 0 1 -1.834,-1.834 1.834,1.834 0 0 1 1.834,-1.834 1.834,1.834 0 0 1 1.834,1.834 z" />
    <path
       id="circle18"
       style="display:block;overflow:visible;fill-opacity:0.078;marker:none;paint-order:fill markers stroke"
       d="m -56.021999,-63.474998 a 1.834,1.834 0 0 1 -1.834,1.834 1.834,1.834 0 0 1 -1.834,-1.834 1.834,1.834 0 0 1 1.834,-1.834 1.834,1.834 0 0 1 1.834,1.834 z" />
    <path
       id="circle20"
       style="display:block;overflow:visible;fill-opacity:0.078;marker:none;paint-order:fill markers stroke"
       d="m -68.247001,-63.474998 a 1.834,1.834 0 0 1 -1.834,1.834 1.834,1.834 0 0 1 -1.834,-1.834 1.834,1.834 0 0 1 1.834,-1.834 1.834,1.834 0 0 1 1.834,1.834 z" />
    <path
       id="circle22"
       style="display:block;overflow:visible;fill:#a6a6a6;marker:none;paint-order:fill markers stroke"
       d="m -62.135002,-63.780998 a 1.834,1.834 0 0 1 -1.834,1.834 1.834,1.834 0 0 1 -1.834,-1.834 1.834,1.834 0 0 1 1.834,-1.834 1.834,1.834 0 0 1 1.834,1.834 z" />
    <path
       id="circle24"
       style="display:block;overflow:visible;fill:#bfbfbf;marker:none;paint-order:fill markers stroke"
       d="m -56.021999,-63.780998 a 1.834,1.834 0 0 1 -1.834,1.834 1.834,1.834 0 0 1 -1.834,-1.834 1.834,1.834 0 0 1 1.834,-1.834 1.834,1.834 0 0 1 1.834,1.834 z" />
    <path
       id="circle26"
       style="display:block;overflow:visible;fill:#828282;marker:none;paint-order:fill markers stroke"
       d="m -68.247001,-63.780998 a 1.834,1.834 0 0 1 -1.834,1.834 1.834,1.834 0 0 1 -1.834,-1.834 1.834,1.834 0 0 1 1.834,-1.834 1.834,1.834 0 0 1 1.834,1.834 z" />
  </g>
</svg>
