<?xml version="1.0" encoding="UTF-8" standalone="no"?>
<svg
   height="16"
   width="16"
   version="1.1"
   id="svg18"
   sodipodi:docname="folder-download-symbolic.svg"
   inkscape:version="1.2.2 (b0a8486541, 2022-12-01)"
   xmlns:inkscape="http://www.inkscape.org/namespaces/inkscape"
   xmlns:sodipodi="http://sodipodi.sourceforge.net/DTD/sodipodi-0.dtd"
   xmlns="http://www.w3.org/2000/svg"
   xmlns:svg="http://www.w3.org/2000/svg">
  <defs
     id="defs22" />
  <sodipodi:namedview
     id="namedview20"
     pagecolor="#ffffff"
     bordercolor="#000000"
     borderopacity="0.25"
     inkscape:showpageshadow="2"
     inkscape:pageopacity="0.0"
     inkscape:pagecheckerboard="0"
     inkscape:deskcolor="#d1d1d1"
     showgrid="true"
     inkscape:zoom="46.135078"
     inkscape:cx="8.7568943"
     inkscape:cy="8.7352188"
     inkscape:window-width="2400"
     inkscape:window-height="1281"
     inkscape:window-x="1920"
     inkscape:window-y="32"
     inkscape:window-maximized="1"
     inkscape:current-layer="svg18">
    <inkscape:grid
       type="xygrid"
       id="grid908" />
  </sodipodi:namedview>
  <path
     id="path2"
     style="opacity:0.5;fill:#000000;fill-opacity:1;marker:none"
     d="m 6,7 -5,-0.00781 c 3,4.0000005 7,7.0000005 7,7.0000005 0,0 5,-3 7,-7.0000005 h -5 z"
     sodipodi:nodetypes="cccccc" />
  <path
     id="path4"
     style="fill:#000000;fill-opacity:1;marker:none"
     d="m 5,3 v 3 c 3e-7,0 0.01702,0.9890536 -0.98298,0.9890536 H 0.75305855 C 0.09912727,6.9675126 -0.13813676,7.6160646 0.28240118,8.0448939 L 6.3275668,14.088663 c 1.2070069,1.265199 2.1381954,1.268779 3.4042969,-0.02734 L 15.716193,8.1295148 C 16.161908,7.5368117 15.887655,7.0823742 15.18717,6.9946796 l -3.17015,-0.00563 c -1,0 -1,-0.999821 -1,-0.999821 L 11,3 h -1 l 0.01702,3.9890536 c 0,1 0.995336,1.0015584 0.995336,1.0015584 l 1.989731,0.00468 c 0.300475,0.035748 0.772592,0.2935484 0.05947,0.9492236 L 9.4243872,12.56666 C 8.4302465,13.560795 7.542151,13.606096 6.5519167,12.61586 L 2.8251946,8.7972278 C 2.4977161,8.5091078 2.4852536,8.0128158 3.0185415,7.9890536 H 5.01702 c 0,0 1,0 1,-1.0042507 L 6,3 Z"
     sodipodi:nodetypes="ccccccccccccccccccccccccc" />
  <path
     style="opacity:0.3;isolation:auto;mix-blend-mode:normal;fill:#000000;fill-opacity:1;marker:none"
     color="#000000"
     display="block"
     overflow="visible"
     fill-opacity="0.549"
     paint-order="fill markers stroke"
     d="m 6,5 h 4 V 7 H 6 Z"
     id="path10"
     sodipodi:nodetypes="ccccc" />
  <path
     style="opacity:0.2;isolation:auto;mix-blend-mode:normal;fill:#000000;fill-opacity:1;marker:none"
     color="#000000"
     display="block"
     overflow="visible"
     fill-opacity="0.392"
     paint-order="fill markers stroke"
     d="m 6,3 h 4 V 5 H 6 Z"
     id="path12"
     sodipodi:nodetypes="ccccc" />
  <path
     style="opacity:0.1;isolation:auto;mix-blend-mode:normal;fill:#000000;fill-opacity:1;stroke-width:1.41421;marker:none"
     color="#000000"
     display="block"
     overflow="visible"
     fill-opacity="0.235"
     paint-order="fill markers stroke"
     d="m 6,1 h 4 V 3 H 6 Z"
     id="path14"
     sodipodi:nodetypes="ccccc" />
  <path
     style="opacity:0.631567;isolation:auto;mix-blend-mode:normal;fill:#000000;fill-opacity:1;stroke-width:0.999997;marker:none"
     color="#000000"
     display="block"
     overflow="visible"
     fill-opacity="0.235"
     paint-order="fill markers stroke"
     d="m 6,0 h 4 c 1,0 1,1 1,1 V 3 H 10 V 1 H 6 V 3 H 5 V 1 C 5,1 5,0 6,0 Z"
     id="path397"
     sodipodi:nodetypes="ccccccccccc" />
</svg>
