<?xml version="1.0" encoding="UTF-8" standalone="no"?>
<svg
   height="16"
   width="16"
   version="1.1"
   id="svg12"
   sodipodi:docname="network-server-symbolic.svg"
   inkscape:version="1.2.2 (b0a8486541, 2022-12-01)"
   xmlns:inkscape="http://www.inkscape.org/namespaces/inkscape"
   xmlns:sodipodi="http://sodipodi.sourceforge.net/DTD/sodipodi-0.dtd"
   xmlns="http://www.w3.org/2000/svg"
   xmlns:svg="http://www.w3.org/2000/svg">
  <defs
     id="defs16" />
  <sodipodi:namedview
     id="namedview14"
     pagecolor="#ffffff"
     bordercolor="#000000"
     borderopacity="0.25"
     inkscape:showpageshadow="2"
     inkscape:pageopacity="0.0"
     inkscape:pagecheckerboard="0"
     inkscape:deskcolor="#d1d1d1"
     showgrid="true"
     inkscape:zoom="64.1875"
     inkscape:cx="5.2814021"
     inkscape:cy="7.9922103"
     inkscape:window-width="2400"
     inkscape:window-height="1281"
     inkscape:window-x="1920"
     inkscape:window-y="32"
     inkscape:window-maximized="1"
     inkscape:current-layer="svg12">
    <inkscape:grid
       type="xygrid"
       id="grid299" />
  </sodipodi:namedview>
  <path
     id="path1927"
     style="opacity:0.2;fill-rule:evenodd;stroke-linecap:round;paint-order:fill markers stroke;stop-color:#000000"
     d="M 13,6 H 3 V 4.947221 C 3,4.947221 3,4 4,4 h 8 c 1,0 1,1 1,1 z"
     sodipodi:nodetypes="ccccccc" />
  <path
     style="color:#000000;fill:#000000;fill-opacity:1;stroke-width:0.875;-inkscape-stroke:none"
     d="M 3,2 C 3,2 1,2 1,4 v 7 c 0,2 2,2 2,2 h 10 c 0,0 2,0 2,-2 V 4 c 0,0 0,-2 -2,-2 z m 0,1 h 10 c 0,0 1,0 1,1 v 7 c 0,0 8.9e-5,1 -1,1 H 3 C 3,12 2,12 2,11 V 4 C 2,2.9999111 3,3 3,3 Z"
     id="path2"
     sodipodi:nodetypes="cscccccscccccscssc" />
  <path
     id="rect1756"
     style="opacity:1;fill:#000000;fill-rule:evenodd;stroke-linecap:round;paint-order:fill markers stroke;stop-color:#000000"
     d="m 7,13 v 2 H 3 v 1 H 13 V 15 H 9 v -2 z"
     sodipodi:nodetypes="ccccccccc" />
  <path
     id="rect2147"
     style="opacity:0.3;fill:#000000;fill-rule:evenodd;stroke-linecap:round;paint-order:fill markers stroke;stop-color:#000000"
     d="m 0,15 v 1 h 16 v -1 z"
     sodipodi:nodetypes="ccccc" />
  <path
     d="M 11.000002,9.0061395 C 10.447714,9.006139 10,9.4511055 10,10 c 0,0.548894 0.447714,0.993861 1.000002,0.99386 C 11.552286,10.99386 12,10.548893 12,10 12,9.4511066 11.552286,9.0061402 11.000002,9.0061395 Z"
     fill="#afafaf"
     style="fill:#000000;fill-opacity:1;stroke-width:1.99385"
     id="path6"
     sodipodi:nodetypes="sssss" />
  <path
     d="M 2,7 V 8 H 14 V 7 Z"
     opacity="0.547"
     fill="#afafaf"
     style="opacity:1;fill:#000000;fill-opacity:1;stroke-width:0.875"
     id="path10"
     sodipodi:nodetypes="ccccc" />
  <rect
     style="fill:#000000;fill-opacity:1;fill-rule:evenodd;stroke-width:1.39295;-inkscape-stroke:none;paint-order:fill markers stroke;stop-color:#000000"
     id="rect4392"
     width="1"
     height="2"
     x="4"
     y="9"
     ry="0" />
  <rect
     style="fill:#000000;fill-opacity:1;fill-rule:evenodd;stroke-width:1.39295;-inkscape-stroke:none;paint-order:fill markers stroke;stop-color:#000000"
     id="rect4394"
     width="1"
     height="2"
     x="6"
     y="9"
     ry="0" />
</svg>
