<?xml version="1.0" encoding="UTF-8" standalone="no"?>
<svg
   height="16"
   width="16"
   version="1.1"
   id="svg1025"
   sodipodi:docname="non-starred-symbolic.svg"
   inkscape:version="1.2.2 (b0a8486541, 2022-12-01)"
   xmlns:inkscape="http://www.inkscape.org/namespaces/inkscape"
   xmlns:sodipodi="http://sodipodi.sourceforge.net/DTD/sodipodi-0.dtd"
   xmlns="http://www.w3.org/2000/svg"
   xmlns:svg="http://www.w3.org/2000/svg">
  <defs
     id="defs1029" />
  <sodipodi:namedview
     id="namedview1027"
     pagecolor="#ffffff"
     bordercolor="#000000"
     borderopacity="0.25"
     inkscape:showpageshadow="2"
     inkscape:pageopacity="0.0"
     inkscape:pagecheckerboard="0"
     inkscape:deskcolor="#d1d1d1"
     showgrid="true"
     inkscape:zoom="64.1875"
     inkscape:cx="5.3592989"
     inkscape:cy="7.9922103"
     inkscape:window-width="2400"
     inkscape:window-height="1281"
     inkscape:window-x="1920"
     inkscape:window-y="32"
     inkscape:window-maximized="1"
     inkscape:current-layer="svg1025">
    <inkscape:grid
       type="xygrid"
       id="grid1599" />
  </sodipodi:namedview>
  <path
     style="color:#000000;fill:#000000;fill-rule:evenodd;-inkscape-stroke:none;paint-order:fill markers stroke"
     d="m -5.5859375,1.3515625 c -0.1231801,0.00203 -0.2055518,0.074458 -0.265625,0.1445312 -0.060073,0.070073 -0.1081693,0.1525376 -0.15625,0.2480469 -0.096161,0.1910187 -0.1857721,0.4328237 -0.2734375,0.6777344 -0.087665,0.2449107 -0.1725265,0.492958 -0.25,0.6875 -0.038737,0.097271 -0.07534,0.182265 -0.1074219,0.2421875 -0.032082,0.059922 -0.065781,0.094764 -0.056641,0.087891 0.00914,-0.00687 -0.035091,0.015104 -0.1015625,0.029297 -0.066472,0.014193 -0.1575185,0.026888 -0.2617187,0.037109 -0.2084006,0.020444 -0.4708495,0.032571 -0.7304688,0.048828 -0.2596193,0.016258 -0.5144077,0.036797 -0.7246094,0.076172 -0.1051008,0.019688 -0.1992114,0.04181 -0.2832031,0.080078 -0.083992,0.038268 -0.1748036,0.097065 -0.2109375,0.2148438 -0.036134,0.1177786 0.00661,0.2161351 0.054687,0.2949218 0.04808,0.078787 0.111523,0.1513211 0.1875,0.2265625 0.1519541,0.1504829 0.3527599,0.3096937 0.5585937,0.46875 0.2058339,0.1590564 0.4170453,0.3173735 0.5781251,0.4511719 0.08054,0.066899 0.1482365,0.1287059 0.1953125,0.1777344 0.047076,0.049028 0.070119,0.090895 0.066406,0.080078 -0.00371,-0.010817 0.00509,0.037865 -0.00195,0.1054687 -0.00704,0.067604 -0.022444,0.1575066 -0.044922,0.2597657 -0.044956,0.204518 -0.1149225,0.459001 -0.1796875,0.7109375 -0.064765,0.2519364 -0.1248359,0.5008094 -0.1523437,0.7128906 -0.013754,0.1060406 -0.020206,0.2032156 -0.00977,0.2949219 0.01044,0.091706 0.035871,0.1968171 0.1367188,0.2675781 0.1008481,0.070761 0.2090399,0.05849 0.2988281,0.037109 0.089788,-0.02138 0.1784004,-0.060367 0.2734375,-0.109375 0.1900741,-0.098015 0.4042629,-0.2381572 0.6191406,-0.3847657 0.2148778,-0.1466084 0.4284425,-0.2983062 0.6054688,-0.4101562 0.088513,-0.055925 0.1692926,-0.1031913 0.2304687,-0.1328125 0.061176,-0.029621 0.1090911,-0.037298 0.097656,-0.037109 -0.011435,1.885e-4 0.03749,0.00757 0.099609,0.035156 0.062119,0.027589 0.1421138,0.070069 0.2324218,0.1230468 0.180616,0.1059556 0.3995483,0.2511773 0.6191407,0.390625 0.2195923,0.1394478 0.4396116,0.2735362 0.6328124,0.3652344 0.096601,0.045849 0.1849467,0.0812 0.2753907,0.099609 0.090444,0.01841 0.1984135,0.025218 0.296875,-0.048828 0.098461,-0.074046 0.1214939,-0.1794839 0.1289062,-0.2714844 0.00741,-0.092001 -0.00229,-0.187439 -0.019531,-0.2929688 -0.034482,-0.2110595 -0.1027492,-0.4593189 -0.1757813,-0.7089843 -0.073032,-0.2496654 -0.1495003,-0.5001995 -0.2011719,-0.703125 -0.025836,-0.1014628 -0.04542,-0.1904771 -0.054687,-0.2578125 -0.00927,-0.067336 -0.0025,-0.1164022 -0.00586,-0.1054688 -0.00335,0.010933 0.017065,-0.033431 0.0625,-0.083984 0.045435,-0.050553 0.1131147,-0.1140767 0.1914062,-0.1835937 0.1565832,-0.1390339 0.3600664,-0.302997 0.5605469,-0.46875 0.2004805,-0.165753 0.3980093,-0.3309195 0.5449219,-0.4863281 0.073456,-0.077704 0.1342301,-0.1520935 0.1796875,-0.2324219 0.045457,-0.080328 0.084917,-0.1823042 0.044922,-0.2988281 C -2.1220268,3.694023 -2.2155741,3.640948 -2.3007813,3.6054688 -2.3859884,3.5699895 -2.480245,3.5494166 -2.5859375,3.5332031 -2.7973225,3.5007763 -3.052486,3.488162 -3.3125,3.4804688 c -0.260014,-0.00769 -0.5234609,-0.00987 -0.7324219,-0.023437 -0.1044805,-0.00678 -0.1948153,-0.017302 -0.2617187,-0.029297 -0.066904,-0.011994 -0.1109243,-0.033913 -0.1015625,-0.027344 0.00936,0.00657 -0.026508,-0.027105 -0.060547,-0.085937 C -4.5027889,3.2556204 -4.5420632,3.1740666 -4.5839844,3.078125 -4.6678266,2.8862417 -4.7617333,2.6403263 -4.8574219,2.3984375 -4.9531104,2.1565487 -5.0499398,1.9182148 -5.1523437,1.7304687 -5.2035457,1.6365957 -5.2560096,1.5563367 -5.3183594,1.4882812 -5.3807091,1.4202258 -5.4627574,1.3495323 -5.5859375,1.3515625 Z m 0.00586,0.3847656 c 0.028692,0.032345 0.069416,0.091128 0.1113281,0.1679688 0.086753,0.1590524 0.1830697,0.38864 0.2773438,0.6269531 0.094274,0.2383131 0.1875495,0.4859012 0.2773437,0.6914063 0.044897,0.1027525 0.087327,0.1948201 0.1328125,0.2734375 0.045486,0.078617 0.086564,0.1434711 0.1660156,0.1992187 0.079451,0.055748 0.1547386,0.071863 0.2441407,0.087891 0.089402,0.016028 0.1908368,0.025939 0.3027343,0.033203 0.2237951,0.014528 0.4879703,0.017811 0.7441406,0.025391 0.2561704,0.00758 0.5045152,0.019404 0.6835938,0.046875 0.086877,0.013327 0.1552213,0.030846 0.1953125,0.046875 -0.021716,0.03726 -0.064419,0.094119 -0.125,0.1582031 -0.1244596,0.1316572 -0.3122487,0.2937285 -0.5097656,0.4570312 -0.1975169,0.1633028 -0.4045667,0.3276586 -0.5722657,0.4765625 -0.083849,0.074452 -0.1580363,0.1453372 -0.21875,0.2128907 -0.060714,0.067553 -0.1102044,0.1259605 -0.1386718,0.21875 -0.028467,0.092789 -0.020196,0.1697863 -0.00781,0.2597656 0.012383,0.089979 0.03483,0.1901626 0.0625,0.2988281 0.05534,0.2173312 0.1331256,0.4688691 0.2050781,0.7148438 0.071953,0.2459747 0.1368038,0.4872127 0.1660156,0.6660156 0.014191,0.086862 0.018505,0.1561587 0.015625,0.1992187 -0.042184,-0.00922 -0.1081103,-0.032632 -0.1875,-0.070312 C -3.9195329,7.44966 -4.1332632,7.3209802 -4.3496094,7.1835937 -4.5659556,7.0462073 -4.7870309,6.9005867 -4.9804687,6.7871094 -5.0771877,6.7303707 -5.1650381,6.6813982 -5.2480469,6.6445312 -5.3310556,6.6076643 -5.4029551,6.5784787 -5.5,6.5800781 c -0.097045,0.0016 -0.1682512,0.032683 -0.25,0.072266 -0.081749,0.039582 -0.1688752,0.092449 -0.2636719,0.1523438 -0.1895933,0.1197902 -0.4054862,0.2715744 -0.6171875,0.4160156 -0.2117013,0.1444413 -0.4210066,0.280246 -0.5820312,0.3632813 -0.078122,0.040285 -0.1436914,0.067529 -0.1855469,0.078125 -0.0043,-0.042939 -0.00156,-0.1138745 0.00977,-0.2011719 0.023304,-0.1796684 0.080724,-0.4217097 0.1445313,-0.6699219 0.063808,-0.2482122 0.1334928,-0.5036195 0.1816406,-0.7226562 0.024074,-0.1095184 0.043323,-0.2104427 0.052734,-0.3007813 0.00941,-0.090338 0.015885,-0.1679646 -0.015625,-0.2597656 C -7.0569003,5.4160115 -7.1109213,5.360438 -7.1738281,5.2949219 -7.236735,5.2294058 -7.3121801,5.1614921 -7.3984375,5.0898437 -7.5709523,4.946547 -7.783537,4.7875645 -7.9863281,4.6308594 -8.1891192,4.4741543 -8.3829882,4.3188905 -8.5117188,4.1914062 -8.5743692,4.1293624 -8.6176896,4.0736341 -8.640625,4.0371094 c 0.039544,-0.01734 0.1069794,-0.036554 0.1933594,-0.052734 0.178076,-0.033357 0.4258591,-0.054295 0.6816406,-0.070312 0.2557815,-0.016017 0.5189927,-0.026933 0.7421875,-0.048828 0.1115974,-0.010947 0.213909,-0.024003 0.3027344,-0.042969 0.088825,-0.018965 0.1646166,-0.037368 0.2421875,-0.095703 0.077571,-0.058336 0.1153329,-0.1250046 0.1582031,-0.2050781 0.04287,-0.080074 0.083513,-0.1751207 0.125,-0.2792969 0.082973,-0.2083525 0.1675367,-0.4579284 0.2539063,-0.6992187 0.086369,-0.2412904 0.1743945,-0.4748939 0.2558593,-0.6367188 0.039348,-0.078162 0.077859,-0.1366432 0.1054688,-0.1699219 z"
     id="path999"
     transform="matrix(2.2185949,0,0,2.2185949,20.298718,-2.4076929)" />
</svg>
