<?xml version="1.0" encoding="UTF-8" standalone="no"?>
<svg
   height="16"
   width="16"
   version="1.1"
   id="svg1072"
   sodipodi:docname="user-desktop-symbolic.svg"
   inkscape:version="1.2.2 (b0a8486541, 2022-12-01)"
   xmlns:inkscape="http://www.inkscape.org/namespaces/inkscape"
   xmlns:sodipodi="http://sodipodi.sourceforge.net/DTD/sodipodi-0.dtd"
   xmlns="http://www.w3.org/2000/svg"
   xmlns:svg="http://www.w3.org/2000/svg">
  <defs
     id="defs1076" />
  <sodipodi:namedview
     id="namedview1074"
     pagecolor="#ffffff"
     bordercolor="#000000"
     borderopacity="0.25"
     inkscape:showpageshadow="2"
     inkscape:pageopacity="0.0"
     inkscape:pagecheckerboard="0"
     inkscape:deskcolor="#d1d1d1"
     showgrid="true"
     inkscape:zoom="64.1875"
     inkscape:cx="5.2658228"
     inkscape:cy="7.9922103"
     inkscape:window-width="2400"
     inkscape:window-height="1281"
     inkscape:window-x="1920"
     inkscape:window-y="32"
     inkscape:window-maximized="1"
     inkscape:current-layer="svg1072">
    <inkscape:grid
       type="xygrid"
       id="grid1195"
       visible="true" />
  </sodipodi:namedview>
  <path
     id="rect1560"
     style="color:#000000;fill:#000000;fill-rule:evenodd;-inkscape-stroke:none;paint-order:fill markers stroke"
     d="M 3.5 1 C 1.5696524 1 0 2.5696524 0 4.5 L 0 11.5 C 0 13.430347 1.5696524 15 3.5 15 L 12.5 15 C 14.430347 15 16 13.430347 16 11.5 L 16 4.5 C 16 2.5696524 14.430347 1 12.5 1 L 3.5 1 z M 1.4960938 3 L 14.503906 3 C 14.814386 3.4165033 15 3.9336185 15 4.5 L 15 11.5 C 15 12.893646 13.893646 14 12.5 14 L 3.5 14 C 2.1063542 14 1 12.893646 1 11.5 L 1 4.5 C 1 3.9336185 1.185614 3.4165033 1.4960938 3 z " />
  <path
     id="rect1564"
     style="opacity:1;fill-rule:evenodd;stroke-width:0.999999;paint-order:fill markers stroke;stop-color:#000000;fill:#000000;fill-opacity:1"
     d="m 4,11 h 8 c 0.554,0 1,0.446 1,1 0,0.554 -0.446,1 -1,1 H 4 C 3.446,13 3,12.554 3,12 3,11.446 3.446,11 4,11 Z" />
  <path
     id="rect3053"
     style="opacity:0.2;fill-rule:evenodd;stroke-linecap:round;paint-order:fill markers stroke;stop-color:#000000"
     d="m 2,4 h 12 v 7 c 0,0 0,-1 -1,-1 H 3 c -1,0 -1,1 -1,1 z"
     sodipodi:nodetypes="ccccccc" />
</svg>
