<?xml version="1.0" encoding="UTF-8" standalone="no"?>
<svg
   height="16"
   viewBox="0 0 16 16"
   width="16"
   version="1.1"
   id="svg48"
   sodipodi:docname="application-pdf.svg"
   inkscape:version="1.2.2 (b0a8486541, 2022-12-01)"
   xmlns:inkscape="http://www.inkscape.org/namespaces/inkscape"
   xmlns:sodipodi="http://sodipodi.sourceforge.net/DTD/sodipodi-0.dtd"
   xmlns:xlink="http://www.w3.org/1999/xlink"
   xmlns="http://www.w3.org/2000/svg"
   xmlns:svg="http://www.w3.org/2000/svg"
   xmlns:osb="http://www.openswatchbook.org/uri/2009/osb">
  <sodipodi:namedview
     id="namedview50"
     pagecolor="#ffffff"
     bordercolor="#000000"
     borderopacity="0.25"
     inkscape:showpageshadow="2"
     inkscape:pageopacity="0.0"
     inkscape:pagecheckerboard="0"
     inkscape:deskcolor="#d1d1d1"
     showgrid="true"
     inkscape:zoom="64.1875"
     inkscape:cx="6.6212269"
     inkscape:cy="7.9922103"
     inkscape:window-width="2400"
     inkscape:window-height="1281"
     inkscape:window-x="1920"
     inkscape:window-y="32"
     inkscape:window-maximized="1"
     inkscape:current-layer="svg48">
    <inkscape:grid
       type="xygrid"
       id="grid1006" />
  </sodipodi:namedview>
  <title
     id="title2">Template icons dark</title>
  <defs
     id="defs40">
    <linearGradient
       id="i"
       osb:paint="solid">
      <stop
         offset="0"
         stop-color="#ff5151"
         id="stop4" />
    </linearGradient>
    <linearGradient
       id="h">
      <stop
         offset="0"
         stop-color="#f72424"
         stop-opacity=".066"
         id="stop7" />
      <stop
         offset="1"
         stop-color="#f72424"
         stop-opacity=".118"
         id="stop9" />
    </linearGradient>
    <linearGradient
       id="g"
       osb:paint="solid">
      <stop
         offset="0"
         stop-opacity=".196"
         id="stop12" />
    </linearGradient>
    <linearGradient
       id="f"
       osb:paint="solid">
      <stop
         offset="0"
         stop-color="#fff"
         stop-opacity=".162"
         id="stop15" />
    </linearGradient>
    <linearGradient
       id="e"
       osb:paint="solid">
      <stop
         offset="0"
         stop-opacity=".078"
         id="stop18" />
    </linearGradient>
    <linearGradient
       id="d"
       osb:paint="solid">
      <stop
         offset="0"
         stop-opacity=".157"
         id="stop21" />
    </linearGradient>
    <linearGradient
       id="b">
      <stop
         offset="0"
         stop-color="#fa2727"
         id="stop24" />
      <stop
         offset="1"
         stop-color="#fb4e4e"
         id="stop26" />
    </linearGradient>
    <linearGradient
       id="a">
      <stop
         offset="0"
         stop-color="#fa2727"
         id="stop29" />
      <stop
         offset="1"
         stop-color="#d90101"
         id="stop31" />
    </linearGradient>
    <linearGradient
       id="c">
      <stop
         offset="0"
         stop-opacity="0"
         id="stop34" />
      <stop
         offset="1"
         stop-opacity=".102"
         id="stop36" />
    </linearGradient>
    <linearGradient
       xlink:href="#i"
       id="j"
       x1="-70"
       y1="-64"
       x2="-58"
       y2="-64"
       gradientUnits="userSpaceOnUse" />
  </defs>
  <path
     d="m -69,-69 c 0,-1 1,-1 1,-1 h 5 c 1,0 1,1 1,1 v 2 h 2 c 0,0 1,0 1,1 v 7 c 0,0 0,1 -1,1 h -9 z"
     style="isolation:auto;mix-blend-mode:normal;fill:#ff5151;fill-opacity:1;marker:none"
     color="#000000"
     overflow="visible"
     opacity="0.504"
     fill="url(#j)"
     paint-order="fill markers stroke"
     transform="translate(72,72)"
     id="path42"
     sodipodi:nodetypes="ccccccccccc" />
  <path
     style="isolation:auto;mix-blend-mode:normal;fill:#ff5151;fill-opacity:1;marker:none"
     d="M -69.969009,-68.989983 -70,-59 c 0,2 1.967978,2 1.967978,2 H -60 c 2,0 2,-2.032391 2,-2.032391 V -67 l -4,-4 h -6.01874 c -1.98126,0 -1.950269,2.010017 -1.950269,2.010017 z M -69,-69 c 0,-1 1.021106,-1 1.021106,-1 H -63 c 1,0 1,0.968436 1,0.968436 V -67 h 2 c 1,0 1,1 1,1 v 6.965395 C -59,-58 -60,-58 -60,-58 h -7.996603 c 0,0 -1.003397,0 -1.003397,-1 z"
     color="#000000"
     overflow="visible"
     fill="url(#j)"
     paint-order="fill markers stroke"
     transform="translate(72,72)"
     id="path44"
     sodipodi:nodetypes="ccccccccccccccccccccc" />
  <path
     d="M12.602 9.167c-.186-.183-.599-.28-1.227-.289-.425-.005-.937.033-1.475.108-.242-.139-.49-.29-.685-.472-.525-.49-.963-1.17-1.235-1.918.017-.07.033-.131.047-.194 0 0 .295-1.678.217-2.246a.656.656 0 0 0-.038-.16l-.026-.067c-.08-.185-.238-.381-.485-.37l-.145-.005h-.004c-.276 0-.5.14-.559.351-.18.66.006 1.649.34 2.929l-.085.208a23.03 23.03 0 0 1-.806 1.694l-.034.067a28.44 28.44 0 0 1-.762 1.403l-.237.125c-.017.01-.424.224-.519.282-.808.482-1.344 1.03-1.432 1.465-.029.139-.008.316.136.398l.23.116c.099.05.204.075.311.075.576 0 1.244-.717 2.165-2.324a21.56 21.56 0 0 1 3.333-.792c.808.455 1.802.77 2.43.77.111 0 .207-.01.285-.03.12-.032.222-.1.284-.194.122-.183.146-.436.113-.694a.464.464 0 0 0-.137-.236zM4.004 12.23c.105-.287.52-.855 1.135-1.358.039-.031.134-.12.221-.203-.642 1.024-1.073 1.433-1.356 1.56zm3.64-8.38c.184 0 .29.467.298.904.009.437-.093.744-.22.971-.105-.336-.156-.866-.156-1.212 0 0-.008-.663.077-.663zM6.557 9.822c.129-.23.263-.474.4-.732.334-.632.545-1.126.702-1.533A5.063 5.063 0 0 0 9 9.142c-.93.184-1.734.408-2.442.68zm5.865-.053c-.056.036-.219.056-.323.056-.337 0-.754-.154-1.338-.404.224-.017.43-.025.615-.025.338 0 .438-.002.768.082.33.085.335.256.278.291z"
     fill="#fffcfd"
     id="path46" />
</svg>
