<?xml version="1.0" encoding="UTF-8" standalone="no"?>
<svg
   height="128"
   viewBox="0 0 128 128"
   width="128"
   version="1.1"
   id="svg73"
   sodipodi:docname="application-pdf.svg"
   inkscape:version="1.2.2 (b0a8486541, 2022-12-01)"
   xmlns:inkscape="http://www.inkscape.org/namespaces/inkscape"
   xmlns:sodipodi="http://sodipodi.sourceforge.net/DTD/sodipodi-0.dtd"
   xmlns:xlink="http://www.w3.org/1999/xlink"
   xmlns="http://www.w3.org/2000/svg"
   xmlns:svg="http://www.w3.org/2000/svg"
   xmlns:osb="http://www.openswatchbook.org/uri/2009/osb">
  <sodipodi:namedview
     id="namedview75"
     pagecolor="#ffffff"
     bordercolor="#000000"
     borderopacity="0.25"
     inkscape:showpageshadow="2"
     inkscape:pageopacity="0.0"
     inkscape:pagecheckerboard="0"
     inkscape:deskcolor="#d1d1d1"
     showgrid="true"
     inkscape:zoom="5.831577"
     inkscape:cx="4.3727451"
     inkscape:cy="56.245506"
     inkscape:window-width="2400"
     inkscape:window-height="1281"
     inkscape:window-x="1920"
     inkscape:window-y="32"
     inkscape:window-maximized="1"
     inkscape:current-layer="svg73">
    <inkscape:grid
       type="xygrid"
       id="grid381" />
  </sodipodi:namedview>
  <title
     id="title2">Template icons dark</title>
  <defs
     id="defs49">
    <linearGradient
       id="i"
       osb:paint="solid">
      <stop
         offset="0"
         stop-color="#ff5151"
         id="stop4" />
    </linearGradient>
    <linearGradient
       id="h">
      <stop
         offset="0"
         stop-color="#f72424"
         stop-opacity=".066"
         id="stop7" />
      <stop
         offset="1"
         stop-color="#f72424"
         stop-opacity=".118"
         id="stop9" />
    </linearGradient>
    <linearGradient
       id="g"
       osb:paint="solid">
      <stop
         offset="0"
         stop-opacity=".196"
         id="stop12" />
    </linearGradient>
    <linearGradient
       id="f"
       osb:paint="solid">
      <stop
         offset="0"
         stop-color="#fff"
         stop-opacity=".162"
         id="stop15" />
    </linearGradient>
    <linearGradient
       id="e"
       osb:paint="solid">
      <stop
         offset="0"
         stop-opacity=".078"
         id="stop18" />
    </linearGradient>
    <linearGradient
       id="d"
       osb:paint="solid">
      <stop
         offset="0"
         stop-opacity=".157"
         id="stop21" />
    </linearGradient>
    <linearGradient
       id="b">
      <stop
         offset="0"
         stop-color="#fa2727"
         id="stop24" />
      <stop
         offset="1"
         stop-color="#fb4e4e"
         id="stop26" />
    </linearGradient>
    <linearGradient
       id="a">
      <stop
         offset="0"
         stop-color="#fa2727"
         id="stop29" />
      <stop
         offset="1"
         stop-color="#d90101"
         id="stop31" />
    </linearGradient>
    <linearGradient
       id="c">
      <stop
         offset="0"
         stop-opacity="0"
         id="stop34" />
      <stop
         offset="1"
         stop-opacity=".102"
         id="stop36" />
    </linearGradient>
    <linearGradient
       gradientTransform="matrix(1.33333,0,0,1.33333,58.667,56.167)"
       xlink:href="#e"
       id="j"
       x1="125"
       y1="161.5"
       x2="195"
       y2="161.5"
       gradientUnits="userSpaceOnUse" />
    <linearGradient
       gradientTransform="matrix(1.33333,0,0,1.33333,58.667,56.167)"
       xlink:href="#d"
       id="k"
       x1="126"
       y1="161.5"
       x2="194"
       y2="161.5"
       gradientUnits="userSpaceOnUse" />
    <linearGradient
       xlink:href="#a"
       id="l"
       gradientUnits="userSpaceOnUse"
       gradientTransform="matrix(2.92579,0,0,2.9282,201.838,201.731)"
       x1="24.117"
       y1="4.931"
       x2="24.058"
       y2="42.556" />
    <linearGradient
       xlink:href="#c"
       id="m"
       gradientUnits="userSpaceOnUse"
       gradientTransform="matrix(2.92579,0,0,2.9282,201.838,201.731)"
       x1="23.981"
       y1="23.144"
       x2="45.855"
       y2="45" />
    <linearGradient
       xlink:href="#c"
       id="n"
       gradientUnits="userSpaceOnUse"
       gradientTransform="matrix(2.92579,0,0,2.9282,201.838,201.731)"
       x1="23.981"
       y1="23.144"
       x2="2.106"
       y2="45" />
    <linearGradient
       xlink:href="#c"
       id="o"
       gradientUnits="userSpaceOnUse"
       gradientTransform="matrix(2.92579,0,0,2.9282,201.838,201.731)"
       x1="23.981"
       y1="23.144"
       x2="45.855"
       y2="1.287" />
    <linearGradient
       xlink:href="#c"
       id="p"
       gradientUnits="userSpaceOnUse"
       gradientTransform="matrix(2.92579,0,0,2.9282,201.838,201.731)"
       x1="23.981"
       y1="23.144"
       x2="2.106"
       y2="1.287" />
    <linearGradient
       gradientTransform="matrix(1.33333,0,0,1.33333,58.667,56.167)"
       xlink:href="#f"
       id="q"
       x1="130.75008"
       y1="120.62505"
       x2="169"
       y2="120.5"
       gradientUnits="userSpaceOnUse" />
    <linearGradient
       gradientTransform="matrix(1.33333,0,0,1.33333,58.667,56.167)"
       xlink:href="#g"
       id="r"
       x1="166"
       y1="133.472"
       x2="193"
       y2="133.472"
       gradientUnits="userSpaceOnUse" />
    <linearGradient
       xlink:href="#b"
       id="s"
       gradientUnits="userSpaceOnUse"
       gradientTransform="matrix(3.34375,0,0,2.9282,188.009,201.41)"
       x1="33.094"
       y1="10.504"
       x2="29.904"
       y2="14.147" />
    <linearGradient
       gradientTransform="matrix(1.33333,0,0,1.33333,58.667,56.167)"
       xlink:href="#a-7"
       id="f-8"
       x1="125"
       y1="161.5"
       x2="195"
       y2="161.5"
       gradientUnits="userSpaceOnUse" />
    <linearGradient
       id="a-7"
       osb:paint="solid">
      <stop
         offset="0"
         stop-opacity=".078"
         style="stop-color:#000000;stop-opacity:0.11;"
         id="stop15-9" />
    </linearGradient>
    <linearGradient
       xlink:href="#e-0"
       id="g-2"
       x1="66.90004"
       y1="110"
       x2="66.90004"
       y2="30"
       gradientUnits="userSpaceOnUse" />
    <linearGradient
       id="e-0">
      <stop
         style="stop-color:#c80202;stop-opacity:1;"
         offset="0"
         id="stop2" />
      <stop
         style="stop-color:#e83434;stop-opacity:1;"
         offset="1"
         id="stop6" />
    </linearGradient>
    <linearGradient
       xlink:href="#d-2"
       id="j-9"
       gradientUnits="userSpaceOnUse"
       gradientTransform="matrix(3.34375,0,0,2.9282,-19.991,-6.59)"
       x1="29.792999"
       y1="15.279"
       x2="33.865002"
       y2="11.077" />
    <linearGradient
       id="d-2">
      <stop
         offset="0"
         stop-color="#fff"
         id="stop18-2" />
      <stop
         offset="1"
         stop-color="#dfdfdf"
         id="stop20" />
    </linearGradient>
    <linearGradient
       inkscape:collect="always"
       xlink:href="#a-7"
       id="linearGradient1105"
       gradientUnits="userSpaceOnUse"
       gradientTransform="matrix(1.33333,0,0,1.33333,58.667,56.167)"
       x1="125"
       y1="161.5"
       x2="195"
       y2="161.5" />
    <linearGradient
       inkscape:collect="always"
       xlink:href="#g"
       id="linearGradient1107"
       gradientUnits="userSpaceOnUse"
       gradientTransform="matrix(1.33333,0,0,1.33333,-149.333,-151.833)"
       x1="166"
       y1="133.472"
       x2="193"
       y2="133.472" />
  </defs>
  <g
     id="g1121">
    <path
       style="vector-effect:none;fill:url(#linearGradient1105);fill-rule:evenodd;marker:none;paint-order:fill markers stroke;stop-color:#000000"
       d="m 26,6 h 50 l 34,34 v 73 c 0,4.432 -3.568,8 -8,8 H 26 c -4.432,0 -8,-3.568 -8,-8 V 14 c 0,-4.432 3.568,-8 8,-8 z"
       id="path1311"
       sodipodi:nodetypes="sccssssss" />
    <path
       style="vector-effect:none;fill:url(#f-8);fill-rule:evenodd;marker:none;paint-order:fill markers stroke;stop-color:#000000"
       d="m 27,7 h 49 l 33,33 v 72 c 0,4.432 -3.568,8 -8,8 H 27 c -4.432,0 -8,-3.568 -8,-8 V 15 c 0,-4.432 3.568,-8 8,-8 z"
       id="path30" />
    <path
       style="vector-effect:none;fill:url(#g-2);fill-rule:evenodd;marker:none;paint-order:fill markers stroke;stop-color:#000000"
       d="m 28,8 h 48 l 32,32 v 71 c 0,4.432 -3.568,8 -8,8 H 28 c -4.432,0 -8,-3.568 -8,-8 V 16 c 0,-4.432 3.568,-8 8,-8 z"
       id="path32" />
    <path
       style="isolation:auto;mix-blend-mode:normal;fill:#ffffff;fill-opacity:0.42953742;marker:none"
       d="M 27,8 H 76 V 9 H 24 a 15.031,15.031 0 0 1 3,-1 z"
       color="#000000"
       display="block"
       overflow="visible"
       fill="url(#h)"
       paint-order="fill markers stroke"
       id="path34" />
    <path
       d="m 76,8 31.968,31.966 -29.908,3.457 c 0,0 -5.312,0.403 -5.224,-5.356 z"
       fill="url(#i)"
       fill-rule="evenodd"
       style="display:inline;fill:url(#linearGradient1107)"
       id="path36" />
    <path
       d="m 76,8 32,32 H 81.024 C 81.024,40 76,40.042 76,33.916 Z"
       fill="url(#j)"
       fill-rule="evenodd"
       style="fill:url(#j-9)"
       id="path38" />
  </g>
  <path
     d="M93.409 73.44c-1.198-1.18-3.856-1.806-7.899-1.859-2.737-.03-6.03.21-9.496.696-1.551-.895-3.15-1.87-4.406-3.043-3.376-3.153-6.195-7.53-7.951-12.342.114-.45.212-.845.302-1.248 0 0 1.902-10.803 1.399-14.455a4.225 4.225 0 0 0-.247-1.036l-.165-.424c-.517-1.194-1.532-2.458-3.122-2.389l-.932-.03h-.026c-1.774 0-3.219.907-3.598 2.262-1.153 4.252.036 10.613 2.193 18.852l-.552 1.342c-1.544 3.764-3.48 7.555-5.186 10.9l-.222.434c-1.797 3.515-3.426 6.499-4.904 9.027l-1.525.806c-.111.059-2.725 1.442-3.339 1.813-5.201 3.106-8.648 6.631-9.22 9.43-.182.892-.047 2.035.879 2.564l1.475.742c.64.32 1.315.483 2.006.483 3.705 0 8.007-4.615 13.932-14.956 6.841-2.227 14.63-4.078 21.456-5.1 5.203 2.93 11.6 4.964 15.64 4.964.716 0 1.334-.068 1.837-.2.774-.206 1.427-.648 1.825-1.247.783-1.18.942-2.803.73-4.466-.064-.494-.458-1.104-.884-1.52zM38.07 93.154c.676-1.847 3.35-5.5 7.304-8.74.249-.201.861-.775 1.422-1.308-4.135 6.595-6.904 9.224-8.726 10.048zM61.49 39.22c1.192 0 1.87 3.002 1.926 5.817.056 2.814-.602 4.79-1.419 6.25-.676-2.163-1.003-5.574-1.003-7.804 0 0-.05-4.263.497-4.263zm-6.986 38.435c.83-1.485 1.693-3.052 2.575-4.713 2.15-4.066 3.508-7.247 4.52-9.862 2.01 3.659 4.516 6.77 7.46 9.263.368.31.757.623 1.166.935-5.989 1.184-11.164 2.625-15.72 4.377zm37.754-.338c-.365.228-1.41.36-2.081.36-2.17 0-4.853-.991-8.614-2.604a54.106 54.106 0 0 1 3.959-.161c2.175 0 2.82-.01 4.947.533 2.127.542 2.154 1.644 1.79 1.872z"
     fill="#ffeff2"
     id="path71" />
</svg>
