<?xml version="1.0" encoding="UTF-8" standalone="no"?>
<svg
   height="128"
   viewBox="0 0 128 128"
   width="128"
   version="1.1"
   id="svg76"
   sodipodi:docname="font-x-generic.svg"
   inkscape:version="1.2.2 (b0a8486541, 2022-12-01)"
   xmlns:inkscape="http://www.inkscape.org/namespaces/inkscape"
   xmlns:sodipodi="http://sodipodi.sourceforge.net/DTD/sodipodi-0.dtd"
   xmlns:xlink="http://www.w3.org/1999/xlink"
   xmlns="http://www.w3.org/2000/svg"
   xmlns:svg="http://www.w3.org/2000/svg"
   xmlns:osb="http://www.openswatchbook.org/uri/2009/osb">
  <sodipodi:namedview
     id="namedview78"
     pagecolor="#ffffff"
     bordercolor="#000000"
     borderopacity="0.25"
     inkscape:showpageshadow="2"
     inkscape:pageopacity="0.0"
     inkscape:pagecheckerboard="0"
     inkscape:deskcolor="#d1d1d1"
     showgrid="true"
     inkscape:zoom="8.0234375"
     inkscape:cx="54.77702"
     inkscape:cy="63.937683"
     inkscape:window-width="2560"
     inkscape:window-height="1371"
     inkscape:window-x="0"
     inkscape:window-y="32"
     inkscape:window-maximized="1"
     inkscape:current-layer="svg76">
    <inkscape:grid
       type="xygrid"
       id="grid1154" />
  </sodipodi:namedview>
  <title
     id="title2">Template icons dark</title>
  <defs
     id="defs48">
    <linearGradient
       id="i"
       osb:paint="solid">
      <stop
         offset="0"
         stop-color="#72b0f7"
         id="stop4" />
    </linearGradient>
    <linearGradient
       id="g"
       osb:paint="solid">
      <stop
         offset="0"
         stop-opacity=".196"
         id="stop7" />
    </linearGradient>
    <linearGradient
       id="f"
       osb:paint="solid">
      <stop
         offset="0"
         stop-color="#fff"
         stop-opacity=".782"
         id="stop10" />
    </linearGradient>
    <linearGradient
       id="e"
       osb:paint="solid">
      <stop
         offset="0"
         stop-opacity=".078"
         id="stop13" />
    </linearGradient>
    <linearGradient
       id="d"
       osb:paint="solid">
      <stop
         offset="0"
         stop-opacity=".157"
         id="stop16" />
    </linearGradient>
    <linearGradient
       id="b">
      <stop
         offset="0"
         stop-color="#fff"
         id="stop19" />
      <stop
         offset="1"
         stop-color="#dfdfdf"
         id="stop21" />
    </linearGradient>
    <linearGradient
       id="a">
      <stop
         offset="0"
         stop-color="#f0f0f0"
         id="stop24" />
      <stop
         offset="1"
         stop-color="#fff"
         id="stop26" />
    </linearGradient>
    <linearGradient
       id="c">
      <stop
         offset="0"
         stop-opacity="0"
         id="stop29" />
      <stop
         offset="1"
         stop-opacity=".102"
         id="stop31" />
    </linearGradient>
    <linearGradient
       gradientTransform="translate(58.667 56.167) scale(1.33333)"
       xlink:href="#e"
       id="j"
       x1="125"
       y1="161.5"
       x2="195"
       y2="161.5"
       gradientUnits="userSpaceOnUse" />
    <linearGradient
       gradientTransform="translate(58.667 56.167) scale(1.33333)"
       xlink:href="#d"
       id="k"
       x1="126"
       y1="161.5"
       x2="194"
       y2="161.5"
       gradientUnits="userSpaceOnUse" />
    <linearGradient
       xlink:href="#a"
       id="l"
       gradientUnits="userSpaceOnUse"
       gradientTransform="matrix(2.92579 0 0 2.9282 201.838 201.731)"
       x1="24.117"
       y1="4.931"
       x2="24.058"
       y2="42.556" />
    <linearGradient
       xlink:href="#c"
       id="m"
       gradientUnits="userSpaceOnUse"
       gradientTransform="matrix(2.92579 0 0 2.9282 201.838 201.731)"
       x1="23.981"
       y1="23.144"
       x2="45.855"
       y2="45" />
    <linearGradient
       xlink:href="#c"
       id="n"
       gradientUnits="userSpaceOnUse"
       gradientTransform="matrix(2.92579 0 0 2.9282 201.838 201.731)"
       x1="23.981"
       y1="23.144"
       x2="2.106"
       y2="45" />
    <linearGradient
       xlink:href="#c"
       id="o"
       gradientUnits="userSpaceOnUse"
       gradientTransform="matrix(2.92579 0 0 2.9282 201.838 201.731)"
       x1="23.981"
       y1="23.144"
       x2="45.855"
       y2="1.287" />
    <linearGradient
       xlink:href="#c"
       id="p"
       gradientUnits="userSpaceOnUse"
       gradientTransform="matrix(2.92579 0 0 2.9282 201.838 201.731)"
       x1="23.981"
       y1="23.144"
       x2="2.106"
       y2="1.287" />
    <linearGradient
       gradientTransform="translate(58.667 56.167) scale(1.33333)"
       xlink:href="#f"
       id="q"
       x1="127"
       y1="120.5"
       x2="169"
       y2="120.5"
       gradientUnits="userSpaceOnUse" />
    <linearGradient
       gradientTransform="translate(58.667 56.167) scale(1.33333)"
       xlink:href="#g"
       id="r"
       x1="166"
       y1="133.472"
       x2="193"
       y2="133.472"
       gradientUnits="userSpaceOnUse" />
    <linearGradient
       xlink:href="#b"
       id="s"
       gradientUnits="userSpaceOnUse"
       gradientTransform="matrix(3.34375 0 0 2.9282 188.009 201.41)"
       x1="33.094"
       y1="10.504"
       x2="29.904"
       y2="14.147" />
    <linearGradient
       id="h"
       osb:paint="solid">
      <stop
         offset="0"
         stop-opacity=".084"
         id="stop44" />
    </linearGradient>
    <linearGradient
       gradientTransform="matrix(1.3339 0 0 1.33682 58.573 55.577)"
       xlink:href="#h"
       id="t"
       gradientUnits="userSpaceOnUse"
       x1="188"
       y1="173.5"
       x2="189"
       y2="173.5" />
    <linearGradient
       gradientTransform="matrix(1.33333,0,0,1.33333,58.667,58.167)"
       xlink:href="#a-6"
       id="f-3"
       x1="125"
       y1="161.5"
       x2="195"
       y2="161.5"
       gradientUnits="userSpaceOnUse" />
    <linearGradient
       id="a-6"
       osb:paint="solid">
      <stop
         offset="0"
         stop-opacity=".078"
         style="stop-color:#000000;stop-opacity:0.11;"
         id="stop15" />
    </linearGradient>
    <linearGradient
       xlink:href="#e-5"
       id="g-7"
       x1="71"
       y1="114"
       x2="46"
       y2="32"
       gradientUnits="userSpaceOnUse"
       gradientTransform="translate(0,2)" />
    <linearGradient
       id="e-5">
      <stop
         style="stop-color:#dadada;stop-opacity:1;"
         offset="0"
         id="stop2" />
      <stop
         style="stop-color:#e9e9e9;stop-opacity:1;"
         offset="0.50999999"
         id="stop4-3" />
      <stop
         style="stop-color:#f0f0f0;stop-opacity:1;"
         offset="1"
         id="stop6" />
    </linearGradient>
    <linearGradient
       xlink:href="#b"
       id="j-2"
       gradientUnits="userSpaceOnUse"
       gradientTransform="matrix(3.34375,0,0,2.9282,-19.991,-4.59)"
       x1="29.792999"
       y1="15.279"
       x2="33.865002"
       y2="11.077" />
    <linearGradient
       inkscape:collect="always"
       xlink:href="#a-6"
       id="linearGradient1230"
       gradientUnits="userSpaceOnUse"
       gradientTransform="matrix(1.33333,0,0,1.33333,58.667,58.167)"
       x1="125"
       y1="161.5"
       x2="195"
       y2="161.5" />
    <linearGradient
       inkscape:collect="always"
       xlink:href="#g"
       id="linearGradient1232"
       gradientUnits="userSpaceOnUse"
       gradientTransform="matrix(1.33333,0,0,1.33333,-149.333,-149.833)"
       x1="166"
       y1="133.472"
       x2="193"
       y2="133.472" />
  </defs>
  <g
     id="g1246"
     transform="translate(0,-3)">
    <path
       style="vector-effect:none;fill:url(#linearGradient1230);fill-rule:evenodd;marker:none;paint-order:fill markers stroke;stop-color:#000000"
       d="m 26,8 h 50 l 34,34 v 73 c 0,4.432 -3.568,8 -8,8 H 26 c -4.432,0 -8,-3.568 -8,-8 V 16 c 0,-4.432 3.568,-8 8,-8 z"
       id="path1311"
       sodipodi:nodetypes="sccssssss" />
    <path
       style="vector-effect:none;fill:url(#f-3);fill-rule:evenodd;marker:none;paint-order:fill markers stroke;stop-color:#000000"
       d="m 27,9 h 49 l 33,33 v 72 c 0,4.432 -3.568,8 -8,8 H 27 c -4.432,0 -8,-3.568 -8,-8 V 17 c 0,-4.432 3.568,-8 8,-8 z"
       id="path30" />
    <path
       style="vector-effect:none;fill:url(#g-7);fill-rule:evenodd;marker:none;paint-order:fill markers stroke;stop-color:#000000"
       d="m 28,10 h 48 l 32,32 v 71 c 0,4.432 -3.568,8 -8,8 H 28 c -4.432,0 -8,-3.568 -8,-8 V 18 c 0,-4.432 3.568,-8 8,-8 z"
       id="path32" />
    <path
       style="isolation:auto;mix-blend-mode:normal;fill:#ffffff;fill-opacity:1;marker:none"
       d="m 27,10 h 49 v 1 H 24 a 15.031,15.031 0 0 1 3,-1 z"
       color="#000000"
       display="block"
       overflow="visible"
       fill="url(#h)"
       paint-order="fill markers stroke"
       id="path34" />
    <path
       d="m 76,10 31.968,31.966 -29.908,3.457 c 0,0 -5.312,0.403 -5.224,-5.356 z"
       fill="url(#i)"
       fill-rule="evenodd"
       style="display:inline;fill:url(#linearGradient1232)"
       id="path36" />
    <path
       d="m 76,10 32,32 H 81.024 C 81.024,42 76,42.042 76,35.916 Z"
       fill="url(#j)"
       fill-rule="evenodd"
       style="fill:url(#j-2)"
       id="path38" />
  </g>
  <g
     id="g1152"
     style="display:inline">
    <path
       style="display:inline;isolation:auto;mix-blend-mode:normal;marker:none"
       d="m 229.313,215.996 v 4.01 h -1.333 v 1.337 h 1.333 v 4.01 h -1.333 v 1.337 h 1.333 v 4.01 h -1.333 v 1.338 h 1.333 v 4.01 h -1.333 v 1.337 h 1.333 v 4.01 h -1.333 v 1.337 h 1.333 v 4.01 h -1.333 v 1.337 h 1.333 v 4.01 h -1.333 v 1.338 h 1.333 v 4.01 h -1.333 v 1.337 h 1.333 v 4.01 h -1.333 v 1.337 h 1.333 v 4.01 h -1.333 v 1.338 h 1.333 v 4.01 h -1.333 v 1.337 h 1.333 v 4.01 h -1.333 v 1.337 h 1.333 v 4.01 h -1.333 v 1.337 h 1.333 v 4.01 h -1.333 v 1.338 h 1.333 v 4.01 h -1.333 v 1.337 h 1.333 v 4.01 h -1.333 v 1.337 h 1.333 v 4.01 h -1.333 v 1.338 h 1.333 v 4.01 h -1.333 v 1.337 h 1.333 v 4.01 h -1.333 v 1.337 h 1.333 v 4.01 h -1.333 v 1.338 h 1.333 v 4.01 h 1.334 v -4.01 h 4.002 v 4.01 h 1.334 v -4.01 h 4.002 v 4.01 h 1.334 v -4.01 h 4.001 v 4.01 h 1.334 v -4.01 h 4.002 v 4.01 h 1.334 v -4.01 h 4.002 v 4.01 h 1.334 v -4.01 h 4.001 v 4.01 h 1.334 v -4.01 h 4.002 v 4.01 h 1.334 v -4.01 h 4.002 v 4.01 h 1.333 v -4.01 h 4.002 v 4.01 h 1.334 v -4.01 h 4.002 v 4.01 h 1.334 v -4.01 h 4.001 v 4.01 h 1.334 v -4.01 h 4.002 v 4.01 h 1.334 v -4.01 h 4.002 v 3.885 h 1.334 v -3.885 h 4.001 v 4.01 h 1.334 v -4.01 h 4.002 v 4.01 h 1.334 v -4.01 h 5.335 v -1.337 h -5.335 v -4.01 h 5.335 v -1.338 h -5.335 v -4.01 h 5.335 v -1.337 h -5.335 v -4.01 h 5.335 v -1.337 h -5.335 v -4.01 h 5.335 v -1.337 h -5.335 v -4.011 h 5.335 v -1.337 h -5.335 v -4.01 h 5.335 v -1.337 h -5.335 v -4.01 h 5.335 v -1.337 h -5.335 v -4.01 h 5.335 v -1.338 h -5.335 v -4.01 h 5.335 v -1.337 h -5.335 v -4.01 h 5.335 v -1.337 h -5.335 v -4.01 h 5.335 v -1.338 h -5.335 v -4.01 h 5.335 v -1.337 h -5.335 v -4.01 h 5.335 v -1.337 h -5.335 v -4.01 h -1.334 v 4.01 h -4.002 v -4.01 h -1.334 v 4.01 h -4.001 v -4.136 h -1.334 v 4.136 h -4.002 v -4.01 h -1.334 v 4.01 h -4.002 v -4.01 h -1.334 v 4.01 h -4.001 v -36.094 h -1.334 v 4.01 h -4.002 v -4.01 h -1.334 v 4.01 h -4.002 v -4.01 H 272 v 4.01 h -4.002 v -4.01 h -1.334 v 4.01 h -4.002 v -4.01 h -1.334 v 4.01 h -4.001 v -4.01 h -1.334 v 4.01 h -4.002 v -4.01 h -1.334 v 4.01 h -4.002 v -4.01 h -1.334 v 4.01 h -4.001 v -4.01 h -1.334 v 4.01 h -4.002 v -4.01 h -1.334 v 4.01 h -4.002 v -4.01 z m 1.334,5.347 h 4.002 v 4.01 h -4.002 z m 5.336,0 h 4.002 v 4.01 h -4.002 z m 5.336,0 h 4.001 v 4.01 h -4.001 z m 5.335,0 h 4.002 v 4.01 h -4.002 z m 5.336,0 h 4.002 v 4.01 h -4.002 z m 5.336,0 h 4.001 v 4.01 h -4.001 z m 5.335,0 h 4.002 v 4.01 h -4.002 z m 5.336,0 h 4.002 v 4.01 h -4.002 z m 5.335,0 h 4.002 v 4.01 h -4.002 z m 5.336,0 h 4.002 v 4.01 h -4.002 z m -48.02,5.347 h 4.001 v 4.01 h -4.002 z m 5.335,0 h 4.002 v 4.01 h -4.002 z m 5.336,0 h 4.001 v 4.01 h -4.001 z m 5.335,0 h 4.002 v 4.01 h -4.002 z m 5.336,0 h 4.002 v 4.01 h -4.002 z m 5.336,0 h 4.001 v 4.01 h -4.001 z m 5.335,0 h 4.002 v 4.01 h -4.002 z m 5.336,0 h 4.002 v 4.01 h -4.002 z m 5.335,0 h 4.002 v 4.01 h -4.002 z m 5.336,0 h 4.002 v 4.01 h -4.002 z m -48.02,5.348 h 4.001 v 4.01 h -4.002 z m 5.335,0 h 4.002 v 4.01 h -4.002 z m 5.336,0 h 4.001 v 4.01 h -4.001 z m 5.335,0 h 4.002 v 4.01 h -4.002 z m 5.336,0 h 4.002 v 4.01 h -4.002 z m 5.336,0 h 4.001 v 4.01 h -4.001 z m 5.335,0 h 4.002 v 4.01 h -4.002 z m 5.336,0 h 4.002 v 4.01 h -4.002 z m 5.335,0 h 4.002 v 4.01 h -4.002 z m 5.336,0 h 4.002 v 4.01 h -4.002 z m -48.02,5.347 h 4.001 v 4.01 h -4.002 z m 5.335,0 h 4.002 v 4.01 h -4.002 z m 5.336,0 h 4.001 v 4.01 h -4.001 z m 5.335,0 h 4.002 v 4.01 h -4.002 z m 5.336,0 h 4.002 v 4.01 h -4.002 z m 5.336,0 h 4.001 v 4.01 h -4.001 z m 5.335,0 h 4.002 v 4.01 h -4.002 z m 5.336,0 h 4.002 v 4.01 h -4.002 z m 5.335,0 h 4.002 v 4.01 h -4.002 z m 5.336,0 h 4.002 v 4.01 h -4.002 z m -48.02,5.347 h 4.001 v 4.01 h -4.002 z m 5.335,0 h 4.002 v 4.01 h -4.002 z m 5.336,0 h 4.001 v 4.01 h -4.001 z m 5.335,0 h 4.002 v 4.01 h -4.002 z m 5.336,0 h 4.002 v 4.01 h -4.002 z m 5.336,0 h 4.001 v 4.01 h -4.001 z m 5.335,0 h 4.002 v 4.01 h -4.002 z m 5.336,0 h 4.002 v 4.01 h -4.002 z m 5.335,0 h 4.002 v 4.01 h -4.002 z m 5.336,0 h 4.002 v 4.01 h -4.002 z m -48.02,5.347 h 4.001 v 4.01 h -4.002 z m 5.335,0 h 4.002 v 4.01 h -4.002 z m 5.336,0 h 4.001 v 4.01 h -4.001 z m 5.335,0 h 4.002 v 4.01 h -4.002 z m 5.336,0 h 4.002 v 4.01 h -4.002 z m 5.336,0 h 4.001 v 4.01 h -4.001 z m 5.335,0 h 4.002 v 4.01 h -4.002 z m 5.336,0 h 4.002 v 4.01 h -4.002 z m 5.335,0 h 4.002 v 4.01 h -4.002 z m 5.336,0 h 4.002 v 4.01 h -4.002 z m -48.02,5.348 h 4.001 v 4.01 h -4.002 z m 5.335,0 h 4.002 v 4.01 h -4.002 z m 5.336,0 h 4.001 v 4.01 h -4.001 z m 5.335,0 h 4.002 v 4.01 h -4.002 z m 5.336,0 h 4.002 v 4.01 h -4.002 z m 5.336,0 h 4.001 v 4.01 h -4.001 z m 5.335,0 h 4.002 v 4.01 h -4.002 z m 5.336,0 h 4.002 v 4.01 h -4.002 z m 5.335,0 h 4.002 v 4.01 h -4.002 z m 5.336,0 h 4.002 v 4.01 h -4.002 z m 5.336,0 h 4.001 v 4.01 h -4.001 z m 5.335,0 h 4.002 v 4.01 h -4.002 z m 5.336,0 h 4.002 v 4.01 h -4.002 z m 5.336,0 h 4.001 v 4.01 h -4.001 z m 5.335,0 h 4.002 v 4.01 h -4.002 z m -74.699,5.347 h 4.002 v 4.01 h -4.002 z m 5.336,0 h 4.002 v 4.01 h -4.002 z m 5.336,0 h 4.001 v 4.01 h -4.001 z m 5.335,0 h 4.002 v 4.01 h -4.002 z m 5.336,0 h 4.002 v 4.01 h -4.002 z m 5.336,0 h 4.001 v 4.01 h -4.001 z m 5.335,0 h 4.002 v 4.01 h -4.002 z m 5.336,0 h 4.002 v 4.01 h -4.002 z m 5.335,0 h 4.002 v 4.01 h -4.002 z m 5.336,0 h 4.002 v 4.01 h -4.002 z m 5.336,0 h 4.001 v 4.01 h -4.001 z m 5.335,0 h 4.002 v 4.01 h -4.002 z m 5.336,0 h 4.002 v 4.01 h -4.002 z m 5.336,0 h 4.001 v 4.01 h -4.001 z m 5.335,0 h 4.002 v 4.01 h -4.002 z m -74.699,5.347 h 4.002 v 4.01 h -4.002 z m 5.336,0 h 4.002 v 4.01 h -4.002 z m 5.336,0 h 4.001 v 4.01 h -4.001 z m 5.335,0 h 4.002 v 4.01 h -4.002 z m 5.336,0 h 4.002 v 4.01 h -4.002 z m 5.336,0 h 4.001 v 4.01 h -4.001 z m 5.335,0 h 4.002 v 4.01 h -4.002 z m 5.336,0 h 4.002 v 4.01 h -4.002 z m 5.335,0 h 4.002 v 4.01 h -4.002 z m 5.336,0 h 4.002 v 4.01 h -4.002 z m 5.336,0 h 4.001 v 4.01 h -4.001 z m 5.335,0 h 4.002 v 4.01 h -4.002 z m 5.336,0 h 4.002 v 4.01 h -4.002 z m 5.336,0 h 4.001 v 4.01 h -4.001 z m 5.335,0 h 4.002 v 4.01 h -4.002 z m -74.699,5.348 h 4.002 v 4.01 h -4.002 z m 5.336,0 h 4.002 v 4.01 h -4.002 z m 5.336,0 h 4.001 v 4.01 h -4.001 z m 5.335,0 h 4.002 v 4.01 h -4.002 z m 5.336,0 h 4.002 v 4.01 h -4.002 z m 5.336,0 h 4.001 v 4.01 h -4.001 z m 5.335,0 h 4.002 v 4.01 h -4.002 z m 5.336,0 h 4.002 v 4.01 h -4.002 z m 5.335,0 h 4.002 v 4.01 h -4.002 z m 5.336,0 h 4.002 v 4.01 h -4.002 z m 5.336,0 h 4.001 v 4.01 h -4.001 z m 5.335,0 h 4.002 v 4.01 h -4.002 z m 5.336,0 h 4.002 v 4.01 h -4.002 z m 5.336,0 h 4.001 v 4.01 h -4.001 z m 5.335,0 h 4.002 v 4.01 h -4.002 z m -74.699,5.347 h 4.002 v 4.01 h -4.002 z m 5.336,0 h 4.002 v 4.01 h -4.002 z m 5.336,0 h 4.001 v 4.01 h -4.001 z m 5.335,0 h 4.002 v 4.01 h -4.002 z m 5.336,0 h 4.002 v 4.01 h -4.002 z m 5.336,0 h 4.001 v 4.01 h -4.001 z m 5.335,0 h 4.002 v 4.01 h -4.002 z m 5.336,0 h 4.002 v 4.01 h -4.002 z m 5.335,0 h 4.002 v 4.01 h -4.002 z m 5.336,0 h 4.002 v 4.01 h -4.002 z m 5.336,0 h 4.001 v 4.01 h -4.001 z m 5.335,0 h 4.002 v 4.01 h -4.002 z m 5.336,0 h 4.002 v 4.01 h -4.002 z m 5.336,0 h 4.001 v 4.01 h -4.001 z m 5.335,0 h 4.002 v 4.01 h -4.002 z m -74.699,5.347 h 4.002 v 4.01 h -4.002 z m 5.336,0 h 4.002 v 4.01 h -4.002 z m 5.336,0 h 4.001 v 4.01 h -4.001 z m 5.335,0 h 4.002 v 4.01 h -4.002 z m 5.336,0 h 4.002 v 4.01 h -4.002 z m 5.336,0 h 4.001 v 4.01 h -4.001 z m 5.335,0 h 4.002 v 4.01 h -4.002 z m 5.336,0 h 4.002 v 4.01 h -4.002 z m 5.335,0 h 4.002 v 4.01 h -4.002 z m 5.336,0 h 4.002 v 4.01 h -4.002 z m 5.336,0 h 4.001 v 4.01 h -4.001 z m 5.335,0 h 4.002 v 4.01 h -4.002 z m 5.336,0 h 4.002 v 4.01 h -4.002 z m 5.336,0 h 4.001 v 4.01 h -4.001 z m 5.335,0 h 4.002 v 4.01 h -4.002 z m -74.699,5.347 h 4.002 v 4.01 h -4.002 z m 5.336,0 h 4.002 v 4.01 h -4.002 z m 5.336,0 h 4.001 v 4.01 h -4.001 z m 5.335,0 h 4.002 v 4.01 h -4.002 z m 5.336,0 h 4.002 v 4.01 h -4.002 z m 5.336,0 h 4.001 v 4.01 h -4.001 z m 5.335,0 h 4.002 v 4.01 h -4.002 z m 5.336,0 h 4.002 v 4.01 h -4.002 z m 5.335,0 h 4.002 v 4.01 h -4.002 z m 5.336,0 h 4.002 v 4.01 h -4.002 z m 5.336,0 h 4.001 v 4.01 h -4.001 z m 5.335,0 h 4.002 v 4.01 h -4.002 z m 5.336,0 h 4.002 v 4.01 h -4.002 z m 5.336,0 h 4.001 v 4.01 h -4.001 z m 5.335,0 h 4.002 v 4.01 h -4.002 z m -74.699,5.348 h 4.002 v 4.01 h -4.002 z m 5.336,0 h 4.002 v 4.01 h -4.002 z m 5.336,0 h 4.001 v 4.01 h -4.001 z m 5.335,0 h 4.002 v 4.01 h -4.002 z m 5.336,0 h 4.002 v 4.01 h -4.002 z m 5.336,0 h 4.001 v 4.01 h -4.001 z m 5.335,0 h 4.002 v 4.01 h -4.002 z m 5.336,0 h 4.002 v 4.01 h -4.002 z m 5.335,0 h 4.002 v 4.01 h -4.002 z m 5.336,0 h 4.002 v 4.01 h -4.002 z m 5.336,0 h 4.001 v 4.01 h -4.001 z m 5.335,0 h 4.002 v 4.01 h -4.002 z m 5.336,0 h 4.002 v 4.01 h -4.002 z m 5.336,0 h 4.001 v 4.01 h -4.001 z m 5.335,0 h 4.002 v 4.01 h -4.002 z m -74.699,5.347 h 4.002 v 4.01 h -4.002 z m 5.336,0 h 4.002 v 4.01 h -4.002 z m 5.336,0 h 4.001 v 4.01 h -4.001 z m 5.335,0 h 4.002 v 4.01 h -4.002 z m 5.336,0 h 4.002 v 4.01 h -4.002 z m 5.336,0 h 4.001 v 4.01 h -4.001 z m 5.335,0 h 4.002 v 4.01 h -4.002 z m 5.336,0 h 4.002 v 4.01 h -4.002 z m 5.335,0 h 4.002 v 4.01 h -4.002 z m 5.336,0 h 4.002 v 4.01 h -4.002 z m 5.336,0 h 4.001 v 4.01 h -4.001 z m 5.335,0 h 4.002 v 4.01 h -4.002 z m 5.336,0 h 4.002 v 4.01 h -4.002 z m 5.336,0 h 4.001 v 4.01 h -4.001 z m 5.335,0 h 4.002 v 4.01 h -4.002 z m -74.699,5.347 h 4.002 v 4.01 h -4.002 z m 5.336,0 h 4.002 v 4.01 h -4.002 z m 5.336,0 h 4.001 v 4.01 h -4.001 z m 5.335,0 h 4.002 v 4.01 h -4.002 z m 5.336,0 h 4.002 v 4.01 h -4.002 z m 5.336,0 h 4.001 v 4.01 h -4.001 z m 5.335,0 h 4.002 v 4.01 h -4.002 z m 5.336,0 h 4.002 v 4.01 h -4.002 z m 5.335,0 h 4.002 v 4.01 h -4.002 z m 5.336,0 h 4.002 v 4.01 h -4.002 z m 5.336,0 h 4.001 v 4.01 h -4.001 z m 5.335,0 h 4.002 v 4.01 h -4.002 z m 5.336,0 h 4.002 v 4.01 h -4.002 z m 5.336,0 h 4.001 v 4.01 h -4.001 z m 5.335,0 h 4.002 v 4.01 h -4.002 z m -74.699,5.348 h 4.002 v 4.01 h -4.002 z m 5.336,0 h 4.002 v 4.01 h -4.002 z m 5.336,0 h 4.001 v 4.01 h -4.001 z m 5.335,0 h 4.002 v 4.01 h -4.002 z m 5.336,0 h 4.002 v 4.01 h -4.002 z m 5.336,0 h 4.001 v 4.01 h -4.001 z m 5.335,0 h 4.002 v 4.01 h -4.002 z m 5.336,0 h 4.002 v 4.01 h -4.002 z m 5.335,0 h 4.002 v 4.01 h -4.002 z m 5.336,0 h 4.002 v 4.01 h -4.002 z m 5.336,0 h 4.001 v 4.01 h -4.001 z m 5.335,0 h 4.002 v 4.01 h -4.002 z m 5.336,0 h 4.002 v 4.01 h -4.002 z m 5.336,0 h 4.001 v 4.01 h -4.001 z m 5.335,0 h 4.002 v 4.01 h -4.002 z m -74.699,5.347 h 4.002 v 4.01 h -4.002 z m 5.336,0 h 4.002 v 4.01 h -4.002 z m 5.336,0 h 4.001 v 4.01 h -4.001 z m 5.335,0 h 4.002 v 4.01 h -4.002 z m 5.336,0 h 4.002 v 4.01 h -4.002 z m 5.336,0 h 4.001 v 4.01 h -4.001 z m 5.335,0 h 4.002 v 4.01 h -4.002 z m 5.336,0 h 4.002 v 4.01 h -4.002 z m 5.335,0 h 4.002 v 4.01 h -4.002 z m 5.336,0 h 4.002 v 4.01 h -4.002 z m 5.336,0 h 4.001 v 4.01 h -4.001 z m 5.335,0 h 4.002 v 4.01 h -4.002 z m 5.336,0 h 4.002 v 4.01 h -4.002 z m 5.336,0 h 4.001 v 4.01 h -4.001 z m 5.335,0 h 4.002 v 4.01 h -4.002 z m -74.699,5.347 h 4.002 v 4.01 h -4.002 z m 5.336,0 h 4.002 v 4.01 h -4.002 z m 5.336,0 h 4.001 v 4.01 h -4.001 z m 5.335,0 h 4.002 v 4.01 h -4.002 z m 5.336,0 h 4.002 v 4.01 h -4.002 z m 5.336,0 h 4.001 v 4.01 h -4.001 z m 5.335,0 h 4.002 v 4.01 h -4.002 z m 5.336,0 h 4.002 v 4.01 h -4.002 z m 5.335,0 h 4.002 v 4.01 h -4.002 z m 5.336,0 h 4.002 v 4.01 h -4.002 z m 5.336,0 h 4.001 v 4.01 h -4.001 z m 5.335,0 h 4.002 v 4.01 h -4.002 z m 5.336,0 h 4.002 v 4.01 h -4.002 z m 5.336,0 h 4.001 v 4.01 h -4.001 z m 5.335,0 h 4.002 v 4.01 h -4.002 z"
       color="#000000"
       overflow="visible"
       opacity="0.4"
       fill="url(#t)"
       paint-order="fill markers stroke"
       transform="translate(-208,-208)"
       id="path70" />
    <path
       style="line-height:1000%;display:inline"
       d="m 65.709,70.72 q -7.655,0 -10.607,1.75 -2.952,1.751 -2.952,5.974 0,3.364 2.197,5.355 2.231,1.956 6.041,1.956 5.252,0 8.41,-3.707 3.193,-3.742 3.193,-9.92 V 70.72 Z m 12.598,-2.609 v 21.935 h -6.316 v -5.835 q -2.163,3.5 -5.39,5.183 -3.226,1.648 -7.895,1.648 -5.904,0 -9.405,-3.296 -3.467,-3.33 -3.467,-8.89 0,-6.488 4.325,-9.784 4.36,-3.295 12.975,-3.295 h 8.857 v -0.618 q 0,-4.36 -2.884,-6.728 -2.849,-2.403 -8.032,-2.403 -3.296,0 -6.42,0.79 -3.123,0.79 -6.007,2.368 v -5.835 q 3.467,-1.34 6.729,-1.991 3.26,-0.687 6.35,-0.687 8.342,0 12.46,4.325 4.12,4.325 4.12,13.113 z"
       font-size="53.333px"
       font-family="sans-serif"
       letter-spacing="0"
       word-spacing="0"
       fill="#9dc3ef"
       fill-opacity="0.63"
       stroke="#82a9e5"
       stroke-width="0.791"
       stroke-opacity="0.995"
       id="path72" />
    <path
       style="line-height:normal;font-variant-ligatures:normal;font-variant-position:normal;font-variant-caps:normal;font-variant-numeric:normal;font-variant-alternates:normal;font-feature-settings:normal;text-indent:0;text-align:start;text-decoration-line:none;text-decoration-style:solid;text-decoration-color:#000000;text-transform:none;text-orientation:mixed;shape-padding:0;display:inline;isolation:auto;mix-blend-mode:normal"
       d="m 49.546,40.18 c -0.116,0 -0.24,0.01 -0.371,0.03 -0.13,0.022 -0.268,0.052 -0.417,0.093 v 0.353 c 0.148,-0.05 0.283,-0.087 0.406,-0.11 0.124,-0.024 0.24,-0.034 0.348,-0.034 0.198,0 0.348,0.04 0.453,0.12 a 0.4,0.4 0 0 1 0.16,0.343 c 0,0.146 -0.05,0.257 -0.152,0.335 -0.103,0.077 -0.252,0.116 -0.445,0.116 h -0.356 v 0.324 h 0.34 c 0.215,0 0.38,0.05 0.5,0.147 0.12,0.096 0.183,0.23 0.183,0.402 a 0.498,0.498 0 0 1 -0.196,0.425 c -0.129,0.097 -0.317,0.146 -0.564,0.146 -0.142,0 -0.277,-0.016 -0.407,-0.049 a 1.378,1.378 0 0 1 -0.36,-0.144 v 0.379 c 0.138,0.048 0.273,0.085 0.401,0.108 0.13,0.023 0.256,0.038 0.379,0.038 0.364,0 0.644,-0.08 0.842,-0.237 0.197,-0.157 0.296,-0.379 0.296,-0.666 a 0.715,0.715 0 0 0 -0.16,-0.474 0.75,0.75 0 0 0 -0.44,-0.25 0.727,0.727 0 0 0 0.394,-0.232 0.621,0.621 0 0 0 0.139,-0.409 0.662,0.662 0 0 0 -0.263,-0.551 C 50.082,40.247 49.845,40.18 49.546,40.18 Z m 2.77,0.052 -1.213,1.845 v 0.382 h 1.316 v 0.687 h 0.391 v -0.687 h 0.415 V 42.132 H 52.81 v -1.9 z m 0.103,0.345 v 1.555 h -0.997 z m -8.712,3.01 v 5.272 h 1.318 v -5.273 z m 15.817,0 v 5.272 h 1.319 v -5.273 z m -13.181,2.635 v 1.319 h 11.78 v -1.319 z m 35.59,7.91 v 1.318 h 6.591 v -1.32 z m 2.636,2.484 v 33.106 h 1.319 V 56.616 Z m 9.462,14.641 c -0.327,0 -0.576,0.13 -0.75,0.389 -0.171,0.257 -0.257,0.63 -0.257,1.122 0,0.49 0.086,0.867 0.258,1.126 0.173,0.257 0.422,0.386 0.749,0.386 0.326,0 0.575,-0.129 0.747,-0.386 0.173,-0.26 0.26,-0.635 0.26,-1.126 0,-0.491 -0.088,-0.865 -0.26,-1.122 -0.172,-0.259 -0.42,-0.389 -0.747,-0.389 z m 2.41,0 c -0.115,0 -0.24,0.016 -0.379,0.05 -0.138,0.032 -0.287,0.08 -0.445,0.143 v 0.4 c 0.156,-0.088 0.304,-0.153 0.44,-0.196 0.138,-0.043 0.268,-0.065 0.391,-0.065 0.175,0 0.315,0.05 0.423,0.147 0.109,0.098 0.164,0.224 0.164,0.379 a 0.639,0.639 0 0 1 -0.077,0.29 1.81,1.81 0 0 1 -0.263,0.358 c -0.066,0.076 -0.228,0.243 -0.486,0.505 -0.258,0.26 -0.463,0.468 -0.613,0.623 v 0.332 h 1.851 v -0.332 h -1.375 l 0.737,-0.754 c 0.174,-0.181 0.276,-0.292 0.309,-0.33 0.118,-0.146 0.2,-0.272 0.244,-0.378 a 0.862,0.862 0 0 0 0.07,-0.34 0.751,0.751 0 0 0 -0.27,-0.605 c -0.18,-0.151 -0.42,-0.227 -0.722,-0.227 z m -5.088,0.054 -0.697,0.14 v 0.36 l 0.7,-0.142 v 2.222 h -0.644 v 0.332 h 1.679 v -0.332 h -0.644 v -2.58 z m 2.678,0.258 c 0.204,0 0.357,0.1 0.458,0.3 0.103,0.2 0.155,0.499 0.155,0.9 0,0.399 -0.052,0.7 -0.155,0.9 -0.101,0.2 -0.254,0.3 -0.458,0.3 -0.203,0 -0.356,-0.1 -0.458,-0.3 -0.102,-0.2 -0.152,-0.501 -0.152,-0.9 0,-0.401 0.05,-0.7 0.152,-0.9 0.102,-0.2 0.255,-0.3 0.458,-0.3 z m -12.098,19.47 v 1.32 h 6.591 v -1.32 z M 41.83,94.4 v 5.273 h 1.318 V 94.4 Z m 38.11,0 v 5.273 h 1.319 V 94.4 Z m -34.915,1.914 v 1.318 H 78.13 v -1.318 z m 17.113,3.866 c -0.115,0 -0.241,0.016 -0.379,0.05 -0.138,0.032 -0.287,0.08 -0.445,0.144 v 0.399 c 0.156,-0.087 0.303,-0.153 0.44,-0.196 0.138,-0.043 0.268,-0.064 0.391,-0.064 0.174,0 0.317,0.049 0.425,0.146 0.11,0.098 0.162,0.224 0.162,0.379 a 0.631,0.631 0 0 1 -0.074,0.29 c -0.05,0.098 -0.14,0.217 -0.266,0.359 -0.066,0.075 -0.227,0.245 -0.486,0.507 -0.258,0.26 -0.46,0.465 -0.61,0.62 v 0.332 h 1.848 v -0.332 H 61.77 l 0.737,-0.754 c 0.174,-0.18 0.279,-0.29 0.311,-0.327 0.119,-0.146 0.2,-0.272 0.245,-0.379 a 0.873,0.873 0 0 0 0.067,-0.342 0.75,0.75 0 0 0 -0.268,-0.605 c -0.18,-0.151 -0.422,-0.227 -0.724,-0.227 z m -2.544,0.054 -0.695,0.14 v 0.36 l 0.7,-0.141 v 2.221 h -0.644 v 0.332 h 1.676 v -0.332 h -0.643 v -2.58 z m 4.384,0 v 1.463 c 0.11,-0.05 0.216,-0.085 0.32,-0.108 0.105,-0.024 0.21,-0.036 0.316,-0.036 0.225,0 0.402,0.059 0.533,0.177 a 0.616,0.616 0 0 1 0.198,0.482 0.616,0.616 0 0 1 -0.198,0.481 c -0.131,0.118 -0.308,0.178 -0.533,0.178 a 1.549,1.549 0 0 1 -0.76,-0.188 v 0.396 c 0.136,0.042 0.266,0.072 0.392,0.093 0.128,0.021 0.254,0.03 0.376,0.03 0.355,0 0.629,-0.086 0.824,-0.26 0.195,-0.173 0.293,-0.417 0.293,-0.73 0,-0.305 -0.096,-0.546 -0.285,-0.724 -0.19,-0.178 -0.448,-0.268 -0.773,-0.268 a 0.905,0.905 0 0 0 -0.17,0.016 0.912,0.912 0 0 0 -0.172,0.044 v -0.713 h 1.187 v -0.332 z"
       color="#000000"
       font-weight="400"
       font-family="sans-serif"
       white-space="normal"
       overflow="visible"
       fill="#83a9e5"
       fill-rule="evenodd"
       id="path74" />
  </g>
</svg>
