<?xml version="1.0" encoding="UTF-8" standalone="no"?>
<svg
   height="128"
   viewBox="0 0 128 128"
   width="128"
   version="1.1"
   id="svg128"
   sodipodi:docname="image-x-generic.svg"
   inkscape:version="1.2.2 (b0a8486541, 2022-12-01)"
   xmlns:inkscape="http://www.inkscape.org/namespaces/inkscape"
   xmlns:sodipodi="http://sodipodi.sourceforge.net/DTD/sodipodi-0.dtd"
   xmlns:xlink="http://www.w3.org/1999/xlink"
   xmlns="http://www.w3.org/2000/svg"
   xmlns:svg="http://www.w3.org/2000/svg"
   xmlns:osb="http://www.openswatchbook.org/uri/2009/osb">
  <sodipodi:namedview
     id="namedview130"
     pagecolor="#ffffff"
     bordercolor="#000000"
     borderopacity="0.25"
     inkscape:showpageshadow="2"
     inkscape:pageopacity="0.0"
     inkscape:pagecheckerboard="0"
     inkscape:deskcolor="#d1d1d1"
     showgrid="true"
     inkscape:zoom="12.61205"
     inkscape:cx="48.643955"
     inkscape:cy="54.94745"
     inkscape:window-width="2560"
     inkscape:window-height="1371"
     inkscape:window-x="0"
     inkscape:window-y="32"
     inkscape:window-maximized="1"
     inkscape:current-layer="svg128">
    <inkscape:grid
       type="xygrid"
       id="grid675" />
  </sodipodi:namedview>
  <title
     id="title2">Template icons dark</title>
  <defs
     id="defs90">
    <linearGradient
       id="l">
      <stop
         offset="0"
         stop-color="#fe7dee"
         id="stop4" />
      <stop
         offset="1"
         stop-color="#5390fe"
         id="stop6" />
    </linearGradient>
    <linearGradient
       id="g"
       osb:paint="solid">
      <stop
         offset="0"
         stop-opacity=".196"
         id="stop9" />
    </linearGradient>
    <linearGradient
       id="f"
       osb:paint="solid">
      <stop
         offset="0"
         stop-color="#fff"
         stop-opacity=".782"
         id="stop12" />
    </linearGradient>
    <linearGradient
       id="e"
       osb:paint="solid">
      <stop
         offset="0"
         stop-opacity=".018"
         id="stop15" />
    </linearGradient>
    <linearGradient
       id="d"
       osb:paint="solid">
      <stop
         offset="0"
         stop-opacity=".157"
         id="stop18" />
    </linearGradient>
    <linearGradient
       id="b">
      <stop
         offset="0"
         stop-color="#fff"
         id="stop21" />
      <stop
         offset="1"
         stop-color="#dfdfdf"
         id="stop23" />
    </linearGradient>
    <linearGradient
       id="a">
      <stop
         offset="0"
         stop-color="#f0f0f0"
         id="stop26" />
      <stop
         offset="1"
         stop-color="#fff"
         id="stop28" />
    </linearGradient>
    <linearGradient
       id="c">
      <stop
         offset="0"
         stop-opacity="0"
         id="stop31" />
      <stop
         offset="1"
         stop-opacity=".022"
         id="stop33" />
    </linearGradient>
    <linearGradient
       gradientTransform="matrix(1.33333,0,0,1.33333,-149.333,-151.833)"
       xlink:href="#e"
       id="m"
       x1="125"
       y1="161.5"
       x2="195"
       y2="161.5"
       gradientUnits="userSpaceOnUse" />
    <linearGradient
       gradientTransform="matrix(1.33333,0,0,1.33333,-149.333,-151.833)"
       xlink:href="#d"
       id="n"
       x1="126"
       y1="161.5"
       x2="194"
       y2="161.5"
       gradientUnits="userSpaceOnUse" />
    <linearGradient
       xlink:href="#a"
       id="o"
       gradientUnits="userSpaceOnUse"
       gradientTransform="matrix(2.92579,0,0,2.9282,-6.162,-6.269)"
       x1="24.117"
       y1="4.931"
       x2="24.058"
       y2="42.556" />
    <linearGradient
       gradientTransform="matrix(1.33333,0,0,1.33333,-149.333,-151.833)"
       xlink:href="#f"
       id="p"
       x1="127"
       y1="120.5"
       x2="169"
       y2="120.5"
       gradientUnits="userSpaceOnUse" />
    <linearGradient
       gradientTransform="matrix(1.33333,0,0,1.33333,-149.333,-151.833)"
       xlink:href="#g"
       id="r"
       x1="166"
       y1="133.472"
       x2="193"
       y2="133.472"
       gradientUnits="userSpaceOnUse" />
    <linearGradient
       xlink:href="#b"
       id="s"
       gradientUnits="userSpaceOnUse"
       gradientTransform="matrix(3.34375,0,0,2.9282,-19.991,-6.59)"
       x1="33.094"
       y1="10.504"
       x2="29.904"
       y2="14.147" />
    <linearGradient
       id="k">
      <stop
         offset="0"
         stop-color="#f598f8"
         id="stop42" />
      <stop
         offset="1"
         stop-color="#398bef"
         id="stop44" />
    </linearGradient>
    <linearGradient
       id="h">
      <stop
         offset="0"
         stop-color="#d7d7d7"
         stop-opacity=".231"
         id="stop47" />
      <stop
         offset=".146"
         stop-opacity=".199"
         id="stop49" />
      <stop
         offset=".456"
         stop-color="#fff"
         stop-opacity=".251"
         id="stop51" />
      <stop
         offset=".66"
         stop-opacity=".131"
         id="stop53" />
      <stop
         offset=".834"
         stop-color="#a2a2a2"
         stop-opacity=".161"
         id="stop55" />
      <stop
         offset="1"
         stop-opacity=".152"
         id="stop57" />
    </linearGradient>
    <linearGradient
       id="i">
      <stop
         offset="0"
         stop-color="#d7d7d7"
         stop-opacity=".231"
         id="stop60" />
      <stop
         offset=".231"
         stop-opacity=".11"
         id="stop62" />
      <stop
         offset=".472"
         stop-color="#fff"
         stop-opacity=".147"
         id="stop64" />
      <stop
         offset=".717"
         stop-opacity=".131"
         id="stop66" />
      <stop
         offset=".834"
         stop-color="#a2a2a2"
         stop-opacity=".161"
         id="stop68" />
      <stop
         offset="1"
         stop-opacity=".152"
         id="stop70" />
    </linearGradient>
    <linearGradient
       id="j">
      <stop
         offset="0"
         stop-color="#d7d7d7"
         stop-opacity=".231"
         id="stop73" />
      <stop
         offset=".146"
         stop-opacity=".257"
         id="stop75" />
      <stop
         offset=".456"
         stop-color="#fff"
         stop-opacity=".251"
         id="stop77" />
      <stop
         offset=".66"
         stop-opacity=".131"
         id="stop79" />
      <stop
         offset=".834"
         stop-color="#a2a2a2"
         stop-opacity=".161"
         id="stop81" />
      <stop
         offset="1"
         stop-opacity=".152"
         id="stop83" />
    </linearGradient>
    <linearGradient
       xlink:href="#h"
       id="t"
       gradientUnits="userSpaceOnUse"
       gradientTransform="matrix(1.5424601,0,0,1.5424601,-175.88807,-177.10114)"
       x1="142.626"
       y1="120.944"
       x2="127.746"
       y2="132.839" />
    <linearGradient
       xlink:href="#i"
       id="u"
       gradientUnits="userSpaceOnUse"
       gradientTransform="matrix(0,-1.5424601,1.5424601,0,-165.09125,314.55017)"
       x1="137.107"
       y1="127.59"
       x2="127"
       y2="120" />
    <linearGradient
       xlink:href="#j"
       id="v"
       gradientUnits="userSpaceOnUse"
       gradientTransform="matrix(-1.5424601,0,0,-1.5424601,303.89447,303.75335)"
       x1="139.48"
       y1="120.419"
       x2="128.375"
       y2="135.042" />
    <linearGradient
       xlink:href="#k"
       id="q"
       x1="23.375"
       y1="41.2"
       x2="23.566"
       y2="13.14"
       gradientUnits="userSpaceOnUse"
       gradientTransform="matrix(1.69448,0,0,3.19739,23.328,-26.325)" />
    <linearGradient
       gradientTransform="matrix(1.33333,0,0,1.33333,58.667,56.167)"
       xlink:href="#a-6"
       id="f-3"
       x1="125"
       y1="161.5"
       x2="195"
       y2="161.5"
       gradientUnits="userSpaceOnUse" />
    <linearGradient
       id="a-6"
       osb:paint="solid">
      <stop
         offset="0"
         stop-opacity=".078"
         style="stop-color:#000000;stop-opacity:0.11;"
         id="stop15-7" />
    </linearGradient>
    <linearGradient
       xlink:href="#e-3"
       id="g-5"
       x1="71"
       y1="114"
       x2="46"
       y2="32"
       gradientUnits="userSpaceOnUse"
       gradientTransform="translate(0,2)" />
    <linearGradient
       id="e-3">
      <stop
         style="stop-color:#e1e1e1;stop-opacity:1;"
         offset="0"
         id="stop2" />
      <stop
         style="stop-color:#e9e9e9;stop-opacity:1;"
         offset="0.50999999"
         id="stop4-5" />
      <stop
         style="stop-color:#f0f0f0;stop-opacity:1;"
         offset="1"
         id="stop6-6" />
    </linearGradient>
    <linearGradient
       gradientTransform="matrix(1.33333,0,0,1.33333,-149.333,-151.833)"
       xlink:href="#g"
       id="i-2"
       x1="166"
       y1="133.472"
       x2="193"
       y2="133.472"
       gradientUnits="userSpaceOnUse" />
    <linearGradient
       xlink:href="#b"
       id="j-2"
       gradientUnits="userSpaceOnUse"
       gradientTransform="matrix(3.34375,0,0,2.9282,-19.991,-6.59)"
       x1="29.792999"
       y1="15.279"
       x2="33.865002"
       y2="11.077" />
    <linearGradient
       inkscape:collect="always"
       xlink:href="#a-6"
       id="linearGradient752"
       gradientUnits="userSpaceOnUse"
       gradientTransform="matrix(1.33333,0,0,1.33333,58.667,56.167)"
       x1="125"
       y1="161.5"
       x2="195"
       y2="161.5" />
  </defs>
  <path
     style="vector-effect:none;fill:url(#linearGradient752);fill-rule:evenodd;marker:none;paint-order:fill markers stroke;stop-color:#000000"
     d="m 26,6 h 50 l 34,34 v 73 c 0,4.432 -3.568,8 -8,8 H 26 c -4.432,0 -8,-3.568 -8,-8 V 14 c 0,-4.432 3.568,-8 8,-8 z"
     id="path1311"
     sodipodi:nodetypes="sccssssss" />
  <path
     style="vector-effect:none;fill:url(#f-3);fill-rule:evenodd;marker:none;paint-order:fill markers stroke;stop-color:#000000"
     d="m 27,7 h 49 l 33,33 v 72 c 0,4.432 -3.568,8 -8,8 H 27 c -4.432,0 -8,-3.568 -8,-8 V 15 c 0,-4.432 3.568,-8 8,-8 z"
     id="path30" />
  <path
     style="vector-effect:none;fill:#f0f0f0;fill-opacity:1;fill-rule:evenodd;marker:none;paint-order:fill markers stroke;stop-color:#000000"
     d="m 28,8 h 48 l 32,32 v 71 c 0,4.432 -3.568,8 -8,8 H 28 c -4.432,0 -8,-3.568 -8,-8 V 16 c 0,-4.432 3.568,-8 8,-8 z"
     id="path32" />
  <path
     style="isolation:auto;mix-blend-mode:normal;fill:#ffffff;fill-opacity:1;marker:none"
     d="M 27,8 H 76 V 9 H 24 a 15.031,15.031 0 0 1 3,-1 z"
     color="#000000"
     display="block"
     overflow="visible"
     fill="url(#h)"
     paint-order="fill markers stroke"
     id="path34" />
  <path
     d="m 76,8 31.968,31.966 -29.908,3.457 c 0,0 -5.312,0.403 -5.224,-5.356 z"
     fill="url(#i)"
     fill-rule="evenodd"
     style="display:inline;fill:url(#i-2)"
     id="path36" />
  <path
     d="m 76,8 32,32 H 81.024 C 81.024,40 76,40.042 76,33.916 Z"
     fill="url(#j)"
     fill-rule="evenodd"
     style="fill:url(#j-2)"
     id="path38" />
  <path
     style="isolation:auto;mix-blend-mode:normal;fill:url(#q);marker:none"
     d="m 28,15.969 h 53.577 l 18.415,18.219 v 76.806 H 28 Z"
     color="#000000"
     overflow="visible"
     fill="url(#q)"
     id="path100" />
  <path
     style="isolation:auto;mix-blend-mode:normal;marker:none"
     d="m 56.804,23.9 0.47,1.426 -1.427,-0.04 1.399,0.282 -0.747,1.294 0.924,-1.145 0.685,1.334 -0.47,-1.426 1.426,0.04 -1.398,-0.282 0.747,-1.294 -0.924,1.145 z m 15.962,1 0.47,1.422 -1.427,-0.035 1.394,0.277 -0.742,1.299 0.924,-1.15 0.684,1.334 -0.47,-1.426 1.427,0.04 -1.398,-0.277 0.746,-1.299 -0.928,1.15 z m 15.677,1.997 0.47,1.426 -1.427,-0.04 1.398,0.281 -0.746,1.295 0.928,-1.145 0.68,1.333 -0.47,-1.426 1.427,0.035 -1.394,-0.276 0.742,-1.294 -0.923,1.145 z m 8.636,0.299 0.475,1.426 -1.427,-0.04 1.394,0.28 -0.747,1.295 0.928,-1.145 0.68,1.334 -0.47,-1.426 1.428,0.04 -1.394,-0.281 0.742,-1.295 -0.924,1.145 z m -64.213,1.11 1.336,4.045 -4.05,-0.105 3.964,0.79 -2.116,3.679 2.627,-3.255 1.939,3.787 -1.34,-4.05 4.053,0.11 -3.963,-0.79 2.116,-3.682 -2.628,3.256 z m 19.9,2.983 0.475,1.426 -1.427,-0.035 1.394,0.277 -0.747,1.294 0.928,-1.145 0.68,1.334 -0.47,-1.426 1.428,0.04 -1.394,-0.282 0.742,-1.294 -0.924,1.145 z m 17.9,2.62 -9.597,9.644 c -3.081,1.978 -0.856,3.11 0.445,0.294 l 9.284,-9.79 z m 0.615,5.124 -9.598,9.644 c -2.769,2.94 -0.632,2.311 0.446,0.294 l 9.284,-9.788 z"
     color="#000000"
     display="inline"
     overflow="visible"
     fill="#ffffff"
     fill-opacity="0.435"
     id="path102" />
  <path
     d="m 76,8 32,32 -36,4 z"
     fill="url(#r)"
     fill-rule="evenodd"
     id="path104"
     style="fill:url(#r)" />
  <path
     d="m 76,8 32,32 H 76 Z"
     fill="url(#s)"
     fill-rule="evenodd"
     id="path106"
     style="display:inline;fill:url(#s)" />
  <path
     style="color:#000000;isolation:auto;mix-blend-mode:normal;fill:#ffffff;marker:none"
     d="m 45.603047,75.618316 c 3.490709,-2.865646 6.148817,0.07795 6.148817,0.07795 L 95.996,110.997 H 28 V 95.395 Z"
     overflow="visible"
     fill-opacity="0.414"
     paint-order="markers stroke fill"
     id="path108"
     sodipodi:nodetypes="cccccc" />
  <path
     d="m 75.893228,71.808829 c 5.029623,-5.134516 9.716816,-0.0029 9.716816,-0.0029 L 99.996,84.049 v 26.948 H 37.333 Z"
     style="color:#000000;isolation:auto;mix-blend-mode:normal;fill:#ffffff;marker:none"
     overflow="visible"
     paint-order="markers stroke fill"
     id="path110"
     sodipodi:nodetypes="cccccc" />
  <path
     style="color:#000000;opacity:0.452;isolation:auto;mix-blend-mode:normal;marker:none"
     d="M 20.005,35.993 48.003,7.995 h 1.333 L 20.005,37.327 Z"
     display="block"
     overflow="visible"
     fill-opacity="0.304"
     paint-order="fill markers stroke"
     id="path114" />
  <path
     d="M 20.00529,7.9954 H 48.00396 L 20.00529,35.99407 Z"
     style="color:#000000;opacity:0.452;isolation:auto;mix-blend-mode:normal;fill:url(#t);stroke-width:1.33327;marker:none"
     display="block"
     overflow="visible"
     fill="url(#t)"
     paint-order="fill markers stroke"
     id="path116" />
  <path
     d="M 48.003,118.993 20.005,90.995 v -1.333 l 29.331,29.331 z"
     style="color:#000000;opacity:0.452;isolation:auto;mix-blend-mode:normal;marker:none"
     display="block"
     overflow="visible"
     fill-opacity="0.304"
     paint-order="fill markers stroke"
     id="path118" />
  <path
     style="color:#000000;opacity:0.452;isolation:auto;mix-blend-mode:normal;fill:url(#u);stroke-width:1.33327;marker:none"
     d="M 20.00529,118.99413 V 90.995457 l 27.99867,27.998673 z"
     display="block"
     overflow="visible"
     fill="url(#u)"
     paint-order="fill markers stroke"
     id="path120" />
  <path
     style="color:#000000;opacity:0.452;isolation:auto;mix-blend-mode:normal;marker:none"
     d="M 108,90.995 80.001,118.993 H 78.668 L 108,89.662 Z"
     display="block"
     overflow="visible"
     fill-opacity="0.304"
     paint-order="fill markers stroke"
     id="path122" />
  <path
     d="M 108.00111,118.99413 H 80.00244 l 27.99867,-27.998673 z"
     style="color:#000000;opacity:0.452;isolation:auto;mix-blend-mode:normal;fill:url(#v);stroke-width:1.33327;marker:none"
     display="block"
     overflow="visible"
     fill="url(#v)"
     paint-order="fill markers stroke"
     id="path124" />
</svg>
