<?xml version="1.0" encoding="UTF-8" standalone="no"?>
<svg
   height="128"
   viewBox="0 0 128 128"
   width="128"
   version="1.1"
   id="svg1636"
   sodipodi:docname="text-html.svg"
   inkscape:version="1.2.2 (b0a8486541, 2022-12-01)"
   xmlns:inkscape="http://www.inkscape.org/namespaces/inkscape"
   xmlns:sodipodi="http://sodipodi.sourceforge.net/DTD/sodipodi-0.dtd"
   xmlns:xlink="http://www.w3.org/1999/xlink"
   xmlns="http://www.w3.org/2000/svg"
   xmlns:svg="http://www.w3.org/2000/svg"
   xmlns:osb="http://www.openswatchbook.org/uri/2009/osb">
  <sodipodi:namedview
     id="namedview1638"
     pagecolor="#ffffff"
     bordercolor="#000000"
     borderopacity="0.25"
     inkscape:showpageshadow="2"
     inkscape:pageopacity="0.0"
     inkscape:pagecheckerboard="0"
     inkscape:deskcolor="#d1d1d1"
     showgrid="true"
     inkscape:zoom="22.309154"
     inkscape:cx="62.552799"
     inkscape:cy="26.581017"
     inkscape:window-width="2400"
     inkscape:window-height="1281"
     inkscape:window-x="1920"
     inkscape:window-y="32"
     inkscape:window-maximized="1"
     inkscape:current-layer="svg1636">
    <inkscape:grid
       type="xygrid"
       id="grid1968" />
  </sodipodi:namedview>
  <title
     id="title1556">Template icons dark</title>
  <defs
     id="defs1604">
    <linearGradient
       id="i"
       osb:paint="solid">
      <stop
         offset="0"
         stop-color="#f9a675"
         id="stop1558" />
    </linearGradient>
    <linearGradient
       id="g"
       osb:paint="solid">
      <stop
         offset="0"
         stop-opacity=".196"
         id="stop1561" />
    </linearGradient>
    <linearGradient
       id="f"
       osb:paint="solid">
      <stop
         offset="0"
         stop-color="#fff"
         stop-opacity=".302"
         id="stop1564" />
    </linearGradient>
    <linearGradient
       id="e"
       osb:paint="solid">
      <stop
         offset="0"
         stop-opacity=".078"
         id="stop1567" />
    </linearGradient>
    <linearGradient
       id="d"
       osb:paint="solid">
      <stop
         offset="0"
         stop-opacity=".157"
         id="stop1570" />
    </linearGradient>
    <linearGradient
       id="b">
      <stop
         offset="0"
         stop-color="#f8c6c6"
         id="stop1573" />
      <stop
         offset="1"
         stop-color="#f8a28d"
         id="stop1575" />
    </linearGradient>
    <linearGradient
       id="a">
      <stop
         offset="0"
         stop-color="#fa8484"
         id="stop1578" />
      <stop
         offset="1"
         stop-color="#f9a874"
         id="stop1580" />
    </linearGradient>
    <linearGradient
       id="c">
      <stop
         offset="0"
         stop-opacity="0"
         id="stop1583" />
      <stop
         offset="1"
         stop-opacity=".102"
         id="stop1585" />
    </linearGradient>
    <linearGradient
       gradientTransform="matrix(1.33333,0,0,1.33333,58.667,56.167)"
       xlink:href="#e"
       id="j"
       x1="125"
       y1="161.5"
       x2="195"
       y2="161.5"
       gradientUnits="userSpaceOnUse" />
    <linearGradient
       gradientTransform="matrix(1.33333,0,0,1.33333,58.667,56.167)"
       xlink:href="#d"
       id="k"
       x1="126"
       y1="161.5"
       x2="194"
       y2="161.5"
       gradientUnits="userSpaceOnUse" />
    <linearGradient
       xlink:href="#a"
       id="l"
       gradientUnits="userSpaceOnUse"
       gradientTransform="matrix(2.92579,0,0,2.9282,201.838,201.731)"
       x1="24.117"
       y1="4.931"
       x2="24.058"
       y2="42.556" />
    <linearGradient
       xlink:href="#c"
       id="m"
       gradientUnits="userSpaceOnUse"
       gradientTransform="matrix(2.92579,0,0,2.9282,201.838,201.731)"
       x1="23.981"
       y1="23.144"
       x2="45.855"
       y2="45" />
    <linearGradient
       xlink:href="#c"
       id="n"
       gradientUnits="userSpaceOnUse"
       gradientTransform="matrix(2.92579,0,0,2.9282,201.838,201.731)"
       x1="23.981"
       y1="23.144"
       x2="2.106"
       y2="45" />
    <linearGradient
       xlink:href="#c"
       id="o"
       gradientUnits="userSpaceOnUse"
       gradientTransform="matrix(2.92579,0,0,2.9282,201.838,201.731)"
       x1="23.981"
       y1="23.144"
       x2="45.855"
       y2="1.287" />
    <linearGradient
       xlink:href="#c"
       id="p"
       gradientUnits="userSpaceOnUse"
       gradientTransform="matrix(2.92579,0,0,2.9282,201.838,201.731)"
       x1="23.981"
       y1="23.144"
       x2="2.106"
       y2="1.287" />
    <linearGradient
       gradientTransform="matrix(1.33333,0,0,1.33333,58.667,56.167)"
       xlink:href="#f"
       id="q"
       x1="127"
       y1="120.5"
       x2="169"
       y2="120.5"
       gradientUnits="userSpaceOnUse" />
    <linearGradient
       gradientTransform="matrix(1.33333,0,0,1.33333,58.667,56.167)"
       xlink:href="#g"
       id="r"
       x1="166"
       y1="133.472"
       x2="193"
       y2="133.472"
       gradientUnits="userSpaceOnUse" />
    <linearGradient
       xlink:href="#b"
       id="s"
       gradientUnits="userSpaceOnUse"
       gradientTransform="matrix(3.34375,0,0,2.9282,188.009,201.41)"
       x1="33.094"
       y1="10.504"
       x2="29.904"
       y2="14.147" />
    <linearGradient
       id="h">
      <stop
         offset="0"
         stop-opacity="0"
         id="stop1598" />
      <stop
         offset="1"
         stop-opacity=".083"
         id="stop1600" />
    </linearGradient>
    <linearGradient
       gradientTransform="matrix(2,0,0,1.98214,-232.063,-258.75)"
       xlink:href="#h"
       id="t"
       x1="127"
       y1="161.5"
       x2="148.031"
       y2="161.5"
       gradientUnits="userSpaceOnUse" />
    <linearGradient
       gradientTransform="matrix(1.33333,0,0,1.33333,58.667,56.167)"
       xlink:href="#a-6"
       id="f-3"
       x1="125"
       y1="161.5"
       x2="195"
       y2="161.5"
       gradientUnits="userSpaceOnUse" />
    <linearGradient
       id="a-6"
       osb:paint="solid">
      <stop
         offset="0"
         stop-opacity=".078"
         style="stop-color:#000000;stop-opacity:0.11;"
         id="stop15" />
    </linearGradient>
    <linearGradient
       xlink:href="#e-5"
       id="g-7"
       x1="71"
       y1="114"
       x2="67.314888"
       y2="29"
       gradientUnits="userSpaceOnUse" />
    <linearGradient
       id="e-5">
      <stop
         style="stop-color:#e3996a;stop-opacity:1;"
         offset="0"
         id="stop2" />
      <stop
         style="stop-color:#e67a79;stop-opacity:1;"
         offset="1"
         id="stop6" />
    </linearGradient>
    <linearGradient
       xlink:href="#d-2"
       id="j-6"
       gradientUnits="userSpaceOnUse"
       gradientTransform="matrix(3.34375,0,0,2.9282,-19.991,-6.59)"
       x1="29.792999"
       y1="15.279"
       x2="33.865002"
       y2="11.077" />
    <linearGradient
       id="d-2">
      <stop
         offset="0"
         stop-color="#fff"
         id="stop18" />
      <stop
         offset="1"
         stop-color="#dfdfdf"
         id="stop20" />
    </linearGradient>
    <linearGradient
       inkscape:collect="always"
       xlink:href="#a-6"
       id="linearGradient2091"
       gradientUnits="userSpaceOnUse"
       gradientTransform="matrix(1.33333,0,0,1.33333,58.667,56.167)"
       x1="125"
       y1="161.5"
       x2="195"
       y2="161.5" />
    <linearGradient
       inkscape:collect="always"
       xlink:href="#g"
       id="linearGradient2093"
       gradientUnits="userSpaceOnUse"
       gradientTransform="matrix(1.33333,0,0,1.33333,-149.333,-151.833)"
       x1="166"
       y1="133.472"
       x2="193"
       y2="133.472" />
  </defs>
  <g
     id="g2107">
    <path
       style="vector-effect:none;fill:url(#linearGradient2091);fill-rule:evenodd;marker:none;paint-order:fill markers stroke;stop-color:#000000"
       d="m 26,6 h 50 l 34,34 v 73 c 0,4.432 -3.568,8 -8,8 H 26 c -4.432,0 -8,-3.568 -8,-8 V 14 c 0,-4.432 3.568,-8 8,-8 z"
       id="path1311"
       sodipodi:nodetypes="sccssssss" />
    <path
       style="vector-effect:none;fill:url(#f-3);fill-rule:evenodd;marker:none;paint-order:fill markers stroke;stop-color:#000000"
       d="m 27,7 h 49 l 33,33 v 72 c 0,4.432 -3.568,8 -8,8 H 27 c -4.432,0 -8,-3.568 -8,-8 V 15 c 0,-4.432 3.568,-8 8,-8 z"
       id="path30" />
    <path
       style="vector-effect:none;fill:url(#g-7);fill-rule:evenodd;marker:none;paint-order:fill markers stroke;stop-color:#000000"
       d="m 28,8 h 48 l 32,32 v 71 c 0,4.432 -3.568,8 -8,8 H 28 c -4.432,0 -8,-3.568 -8,-8 V 16 c 0,-4.432 3.568,-8 8,-8 z"
       id="path32" />
    <path
       style="isolation:auto;mix-blend-mode:normal;fill:#ffffff;fill-opacity:0.37185523;marker:none"
       d="M 27,8 H 76 V 9 H 24 a 15.031,15.031 0 0 1 3,-1 z"
       color="#000000"
       display="block"
       overflow="visible"
       fill="url(#h)"
       paint-order="fill markers stroke"
       id="path34" />
    <path
       d="m 76,8 31.968,31.966 -29.908,3.457 c 0,0 -5.312,0.403 -5.224,-5.356 z"
       fill="url(#i)"
       fill-rule="evenodd"
       style="display:inline;fill:url(#linearGradient2093)"
       id="path36" />
    <path
       d="m 76,8 32,32 H 81.024 C 81.024,40 76,40.042 76,33.916 Z"
       fill="url(#j)"
       fill-rule="evenodd"
       style="fill:url(#j-6)"
       id="path38" />
    <path
       style="isolation:auto;mix-blend-mode:normal;fill:url(#t);marker:none"
       d="M 28,8 H 64 V 119 H 28 c 0,0 -8,0 -8,-8 V 16 c 0,0 0,-8 8,-8 z"
       color="#000000"
       overflow="visible"
       fill="url(#t)"
       paint-order="fill markers stroke"
       id="path1626"
       sodipodi:nodetypes="ccccccc" />
  </g>
  <g
     id="g1975"
     style="display:inline">
    <path
       d="M 37.4,45.481 H 90.6 L 85.28,93.361 64,104 42.72,93.36 Z"
       fill="#f9f9f9"
       fill-opacity="0.245"
       fill-rule="evenodd"
       stroke="#ffffff"
       stroke-width="0.665"
       stroke-opacity="0.464"
       id="path1628" />
    <path
       d="m 46.37,53.498 h 35.29 l -0.169,1.89 -0.32,3.57 -0.142,1.584 H 54.07 l 0.643,7.214 h 25.674 l -0.172,1.892 -1.655,18.547 -0.106,1.19 -14.418,3.996 -0.033,0.01 -14.43,-4.007 -0.988,-11.061 h 7.072 l 0.502,5.618 7.846,2.119 0.006,-0.003 7.858,-2.121 0.817,-9.137 H 48.271 L 46.539,55.385 46.37,53.495 Z"
       fill="#761616"
       fill-opacity="0.464"
       id="path1630" />
    <path
       d="m 46.373,52.167 h 35.289 l -0.169,1.89 -0.32,3.571 -0.142,1.584 H 54.073 l 0.643,7.214 H 80.39 l -0.172,1.892 -1.655,18.547 -0.106,1.19 -14.418,3.996 -0.033,0.009 -14.43,-4.006 -0.988,-11.062 h 7.072 l 0.502,5.618 7.846,2.12 0.006,-0.004 7.858,-2.12 0.817,-9.137 H 48.274 l -1.732,-19.414 -0.169,-1.89 z"
       fill="#e8e8e8"
       id="path1632" />
  </g>
</svg>
