<?xml version="1.0" encoding="UTF-8" standalone="no"?>
<svg
   height="16px"
   viewBox="0 0 16 16"
   width="16px"
   version="1.1"
   id="svg4"
   sodipodi:docname="drive-harddisk-solidstate-symbolic.svg"
   inkscape:version="1.2.2 (b0a8486541, 2022-12-01)"
   xmlns:inkscape="http://www.inkscape.org/namespaces/inkscape"
   xmlns:sodipodi="http://sodipodi.sourceforge.net/DTD/sodipodi-0.dtd"
   xmlns="http://www.w3.org/2000/svg"
   xmlns:svg="http://www.w3.org/2000/svg">
  <defs
     id="defs8" />
  <sodipodi:namedview
     id="namedview6"
     pagecolor="#ffffff"
     bordercolor="#000000"
     borderopacity="0.25"
     inkscape:showpageshadow="2"
     inkscape:pageopacity="0.0"
     inkscape:pagecheckerboard="0"
     inkscape:deskcolor="#d1d1d1"
     showgrid="true"
     inkscape:zoom="64.1875"
     inkscape:cx="5.2502434"
     inkscape:cy="7.9922103"
     inkscape:window-width="2560"
     inkscape:window-height="1371"
     inkscape:window-x="0"
     inkscape:window-y="32"
     inkscape:window-maximized="1"
     inkscape:current-layer="svg4">
    <inkscape:grid
       type="xygrid"
       id="grid551" />
  </sodipodi:namedview>
  <path
     id="rect1358"
     style="opacity:0.22557;fill-rule:evenodd;stroke-width:1.18431;paint-order:fill markers stroke;stop-color:#000000"
     d="M 5,12 V 5 C 5,4 5.9542566,4 5.9542566,4 H 10 c 1,0 1,0.9887101 1,0.9887101 V 12 H 7 Z"
     sodipodi:nodetypes="cccccccc" />
  <path
     d="m 3,14 c 0,0.834 0.564,1.526 1.053,1.77 C 4.541,16.014 5,16 5,16 h 2 c 0.080528,-1.689916 1.972817,-1.654133 2,0 h 2 c 0,0 0.459,0.014 0.947,-0.23 C 12.436,15.526 13,14.834 13,14 V 1.9663048 L 12,2 V 1 H 10 V 2 H 9 L 8.99272,1 H 6 V 2 H 5 L 5.0147977,1 H 4 V 2 H 3 Z M 4,4 C 4,3 5,3 5,3 h 6 c 1,0 0.999904,1.0607383 0.999904,1.0607383 L 11.999,14 c -10e-5,1 -1,1 -1,1 H 9.6728335 C 9.5828816,13.294759 6.4280292,13.140503 6.5481986,15 H 4.999 c 0,0 -1,0 -1,-1 z"
     fill="#363636"
     font-family="sans-serif"
     font-weight="400"
     overflow="visible"
     style="color:#000000;line-height:normal;font-variant-ligatures:normal;font-variant-position:normal;font-variant-caps:normal;font-variant-numeric:normal;font-variant-alternates:normal;font-feature-settings:normal;text-indent:0;text-align:start;text-decoration-line:none;text-decoration-style:solid;text-decoration-color:#000000;text-transform:none;text-orientation:mixed;shape-padding:0;isolation:auto;mix-blend-mode:normal;fill:#000000;fill-opacity:1"
     white-space="normal"
     id="path391"
     sodipodi:nodetypes="cccccccccccccccccccccccccccccccccc" />
  <circle
     style="opacity:1;fill:#000000;fill-rule:evenodd;stroke-width:1.5;paint-order:fill markers stroke;stop-color:#000000"
     id="path437"
     cx="5.5141144"
     cy="13.5"
     r="0.5" />
</svg>
