<?xml version="1.0" encoding="UTF-8" standalone="no"?>
<svg
   height="16"
   width="16"
   version="1.1"
   id="svg968"
   sodipodi:docname="folder.svg"
   inkscape:version="1.2.2 (b0a8486541, 2022-12-01)"
   xmlns:inkscape="http://www.inkscape.org/namespaces/inkscape"
   xmlns:sodipodi="http://sodipodi.sourceforge.net/DTD/sodipodi-0.dtd"
   xmlns:xlink="http://www.w3.org/1999/xlink"
   xmlns="http://www.w3.org/2000/svg"
   xmlns:svg="http://www.w3.org/2000/svg">
  <sodipodi:namedview
     id="namedview970"
     pagecolor="#ffffff"
     bordercolor="#000000"
     borderopacity="0.25"
     inkscape:showpageshadow="2"
     inkscape:pageopacity="0.0"
     inkscape:pagecheckerboard="0"
     inkscape:deskcolor="#d1d1d1"
     showgrid="false"
     inkscape:zoom="64.1875"
     inkscape:cx="7.9922103"
     inkscape:cy="7.9922103"
     inkscape:window-width="2400"
     inkscape:window-height="1281"
     inkscape:window-x="1920"
     inkscape:window-y="32"
     inkscape:window-maximized="1"
     inkscape:current-layer="svg968" />
  <defs
     id="defs958">
    <linearGradient
       id="c">
      <stop
         style="stop-color:#1277f7;stop-opacity:1"
         offset="0"
         id="stop946" />
    </linearGradient>
    <linearGradient
       id="b">
      <stop
         style="stop-color:#0855bd;stop-opacity:1"
         offset="0"
         id="stop949" />
    </linearGradient>
    <linearGradient
       id="a">
      <stop
         style="stop-color:#3f8ff8;stop-opacity:1"
         offset="0"
         id="stop952" />
    </linearGradient>
    <linearGradient
       xlink:href="#a"
       id="e"
       x1="216.756"
       y1="270"
       x2="328.756"
       y2="270"
       gradientUnits="userSpaceOnUse"
       gradientTransform="matrix(0.125,0,0,0.125,-26.08615,-25.56664)" />
    <linearGradient
       xlink:href="#b"
       id="d"
       x1="216.882"
       y1="270"
       x2="328.882"
       y2="270"
       gradientUnits="userSpaceOnUse"
       gradientTransform="matrix(0.125,0,0,0.125,-26.10115,-25.50664)" />
    <linearGradient
       xlink:href="#c"
       id="f"
       x1="232"
       y1="236"
       x2="256"
       y2="236"
       gradientUnits="userSpaceOnUse"
       gradientTransform="matrix(0.125,0,0,0.125,-25.99115,-26.00664)" />
  </defs>
  <path
     style="display:inline;fill:url(#d);fill-opacity:1;stroke-width:0.129629"
     d="m 3.50885,1.99336 a 2.495,2.495 0 0 0 -2.5,2.5 v 7.988 a 2.505,2.505 0 0 0 2.5,2.512 h 9 c 1.385,0 2.5,-1.127 2.5,-2.512 v -5.488 a 2.499,2.499 0 0 0 -2.5,-2.5 c -2.303,0 -1.776,-2.5 -4.61,-2.5 z"
     id="path960" />
  <path
     style="fill:#3f8ff8;fill-opacity:1;stroke-width:0.129629"
     d="m 3.50885,1.99336 a 2.486,2.486 0 0 0 -2.5,2.49 v 7.002 a 2.501,2.501 0 0 0 2.5,2.508 h 9 c 1.385,0 2.5,-1.123 2.5,-2.508 v -4.551 c 0,-1.385 -1.115,-2.445 -2.5,-2.451 -7,0 -4,-2.49 -7.5,-2.49 z"
     id="path962" />
  <path
     style="fill:url(#f);fill-opacity:1;stroke-width:0.125"
     d="m 3.50885,2.99336 h 2 a 0.5,0.5 0 1 1 0,1 h -2 a 0.5,0.5 0 1 1 0,-1 z"
     id="path964" />
</svg>
