<?xml version="1.0" encoding="UTF-8" standalone="no"?>
<svg
   height="16"
   width="16"
   version="1.1"
   id="svg24"
   sodipodi:docname="folder-open.svg"
   inkscape:version="1.2.2 (b0a8486541, 2022-12-01)"
   xmlns:inkscape="http://www.inkscape.org/namespaces/inkscape"
   xmlns:sodipodi="http://sodipodi.sourceforge.net/DTD/sodipodi-0.dtd"
   xmlns:xlink="http://www.w3.org/1999/xlink"
   xmlns="http://www.w3.org/2000/svg"
   xmlns:svg="http://www.w3.org/2000/svg">
  <sodipodi:namedview
     id="namedview26"
     pagecolor="#ffffff"
     bordercolor="#000000"
     borderopacity="0.25"
     inkscape:showpageshadow="2"
     inkscape:pageopacity="0.0"
     inkscape:pagecheckerboard="0"
     inkscape:deskcolor="#d1d1d1"
     showgrid="false"
     inkscape:zoom="69.824851"
     inkscape:cx="9.2373989"
     inkscape:cy="10.411766"
     inkscape:window-width="2400"
     inkscape:window-height="1281"
     inkscape:window-x="1920"
     inkscape:window-y="32"
     inkscape:window-maximized="1"
     inkscape:current-layer="svg24" />
  <defs
     id="defs14">
    <linearGradient
       id="linearGradient1859">
      <stop
         style="stop-color:#ffffff;stop-opacity:0.30825824;"
         offset="0"
         id="stop1857" />
    </linearGradient>
    <linearGradient
       id="c">
      <stop
         style="stop-color:#1277f7;stop-opacity:1"
         offset="0"
         id="stop2" />
    </linearGradient>
    <linearGradient
       id="b">
      <stop
         style="stop-color:#0855bd;stop-opacity:1"
         offset="0"
         id="stop5" />
    </linearGradient>
    <linearGradient
       id="a">
      <stop
         style="stop-color:#3085f7;stop-opacity:1;"
         offset="0"
         id="stop8" />
    </linearGradient>
    <linearGradient
       xlink:href="#a"
       id="e"
       x1="216.756"
       y1="270"
       x2="328.756"
       y2="270"
       gradientUnits="userSpaceOnUse"
       gradientTransform="matrix(0.125,0,0,0.125,-26.095,-25.56)" />
    <linearGradient
       xlink:href="#b"
       id="d"
       x1="216.882"
       y1="270"
       x2="328.882"
       y2="270"
       gradientUnits="userSpaceOnUse"
       gradientTransform="matrix(0.125,0,0,0.125,-26.11,-25.5)" />
    <linearGradient
       xlink:href="#c"
       id="f"
       x1="232"
       y1="236"
       x2="256"
       y2="236"
       gradientUnits="userSpaceOnUse"
       gradientTransform="matrix(0.125,0,0,0.125,-26,-26)" />
    <linearGradient
       inkscape:collect="always"
       xlink:href="#linearGradient1859"
       id="linearGradient1855"
       gradientUnits="userSpaceOnUse"
       gradientTransform="matrix(0.125,0,0,0.125,-26.814014,-21.622815)"
       x1="232"
       y1="236"
       x2="256"
       y2="236" />
  </defs>
  <path
     style="display:inline;fill:url(#d);fill-opacity:1;stroke-width:0.129629"
     d="M 3.5,2 A 2.495,2.495 0 0 0 1,4.5 v 7.988 A 2.505,2.505 0 0 0 3.5,15 h 9 C 13.885,15 15,13.873 15,12.488 V 7 A 2.499,2.499 0 0 0 12.5,4.5 C 10.197,4.5 10.724,2 7.89,2 Z"
     id="path16" />
  <path
     style="fill:#3f8ff8;fill-opacity:1;stroke-width:0.129629"
     d="M 3.5,2 A 2.486,2.486 0 0 0 1,4.49 v 7.002 A 2.501,2.501 0 0 0 3.5,14 h 9 C 13.885,14 15,12.877 15,11.492 V 6.941 C 15,5.556 13.885,4.496 12.5,4.49 5.5,4.49 8.5,2 5,2 Z"
     id="path18" />
  <path
     style="fill:url(#f);fill-opacity:1;stroke-width:0.125"
     d="m 3.5,3 h 2 a 0.5,0.5 0 1 1 0,1 h -2 a 0.5,0.5 0 1 1 0,-1 z"
     id="path20" />
  <path
     style="fill:#086ff6;fill-opacity:1;stroke-width:0.129629"
     d="M 2.8612463,6 C 1.4812368,5.9922265 0.35900397,7.1099705 0.36124635,8.49 0.75618109,10.616838 0.65386013,13.901384 3.5,14 h 9 c 1.566491,-0.01127 2.527192,-1.012132 2.849629,-3.225862 C 15.622742,8.8990497 14.750973,8.534369 12.827167,8.49 5.8271665,8.49 7.8612463,6 4.3612463,6 Z"
     id="path390"
     sodipodi:nodetypes="ccccscsc" />
  <path
     id="path1848"
     style="fill:#ffffff;fill-opacity:0.35920021;stroke-width:0.129629"
     d="M 2.8613281 6 C 1.48132 5.9922265 0.35908575 7.1102063 0.36132812 8.4902344 C 0.36860925 8.5294453 0.37389469 8.5713574 0.38085938 8.6113281 C 0.53167654 7.3771774 1.5858809 6.4225062 2.8613281 6.4296875 L 4.3613281 6.4296875 C 7.8613246 6.4296875 5.8281315 8.9199219 12.828125 8.9199219 C 14.434228 8.9569636 15.303106 9.2204312 15.388672 10.396484 C 15.490839 8.8500642 14.61451 8.531434 12.828125 8.4902344 C 5.8281315 8.4902344 7.8613246 6 4.3613281 6 L 2.8613281 6 z " />
  <path
     style="fill:url(#linearGradient1855);fill-opacity:1;stroke-width:0.125"
     d="m 2.6859864,7.3771846 h 2 a 0.5,0.5 0 1 1 0,1 h -2 a 0.5,0.5 0 1 1 0,-1 z"
     id="path1853" />
</svg>
