<?xml version="1.0" encoding="UTF-8" standalone="no"?>
<svg
   height="16"
   width="16"
   version="1.1"
   id="svg24"
   sodipodi:docname="folder-drag-accept.svg"
   inkscape:version="1.2.2 (b0a8486541, 2022-12-01)"
   xmlns:inkscape="http://www.inkscape.org/namespaces/inkscape"
   xmlns:sodipodi="http://sodipodi.sourceforge.net/DTD/sodipodi-0.dtd"
   xmlns:xlink="http://www.w3.org/1999/xlink"
   xmlns="http://www.w3.org/2000/svg"
   xmlns:svg="http://www.w3.org/2000/svg">
  <sodipodi:namedview
     id="namedview26"
     pagecolor="#ffffff"
     bordercolor="#000000"
     borderopacity="0.25"
     inkscape:showpageshadow="2"
     inkscape:pageopacity="0.0"
     inkscape:pagecheckerboard="0"
     inkscape:deskcolor="#d1d1d1"
     showgrid="false"
     inkscape:zoom="24.428785"
     inkscape:cx="10.090555"
     inkscape:cy="2.1286364"
     inkscape:window-width="2400"
     inkscape:window-height="1281"
     inkscape:window-x="1920"
     inkscape:window-y="32"
     inkscape:window-maximized="1"
     inkscape:current-layer="svg24" />
  <defs
     id="defs14">
    <linearGradient
       id="c">
      <stop
         style="stop-color:#1277f7;stop-opacity:1"
         offset="0"
         id="stop2" />
    </linearGradient>
    <linearGradient
       id="b">
      <stop
         style="stop-color:#0855bd;stop-opacity:1"
         offset="0"
         id="stop5" />
    </linearGradient>
    <linearGradient
       id="a">
      <stop
         style="stop-color:#3f8ff8;stop-opacity:1"
         offset="0"
         id="stop8" />
    </linearGradient>
    <linearGradient
       xlink:href="#a"
       id="e"
       x1="216.756"
       y1="270"
       x2="328.756"
       y2="270"
       gradientUnits="userSpaceOnUse"
       gradientTransform="matrix(.125 0 0 .125 181.905 182.44)" />
    <linearGradient
       xlink:href="#b"
       id="d"
       x1="216.882"
       y1="270"
       x2="328.882"
       y2="270"
       gradientUnits="userSpaceOnUse"
       gradientTransform="matrix(.125 0 0 .125 181.89 182.5)" />
    <linearGradient
       xlink:href="#c"
       id="f"
       x1="232"
       y1="236"
       x2="256"
       y2="236"
       gradientUnits="userSpaceOnUse"
       gradientTransform="matrix(.125 0 0 .125 182 182)" />
    <linearGradient
       inkscape:collect="always"
       xlink:href="#blue-back"
       id="linearGradient4744"
       gradientUnits="userSpaceOnUse"
       gradientTransform="matrix(0,-1.2044364,1.2044364,0,-175.09875,165.6724)"
       x1="28"
       y1="74"
       x2="96"
       y2="74" />
    <linearGradient
       id="blue-back"
       inkscape:swatch="solid">
      <stop
         style="stop-color:#076ff7;stop-opacity:1;"
         offset="0"
         id="stop2497" />
    </linearGradient>
  </defs>
  <g
     style="display:inline"
     id="g22">
    <path
       style="display:inline;fill:url(#d);fill-opacity:1;stroke-width:.129629"
       d="M211.5 210a2.495 2.495 0 0 0-2.5 2.5v7.988a2.505 2.505 0 0 0 2.5 2.512h9c1.385 0 2.5-1.127 2.5-2.512V215a2.499 2.499 0 0 0-2.5-2.5c-2.303 0-1.776-2.5-4.61-2.5z"
       transform="translate(-208 -208)"
       id="path16" />
    <path
       style="fill:url(#e);fill-opacity:1;stroke-width:.129629"
       d="M211.5 210a2.486 2.486 0 0 0-2.5 2.49v7.002a2.501 2.501 0 0 0 2.5 2.508h9c1.385 0 2.5-1.123 2.5-2.508v-4.551c0-1.385-1.115-2.445-2.5-2.451-7 0-4-2.49-7.5-2.49z"
       transform="translate(-208 -208)"
       id="path18" />
    <path
       style="fill:url(#f);fill-opacity:1;stroke-width:.125"
       d="M211.5 211h2a.499.499 0 1 1 0 1h-2a.499.499 0 1 1 0-1z"
       transform="translate(-208 -208)"
       id="path20" />
  </g>
  <path
     d="m 5.3388697,9.4154803 c 0,0.1068517 0.042219,0.2136692 0.1240983,0.2955492 l 2.3643398,2.3643385 c 0.010232,0.01023 0.020056,0.01881 0.031025,0.02776 h 0.0016 c 0.00268,0.0022 0.00543,0.0044 0.00819,0.0065 0.013427,0.01038 0.027789,0.01907 0.042453,0.02776 0.00277,0.0015 0.00535,0.0033 0.00819,0.005 0.015575,0.0088 0.030606,0.01776 0.047352,0.0245 0.00427,0.0018 0.00871,0.0033 0.01307,0.005 0.017672,0.0067 0.035623,0.01217 0.053881,0.01631 0.015276,0.0033 0.031493,0.0066 0.047353,0.0082 5.44e-4,5.6e-5 0.00108,-4.9e-5 0.00167,0 h 0.0016 c 0.026091,0.0025 0.052293,0.0025 0.078377,0 h 0.0016 c 0.01642,-0.0015 0.03319,-0.0048 0.048983,-0.0082 0.023215,-0.0052 0.046331,-0.01195 0.068579,-0.02122 0.00912,-0.0037 0.017342,-0.0087 0.026124,-0.01306 0.012267,-0.0062 0.024188,-0.01218 0.035923,-0.0196 0.011337,-0.007 0.022092,-0.01478 0.032657,-0.02285 0.00343,-0.0026 0.00644,-0.0055 0.00979,-0.0082 h 0.00178 c 0.010623,-0.0087 0.021091,-0.01781 0.031023,-0.02776 L 10.782865,9.7111175 c 0.16375,-0.1637504 0.16375,-0.4273379 0,-0.5910888 -0.163752,-0.1637504 -0.42734,-0.1637504 -0.59109,0 L 8.5409958,10.770794 V 6.4356871 c 0,-0.231577 -0.186432,-0.4180085 -0.4180078,-0.4180085 -0.2316463,0 -0.4180786,0.1864315 -0.4180786,0.4180085 V 10.770764 L 6.0541101,9.1199648 c -0.1637509,-0.1637508 -0.4273384,-0.1637508 -0.5910892,0 -0.081871,0.081871 -0.1240985,0.1886974 -0.1240985,0.2955487 z"
     style="font-variation-settings:normal;display:inline;vector-effect:none;fill:url(#linearGradient4744);fill-opacity:1;stroke-width:1.16454;stroke-linecap:butt;stroke-linejoin:miter;stroke-miterlimit:4;stroke-dasharray:none;stroke-dashoffset:0;stroke-opacity:1;-inkscape-stroke:none;marker:none;paint-order:fill markers stroke;stop-color:#000000"
     id="path4715"
     sodipodi:nodetypes="cscccccccccscccccccccccccsccssscsscc" />
</svg>
