<?xml version="1.0" encoding="UTF-8" standalone="no"?>
<svg
   height="16"
   width="16"
   version="1.1"
   id="svg694"
   sodipodi:docname="folder-download.svg"
   inkscape:version="1.2.2 (b0a8486541, 2022-12-01)"
   xmlns:inkscape="http://www.inkscape.org/namespaces/inkscape"
   xmlns:sodipodi="http://sodipodi.sourceforge.net/DTD/sodipodi-0.dtd"
   xmlns:xlink="http://www.w3.org/1999/xlink"
   xmlns="http://www.w3.org/2000/svg"
   xmlns:svg="http://www.w3.org/2000/svg">
  <sodipodi:namedview
     id="namedview696"
     pagecolor="#ffffff"
     bordercolor="#000000"
     borderopacity="0.25"
     inkscape:showpageshadow="2"
     inkscape:pageopacity="0.0"
     inkscape:pagecheckerboard="0"
     inkscape:deskcolor="#d1d1d1"
     showgrid="true"
     inkscape:zoom="70.844347"
     inkscape:cx="4.1640584"
     inkscape:cy="8.2434241"
     inkscape:window-width="2400"
     inkscape:window-height="1281"
     inkscape:window-x="1920"
     inkscape:window-y="32"
     inkscape:window-maximized="1"
     inkscape:current-layer="svg694">
    <inkscape:grid
       type="xygrid"
       id="grid955"
       color="#e500e3"
       opacity="0.14901961"
       empcolor="#e5008c"
       empopacity="0.30196078" />
  </sodipodi:namedview>
  <defs
     id="defs684">
    <linearGradient
       id="c">
      <stop
         style="stop-color:#1277f7;stop-opacity:1"
         offset="0"
         id="stop672" />
    </linearGradient>
    <linearGradient
       id="b">
      <stop
         style="stop-color:#0855bd;stop-opacity:1"
         offset="0"
         id="stop675" />
    </linearGradient>
    <linearGradient
       id="a">
      <stop
         style="stop-color:#3f8ff8;stop-opacity:1"
         offset="0"
         id="stop678" />
    </linearGradient>
    <linearGradient
       xlink:href="#a"
       id="e"
       x1="216.756"
       y1="270"
       x2="328.756"
       y2="270"
       gradientUnits="userSpaceOnUse"
       gradientTransform="matrix(0.125,0,0,0.125,-26.095,-25.56)" />
    <linearGradient
       xlink:href="#b"
       id="d"
       x1="216.882"
       y1="270"
       x2="328.882"
       y2="270"
       gradientUnits="userSpaceOnUse"
       gradientTransform="matrix(0.125,0,0,0.125,-26.11,-25.5)" />
    <linearGradient
       xlink:href="#c"
       id="f"
       x1="232"
       y1="236"
       x2="256"
       y2="236"
       gradientUnits="userSpaceOnUse"
       gradientTransform="matrix(0.125,0,0,0.125,-26,-26)" />
    <linearGradient
       id="blue-back"
       inkscape:swatch="solid">
      <stop
         style="stop-color:#0867e1;stop-opacity:1;"
         offset="0"
         id="stop2497" />
    </linearGradient>
    <linearGradient
       id="16px-primary-color-0"
       inkscape:swatch="solid">
      <stop
         style="stop-color:#000000;stop-opacity:1;"
         offset="0"
         id="stop8106" />
    </linearGradient>
    <linearGradient
       inkscape:collect="always"
       xlink:href="#blue-back"
       id="linearGradient3449"
       gradientUnits="userSpaceOnUse"
       gradientTransform="matrix(0.03535617,0,0,0.03535617,30.593158,45.199607)"
       x1="28"
       y1="74"
       x2="96"
       y2="74" />
  </defs>
  <path
     style="display:inline;fill:url(#d);fill-opacity:1;stroke-width:0.129629"
     d="M 3.5,2 A 2.495,2.495 0 0 0 1,4.5 v 7.988 A 2.505,2.505 0 0 0 3.5,15 h 9 C 13.885,15 15,13.873 15,12.488 V 7 A 2.499,2.499 0 0 0 12.5,4.5 C 10.197,4.5 10.724,2 7.89,2 Z"
     id="path686" />
  <path
     style="display:inline;fill:url(#e);fill-opacity:1;stroke-width:0.129629"
     d="M 3.5,2 A 2.486,2.486 0 0 0 1,4.49 v 7.002 A 2.501,2.501 0 0 0 3.5,14 h 9 C 13.885,14 15,12.877 15,11.492 V 6.941 C 15,5.556 13.885,4.496 12.5,4.49 5.5,4.49 8.5,2 5,2 Z"
     id="path688" />
  <path
     style="display:inline;fill:url(#f);fill-opacity:1;stroke-width:0.125"
     d="m 3.5,3 h 2 a 0.5,0.5 0 1 1 0,1 h -2 a 0.5,0.5 0 1 1 0,-1 z"
     id="path690" />
  <path
     id="path7966"
     style="font-variation-settings:normal;display:inline;vector-effect:none;fill:url(#linearGradient3449);fill-opacity:1;fill-rule:evenodd;stroke:none;stroke-width:0.0353562;stroke-linecap:butt;stroke-linejoin:miter;stroke-miterlimit:4;stroke-dasharray:none;stroke-dashoffset:0;stroke-opacity:1;-inkscape-stroke:none;marker:none;marker-start:none;marker-mid:none;marker-end:none;paint-order:fill markers stroke;enable-background:new;stop-color:#000000"
     inkscape:label="boder flecha"
     d="M 10,9 V 6 H 9 v 4 L 10.996094,10.0039 8,12 5,10 H 7 V 6 H 6 V 9 H 3 l 5,5 5,-5"
     sodipodi:nodetypes="cccccccccccccc" />
  <rect
     style="fill:url(#linearGradient3449);fill-rule:evenodd;stroke-width:0.0353562;-inkscape-stroke:none;paint-order:fill markers stroke;stop-color:#000000;font-variation-settings:normal;opacity:1;vector-effect:none;fill-opacity:1;stroke:none;stroke-linecap:butt;stroke-linejoin:miter;stroke-miterlimit:4;stroke-dasharray:none;stroke-dashoffset:0;stroke-opacity:1;marker:none;marker-start:none;marker-mid:none;marker-end:none;stop-opacity:1"
     id="rect403"
     width="4"
     height="1"
     x="6"
     y="5" />
</svg>
