<?xml version="1.0" encoding="UTF-8" standalone="no"?>
<svg
   height="16"
   width="16"
   version="1.1"
   id="svg694"
   sodipodi:docname="folder-documents.svg"
   inkscape:version="1.2.2 (b0a8486541, 2022-12-01)"
   xmlns:inkscape="http://www.inkscape.org/namespaces/inkscape"
   xmlns:sodipodi="http://sodipodi.sourceforge.net/DTD/sodipodi-0.dtd"
   xmlns:xlink="http://www.w3.org/1999/xlink"
   xmlns="http://www.w3.org/2000/svg"
   xmlns:svg="http://www.w3.org/2000/svg">
  <sodipodi:namedview
     id="namedview696"
     pagecolor="#ffffff"
     bordercolor="#000000"
     borderopacity="0.25"
     inkscape:showpageshadow="2"
     inkscape:pageopacity="0.0"
     inkscape:pagecheckerboard="0"
     inkscape:deskcolor="#d1d1d1"
     showgrid="true"
     inkscape:zoom="70.844347"
     inkscape:cx="5.4062182"
     inkscape:cy="8.2434241"
     inkscape:window-width="2400"
     inkscape:window-height="1281"
     inkscape:window-x="1920"
     inkscape:window-y="32"
     inkscape:window-maximized="1"
     inkscape:current-layer="svg694">
    <inkscape:grid
       type="xygrid"
       id="grid955"
       color="#e500e3"
       opacity="0.14901961"
       empcolor="#e5008c"
       empopacity="0.30196078" />
  </sodipodi:namedview>
  <defs
     id="defs684">
    <linearGradient
       id="c">
      <stop
         style="stop-color:#1277f7;stop-opacity:1"
         offset="0"
         id="stop672" />
    </linearGradient>
    <linearGradient
       id="b">
      <stop
         style="stop-color:#0855bd;stop-opacity:1"
         offset="0"
         id="stop675" />
    </linearGradient>
    <linearGradient
       id="a">
      <stop
         style="stop-color:#3f8ff8;stop-opacity:1"
         offset="0"
         id="stop678" />
    </linearGradient>
    <linearGradient
       xlink:href="#a"
       id="e"
       x1="216.756"
       y1="270"
       x2="328.756"
       y2="270"
       gradientUnits="userSpaceOnUse"
       gradientTransform="matrix(0.125,0,0,0.125,-26.095,-25.56)" />
    <linearGradient
       xlink:href="#b"
       id="d"
       x1="216.882"
       y1="270"
       x2="328.882"
       y2="270"
       gradientUnits="userSpaceOnUse"
       gradientTransform="matrix(0.125,0,0,0.125,-26.11,-25.5)" />
    <linearGradient
       xlink:href="#c"
       id="f"
       x1="232"
       y1="236"
       x2="256"
       y2="236"
       gradientUnits="userSpaceOnUse"
       gradientTransform="matrix(0.125,0,0,0.125,-26,-26)" />
    <linearGradient
       id="blue-back"
       inkscape:swatch="solid">
      <stop
         style="stop-color:#0867e1;stop-opacity:1;"
         offset="0"
         id="stop2497" />
    </linearGradient>
    <linearGradient
       inkscape:collect="always"
       xlink:href="#blue-back"
       id="linearGradient502"
       gradientUnits="userSpaceOnUse"
       gradientTransform="matrix(0.07071235,0,0,0.07071235,12.927525,5.0817445)"
       x1="28"
       y1="74"
       x2="96"
       y2="74" />
  </defs>
  <path
     style="display:inline;fill:url(#d);fill-opacity:1;stroke-width:0.129629"
     d="M 3.5,2 A 2.495,2.495 0 0 0 1,4.5 v 7.988 A 2.505,2.505 0 0 0 3.5,15 h 9 C 13.885,15 15,13.873 15,12.488 V 7 A 2.499,2.499 0 0 0 12.5,4.5 C 10.197,4.5 10.724,2 7.89,2 Z"
     id="path686" />
  <path
     style="display:inline;fill:url(#e);fill-opacity:1;stroke-width:0.129629"
     d="M 3.5,2 A 2.486,2.486 0 0 0 1,4.49 v 7.002 A 2.501,2.501 0 0 0 3.5,14 h 9 C 13.885,14 15,12.877 15,11.492 V 6.941 C 15,5.556 13.885,4.496 12.5,4.49 5.5,4.49 8.5,2 5,2 Z"
     id="path688" />
  <path
     style="display:inline;fill:url(#f);fill-opacity:1;stroke-width:0.125"
     d="m 3.5,3 h 2 a 0.5,0.5 0 1 1 0,1 h -2 a 0.5,0.5 0 1 1 0,-1 z"
     id="path690" />
  <path
     style="color:#000000;line-height:normal;font-variation-settings:normal;text-indent:0;text-align:start;text-decoration-line:none;text-decoration-style:solid;text-decoration-color:#000000;text-transform:none;opacity:1;isolation:auto;mix-blend-mode:normal;vector-effect:none;fill:url(#linearGradient502);fill-opacity:1;stroke-width:0.0707124;stroke-linecap:butt;stroke-linejoin:miter;stroke-miterlimit:4;stroke-dasharray:none;stroke-dashoffset:0;stroke-opacity:1;-inkscape-stroke:none;marker:none;paint-order:fill markers stroke;stop-color:#000000;stop-opacity:1"
     d="m 5,6 v 7 0 h 7 V 13 7 L 10,5 H 5 Z m 1,0 v 0 h 3 v 2 h 2 v 4 0 H 7 6 Z"
     font-weight="400"
     font-family="sans-serif"
     overflow="visible"
     id="path2"
     sodipodi:nodetypes="ccccccccccccccccccc" />
</svg>
