<?xml version="1.0" encoding="UTF-8" standalone="no"?>
<svg
   height="16"
   width="16"
   version="1.1"
   id="svg694"
   sodipodi:docname="folder-publicshare.svg"
   inkscape:version="1.2.2 (b0a8486541, 2022-12-01)"
   xmlns:inkscape="http://www.inkscape.org/namespaces/inkscape"
   xmlns:sodipodi="http://sodipodi.sourceforge.net/DTD/sodipodi-0.dtd"
   xmlns:xlink="http://www.w3.org/1999/xlink"
   xmlns="http://www.w3.org/2000/svg"
   xmlns:svg="http://www.w3.org/2000/svg"
   xmlns:osb="http://www.openswatchbook.org/uri/2009/osb">
  <sodipodi:namedview
     id="namedview696"
     pagecolor="#ffffff"
     bordercolor="#000000"
     borderopacity="0.25"
     inkscape:showpageshadow="2"
     inkscape:pageopacity="0.0"
     inkscape:pagecheckerboard="0"
     inkscape:deskcolor="#d1d1d1"
     showgrid="true"
     inkscape:zoom="75.013283"
     inkscape:cx="7.1187392"
     inkscape:cy="9.9848983"
     inkscape:window-width="2400"
     inkscape:window-height="1281"
     inkscape:window-x="1920"
     inkscape:window-y="32"
     inkscape:window-maximized="1"
     inkscape:current-layer="svg694">
    <inkscape:grid
       type="xygrid"
       id="grid955" />
  </sodipodi:namedview>
  <defs
     id="defs684">
    <linearGradient
       id="c">
      <stop
         style="stop-color:#1277f7;stop-opacity:1"
         offset="0"
         id="stop672" />
    </linearGradient>
    <linearGradient
       id="b">
      <stop
         style="stop-color:#0855bd;stop-opacity:1"
         offset="0"
         id="stop675" />
    </linearGradient>
    <linearGradient
       id="a">
      <stop
         style="stop-color:#3f8ff8;stop-opacity:1"
         offset="0"
         id="stop678" />
    </linearGradient>
    <linearGradient
       xlink:href="#a"
       id="e"
       x1="216.756"
       y1="270"
       x2="328.756"
       y2="270"
       gradientUnits="userSpaceOnUse"
       gradientTransform="matrix(0.125,0,0,0.125,-26.095,-25.56)" />
    <linearGradient
       xlink:href="#b"
       id="d"
       x1="216.882"
       y1="270"
       x2="328.882"
       y2="270"
       gradientUnits="userSpaceOnUse"
       gradientTransform="matrix(0.125,0,0,0.125,-26.11,-25.5)" />
    <linearGradient
       xlink:href="#c"
       id="f"
       x1="232"
       y1="236"
       x2="256"
       y2="236"
       gradientUnits="userSpaceOnUse"
       gradientTransform="matrix(0.125,0,0,0.125,-26,-26)" />
    <linearGradient
       inkscape:collect="always"
       xlink:href="#blue-back"
       id="linearGradient2555"
       x1="28"
       y1="74"
       x2="96"
       y2="74"
       gradientUnits="userSpaceOnUse"
       gradientTransform="matrix(0.06987185,0,0,0.06987185,7.7573344,4.4142031)" />
    <linearGradient
       id="blue-back"
       inkscape:swatch="solid">
      <stop
         style="stop-color:#0867e1;stop-opacity:1;"
         offset="0"
         id="stop2497" />
    </linearGradient>
    <linearGradient
       id="16px-primary-color-0"
       osb:paint="solid">
      <stop
         style="stop-color:#000000;stop-opacity:1;"
         offset="0"
         id="stop8106" />
    </linearGradient>
  </defs>
  <path
     style="display:inline;fill:url(#d);fill-opacity:1;stroke-width:0.129629"
     d="M 3.5,2 A 2.495,2.495 0 0 0 1,4.5 v 7.988 A 2.505,2.505 0 0 0 3.5,15 h 9 C 13.885,15 15,13.873 15,12.488 V 7 A 2.499,2.499 0 0 0 12.5,4.5 C 10.197,4.5 10.724,2 7.89,2 Z"
     id="path686" />
  <path
     style="display:inline;fill:url(#e);fill-opacity:1;stroke-width:0.129629"
     d="M 3.5,2 A 2.486,2.486 0 0 0 1,4.49 v 7.002 A 2.501,2.501 0 0 0 3.5,14 h 9 C 13.885,14 15,12.877 15,11.492 V 6.941 C 15,5.556 13.885,4.496 12.5,4.49 5.5,4.49 8.5,2 5,2 Z"
     id="path688" />
  <path
     style="display:inline;fill:url(#f);fill-opacity:1;stroke-width:0.125"
     d="m 3.5,3 h 2 a 0.5,0.5 0 1 1 0,1 h -2 a 0.5,0.5 0 1 1 0,-1 z"
     id="path690" />
  <path
     style="color:#000000;font-variation-settings:normal;clip-rule:nonzero;display:inline;overflow:visible;visibility:visible;opacity:1;isolation:auto;mix-blend-mode:normal;color-interpolation:sRGB;color-interpolation-filters:linearRGB;solid-color:#000000;solid-opacity:1;vector-effect:none;fill:url(#linearGradient2555);fill-opacity:1;fill-rule:nonzero;stroke:none;stroke-width:0.0698719;stroke-linecap:butt;stroke-linejoin:miter;stroke-miterlimit:4;stroke-dasharray:none;stroke-dashoffset:0;stroke-opacity:1;-inkscape-stroke:none;marker:none;marker-start:none;marker-mid:none;marker-end:none;paint-order:fill markers stroke;color-rendering:auto;image-rendering:auto;shape-rendering:auto;text-rendering:auto;enable-background:accumulate;stop-color:#000000;stop-opacity:1"
     d="M 9.4539142,5.4539364 C 8.6017233,5.4539364 7.9078586,6.1477971 7.9078586,7 c 0,0.250578 0.06125,0.4867541 0.1675988,0.6963367 L 6.2919102,8.4047485 C 6.0001836,8.0973059 5.595093,7.9230801 5.171292,7.9228093 c -0.8538672,0 -1.5460705,0.6921974 -1.5460705,1.5460691 0,0.8538686 0.6922033,1.5460636 1.5460705,1.5460636 0.4294057,-7e-4 0.8391951,-0.180012 1.1311469,-0.494921 l 1.765152,0.714453 c -0.1012939,0.205561 -0.1597323,0.435883 -0.1597323,0.680028 0,0.852203 0.6938647,1.546066 1.5460556,1.546066 C 10.30615,13.460568 11,12.766705 11,11.914502 c 0,-0.852205 -0.69385,-1.546066 -1.5460858,-1.546066 -0.4556274,0 -0.8647913,0.199388 -1.1480559,0.514246 L 6.546461,10.171856 C 6.6582086,9.9543419 6.7167621,9.7134229 6.7173575,9.4688784 6.7172825,9.2261823 6.6601003,8.9869122 6.5503692,8.7704284 L 8.3203503,8.0475216 C 8.6030544,8.3531978 9.0059431,8.5460695 9.4539142,8.5460695 10.30615,8.5460695 11,7.8522073 11,7 11,6.1477971 10.30615,5.4539364 9.4539142,5.4539364 Z m 2.5e-5,0.7296989 c 0.4519591,0 0.8163568,0.3644154 0.8163568,0.8163647 0,0.4519523 -0.3643977,0.8163681 -0.8163568,0.8163681 C 9.0019849,7.8163681 8.637563,7.4519523 8.637563,7 c 0,-0.4519493 0.3644219,-0.8163647 0.8163762,-0.8163647 z M 5.16891,8.6571931 c 0.4463348,0 0.8116673,0.365324 0.8116673,0.8116853 0,0.4463567 -0.3653325,0.8116836 -0.8116673,0.8116836 -0.4463947,0 -0.8117123,-0.3653269 -0.8117123,-0.8116836 0,-0.4463613 0.3653176,-0.8116853 0.8117123,-0.8116853 z m 4.2850042,2.3577329 c 0.4980528,0 0.8995948,0.401557 0.8995948,0.899576 0,0.498018 -0.401542,0.899579 -0.8995948,0.899579 -0.4980025,0 -0.8995551,-0.401561 -0.8995551,-0.899579 0,-0.498019 0.4015526,-0.899576 0.8995551,-0.899576 z"
     id="path8883-3-4"
     inkscape:connector-curvature="0"
     sodipodi:nodetypes="sscccscccsssscccccssssssssssssssssss" />
</svg>
