<?xml version="1.0" encoding="UTF-8" standalone="no"?>
<svg
   width="16"
   height="16"
   version="1.1"
   id="svg72"
   sodipodi:docname="network-workgroup.svg"
   inkscape:version="1.2.2 (b0a8486541, 2022-12-01)"
   xmlns:inkscape="http://www.inkscape.org/namespaces/inkscape"
   xmlns:sodipodi="http://sodipodi.sourceforge.net/DTD/sodipodi-0.dtd"
   xmlns:xlink="http://www.w3.org/1999/xlink"
   xmlns="http://www.w3.org/2000/svg"
   xmlns:svg="http://www.w3.org/2000/svg">
  <path
     id="rect406"
     style="opacity:0.247227;fill:url(#linearGradient522);fill-opacity:1;fill-rule:evenodd;stroke-width:0.69876;paint-order:fill markers stroke;stop-color:#000000"
     d="M 8.4283647,12.562863 H 10.66374 l 1.269005,2.403508 H 7.0584823 Z"
     sodipodi:nodetypes="ccccc" />
  <defs
     id="defs76">
    <linearGradient
       inkscape:collect="always"
       id="linearGradient520">
      <stop
         style="stop-color:#9f9f9f;stop-opacity:1;"
         offset="0"
         id="stop516" />
      <stop
         style="stop-color:#d0d0d0;stop-opacity:1;"
         offset="1"
         id="stop518" />
    </linearGradient>
    <linearGradient
       inkscape:collect="always"
       id="linearGradient1111">
      <stop
         style="stop-color:#1bd2fa;stop-opacity:1;"
         offset="0"
         id="stop1107" />
      <stop
         style="stop-color:#1c80f2;stop-opacity:1;"
         offset="1"
         id="stop1109" />
    </linearGradient>
    <linearGradient
       inkscape:collect="always"
       xlink:href="#linearGradient1111"
       id="linearGradient6291"
       gradientUnits="userSpaceOnUse"
       gradientTransform="matrix(0.21380244,0,0,0.21380244,-0.29384851,-1.5810409)"
       x1="29.500309"
       y1="10.143403"
       x2="29.500309"
       y2="50.791168" />
    <linearGradient
       inkscape:collect="always"
       xlink:href="#linearGradient1111"
       id="linearGradient8056"
       gradientUnits="userSpaceOnUse"
       gradientTransform="matrix(0.21380244,0,0,0.21380244,2.6150768,1.1674705)"
       x1="29.500309"
       y1="10.143403"
       x2="29.500309"
       y2="50.791168" />
    <linearGradient
       inkscape:collect="always"
       xlink:href="#linearGradient520"
       id="linearGradient522"
       x1="10"
       y1="14"
       x2="10"
       y2="13"
       gradientUnits="userSpaceOnUse"
       gradientTransform="translate(-0.06725171,0.02485628)" />
  </defs>
  <sodipodi:namedview
     id="namedview74"
     pagecolor="#ffffff"
     bordercolor="#000000"
     borderopacity="0.25"
     inkscape:showpageshadow="2"
     inkscape:pageopacity="0.0"
     inkscape:pagecheckerboard="0"
     inkscape:deskcolor="#d1d1d1"
     showgrid="true"
     inkscape:zoom="29.73918"
     inkscape:cx="12.20612"
     inkscape:cy="3.8669526"
     inkscape:window-width="2400"
     inkscape:window-height="1281"
     inkscape:window-x="1920"
     inkscape:window-y="32"
     inkscape:window-maximized="1"
     inkscape:current-layer="svg72">
    <inkscape:grid
       type="xygrid"
       id="grid549"
       originx="0"
       originy="0" />
  </sodipodi:namedview>
  <linearGradient
     id="a">
    <stop
       stop-color="#909090"
       offset="0"
       id="stop2" />
    <stop
       stop-color="#636363"
       stop-opacity="0"
       offset="1"
       id="stop4" />
  </linearGradient>
  <radialGradient
     id="c"
     cx="199.22"
     cy="60.978001"
     r="62.147999"
     gradientTransform="matrix(0.39807318,0,0,1.7678014,-41.144877,-72.524901)"
     gradientUnits="userSpaceOnUse">
    <stop
       stop-color="#e6e6e8"
       offset="0"
       id="stop7" />
    <stop
       stop-color="#cbccce"
       offset="1"
       id="stop9" />
  </radialGradient>
  <radialGradient
     id="d"
     cx="199.22"
     cy="60.978001"
     r="62.147999"
     gradientTransform="matrix(0.6416015,0,0,1.7428036,-93.51551,-79.575683)"
     gradientUnits="userSpaceOnUse">
    <stop
       stop-color="#ececef"
       offset="0"
       id="stop12" />
    <stop
       stop-color="#cbccce"
       stop-opacity="0"
       offset="1"
       id="stop14" />
  </radialGradient>
  <filter
     id="b"
     x="-0.014481094"
     y="-0.017316018"
     width="1.0289622"
     height="1.034632"
     color-interpolation-filters="sRGB">
    <feGaussianBlur
       stdDeviation=".75"
       id="feGaussianBlur17" />
  </filter>
  <linearGradient
     id="g"
     x1="174.78999"
     x2="174.86"
     y1="109.47"
     y2="118.12"
     gradientUnits="userSpaceOnUse"
     gradientTransform="matrix(0.39339182,0,0,0.3873101,-32.175544,9.5053912)">
    <stop
       stop-color="#909090"
       offset="0"
       id="stop20" />
    <stop
       stop-color="#727272"
       stop-opacity="0"
       offset="1"
       id="stop22" />
  </linearGradient>
  <radialGradient
     id="h"
     cx="178.78999"
     cy="120.7"
     r="22.055"
     gradientTransform="matrix(1.5181384,0,0,0.05375864,-233.26564,49.766276)"
     gradientUnits="userSpaceOnUse"
     xlink:href="#a" />
  <filter
     id="i"
     x="-0.024968283"
     y="-0.50332482"
     width="1.0499366"
     height="2.0066496"
     color-interpolation-filters="sRGB">
    <feGaussianBlur
       stdDeviation=".328"
       id="feGaussianBlur26" />
  </filter>
  <filter
     id="f"
     x="-0.080469841"
     y="-0.2454602"
     width="1.1609397"
     height="1.4909204"
     color-interpolation-filters="sRGB">
    <feGaussianBlur
       stdDeviation="1.479"
       id="feGaussianBlur29" />
  </filter>
  <linearGradient
     id="j"
     x1="183.06"
     x2="183.06"
     y1="129.42"
     y2="127.06"
     gradientUnits="userSpaceOnUse"
     xlink:href="#a"
     gradientTransform="matrix(0.39339182,0,0,0.3873101,-32.175544,9.5053912)" />
  <linearGradient
     id="e"
     x1="23.844"
     x2="23.816"
     y1="17.573999"
     y2="85.151001"
     gradientUnits="userSpaceOnUse"
     gradientTransform="matrix(0.48966,0,0,0.48209,-68.446714,-1.7978698)">
    <stop
       stop-color="#1bd2fa"
       offset="0"
       id="stop33" />
    <stop
       stop-color="#1c7ef2"
       offset="1"
       id="stop35" />
  </linearGradient>
  <path
     style="color:#000000;display:inline;fill:url(#linearGradient6291);stroke-width:0.297207;-inkscape-stroke:none"
     d="M 1.0001249,0.27583234 H 12.095992 c 0.465986,0 0.841129,0.37514335 0.841129,0.84112946 v 7.6885639 c 0,0.4659848 -0.375143,0.8411291 -0.841129,0.8411291 H 1.0001249 c -0.46598609,0 -0.84113019,-0.3751443 -0.84113019,-0.8411291 V 1.1169618 c 0,-0.46598611 0.3751441,-0.84112946 0.84113019,-0.84112946 z"
     id="path8062" />
  <path
     style="color:#000000;display:inline;fill:#000000;stroke-width:0.266123;-inkscape-stroke:none"
     d="m 1,0.12731754 c -0.54574091,0 -0.98964435,0.44390334 -0.98964435,0.98964426 v 7.6884517 c 0,0.5457417 0.44390344,0.9896448 0.98964435,0.9896448 h 11.096073 c 0.545742,0 0.989644,-0.4439031 0.989644,-0.9896448 V 1.1169618 c 0,-0.54574092 -0.443902,-0.98964426 -0.989644,-0.98964426 z M 1,0.4246268 h 11.096073 c 0.38623,0 0.692336,0.3061052 0.692336,0.692335 v 7.6884517 c 0,0.3862302 -0.306106,0.6928551 -0.692336,0.6928551 H 1 c -0.38622979,0 -0.692335,-0.3066249 -0.692335,-0.6928551 V 1.1169618 C 0.307665,0.730732 0.61377021,0.4246268 1,0.4246268 Z"
     id="path8064" />
  <path
     style="color:#000000;display:inline;fill:url(#linearGradient8056);stroke-width:0.297207;-inkscape-stroke:none"
     d="m 4.087888,3.0243432 h 10.738189 c 0.565062,0 1.019969,0.4549065 1.019969,1.0199689 v 7.3308859 c 0,0.565063 -0.454907,1.019968 -1.019969,1.019968 H 4.087888 c -0.5650623,0 -1.0199689,-0.454905 -1.0199689,-1.019968 V 4.0443121 c 0,-0.5650624 0.4549066,-1.0199689 1.0199689,-1.0199689 z"
     id="path8052" />
  <path
     style="color:#000000;display:inline;fill:#000000;stroke-width:0.266123;-inkscape-stroke:none"
     d="m 4.0879594,2.8758666 c -0.6448177,0 -1.1684455,0.5236277 -1.1684455,1.1684455 v 7.3308509 c 0,0.644816 0.5236278,1.168444 1.1684455,1.168444 H 14.82591 c 0.644818,0 1.168965,-0.523628 1.168965,-1.168444 V 4.0443121 c 0,-0.6448178 -0.524147,-1.1684455 -1.168965,-1.1684455 z m 0,0.2973091 H 14.82591 c 0.485306,0 0.871657,0.3858297 0.871657,0.8711364 v 7.3308509 c 0,0.485306 -0.386351,0.871655 -0.871657,0.871655 H 4.0879594 c -0.4853067,0 -0.8716565,-0.386349 -0.8716565,-0.871655 V 4.0443121 c 0,-0.4853067 0.3863498,-0.8711364 0.8716565,-0.8711364 z"
     id="path8054" />
</svg>
