<?xml version="1.0" encoding="UTF-8" standalone="no"?>
<svg
   height="128"
   viewBox="0 0 128 128"
   width="128"
   version="1.1"
   id="svg86"
   sodipodi:docname="gedit.svg"
   inkscape:version="1.2.2 (b0a8486541, 2022-12-01)"
   xml:space="preserve"
   xmlns:inkscape="http://www.inkscape.org/namespaces/inkscape"
   xmlns:sodipodi="http://sodipodi.sourceforge.net/DTD/sodipodi-0.dtd"
   xmlns:xlink="http://www.w3.org/1999/xlink"
   xmlns="http://www.w3.org/2000/svg"
   xmlns:svg="http://www.w3.org/2000/svg"
   xmlns:rdf="http://www.w3.org/1999/02/22-rdf-syntax-ns#"
   xmlns:cc="http://creativecommons.org/ns#"
   xmlns:dc="http://purl.org/dc/elements/1.1/"
   xmlns:osb="http://www.openswatchbook.org/uri/2009/osb"><sodipodi:namedview
     id="namedview88"
     pagecolor="#ffffff"
     bordercolor="#000000"
     borderopacity="0.25"
     inkscape:showpageshadow="2"
     inkscape:pageopacity="0.0"
     inkscape:pagecheckerboard="0"
     inkscape:deskcolor="#d1d1d1"
     showgrid="true"
     inkscape:zoom="7.5931296"
     inkscape:cx="53.535238"
     inkscape:cy="63.215041"
     inkscape:window-width="2400"
     inkscape:window-height="1281"
     inkscape:window-x="1920"
     inkscape:window-y="32"
     inkscape:window-maximized="1"
     inkscape:current-layer="svg86"><inkscape:grid
       type="xygrid"
       id="grid267" /></sodipodi:namedview><title
     id="title2">Template icons dark</title><defs
     id="defs28"><linearGradient
       inkscape:collect="always"
       id="linearGradient45531"><stop
         style="stop-color:#322d33;stop-opacity:1;"
         offset="0"
         id="stop45527" /><stop
         style="stop-color:#484149;stop-opacity:1;"
         offset="1"
         id="stop45529" /></linearGradient><linearGradient
       inkscape:collect="always"
       id="linearGradient41250"><stop
         style="stop-color:#74416b;stop-opacity:1;"
         offset="0"
         id="stop41246" /><stop
         style="stop-color:#3d4c79;stop-opacity:1;"
         offset="1"
         id="stop41248" /></linearGradient><linearGradient
       inkscape:collect="always"
       id="linearGradient40416"><stop
         style="stop-color:#3d4c79;stop-opacity:1;"
         offset="0"
         id="stop40412" /><stop
         style="stop-color:#5dc3e2;stop-opacity:1;"
         offset="1"
         id="stop40414" /></linearGradient><linearGradient
       inkscape:collect="always"
       id="linearGradient38664"><stop
         style="stop-color:#e66962;stop-opacity:1;"
         offset="0"
         id="stop38660" /><stop
         style="stop-color:#79426b;stop-opacity:1;"
         offset="1"
         id="stop38662" /></linearGradient><linearGradient
       inkscape:collect="always"
       id="linearGradient35277"><stop
         style="stop-color:#fda45b;stop-opacity:1;"
         offset="0"
         id="stop35273" /><stop
         style="stop-color:#bc5965;stop-opacity:1;"
         offset="1"
         id="stop35275" /></linearGradient><linearGradient
       inkscape:collect="always"
       id="linearGradient33547"><stop
         style="stop-color:#c771ff;stop-opacity:1;"
         offset="0"
         id="stop33543" /><stop
         style="stop-color:#c771ff;stop-opacity:0;"
         offset="0.7029773"
         id="stop33545" /></linearGradient><linearGradient
       id="a"><stop
         offset="0"
         stop-color="#4b587a"
         id="stop4" /><stop
         offset="1"
         stop-color="#7a6982"
         id="stop6" /></linearGradient><linearGradient
       id="c"><stop
         offset="0"
         stop-color="#3e4453"
         id="stop9"
         style="stop-color:#667fbb;stop-opacity:1;" /><stop
         offset="1"
         stop-color="#222630"
         id="stop11"
         style="stop-color:#5d8be3;stop-opacity:1;" /></linearGradient><linearGradient
       id="b"><stop
         offset="0"
         stop-color="#d4a8cf"
         id="stop14"
         style="stop-color:#ff28ba;stop-opacity:1;" /><stop
         offset="1"
         stop-color="#80c4e1"
         stop-opacity=".99"
         id="stop16"
         style="stop-color:#ff2727;stop-opacity:0.99941564;" /></linearGradient><linearGradient
       id="d"><stop
         offset="0"
         stop-color="#9a9a9a"
         stop-opacity=".973"
         id="stop19"
         style="stop-color:#323846;stop-opacity:1;" /><stop
         offset="1"
         stop-color="#f4f4f4"
         id="stop21"
         style="stop-color:#495162;stop-opacity:1;" /></linearGradient><linearGradient
       xlink:href="#b"
       id="e"
       x1="6.2515717"
       y1="5.7313657"
       x2="34.070965"
       y2="5.6920733"
       gradientUnits="userSpaceOnUse"
       gradientTransform="matrix(2.70428,0,0,2.70494,6.094,-4.503)" /><linearGradient
       xlink:href="#c"
       id="f"
       gradientUnits="userSpaceOnUse"
       gradientTransform="matrix(2.41732,0,0,2.67312,133.76,90.782)"
       x1="-26.686579"
       y1="-29.846024"
       x2="-26.746"
       y2="10.031" /><linearGradient
       xlink:href="#d"
       id="g"
       gradientUnits="userSpaceOnUse"
       gradientTransform="matrix(4.45422,0,0,4.45422,-28.077,23.434)"
       x1="20.942"
       y1="20.603"
       x2="20.942"
       y2="-3.389" /><linearGradient
       xlink:href="#a"
       id="h"
       gradientUnits="userSpaceOnUse"
       gradientTransform="matrix(.92153 0 0 .92153 14.613 13.752)"
       x1="191.407"
       y1="201.023"
       x2="181.641"
       y2="174.894" /><linearGradient
       inkscape:collect="always"
       xlink:href="#linearGradient35277"
       id="linearGradient27765"
       gradientUnits="userSpaceOnUse"
       gradientTransform="translate(101.84038,-62.422729)"
       x1="-46.78212"
       y1="60.265842"
       x2="-46.172894"
       y2="27.840847" /><linearGradient
       gradientTransform="matrix(1.3339,0,0,1.33682,58.573,55.577)"
       xlink:href="#h-9"
       id="t"
       gradientUnits="userSpaceOnUse"
       x1="188"
       y1="173.5"
       x2="189"
       y2="173.5" /><linearGradient
       id="h-9"
       osb:paint="solid"><stop
         offset="0"
         stop-opacity=".084"
         id="stop44" /></linearGradient><radialGradient
       inkscape:collect="always"
       xlink:href="#linearGradient33547"
       id="radialGradient33549"
       cx="64"
       cy="64"
       fx="64"
       fy="64"
       r="55"
       gradientUnits="userSpaceOnUse" /><linearGradient
       inkscape:collect="always"
       xlink:href="#linearGradient38664"
       id="linearGradient33695"
       gradientUnits="userSpaceOnUse"
       gradientTransform="matrix(0.86330264,0.50468659,0.50468659,-0.86330264,56.325069,105.48027)"
       x1="-51.700943"
       y1="24.867683"
       x2="-15.080621"
       y2="2.3731799" /><linearGradient
       inkscape:collect="always"
       xlink:href="#linearGradient40416"
       id="linearGradient39787"
       gradientUnits="userSpaceOnUse"
       gradientTransform="matrix(0.86330264,0.50468659,0.50468659,-0.86330264,56.325069,105.48027)"
       x1="-51.700943"
       y1="24.867683"
       x2="-15.080621"
       y2="2.3731799" /><linearGradient
       inkscape:collect="always"
       xlink:href="#linearGradient41250"
       id="linearGradient39789"
       gradientUnits="userSpaceOnUse"
       gradientTransform="translate(101.84038,-62.422729)"
       x1="-46.78212"
       y1="60.265842"
       x2="-46.172894"
       y2="27.840847" /><linearGradient
       inkscape:collect="always"
       xlink:href="#linearGradient45531"
       id="linearGradient45533"
       x1="67.024994"
       y1="115.36491"
       x2="67.024994"
       y2="9.4987841"
       gradientUnits="userSpaceOnUse" /></defs><metadata
     id="metadata3945"><rdf:RDF><cc:Work
         rdf:about=""><dc:title>Template icons dark</dc:title></cc:Work></rdf:RDF></metadata><rect
     style="fill:#000000;fill-opacity:0.14179532;fill-rule:evenodd;stroke-width:1.01818;-inkscape-stroke:none;paint-order:fill markers stroke;stop-color:#000000"
     id="rect33551"
     width="112"
     height="112"
     x="8"
     y="8"
     ry="20.363636" /><rect
     style="fill:url(#linearGradient45533);fill-opacity:1;fill-rule:evenodd;-inkscape-stroke:none;paint-order:fill markers stroke;stop-color:#000000"
     id="rect5950"
     width="110"
     height="110"
     x="9"
     y="9"
     ry="20" /><path
     id="rect33475"
     style="fill:url(#radialGradient33549);fill-opacity:1;fill-rule:evenodd;-inkscape-stroke:none;paint-order:fill markers stroke;stop-color:#000000"
     d="M 23.5 9 L 23.5 23.5 L 9 23.5 L 9 24.5 L 23.5 24.5 L 23.5 33.5 L 9 33.5 L 9 34.5 L 23.5 34.5 L 23.5 43.5 L 9 43.5 L 9 44.5 L 23.5 44.5 L 23.5 53.5 L 9 53.5 L 9 54.5 L 23.5 54.5 L 23.5 63.5 L 9 63.5 L 9 64.5 L 23.5 64.5 L 23.5 73.5 L 9 73.5 L 9 74.5 L 23.5 74.5 L 23.5 83.5 L 9 83.5 L 9 84.5 L 23.5 84.5 L 23.5 93.5 L 9 93.5 L 9 94.5 L 23.5 94.5 L 23.5 103.5 L 9 103.5 L 9 104.5 L 23.5 104.5 L 23.5 119 L 24.5 119 L 24.5 104.5 L 33.5 104.5 L 33.5 119 L 34.5 119 L 34.5 104.5 L 43.5 104.5 L 43.5 119 L 44.5 119 L 44.5 104.5 L 53.5 104.5 L 53.5 119 L 54.5 119 L 54.5 104.5 L 63.5 104.5 L 63.5 119 L 64.5 119 L 64.5 104.5 L 73.5 104.5 L 73.5 119 L 74.5 119 L 74.5 104.5 L 83.5 104.5 L 83.5 119 L 84.5 119 L 84.5 104.5 L 93.5 104.5 L 93.5 119 L 94.5 119 L 94.5 104.5 L 103.5 104.5 L 103.5 119 L 104.5 119 L 104.5 104.5 L 119 104.5 L 119 103.5 L 104.5 103.5 L 104.5 94.5 L 119 94.5 L 119 93.5 L 104.5 93.5 L 104.5 84.5 L 119 84.5 L 119 83.5 L 104.5 83.5 L 104.5 74.5 L 119 74.5 L 119 73.5 L 104.5 73.5 L 104.5 64.5 L 119 64.5 L 119 63.5 L 104.5 63.5 L 104.5 54.5 L 119 54.5 L 119 53.5 L 104.5 53.5 L 104.5 44.5 L 119 44.5 L 119 43.5 L 104.5 43.5 L 104.5 34.5 L 119 34.5 L 119 33.5 L 104.5 33.5 L 104.5 24.5 L 119 24.5 L 119 23.5 L 104.5 23.5 L 104.5 9 L 103.5 9 L 103.5 23.5 L 94.5 23.5 L 94.5 9 L 93.5 9 L 93.5 23.5 L 84.5 23.5 L 84.5 9 L 83.5 9 L 83.5 23.5 L 74.5 23.5 L 74.5 9 L 73.5 9 L 73.5 23.5 L 64.5 23.5 L 64.5 9 L 63.5 9 L 63.5 23.5 L 54.5 23.5 L 54.5 9 L 53.5 9 L 53.5 23.5 L 44.5 23.5 L 44.5 9 L 43.5 9 L 43.5 23.5 L 34.5 23.5 L 34.5 9 L 33.5 9 L 33.5 23.5 L 24.5 23.5 L 24.5 9 L 23.5 9 z M 24.5 24.5 L 33.5 24.5 L 33.5 33.5 L 24.5 33.5 L 24.5 24.5 z M 34.5 24.5 L 43.5 24.5 L 43.5 33.5 L 34.5 33.5 L 34.5 24.5 z M 44.5 24.5 L 53.5 24.5 L 53.5 33.5 L 44.5 33.5 L 44.5 24.5 z M 54.5 24.5 L 63.5 24.5 L 63.5 33.5 L 54.5 33.5 L 54.5 24.5 z M 64.5 24.5 L 73.5 24.5 L 73.5 33.5 L 64.5 33.5 L 64.5 24.5 z M 74.5 24.5 L 83.5 24.5 L 83.5 33.5 L 74.5 33.5 L 74.5 24.5 z M 84.5 24.5 L 93.5 24.5 L 93.5 33.5 L 84.5 33.5 L 84.5 24.5 z M 94.5 24.5 L 103.5 24.5 L 103.5 33.5 L 94.5 33.5 L 94.5 24.5 z M 24.5 34.5 L 33.5 34.5 L 33.5 43.5 L 24.5 43.5 L 24.5 34.5 z M 34.5 34.5 L 43.5 34.5 L 43.5 43.5 L 34.5 43.5 L 34.5 34.5 z M 44.5 34.5 L 53.5 34.5 L 53.5 43.5 L 44.5 43.5 L 44.5 34.5 z M 54.5 34.5 L 63.5 34.5 L 63.5 43.5 L 54.5 43.5 L 54.5 34.5 z M 64.5 34.5 L 73.5 34.5 L 73.5 43.5 L 64.5 43.5 L 64.5 34.5 z M 74.5 34.5 L 83.5 34.5 L 83.5 43.5 L 74.5 43.5 L 74.5 34.5 z M 84.5 34.5 L 93.5 34.5 L 93.5 43.5 L 84.5 43.5 L 84.5 34.5 z M 94.5 34.5 L 103.5 34.5 L 103.5 43.5 L 94.5 43.5 L 94.5 34.5 z M 24.5 44.5 L 33.5 44.5 L 33.5 53.5 L 24.5 53.5 L 24.5 44.5 z M 34.5 44.5 L 43.5 44.5 L 43.5 53.5 L 34.5 53.5 L 34.5 44.5 z M 44.5 44.5 L 53.5 44.5 L 53.5 53.5 L 44.5 53.5 L 44.5 44.5 z M 54.5 44.5 L 63.5 44.5 L 63.5 53.5 L 54.5 53.5 L 54.5 44.5 z M 64.5 44.5 L 73.5 44.5 L 73.5 53.5 L 64.5 53.5 L 64.5 44.5 z M 74.5 44.5 L 83.5 44.5 L 83.5 53.5 L 74.5 53.5 L 74.5 44.5 z M 84.5 44.5 L 93.5 44.5 L 93.5 53.5 L 84.5 53.5 L 84.5 44.5 z M 94.5 44.5 L 103.5 44.5 L 103.5 53.5 L 94.5 53.5 L 94.5 44.5 z M 24.5 54.5 L 33.5 54.5 L 33.5 63.5 L 24.5 63.5 L 24.5 54.5 z M 34.5 54.5 L 43.5 54.5 L 43.5 63.5 L 34.5 63.5 L 34.5 54.5 z M 44.5 54.5 L 53.5 54.5 L 53.5 63.5 L 44.5 63.5 L 44.5 54.5 z M 54.5 54.5 L 63.5 54.5 L 63.5 63.5 L 54.5 63.5 L 54.5 54.5 z M 64.5 54.5 L 73.5 54.5 L 73.5 63.5 L 64.5 63.5 L 64.5 54.5 z M 74.5 54.5 L 83.5 54.5 L 83.5 63.5 L 74.5 63.5 L 74.5 54.5 z M 84.5 54.5 L 93.5 54.5 L 93.5 63.5 L 84.5 63.5 L 84.5 54.5 z M 94.5 54.5 L 103.5 54.5 L 103.5 63.5 L 94.5 63.5 L 94.5 54.5 z M 24.5 64.5 L 33.5 64.5 L 33.5 73.5 L 24.5 73.5 L 24.5 64.5 z M 34.5 64.5 L 43.5 64.5 L 43.5 73.5 L 34.5 73.5 L 34.5 64.5 z M 44.5 64.5 L 53.5 64.5 L 53.5 73.5 L 44.5 73.5 L 44.5 64.5 z M 54.5 64.5 L 63.5 64.5 L 63.5 73.5 L 54.5 73.5 L 54.5 64.5 z M 64.5 64.5 L 73.5 64.5 L 73.5 73.5 L 64.5 73.5 L 64.5 64.5 z M 74.5 64.5 L 83.5 64.5 L 83.5 73.5 L 74.5 73.5 L 74.5 64.5 z M 84.5 64.5 L 93.5 64.5 L 93.5 73.5 L 84.5 73.5 L 84.5 64.5 z M 94.5 64.5 L 103.5 64.5 L 103.5 73.5 L 94.5 73.5 L 94.5 64.5 z M 24.5 74.5 L 33.5 74.5 L 33.5 83.5 L 24.5 83.5 L 24.5 74.5 z M 34.5 74.5 L 43.5 74.5 L 43.5 83.5 L 34.5 83.5 L 34.5 74.5 z M 44.5 74.5 L 53.5 74.5 L 53.5 83.5 L 44.5 83.5 L 44.5 74.5 z M 54.5 74.5 L 63.5 74.5 L 63.5 83.5 L 54.5 83.5 L 54.5 74.5 z M 64.5 74.5 L 73.5 74.5 L 73.5 83.5 L 64.5 83.5 L 64.5 74.5 z M 74.5 74.5 L 83.5 74.5 L 83.5 83.5 L 74.5 83.5 L 74.5 74.5 z M 84.5 74.5 L 93.5 74.5 L 93.5 83.5 L 84.5 83.5 L 84.5 74.5 z M 94.5 74.5 L 103.5 74.5 L 103.5 83.5 L 94.5 83.5 L 94.5 74.5 z M 24.5 84.5 L 33.5 84.5 L 33.5 93.5 L 24.5 93.5 L 24.5 84.5 z M 34.5 84.5 L 43.5 84.5 L 43.5 93.5 L 34.5 93.5 L 34.5 84.5 z M 44.5 84.5 L 53.5 84.5 L 53.5 93.5 L 44.5 93.5 L 44.5 84.5 z M 54.5 84.5 L 63.5 84.5 L 63.5 93.5 L 54.5 93.5 L 54.5 84.5 z M 64.5 84.5 L 73.5 84.5 L 73.5 93.5 L 64.5 93.5 L 64.5 84.5 z M 74.5 84.5 L 83.5 84.5 L 83.5 93.5 L 74.5 93.5 L 74.5 84.5 z M 84.5 84.5 L 93.5 84.5 L 93.5 93.5 L 84.5 93.5 L 84.5 84.5 z M 94.5 84.5 L 103.5 84.5 L 103.5 93.5 L 94.5 93.5 L 94.5 84.5 z M 24.5 94.5 L 33.5 94.5 L 33.5 103.5 L 24.5 103.5 L 24.5 94.5 z M 34.5 94.5 L 43.5 94.5 L 43.5 103.5 L 34.5 103.5 L 34.5 94.5 z M 44.5 94.5 L 53.5 94.5 L 53.5 103.5 L 44.5 103.5 L 44.5 94.5 z M 54.5 94.5 L 63.5 94.5 L 63.5 103.5 L 54.5 103.5 L 54.5 94.5 z M 64.5 94.5 L 73.5 94.5 L 73.5 103.5 L 64.5 103.5 L 64.5 94.5 z M 74.5 94.5 L 83.5 94.5 L 83.5 103.5 L 74.5 103.5 L 74.5 94.5 z M 84.5 94.5 L 93.5 94.5 L 93.5 103.5 L 84.5 103.5 L 84.5 94.5 z M 94.5 94.5 L 103.5 94.5 L 103.5 103.5 L 94.5 103.5 L 94.5 94.5 z " /><g
     id="g39777"
     transform="translate(-0.43007931,6.5618876e-5)"><path
       id="path33693"
       style="display:inline;fill:url(#linearGradient33695);fill-rule:evenodd;paint-order:fill markers stroke;stop-color:#000000"
       d="m 43.417969,27.486328 c -2.834187,-0.09193 -5.62107,1.335467 -7.158203,3.964844 L 19.673828,59.822266 c -0.329953,0.564408 -0.573933,1.153502 -0.753906,1.751953 -0.0037,0.01244 -0.008,0.02466 -0.01172,0.03711 -0.779015,2.151881 -0.629455,4.620612 0.621094,6.759766 l 16.585937,28.371094 c 2.23583,3.824551 7.114907,5.104971 10.939454,2.86914 3.824546,-2.235829 5.10497,-7.114905 2.86914,-10.939453 L 35.628906,64.21875 50.066406,39.521484 c 2.23583,-3.824547 0.957359,-8.703624 -2.867187,-10.939453 -1.195171,-0.698697 -2.492983,-1.053917 -3.78125,-1.095703 z" /><path
       id="rect27759"
       style="fill:url(#linearGradient27765);fill-rule:evenodd;paint-order:fill markers stroke;stop-color:#000000"
       d="m 51.334805,-1.6042824 c -2.493157,-1.351013 -4.178693,-3.9897921 -4.178693,-7.0355092 l 0.01885,-19.7941794 15.986607,-9.017339 -0.01316,28.8124227 c 0,4.430134 -3.566112,7.99702762 -7.996246,7.99702762 -1.384417,0 -2.684096,-0.34832596 -3.817349,-0.96242272 z"
       transform="matrix(0.86330264,0.50468659,0.50468659,-0.86330264,0,0)"
       sodipodi:nodetypes="sccccsss" /><path
       id="rect33750"
       style="fill:#ae2033;fill-opacity:0.265847;fill-rule:evenodd;paint-order:fill markers stroke;stop-color:#000000"
       d="M 26.377858,48.357956 37.20187,61.518177 35.63286,64.216108 Z"
       sodipodi:nodetypes="cccc" /></g><g
     id="g39785"
     transform="rotate(180,64.200773,63.999967)"><path
       id="path39779"
       style="display:inline;fill:url(#linearGradient39787);fill-rule:evenodd;paint-order:fill markers stroke;stop-color:#000000"
       d="m 43.417969,27.486325 c -2.834187,-0.0919 -5.62107,1.335467 -7.158203,3.964844 L 19.673828,59.822263 c -0.329953,0.564408 -0.573933,1.153502 -0.753906,1.751953 -0.0037,0.01244 -0.008,0.02466 -0.01172,0.03711 -0.779015,2.151881 -0.629455,4.620612 0.621094,6.759766 l 16.585937,28.371094 c 2.23583,3.824554 7.114907,5.104974 10.939454,2.86914 3.824546,-2.235829 5.10497,-7.114905 2.86914,-10.939453 L 35.628906,64.218747 50.066406,39.521481 c 2.23583,-3.824547 0.957359,-8.703624 -2.867187,-10.939453 -1.195171,-0.698693 -2.492983,-1.053913 -3.78125,-1.095703 z" /><path
       id="path39781"
       style="fill:url(#linearGradient39789);fill-rule:evenodd;paint-order:fill markers stroke;stop-color:#000000"
       d="m 51.334805,-1.6042824 c -2.493157,-1.351013 -4.178693,-3.9897921 -4.178693,-7.0355092 l 0.01885,-19.7941794 15.986607,-9.017339 -0.01316,28.8124227 c 0,4.430134 -3.566112,7.99702762 -7.996246,7.99702762 -1.384417,0 -2.684096,-0.34832596 -3.817349,-0.96242272 z"
       transform="matrix(0.86330264,0.50468659,0.50468659,-0.86330264,0,0)"
       sodipodi:nodetypes="sccccsss" /><path
       id="path39783"
       style="fill:#1c2253;fill-opacity:0.213971;fill-rule:evenodd;paint-order:fill markers stroke;stop-color:#000000"
       d="M 26.377858,48.357956 37.20187,61.518177 35.63286,64.216108 Z"
       sodipodi:nodetypes="cccc" /></g><path
     style="color:#000000;fill:#ffffff;fill-opacity:0.101196;fill-rule:evenodd;stroke-width:0.988536;-inkscape-stroke:none;paint-order:fill markers stroke"
     d="m 29.401235,9.1362443 c -11.218244,0 -20.2649907,9.0467467 -20.2649907,20.2649907 v 69.19753 c 0,11.218245 9.0467467,20.264995 20.2649907,20.264995 h 69.19753 c 11.218245,0 20.264995,-9.04675 20.264995,-20.264995 v -69.19753 c 0,-11.218244 -9.04675,-20.2649907 -20.264995,-20.2649907 z m 0.600877,1.9241867 h 67.995776 c 10.502082,0 18.941682,8.439599 18.941682,18.941681 v 67.995776 c 0,10.502082 -8.4396,18.941682 -18.941682,18.941682 H 30.002112 c -10.502082,0 -18.941681,-8.4396 -18.941681,-18.941682 V 30.002112 c 0,-10.502082 8.439599,-18.941681 18.941681,-18.941681 z"
     id="rect45595"
     sodipodi:nodetypes="ssssssssssssssssss" /></svg>
