<?xml version="1.0" encoding="UTF-8" standalone="no"?>
<!-- Created with Inkscape (http://www.inkscape.org/) -->

<svg
   width="128"
   height="128"
   viewBox="0 0 33.866667 33.866666"
   version="1.1"
   id="svg5"
   inkscape:version="1.2.2 (b0a8486541, 2022-12-01)"
   sodipodi:docname="de.haeckerfelix.Shortwave.svg"
   xml:space="preserve"
   xmlns:inkscape="http://www.inkscape.org/namespaces/inkscape"
   xmlns:sodipodi="http://sodipodi.sourceforge.net/DTD/sodipodi-0.dtd"
   xmlns:xlink="http://www.w3.org/1999/xlink"
   xmlns="http://www.w3.org/2000/svg"
   xmlns:svg="http://www.w3.org/2000/svg"><sodipodi:namedview
     id="namedview7"
     pagecolor="#ffffff"
     bordercolor="#000000"
     borderopacity="0.25"
     inkscape:showpageshadow="2"
     inkscape:pageopacity="0.54901961"
     inkscape:pagecheckerboard="true"
     inkscape:deskcolor="#d1d1d1"
     inkscape:document-units="mm"
     showgrid="true"
     inkscape:zoom="20.477716"
     inkscape:cx="94.566211"
     inkscape:cy="66.364823"
     inkscape:window-width="2560"
     inkscape:window-height="1371"
     inkscape:window-x="0"
     inkscape:window-y="32"
     inkscape:window-maximized="1"
     inkscape:current-layer="svg5"><inkscape:grid
       type="xygrid"
       id="grid152" /></sodipodi:namedview><defs
     id="defs2"><linearGradient
       inkscape:collect="always"
       id="linearGradient942"><stop
         style="stop-color:#ffffff;stop-opacity:1;"
         offset="0.81003147"
         id="stop938" /><stop
         style="stop-color:#a6a6a6;stop-opacity:1;"
         offset="1"
         id="stop940" /></linearGradient><linearGradient
       inkscape:collect="always"
       id="linearGradient7157"><stop
         style="stop-color:#cd2525;stop-opacity:1;"
         offset="0"
         id="stop7153" /><stop
         style="stop-color:#a92121;stop-opacity:1;"
         offset="1"
         id="stop7155" /></linearGradient><linearGradient
       inkscape:collect="always"
       id="linearGradient6503"><stop
         style="stop-color:#3a3a3a;stop-opacity:1;"
         offset="0"
         id="stop6499" /><stop
         style="stop-color:#0f0f0f;stop-opacity:1;"
         offset="1"
         id="stop6501" /></linearGradient><linearGradient
       inkscape:collect="always"
       id="linearGradient6264"><stop
         style="stop-color:#2d2d2d;stop-opacity:1;"
         offset="0"
         id="stop6252" /><stop
         style="stop-color:#737373;stop-opacity:1;"
         offset="0.17122807"
         id="stop6254" /><stop
         style="stop-color:#ffffff;stop-opacity:1;"
         offset="0.40567476"
         id="stop6256" /><stop
         style="stop-color:#ffffff;stop-opacity:1;"
         offset="0.65586346"
         id="stop6258" /><stop
         style="stop-color:#b9b9b9;stop-opacity:1;"
         offset="0.81862557"
         id="stop6260" /><stop
         style="stop-color:#555555;stop-opacity:1;"
         offset="1"
         id="stop6262" /></linearGradient><linearGradient
       inkscape:collect="always"
       id="linearGradient6041"><stop
         style="stop-color:#ffffff;stop-opacity:1;"
         offset="0"
         id="stop6033" /><stop
         style="stop-color:#ffffff;stop-opacity:1;"
         offset="0.43843377"
         id="stop6035" /><stop
         style="stop-color:#a7a7a7;stop-opacity:1;"
         offset="0.87583816"
         id="stop6037" /><stop
         style="stop-color:#4b4b4b;stop-opacity:1;"
         offset="1"
         id="stop6039" /></linearGradient><linearGradient
       inkscape:collect="always"
       id="linearGradient5901"><stop
         style="stop-color:#2e2e2e;stop-opacity:1;"
         offset="0"
         id="stop5897" /><stop
         style="stop-color:#969696;stop-opacity:1;"
         offset="0.17122807"
         id="stop5957" /><stop
         style="stop-color:#ffffff;stop-opacity:1;"
         offset="0.40567476"
         id="stop5967" /><stop
         style="stop-color:#ffffff;stop-opacity:1;"
         offset="0.65586346"
         id="stop5965" /><stop
         style="stop-color:#b9b9b9;stop-opacity:1;"
         offset="0.81862557"
         id="stop5959" /><stop
         style="stop-color:#4f4f4f;stop-opacity:1;"
         offset="1"
         id="stop5899" /></linearGradient><linearGradient
       inkscape:collect="always"
       id="linearGradient5885"><stop
         style="stop-color:#ffffff;stop-opacity:1;"
         offset="0"
         id="stop5881" /><stop
         style="stop-color:#ffffff;stop-opacity:1;"
         offset="0.43843377"
         id="stop5971" /><stop
         style="stop-color:#a8a8a8;stop-opacity:1;"
         offset="0.87722272"
         id="stop5969" /><stop
         style="stop-color:#5d5d5d;stop-opacity:1;"
         offset="1"
         id="stop5883" /></linearGradient><linearGradient
       inkscape:collect="always"
       id="linearGradient4923"><stop
         style="stop-color:#cacaca;stop-opacity:1;"
         offset="0"
         id="stop4919" /><stop
         style="stop-color:#ffffff;stop-opacity:1;"
         offset="0.46611798"
         id="stop4981" /><stop
         style="stop-color:#cacaca;stop-opacity:1;"
         offset="1"
         id="stop4921" /></linearGradient><linearGradient
       inkscape:collect="always"
       id="linearGradient4915"><stop
         style="stop-color:#ffffff;stop-opacity:1;"
         offset="0"
         id="stop4911" /><stop
         style="stop-color:#eeeeee;stop-opacity:1;"
         offset="1"
         id="stop4913" /></linearGradient><radialGradient
       inkscape:collect="always"
       xlink:href="#linearGradient4915"
       id="radialGradient4917"
       cx="65.003139"
       cy="28.317652"
       fx="65.003139"
       fy="28.317652"
       r="14.287147"
       gradientTransform="matrix(1.0655067,0,0,0.16952737,-52.674859,24.319056)"
       gradientUnits="userSpaceOnUse" /><linearGradient
       inkscape:collect="always"
       xlink:href="#linearGradient4923"
       id="linearGradient4925"
       x1="65.713264"
       y1="27.368637"
       x2="65.713264"
       y2="25.093887"
       gradientUnits="userSpaceOnUse"
       gradientTransform="matrix(1.0655067,0,0,1.0655067,-52.674859,-1.0529751)" /><radialGradient
       inkscape:collect="always"
       xlink:href="#linearGradient6041"
       id="radialGradient5887"
       cx="54.759438"
       cy="7.9318037"
       fx="54.759438"
       fy="7.9318037"
       r="1.982769"
       gradientUnits="userSpaceOnUse"
       gradientTransform="matrix(1.3710009,-0.15566652,0.13656911,1.2028043,-70.549685,6.2531015)" /><linearGradient
       inkscape:collect="always"
       xlink:href="#linearGradient6264"
       id="linearGradient5903"
       x1="56.505058"
       y1="22.470869"
       x2="56.50985"
       y2="20.404617"
       gradientUnits="userSpaceOnUse"
       gradientTransform="matrix(1.0351004,-0.25272864,0.25272864,1.0351004,-52.674862,-1.0529758)" /><linearGradient
       inkscape:collect="always"
       xlink:href="#linearGradient5901"
       id="linearGradient5975"
       gradientUnits="userSpaceOnUse"
       x1="56.556835"
       y1="22.088404"
       x2="56.560532"
       y2="20.700941"
       gradientTransform="matrix(1.0351004,-0.25272864,0.25272864,1.0351004,-40.28389,-4.0455565)" /><radialGradient
       inkscape:collect="always"
       xlink:href="#linearGradient5885"
       id="radialGradient5979"
       gradientUnits="userSpaceOnUse"
       cx="54.399506"
       cy="8.2475557"
       fx="54.399506"
       fy="8.2475557"
       r="1.982769"
       gradientTransform="matrix(1.0655067,0,0,1.0655067,-30.992302,-6.5619018)" /><radialGradient
       inkscape:collect="always"
       xlink:href="#linearGradient6503"
       id="radialGradient6505"
       cx="60.28344"
       cy="17.735138"
       fx="60.28344"
       fy="17.735138"
       r="6.5526428"
       gradientUnits="userSpaceOnUse"
       gradientTransform="matrix(1.0655067,0,0,1.0655067,-52.674859,-1.0529751)" /><linearGradient
       inkscape:collect="always"
       xlink:href="#linearGradient7157"
       id="linearGradient7159"
       x1="17.716642"
       y1="8.9069471"
       x2="17.697939"
       y2="28.186417"
       gradientUnits="userSpaceOnUse" /><radialGradient
       inkscape:collect="always"
       xlink:href="#linearGradient942"
       id="radialGradient944"
       cx="25.63955"
       cy="14.112171"
       fx="25.63955"
       fy="14.112171"
       r="2.8072035"
       gradientTransform="translate(0)"
       gradientUnits="userSpaceOnUse" /><radialGradient
       inkscape:collect="always"
       xlink:href="#linearGradient942"
       id="radialGradient944-3"
       cx="25.639549"
       cy="14.112171"
       fx="25.639549"
       fy="14.112171"
       r="2.8072035"
       gradientUnits="userSpaceOnUse" /><radialGradient
       inkscape:collect="always"
       xlink:href="#linearGradient942"
       id="radialGradient1217"
       gradientUnits="userSpaceOnUse"
       gradientTransform="translate(0)"
       cx="25.820152"
       cy="21.097345"
       fx="25.820152"
       fy="21.097345"
       r="2.8072035" /></defs><path
     id="rect5819"
     style="fill:url(#linearGradient5903);fill-rule:evenodd;stroke-width:0.178452;stroke-opacity:0.0694794;paint-order:fill markers stroke;stop-color:#000000"
     d="M 3.7519755,7.6473032 17.411515,4.3122094 c 0.183884,-0.044897 0.368065,0.066995 0.412962,0.2508795 l 0.342452,1.4025799 c 0.0449,0.1838835 -0.06699,0.3680647 -0.25088,0.4129617 L 4.25651,9.7137242 C 4.0726259,9.7586211 3.8884448,9.6467286 3.8435481,9.4628451 l -0.342452,-1.40258 C 3.4561993,7.8763811 3.5680915,7.6922 3.7519755,7.6473032 Z" /><path
     id="path5817"
     style="fill:url(#radialGradient5887);fill-rule:evenodd;stroke-width:0.178452;stroke-opacity:0.0694794;paint-order:fill markers stroke;stop-color:#000000"
     d="M 7.7457595,8.4472843 A 2.1126537,2.1126537 0 0 1 5.6331058,10.559938 2.1126537,2.1126537 0 0 1 3.5204521,8.4472843 2.1126537,2.1126537 0 0 1 5.6331058,6.3346306 2.1126537,2.1126537 0 0 1 7.7457595,8.4472843 Z" /><path
     id="rect376"
     style="fill:url(#linearGradient7159);fill-opacity:1;fill-rule:evenodd;stroke:none;stroke-width:0.17765;stroke-opacity:0.0694794;paint-order:fill markers stroke;stop-color:#000000"
     d="m 10.909355,8.2794706 c -5.2802431,0 -9.5311613,4.2509174 -9.5311613,9.5311604 v 3.679766 c 0,0.427607 0.027991,0.848515 0.082044,1.26091 v 4.718228 c 0,2.166498 1.7439756,3.911024 3.9104739,3.911024 H 27.818217 c 2.166499,0 3.910474,-1.744526 3.910474,-3.911024 v -9.202994 c 0,-0.287551 -0.03139,-0.567356 -0.08975,-0.836936 -0.198866,-5.102059 -4.370402,-9.1501344 -9.522902,-9.1501344 z" /><path
     id="path4715"
     style="fill:url(#radialGradient944);fill-rule:evenodd;stroke:#ffffff;stroke-width:0.160524;stroke-opacity:0.0694794;paint-order:fill markers stroke;stop-color:#000000;fill-opacity:1"
     d="m 28.366492,14.112171 a 2.7269418,2.7269418 0 0 1 -2.726942,2.726943 2.7269418,2.7269418 0 0 1 -2.726941,-2.726943 2.7269418,2.7269418 0 0 1 2.726941,-2.726942 2.7269418,2.7269418 0 0 1 2.726942,2.726942 z" /><path
     id="circle4717"
     style="fill:url(#radialGradient1217);fill-rule:evenodd;stroke:#ffffff;stroke-width:0.160524;stroke-opacity:0.0694794;paint-order:fill markers stroke;stop-color:#000000;fill-opacity:1;font-variation-settings:normal;opacity:1;vector-effect:none;stroke-linecap:butt;stroke-linejoin:miter;stroke-miterlimit:4;stroke-dasharray:none;stroke-dashoffset:0;-inkscape-stroke:none;stop-opacity:1"
     d="m 28.49512,21.137465 a 2.7269418,2.7269418 0 0 1 -2.726942,2.726941 2.7269418,2.7269418 0 0 1 -2.726941,-2.726941 2.7269418,2.7269418 0 0 1 2.726941,-2.726942 2.7269418,2.7269418 0 0 1 2.726942,2.726942 z" /><path
     id="path4773"
     style="fill:url(#radialGradient4917);fill-opacity:1;fill-rule:evenodd;stroke:#ffffff;stroke-width:0.17765;stroke-opacity:0.0694794;paint-order:fill markers stroke;stop-color:#000000"
     d="m 1.4521963,26.786562 v 0.755324 c 0,2.166498 1.7439756,3.911024 3.9104739,3.911024 H 27.810175 c 2.166499,0 3.910475,-1.744526 3.910475,-3.911024 v -0.712168 z"
     sodipodi:nodetypes="csssscc" /><path
     id="rect4771"
     style="fill:url(#linearGradient4925);fill-rule:evenodd;stroke:#000000;stroke-width:0.817244;stroke-opacity:0.286129;paint-order:fill markers stroke;stop-color:#000000"
     d="m 13.579025,25.543646 h 6.843158 c 0.52508,0 0.947798,0.422719 0.947798,0.947798 v 1.32403 c 0,0.525079 -0.422718,0.947797 -0.947798,0.947797 h -6.843158 c -0.525081,0 -0.947798,-0.422718 -0.947798,-0.947797 v -1.32403 c 0,-0.525079 0.422717,-0.947798 0.947798,-0.947798 z" /><path
     id="rect4983"
     style="fill:#af2222;fill-rule:evenodd;stroke-width:0.178452;stroke-opacity:0.0694794;paint-order:fill markers stroke;stop-color:#000000;fill-opacity:1"
     d="M 15.179691,25.935962 V 28.3707 h -0.514517 v -2.434738 z"
     sodipodi:nodetypes="ccccc" /><path
     id="path5879"
     style="fill:url(#radialGradient6505);fill-rule:evenodd;stroke-width:0.178452;stroke-opacity:0.144441;paint-order:fill markers stroke;stop-color:#000000"
     d="m 18.539439,17.843933 a 6.9818849,6.9818849 0 0 1 -6.981885,6.981885 6.9818849,6.9818849 0 0 1 -6.9818847,-6.981885 6.9818849,6.9818849 0 0 1 6.9818847,-6.981885 6.9818849,6.9818849 0 0 1 6.981885,6.981885 z" /><path
     id="circle5977"
     style="fill:url(#radialGradient5979);fill-rule:evenodd;stroke-width:0.178452;stroke-opacity:0.0694794;paint-order:fill markers stroke;stop-color:#000000"
     d="M 29.315234,2.7195384 A 2.1126537,2.1126537 0 0 1 27.202581,4.8321921 2.1126537,2.1126537 0 0 1 25.089927,2.7195384 2.1126537,2.1126537 0 0 1 27.202581,0.60688474 2.1126537,2.1126537 0 0 1 29.315234,2.7195384 Z" /><path
     id="rect5973"
     style="fill:url(#linearGradient5975);fill-rule:evenodd;stroke-width:0.178452;stroke-opacity:0.0694794;paint-order:fill markers stroke;stop-color:#000000"
     d="m 17.87131,4.4644767 7.314291,-1.7858468 c 0.183884,-0.044897 0.368065,0.066995 0.412962,0.2508794 l 0.18294,0.7492709 c 0.0449,0.1838835 -0.06699,0.3680647 -0.250879,0.4129617 l -7.31429,1.7858468 C 18.03245,5.9224854 17.848269,5.8105929 17.803372,5.6267094 L 17.620431,4.8774386 c -0.0449,-0.1838841 0.067,-0.3680652 0.250879,-0.4129619 z" /><path
     id="rect6043"
     style="fill:#cd2532;fill-rule:evenodd;stroke-width:0.178452;stroke-opacity:0.0694794;paint-order:fill markers stroke;stop-color:#000000"
     d="m 25.656816,11.57395 c 0.177195,0 0.29268,0.142653 0.29268,0.319849 v 0.600284 c 0,0.177197 -0.115485,0.319849 -0.29268,0.319849 -0.177197,0 -0.292682,-0.142652 -0.292682,-0.319849 v -0.600284 c 0,-0.177196 0.115485,-0.319849 0.292682,-0.319849 z"
     sodipodi:nodetypes="sssssss" /><path
     id="rect6045"
     style="fill:#cd2532;fill-rule:evenodd;stroke-width:0.178452;stroke-opacity:0.0694794;paint-order:fill markers stroke;stop-color:#000000"
     d="m 23.220067,20.950647 c 0,-0.177196 0.142653,-0.292681 0.31985,-0.292681 H 24.1402 c 0.177197,0 0.31985,0.115485 0.31985,0.292681 0,0.177196 -0.142653,0.279097 -0.31985,0.279097 h -0.600283 c -0.177197,0 -0.31985,-0.101901 -0.31985,-0.279097 z"
     sodipodi:nodetypes="sssssss" /><path
     style="color:#000000;fill:#000000;fill-opacity:0.113253;fill-rule:evenodd;stroke-width:1.07273;-inkscape-stroke:none;paint-order:fill markers stroke"
     d="m 11.039422,8.2567444 c -5.3139066,0 -9.6001367,4.2862306 -9.6001367,9.6001366 v 3.595337 c 0,0.419023 0.027977,0.831398 0.079618,1.236159 v 4.60312 c 0,2.272357 1.8383463,4.112848 4.1107521,4.112848 H 27.55786 c 2.272407,0 4.110752,-1.840491 4.110752,-4.112848 v -8.988342 c 0,-0.284758 -0.03332,-0.561767 -0.088,-0.829693 -8.9e-5,-0.0023 -0.002,-0.004 -0.0021,-0.0063 -0.203664,-5.13272 -4.408702,-9.2104315 -9.591756,-9.2104315 z m 0,0.5824613 h 10.94734 c 4.880652,0 8.823069,3.8257783 9.01139,8.6573033 l 0.0021,0.02515 0.0042,0.02514 c 0.05276,0.243727 0.08171,0.496645 0.08171,0.756361 v 8.988342 c 0,1.960152 -1.568187,3.530387 -3.52829,3.530387 H 5.6296547 C 3.669552,30.821884 2.1013642,29.25165 2.1013642,27.291497 v -4.626168 l -0.00215,-0.01886 c -0.051169,-0.390373 -0.077527,-0.78926 -0.077527,-1.194255 v -3.595336 c 0,-5.001669 4.0160072,-9.0176755 9.0176748,-9.0176755 z"
     id="path6047" /><path
     id="path6183"
     style="font-size:0.934766px;fill-rule:evenodd;stroke-width:0.240608;stroke-opacity:0.286129;paint-order:fill markers stroke"
     d="m 18.101074,27.296856 c -0.04516,0 -0.08626,0.0087 -0.122787,0.02533 -0.03585,0.01593 -0.06791,0.03512 -0.09581,0.05837 l 0.0468,0.05891 c 0.02722,-0.02125 0.05394,-0.0376 0.07984,-0.04956 0.02656,-0.01196 0.05742,-0.01817 0.09195,-0.01817 0.03717,0 0.06706,0.01023 0.0903,0.03084 0.02324,0.01991 0.03469,0.04947 0.03469,0.08865 0,0.03187 -0.0061,0.06143 -0.01872,0.08865 -0.01262,0.02656 -0.03104,0.05361 -0.05561,0.08149 -0.02456,0.02788 -0.05499,0.05995 -0.09085,0.09581 l -0.186108,0.188311 v 0.07268 h 0.470226 v -0.07984 h -0.359553 v -0.0038 l 0.148116,-0.146464 c 0.03651,-0.03585 0.06858,-0.06956 0.09581,-0.100765 0.02722,-0.03187 0.0486,-0.06382 0.06387,-0.09635 0.01527,-0.03253 0.02258,-0.06743 0.02258,-0.104611 0,-0.05909 -0.0193,-0.105006 -0.05781,-0.138205 -0.03851,-0.03386 -0.09053,-0.05121 -0.156926,-0.05121 z m -1.856676,0.0099 v 0.711395 h 0.08975 v -0.301738 h 0.288524 v -0.07874 h -0.288524 v -0.252182 h 0.307794 v -0.07874 z m 0.517027,0 v 0.711395 h 0.08259 v -0.431132 c 0,-0.03785 -8.53e-4,-0.07395 -0.0022,-0.108472 -0.0014,-0.03519 -0.003,-0.06311 -0.005,-0.08369 h 0.0038 l 0.234012,0.623297 h 0.07433 l 0.236765,-0.622747 h 0.0038 c -0.0014,0.02126 -0.003,0.04928 -0.0049,0.08314 -0.0014,0.03386 -0.0022,0.06788 -0.0022,0.102416 v 0.43719 h 0.08865 v -0.711396 h -0.131047 l -0.22355,0.583102 h -0.0038 L 16.89353,27.306757 Z m 2.008648,0 -0.02698,0.335875 0.04405,0.02808 c 0.01461,-0.0033 0.03391,-0.0066 0.05781,-0.0099 0.02391,-0.0033 0.04528,-0.005 0.06387,-0.005 0.06176,0 0.106903,0.01221 0.135451,0.03744 0.02855,0.02457 0.0424,0.06034 0.0424,0.10682 0,0.05245 -0.01592,0.09149 -0.04845,0.116731 -0.03187,0.02457 -0.07418,0.03634 -0.126641,0.03634 -0.03121,0 -0.06403,-0.0036 -0.09856,-0.01156 -0.03387,-0.0086 -0.06309,-0.02064 -0.087,-0.03524 v 0.08314 c 0.02192,0.01265 0.04907,0.02202 0.08094,0.02863 0.03254,0.0066 0.067,0.0099 0.103514,0.0099 0.08366,0 0.148991,-0.02094 0.195469,-0.06277 0.04715,-0.04249 0.07048,-0.100296 0.07048,-0.173995 0,-0.0664 -0.02126,-0.118204 -0.06442,-0.154722 -0.04316,-0.03651 -0.1015,-0.05451 -0.174545,-0.05451 -0.02324,0 -0.04461,0.0013 -0.06387,0.0038 -0.01925,0.0027 -0.03442,0.0052 -0.0457,0.0071 l 0.01707,-0.20648 h 0.281915 v -0.07984 z m -0.245575,0.59081 c -0.01464,8.46e-4 -0.02716,0.0059 -0.038,0.01486 -0.01196,0.0099 -0.01817,0.02718 -0.01817,0.05175 0,0.0239 0.0062,0.04113 0.01817,0.05176 0.01194,0.01065 0.0258,0.01597 0.0424,0.01597 0.01726,0 0.03209,-0.0053 0.04405,-0.01597 0.01262,-0.01065 0.01872,-0.02785 0.01872,-0.05176 0,-0.02457 -0.0061,-0.0418 -0.01872,-0.05175 -0.01195,-0.0099 -0.02679,-0.01486 -0.04405,-0.01486 -0.0016,0 -0.0029,-8.7e-5 -0.0044,0 z" /><path
     id="rect6113"
     style="fill:#5e5e5e;fill-rule:evenodd;stroke-width:0.0633363;stroke-opacity:0.0694794;paint-order:fill markers stroke;stop-color:#000000"
     d="m 15.523437,25.942651 h 0.109993 v 1.12987 h -0.109993 z" /><path
     id="rect6167"
     style="fill:#5e5e5e;fill-rule:evenodd;stroke-width:0.0633363;stroke-opacity:0.0694794;paint-order:fill markers stroke;stop-color:#000000"
     d="m 13.708128,25.942651 h 0.109992 v 1.12987 h -0.109992 z" /><path
     id="rect6169"
     style="fill:#5e5e5e;fill-rule:evenodd;stroke-width:0.0518761;stroke-opacity:0.0694794;paint-order:fill markers stroke;stop-color:#000000"
     d="m 16.227196,25.942651 h 0.109993 v 0.757982 h -0.109993 z" /><path
     id="rect6171"
     style="fill:#5e5e5e;fill-rule:evenodd;stroke-width:0.0518761;stroke-opacity:0.0694794;paint-order:fill markers stroke;stop-color:#000000"
     d="m 16.749414,25.942651 h 0.109992 v 0.757982 h -0.109992 z" /><path
     id="rect6173"
     style="fill:#5e5e5e;fill-rule:evenodd;stroke-width:0.0518761;stroke-opacity:0.0694794;paint-order:fill markers stroke;stop-color:#000000"
     d="m 17.271632,25.942651 h 0.109992 v 0.757982 h -0.109992 z" /><path
     id="rect6175"
     style="fill:#5e5e5e;fill-rule:evenodd;stroke-width:0.0518761;stroke-opacity:0.0694794;paint-order:fill markers stroke;stop-color:#000000"
     d="m 17.793842,25.942651 h 0.109992 v 0.757982 h -0.109992 z" /><path
     id="rect6177"
     style="fill:#5e5e5e;fill-rule:evenodd;stroke-width:0.0518761;stroke-opacity:0.0694794;paint-order:fill markers stroke;stop-color:#000000"
     d="m 18.31606,25.942651 h 0.109992 v 0.757982 H 18.31606 Z" /><path
     id="rect6179"
     style="fill:#5e5e5e;fill-rule:evenodd;stroke-width:0.0518761;stroke-opacity:0.0694794;paint-order:fill markers stroke;stop-color:#000000"
     d="m 18.838279,25.942651 h 0.109993 v 0.757982 h -0.109993 z" /><path
     id="rect6181"
     style="fill:#5e5e5e;fill-rule:evenodd;stroke-width:0.0633363;stroke-opacity:0.0694794;paint-order:fill markers stroke;stop-color:#000000"
     d="m 19.470286,25.942651 h 0.109992 v 1.12987 h -0.109992 z" /><path
     id="circle6402"
     style="fill:#ffffff;fill-opacity:0.0486518;fill-rule:evenodd;stroke:#ffffff;stroke-width:0.135608;stroke-opacity:0.144441;paint-order:fill markers stroke;stop-color:#000000"
     d="m 16.863185,17.843933 a 5.305631,5.305631 0 0 1 -5.305631,5.305631 5.305631,5.305631 0 0 1 -5.3056308,-5.305631 5.305631,5.305631 0 0 1 5.3056308,-5.305631 5.305631,5.305631 0 0 1 5.305631,5.305631 z" /><path
     id="circle6435"
     style="fill:#020202;fill-rule:evenodd;stroke-width:0.0757443;stroke-opacity:0.0694794;paint-order:fill markers stroke;stop-color:#000000"
     d="m 14.521026,17.843933 a 2.9634723,2.9634723 0 0 1 -2.963472,2.963473 2.9634723,2.9634723 0 0 1 -2.9634721,-2.963473 2.9634723,2.9634723 0 0 1 2.9634721,-2.963472 2.9634723,2.9634723 0 0 1 2.963472,2.963472 z" /><path
     id="rect6266"
     style="fill:url(#linearGradient7159);fill-opacity:1;fill-rule:evenodd;stroke:none;stroke-width:0.17765;stroke-dasharray:none;stroke-opacity:0.0694794;paint-order:fill markers stroke;stop-color:#000000;font-variation-settings:normal;opacity:1;vector-effect:none;stroke-linecap:butt;stroke-linejoin:miter;stroke-miterlimit:4;stroke-dashoffset:0;-inkscape-stroke:none;stop-opacity:1"
     d="m 6.3587061,11.774722 v 0.868873 H 16.792104 v -0.868873 z m -1.2139194,1.93101 v 0.861714 H 18.006023 v -0.861714 z m -0.6381639,1.923851 v 0.869423 H 18.644187 v -0.869423 z m 0,1.927707 v 0.868871 H 18.644187 V 17.55729 Z m 0,1.927155 v 0.869423 H 18.644187 v -0.869423 z m 0.5291666,1.927706 v 0.869423 H 18.115021 v -0.869423 z m 1.5875,1.927706 v 0.869423 h 9.6396476 v -0.869423 z"
     sodipodi:nodetypes="ccccccccccccccccccccccccccccccccccc" /><path
     id="rect6583"
     style="fill:#811720;fill-opacity:1;fill-rule:evenodd;stroke:none;stroke-width:0.178452;stroke-opacity:0.0694794;paint-order:fill markers stroke;stop-color:#000000"
     d="m 25.673925,10.42296 c -0.05955,0 -0.10737,0.06564 -0.10737,0.147015 v 0.296231 c 0,0.08138 0.04782,0.147014 0.10737,0.147014 0.05955,0 0.10737,-0.06564 0.10737,-0.147014 v -0.296231 c 0,-0.08138 -0.04782,-0.147015 -0.10737,-0.147015 z m -0.947611,0.112877 v 5.5e-4 c -0.0028,2e-4 -0.0055,9.8e-5 -0.0083,5.51e-4 -0.05863,0.01044 -0.09464,0.08341 -0.08039,0.163533 l 0.05176,0.291826 c 0.01425,0.08013 0.07297,0.135968 0.131598,0.125541 0.05863,-0.01044 0.09464,-0.08341 0.08039,-0.163533 l -0.05176,-0.291276 c -0.01358,-0.07636 -0.06754,-0.131275 -0.123339,-0.127192 z m 1.85062,0.0066 c -0.05195,0.003 -0.100136,0.0556 -0.112875,0.127192 l -0.05176,0.291276 c -0.01425,0.08013 0.02176,0.153091 0.08039,0.163533 0.05864,0.01044 0.117352,-0.04541 0.131597,-0.125541 l 0.05176,-0.291826 c 0.01425,-0.08013 -0.02176,-0.153091 -0.08039,-0.163533 -0.0028,-4.53e-4 -0.0055,-9.01e-4 -0.0083,-0.0011 -0.0035,-2.55e-4 -0.007,-1.97e-4 -0.01044,0 z m -2.609919,0.272004 c -0.0031,-1.28e-4 -0.0063,3.48e-4 -0.0094,5.51e-4 -0.0091,5.97e-4 -0.01786,0.003 -0.02642,0.0066 -0.0548,0.02332 -0.07371,0.102416 -0.04184,0.177298 l 0.11618,0.272556 c 0.03187,0.07488 0.101575,0.116375 0.156375,0.09305 0.0548,-0.02331 0.07316,-0.102416 0.0413,-0.177298 l -0.115629,-0.272554 c -0.0252,-0.05923 -0.07411,-0.09829 -0.120585,-0.100211 z m 3.379681,0.0066 c -0.04648,0.0019 -0.09538,0.04043 -0.120586,0.09966 l -0.115629,0.272554 c -0.03186,0.07488 -0.0135,0.153975 0.0413,0.177298 0.0548,0.02332 0.124506,-0.01817 0.156375,-0.09305 l 0.116181,-0.272555 c 0.03187,-0.07488 0.01296,-0.153974 -0.04185,-0.177298 -0.0085,-0.0036 -0.01737,-0.006 -0.02642,-0.0066 -0.0031,-2.03e-4 -0.0063,-1.29e-4 -0.0094,0 z m -3.992516,0.412962 c -0.0029,-5.1e-5 -0.006,3.43e-4 -0.0088,5.5e-4 -0.01383,10e-4 -0.02677,0.0052 -0.03854,0.01266 -0.05026,0.03194 -0.05576,0.113018 -0.01211,0.181703 l 0.159128,0.249979 c 0.04364,0.06868 0.119325,0.09856 0.16959,0.06663 0.05026,-0.03194 0.0552,-0.113017 0.01156,-0.181703 L 23.476382,11.31385 c -0.03133,-0.0493 -0.07914,-0.07909 -0.122236,-0.07984 z m 4.605351,0.0066 c -0.0431,7.51e-4 -0.09091,0.02998 -0.122237,0.07928 l -0.158577,0.24998 c -0.04364,0.06868 -0.0387,0.149759 0.01156,0.181703 0.05027,0.03193 0.125946,0.002 0.169589,-0.06663 l 0.159128,-0.24998 c 0.04364,-0.06868 0.03815,-0.149759 -0.01212,-0.181703 -0.01177,-0.0075 -0.02471,-0.01165 -0.03854,-0.01267 -0.0029,-2.08e-4 -0.006,-5e-5 -0.0088,0 z m -5.138898,0.558324 c -0.0238,0.0021 -0.04488,0.01214 -0.06002,0.02918 -0.03955,0.04453 -0.0223,0.123801 0.03854,0.177848 l 0.221349,0.197121 c 0.06084,0.05405 0.1416,0.0616 0.181152,0.01707 0.03955,-0.04453 0.0223,-0.123802 -0.03854,-0.177849 l -0.221348,-0.197121 c -0.03422,-0.0304 -0.07471,-0.04623 -0.110673,-0.04625 -0.0035,-2e-6 -0.007,-3.03e-4 -0.01044,0 z m 5.661983,0.0061 c -0.03596,2.1e-5 -0.07645,0.01585 -0.110674,0.04625 l -0.221347,0.19712 c -0.06084,0.05404 -0.07809,0.133322 -0.03854,0.177849 0.03955,0.04453 0.120312,0.03698 0.181153,-0.01707 l 0.221347,-0.19712 c 0.06084,-0.05404 0.07809,-0.133322 0.03854,-0.177849 -0.0173,-0.01949 -0.04251,-0.02919 -0.07047,-0.02918 z m -6.00887,0.602924 c -0.04079,8.97e-4 -0.07568,0.01817 -0.09195,0.04956 -0.0274,0.05287 0.0087,0.125529 0.08094,0.162982 l 0.263195,0.136553 c 0.07225,0.03745 0.152093,0.02478 0.179501,-0.02809 0.02741,-0.05287 -0.0087,-0.125529 -0.08094,-0.162982 l -0.262643,-0.136553 c -0.02936,-0.01521 -0.06019,-0.02209 -0.0881,-0.02147 z m 6.355207,0.0061 c -0.025,0.0011 -0.0514,0.0082 -0.07709,0.02147 l -0.262644,0.136552 c -0.0722,0.03745 -0.108346,0.110112 -0.08094,0.162983 0.0274,0.05287 0.107249,0.06553 0.179501,0.02808 l 0.263194,-0.136553 c 0.0722,-0.03745 0.108345,-0.110111 0.08094,-0.162982 -0.01627,-0.03139 -0.05117,-0.04866 -0.09195,-0.04956 -0.0035,-7.8e-5 -0.0075,-1.59e-4 -0.01102,0 z" /><path
     id="path6668"
     style="fill:#811720;fill-opacity:1;fill-rule:evenodd;stroke:none;stroke-width:0.178452;stroke-opacity:0.0694794;paint-order:fill markers stroke;stop-color:#000000"
     d="m 25.749999,17.493775 c -0.05955,0 -0.10737,0.06564 -0.10737,0.147014 v 0.296231 c 0,0.08138 0.04782,0.147015 0.10737,0.147015 0.05955,0 0.10737,-0.06564 0.10737,-0.147015 v -0.296231 c 0,-0.08138 -0.04782,-0.147014 -0.10737,-0.147014 z m -0.947611,0.112876 v 5.5e-4 c -0.0028,2.01e-4 -0.0055,9.8e-5 -0.0083,5.51e-4 -0.05864,0.01044 -0.09464,0.08341 -0.08039,0.163533 l 0.05176,0.291826 c 0.01425,0.08013 0.07297,0.135969 0.131598,0.125542 0.05863,-0.01044 0.09464,-0.08341 0.08039,-0.163533 l -0.05175,-0.291277 c -0.01359,-0.07636 -0.06754,-0.131275 -0.123338,-0.127192 z m 1.85062,0.0066 c -0.05195,0.003 -0.100136,0.0556 -0.112875,0.127191 l -0.05176,0.291277 c -0.01424,0.08013 0.02176,0.153091 0.08039,0.163533 0.05863,0.01044 0.117352,-0.04541 0.131597,-0.125542 l 0.05176,-0.291826 c 0.01425,-0.08013 -0.02176,-0.153091 -0.08039,-0.163533 -0.0028,-4.53e-4 -0.0055,-9e-4 -0.0083,-0.0011 -0.0035,-2.56e-4 -0.007,-1.97e-4 -0.01044,0 z m -2.609919,0.272003 c -0.0031,-1.28e-4 -0.0063,3.49e-4 -0.0094,5.51e-4 -0.0091,5.98e-4 -0.01786,0.003 -0.02642,0.0066 -0.0548,0.02332 -0.07371,0.102417 -0.04184,0.177298 l 0.11618,0.272556 c 0.03187,0.07488 0.101575,0.116376 0.156375,0.09305 0.0548,-0.02331 0.07316,-0.102417 0.0413,-0.177299 L 24.16367,17.98547 c -0.0252,-0.05923 -0.07411,-0.09829 -0.120585,-0.100211 z m 3.379681,0.0066 c -0.04648,0.0019 -0.09538,0.04043 -0.120586,0.09966 l -0.115629,0.272555 c -0.03186,0.07488 -0.0135,0.153974 0.0413,0.177298 0.0548,0.02332 0.124506,-0.01817 0.156375,-0.09305 l 0.116181,-0.272554 c 0.03187,-0.07488 0.01295,-0.153975 -0.04185,-0.177299 -0.0085,-0.0036 -0.01737,-0.006 -0.02642,-0.0066 -0.0031,-2.02e-4 -0.0063,-1.29e-4 -0.0094,0 z m -3.992516,0.412962 c -0.0029,-5e-5 -0.006,3.43e-4 -0.0088,5.51e-4 -0.01383,0.001 -0.02677,0.0052 -0.03854,0.01266 -0.05026,0.03194 -0.05576,0.113018 -0.01212,0.181703 l 0.159128,0.24998 c 0.04364,0.06868 0.119325,0.09856 0.16959,0.06663 0.05026,-0.03194 0.0552,-0.113017 0.01156,-0.181703 l -0.158578,-0.24998 c -0.03133,-0.04931 -0.07914,-0.07909 -0.122236,-0.07984 z m 4.605351,0.0066 c -0.0431,7.51e-4 -0.09091,0.02998 -0.122237,0.07928 l -0.158577,0.24998 c -0.04364,0.06868 -0.0387,0.149759 0.01156,0.181703 0.05026,0.03193 0.125946,0.002 0.169589,-0.06663 l 0.159128,-0.24998 c 0.04364,-0.06868 0.03815,-0.149759 -0.01211,-0.181703 -0.01177,-0.0075 -0.02471,-0.01165 -0.03854,-0.01267 -0.0028,-2.07e-4 -0.006,-5e-5 -0.0088,0 z m -5.138898,0.558325 c -0.0238,0.0021 -0.04488,0.01213 -0.06002,0.02918 -0.03955,0.04453 -0.0223,0.1238 0.03854,0.177848 l 0.221349,0.197121 c 0.06084,0.05405 0.1416,0.0616 0.181152,0.01707 0.03955,-0.04453 0.0223,-0.123801 -0.03854,-0.177849 L 23.01784,18.916012 c -0.03422,-0.0304 -0.07471,-0.04623 -0.110673,-0.04625 -0.0035,-2e-6 -0.007,-3.02e-4 -0.01044,0 z m 5.661983,0.0061 c -0.03596,2.1e-5 -0.07645,0.01585 -0.110674,0.04625 l -0.221347,0.197119 c -0.06084,0.05404 -0.07809,0.133322 -0.03854,0.177849 0.03955,0.04453 0.120312,0.03698 0.181153,-0.01707 l 0.221347,-0.19712 c 0.06084,-0.05404 0.07809,-0.133321 0.03854,-0.177849 -0.0173,-0.01949 -0.04251,-0.0292 -0.07048,-0.02918 z m -6.00887,0.602924 c -0.04079,8.98e-4 -0.07568,0.01817 -0.09195,0.04956 -0.0274,0.05287 0.0087,0.12553 0.08094,0.162982 l 0.263195,0.136553 c 0.07225,0.03745 0.152093,0.0248 0.179501,-0.02808 0.02741,-0.05287 -0.0087,-0.125529 -0.08095,-0.162982 l -0.262643,-0.136553 c -0.02935,-0.01521 -0.06019,-0.02209 -0.0881,-0.02147 z m 6.355207,0.0061 c -0.025,0.0011 -0.0514,0.0082 -0.07709,0.02147 l -0.262644,0.136552 c -0.0722,0.03745 -0.108346,0.110111 -0.08094,0.162982 0.0274,0.05287 0.107249,0.06554 0.179501,0.02808 l 0.263194,-0.136552 c 0.0722,-0.03745 0.108345,-0.110112 0.08094,-0.162982 -0.01627,-0.03139 -0.05117,-0.04866 -0.09195,-0.04956 -0.0035,-7.8e-5 -0.0075,-1.59e-4 -0.01102,0 z" /></svg>
