<?xml version="1.0" encoding="UTF-8" standalone="no"?>
<svg
   height="16"
   viewBox="0 0 16 16"
   width="16"
   version="1.1"
   id="svg17"
   sodipodi:docname="text-x-generic-symbolic.svg"
   inkscape:version="1.2.2 (b0a8486541, 2022-12-01)"
   xmlns:inkscape="http://www.inkscape.org/namespaces/inkscape"
   xmlns:sodipodi="http://sodipodi.sourceforge.net/DTD/sodipodi-0.dtd"
   xmlns:xlink="http://www.w3.org/1999/xlink"
   xmlns="http://www.w3.org/2000/svg"
   xmlns:svg="http://www.w3.org/2000/svg"
   xmlns:osb="http://www.openswatchbook.org/uri/2009/osb">
  <sodipodi:namedview
     id="namedview19"
     pagecolor="#ffffff"
     bordercolor="#000000"
     borderopacity="0.25"
     inkscape:showpageshadow="2"
     inkscape:pageopacity="0.0"
     inkscape:pagecheckerboard="0"
     inkscape:deskcolor="#d1d1d1"
     showgrid="true"
     inkscape:zoom="64.1875"
     inkscape:cx="6.6212269"
     inkscape:cy="7.9922103"
     inkscape:window-width="2400"
     inkscape:window-height="1281"
     inkscape:window-x="1920"
     inkscape:window-y="32"
     inkscape:window-maximized="1"
     inkscape:current-layer="svg17">
    <inkscape:grid
       type="xygrid"
       id="grid827" />
  </sodipodi:namedview>
  <title
     id="title2">Template icons dark</title>
  <defs
     id="defs9">
    <linearGradient
       xlink:href="#a"
       id="b"
       gradientUnits="userSpaceOnUse"
       gradientTransform="matrix(0.66667,0,0,0.66667,106.848,134)"
       x1="-153.424"
       y1="-84"
       x2="-129.424"
       y2="-84" />
    <linearGradient
       id="a"
       osb:paint="solid">
      <stop
         offset="0"
         stop-color="#afafaf"
         id="stop5" />
    </linearGradient>
    <linearGradient
       gradientTransform="translate(69,516)"
       xlink:href="#a"
       id="c"
       x1="3"
       y1="-436.5"
       x2="15"
       y2="-436.5"
       gradientUnits="userSpaceOnUse" />
  </defs>
  <path
     style="color:#000000;isolation:auto;mix-blend-mode:normal;fill:#000000;fill-opacity:1;marker:none"
     d="m 2,3 v 10 c 0,2 2,2 2,2 h 8 c 2,0 2,-2.021323 2,-2.021323 V 5 L 10,1 H 4 C 4,1 2,1 2,3 Z M 3,3 C 3,2 4.0078239,2 4.0078239,2 H 10 v 3 h 3 v 8 c 0,1 -1,1 -1,1 H 3.9768326 C 3.9768326,14 3,14 3,13 Z"
     overflow="visible"
     fill="url(#b)"
     paint-order="fill markers stroke"
     id="path11"
     sodipodi:nodetypes="ccccccccccccccccccc" />
  <path
     d="M 4,4 C 4,3 4.9553158,3 4.9553158,3 H 9 v 3 h 3 v 7 H 5 c 0,0 -1,0 -1,-1.015264 z"
     style="color:#000000;isolation:auto;mix-blend-mode:normal;fill:#000000;fill-opacity:1;marker:none"
     overflow="visible"
     opacity="0.2"
     fill="url(#c)"
     id="path13"
     sodipodi:nodetypes="ccccccccc" />
</svg>
