<?xml version="1.0" encoding="UTF-8" standalone="no"?>
<svg
   height="128"
   width="128"
   version="1.1"
   id="svg998"
   sodipodi:docname="folder-symbolic.svg"
   inkscape:version="1.2.2 (b0a8486541, 2022-12-01)"
   xmlns:inkscape="http://www.inkscape.org/namespaces/inkscape"
   xmlns:sodipodi="http://sodipodi.sourceforge.net/DTD/sodipodi-0.dtd"
   xmlns="http://www.w3.org/2000/svg"
   xmlns:svg="http://www.w3.org/2000/svg">
  <defs
     id="defs1002" />
  <sodipodi:namedview
     id="namedview1000"
     pagecolor="#ffffff"
     bordercolor="#000000"
     borderopacity="0.25"
     inkscape:showpageshadow="2"
     inkscape:pageopacity="0.0"
     inkscape:pagecheckerboard="0"
     inkscape:deskcolor="#d1d1d1"
     showgrid="true"
     inkscape:zoom="8.0234375"
     inkscape:cx="20.938656"
     inkscape:cy="64.062317"
     inkscape:window-width="2400"
     inkscape:window-height="1281"
     inkscape:window-x="1920"
     inkscape:window-y="32"
     inkscape:window-maximized="1"
     inkscape:current-layer="svg998">
    <inkscape:grid
       type="xygrid"
       id="grid1037" />
  </sodipodi:namedview>
  <path
     style="display:inline;opacity:0.2;fill:#000000;fill-opacity:1;stroke-width:1.03704"
     d="M236 220c-11.08 0-20 8.92-20 20v60c0 11.08 8.92 20 20 20h72c11.08 0 20-8.92 20-20v-40c0-11.08-8.92-19.95-20-20-18.425 0-14.205-20-36.882-20z"
     transform="translate(-208 -208)"
     id="path992" />
  <path
     style="display:inline;fill:#000000;fill-opacity:1;stroke-width:1.03704;opacity:0.4"
     d="M236 220c-11.08 0-20 8.92-20 20v64c0 11.08 8.92 20 20 20h72c11.08 0 20-8.92 20-20v-44c0-11.08-8.924-19.703-20-20-36.882 0-20.882-20-48.882-20z"
     transform="translate(-208 -208)"
     id="path994" />
  <path
     style="display:inline;fill:#000000;fill-opacity:1;stroke-width:1.03704"
     d="M236 220c-11.08 0-20 8.92-20 20v60c0 11.08 8.92 20 20 20h72c11.08 0 20-8.92 20-20v-40c0-11.08-8.92-19.95-20-20-56 0-32-20-60-20zm0 12h16c2.216 0 4 1.784 4 4s-1.784 4-4 4h-16c-2.216 0-4-1.784-4-4s1.784-4 4-4z"
     transform="translate(-208 -208)"
     id="path996" />
</svg>
