<?xml version="1.0" encoding="UTF-8" standalone="no"?>
<svg
   height="128"
   width="128"
   version="1.1"
   id="svg8"
   sodipodi:docname="starred-symbolic.svg"
   inkscape:version="1.2.2 (b0a8486541, 2022-12-01)"
   xmlns:inkscape="http://www.inkscape.org/namespaces/inkscape"
   xmlns:sodipodi="http://sodipodi.sourceforge.net/DTD/sodipodi-0.dtd"
   xmlns="http://www.w3.org/2000/svg"
   xmlns:svg="http://www.w3.org/2000/svg">
  <defs
     id="defs12" />
  <sodipodi:namedview
     id="namedview10"
     pagecolor="#ffffff"
     bordercolor="#000000"
     borderopacity="0.25"
     inkscape:showpageshadow="2"
     inkscape:pageopacity="0.0"
     inkscape:pagecheckerboard="0"
     inkscape:deskcolor="#d1d1d1"
     showgrid="false"
     inkscape:zoom="6.2592072"
     inkscape:cx="62.787504"
     inkscape:cy="53.041861"
     inkscape:window-width="2400"
     inkscape:window-height="1281"
     inkscape:window-x="1920"
     inkscape:window-y="32"
     inkscape:window-maximized="1"
     inkscape:current-layer="svg8" />
  <path
     sodipodi:type="star"
     style="opacity:1;fill:#000000;fill-opacity:0.40000001;fill-rule:evenodd;stroke:#000000;stroke-width:0.360589;stroke-dasharray:none;stroke-opacity:1;paint-order:fill markers stroke;stop-color:#000000"
     id="path999"
     inkscape:flatsided="false"
     sodipodi:sides="5"
     sodipodi:cx="-5.5264387"
     sodipodi:cy="4.9939485"
     sodipodi:r1="3.4622405"
     sodipodi:r2="1.7657427"
     sodipodi:arg1="0.9259979"
     sodipodi:arg2="1.5543164"
     inkscape:rounded="0.15"
     inkscape:randomized="0"
     d="M -3.4455029,7.7610435 C -3.7192259,7.9668912 -5.1548999,6.7538074 -5.4973407,6.7594513 -5.8397816,6.7650952 -7.2347001,8.0248311 -7.515058,7.8281154 -7.7954158,7.6313998 -7.0853523,5.8911292 -7.19654,5.5671927 -7.3077277,5.2432562 -8.9368612,4.3058896 -8.8364088,3.9784649 -8.7359565,3.6510403 -6.8614391,3.7885777 -6.587716,3.58273 c 0.273723,-0.2058477 0.6617817,-2.0449079 1.0042225,-2.0505519 0.3424408,-0.00564 0.7908927,1.8196295 1.0712506,2.0163451 0.2803578,0.1967157 2.1493248,-0.00252 2.2605125,0.3214171 0.1111877,0.3239365 -1.4861711,1.3144801 -1.5866235,1.6419047 -0.1004524,0.3274247 0.6665741,2.0433508 0.392851,2.2491985 z"
     inkscape:transform-center-x="0.3040993"
     inkscape:transform-center-y="-5.4124827"
     transform="matrix(17.248102,0,0,17.248102,159.61436,-16.9129)" />
  <path
     sodipodi:type="star"
     style="opacity:0.26031;fill:#000000;fill-opacity:1;fill-rule:evenodd;stroke:none;stroke-width:0.360589;stroke-dasharray:none;stroke-opacity:1;paint-order:fill markers stroke;stop-color:#000000"
     id="path1895"
     inkscape:flatsided="false"
     sodipodi:sides="5"
     sodipodi:cx="-5.5264387"
     sodipodi:cy="4.9939485"
     sodipodi:r1="3.4622405"
     sodipodi:r2="1.7657427"
     sodipodi:arg1="0.9259979"
     sodipodi:arg2="1.5543164"
     inkscape:rounded="0.15"
     inkscape:randomized="0"
     d="M -3.4455029,7.7610435 C -3.7192259,7.9668912 -5.1548999,6.7538074 -5.4973407,6.7594513 -5.8397816,6.7650952 -7.2347001,8.0248311 -7.515058,7.8281154 -7.7954158,7.6313998 -7.0853523,5.8911292 -7.19654,5.5671927 -7.3077277,5.2432562 -8.9368612,4.3058896 -8.8364088,3.9784649 -8.7359565,3.6510403 -6.8614391,3.7885777 -6.587716,3.58273 c 0.273723,-0.2058477 0.6617817,-2.0449079 1.0042225,-2.0505519 0.3424408,-0.00564 0.7908927,1.8196295 1.0712506,2.0163451 0.2803578,0.1967157 2.1493248,-0.00252 2.2605125,0.3214171 0.1111877,0.3239365 -1.4861711,1.3144801 -1.5866235,1.6419047 -0.1004524,0.3274247 0.6665741,2.0433508 0.392851,2.2491985 z"
     inkscape:transform-center-x="0.17637379"
     inkscape:transform-center-y="-3.1391249"
     transform="matrix(10.003532,0,0,10.003532,119.45486,17.077769)" />
</svg>
