<?xml version="1.0" encoding="UTF-8" standalone="no"?>
<svg
   height="16"
   width="16"
   version="1.1"
   id="svg10"
   sodipodi:docname="folder-documents-symbolic.svg"
   inkscape:version="1.2.2 (b0a8486541, 2022-12-01)"
   xmlns:inkscape="http://www.inkscape.org/namespaces/inkscape"
   xmlns:sodipodi="http://sodipodi.sourceforge.net/DTD/sodipodi-0.dtd"
   xmlns="http://www.w3.org/2000/svg"
   xmlns:svg="http://www.w3.org/2000/svg">
  <defs
     id="defs14" />
  <sodipodi:namedview
     id="namedview12"
     pagecolor="#ffffff"
     bordercolor="#000000"
     borderopacity="0.25"
     inkscape:showpageshadow="2"
     inkscape:pageopacity="0.0"
     inkscape:pagecheckerboard="0"
     inkscape:deskcolor="#d1d1d1"
     showgrid="true"
     inkscape:zoom="44.818476"
     inkscape:cx="8.9025784"
     inkscape:cy="10.219"
     inkscape:window-width="2400"
     inkscape:window-height="1281"
     inkscape:window-x="1920"
     inkscape:window-y="32"
     inkscape:window-maximized="1"
     inkscape:current-layer="svg10">
    <inkscape:grid
       type="xygrid"
       id="grid957" />
  </sodipodi:namedview>
  <path
     style="color:#000000;line-height:normal;text-indent:0;text-align:start;text-decoration-line:none;text-decoration-style:solid;text-decoration-color:#000000;text-transform:none;isolation:auto;mix-blend-mode:normal;fill:#010102;fill-opacity:1;marker:none"
     d="M 0,3 V 14.976905 C 0,16 1,16 0.98842515,16 H 11 c 1,0 1,-1.002956 1,-1.002956 V 7 L 8,2 H 0.99621118 C 0.99621118,2 0,2 0,3 Z M 1,4 C 1,3 1.9995122,3 1.9995122,3 H 8 v 4 h 3 v 6.989947 C 11,13.989947 11,15 10,15 H 1.9904217 C 1.9904217,15 1,15 1,14 Z"
     font-weight="400"
     font-family="sans-serif"
     overflow="visible"
     id="path2"
     sodipodi:nodetypes="ccccccccccccccccccc" />
  <path
     d="m 14,14 c 1,0 1,-1.001981 1,-1.001981 V 4 L 11.5,0 H 4.9974703 C 4.9974703,0 4,0 4,1 V 2 H 5 C 5,1 5.9887016,1 5.9887016,1 H 11 v 3 h 3 v 7.981655 C 14,11.981655 14,13 13,13 h -1 v 1 z"
     style="color:#000000;line-height:normal;text-indent:0;text-align:start;text-decoration-line:none;text-decoration-style:solid;text-decoration-color:#000000;text-transform:none;isolation:auto;mix-blend-mode:normal;fill:#010102;fill-opacity:1;marker:none"
     font-weight="400"
     font-family="sans-serif"
     overflow="visible"
     id="path4"
     sodipodi:nodetypes="ccccccccccccccccc" />
  <path
     style="color:#000000;isolation:auto;mix-blend-mode:normal;fill:#000000;fill-opacity:1;marker:none;opacity:0.2"
     d="m 7,4 v 4 h 3 v 4.988515 C 10,12.988515 10,14 9,14 H 3.0097416 C 3.0097416,14 2,14 2,13 V 5 C 2,4 3,4 3,4 Z"
     display="block"
     overflow="visible"
     opacity="0.224"
     paint-order="fill markers stroke"
     id="path6"
     sodipodi:nodetypes="cccccccccc" />
</svg>
