<?xml version="1.0" encoding="UTF-8" standalone="no"?>
<svg
   height="16"
   width="16"
   version="1.1"
   id="svg8"
   sodipodi:docname="folder-music-symbolic.svg"
   inkscape:version="1.2.2 (b0a8486541, 2022-12-01)"
   xmlns:inkscape="http://www.inkscape.org/namespaces/inkscape"
   xmlns:sodipodi="http://sodipodi.sourceforge.net/DTD/sodipodi-0.dtd"
   xmlns="http://www.w3.org/2000/svg"
   xmlns:svg="http://www.w3.org/2000/svg">
  <defs
     id="defs12" />
  <sodipodi:namedview
     id="namedview10"
     pagecolor="#ffffff"
     bordercolor="#000000"
     borderopacity="0.25"
     inkscape:showpageshadow="2"
     inkscape:pageopacity="0.0"
     inkscape:pagecheckerboard="0"
     inkscape:deskcolor="#d1d1d1"
     showgrid="true"
     inkscape:zoom="64.1875"
     inkscape:cx="5.2658228"
     inkscape:cy="7.9922103"
     inkscape:window-width="2400"
     inkscape:window-height="1281"
     inkscape:window-x="1920"
     inkscape:window-y="32"
     inkscape:window-maximized="1"
     inkscape:current-layer="svg8">
    <inkscape:grid
       type="xygrid"
       id="grid856" />
  </sodipodi:namedview>
  <path
     id="path1029"
     style="color:#000000;isolation:auto;mix-blend-mode:normal;fill:#000000;fill-opacity:1;stroke-width:1.61051;stroke-linecap:round;marker:none"
     d="M 12.445312 1.3457031 C 11.996376 1.3363576 11.648438 1.4394531 11.648438 1.4394531 L 6.2929688 2.6953125 C 6.2929688 2.6953125 4.6120253 3.3002045 4.7167969 4.7792969 L 4.7304688 11.371094 C 4.5919651 11.863909 3.760156 12.015625 3.1835938 12.015625 C 0.43928662 12.06555 0.37808727 15.373047 3.1835938 15.373047 C 4.1370151 15.373047 6.3732485 14.761314 6.3515625 12.648438 L 6.3066406 8.4277344 C 6.3018274 7.0920781 7.1875 6.96875 7.1875 6.96875 L 11.650391 5.7128906 C 11.650391 5.7128906 12.754813 5.2999865 12.75 6.3925781 L 12.792969 8.7871094 C 12.775254 9.4699642 12.072656 9.5410156 11.496094 9.5410156 C 8.751786 9.5909414 8.7115232 13.396484 11.496094 13.396484 C 12.449515 13.396484 14.402344 12.452626 14.402344 10.320312 L 14.388672 3.3300781 C 14.221911 1.6895614 13.19354 1.3612789 12.445312 1.3457031 z M 12.402344 2.5214844 C 12.74022 2.5320999 13.018853 2.7735853 13.072266 3.140625 L 13.09375 3.2890625 C 13.159488 3.7408036 12.858834 4.2045888 12.419922 4.3300781 L 6.9316406 5.9003906 C 6.4927283 6.0258799 6.0872226 5.762288 6.0214844 5.3105469 L 6 5.1621094 C 5.9342618 4.7103682 6.2349158 4.246583 6.6738281 4.1210938 L 12.160156 2.5527344 C 12.242452 2.5292051 12.324372 2.5190346 12.402344 2.5214844 z " />
  <path
     id="rect1151"
     style="opacity:0.422119;fill-rule:evenodd;stroke-width:1.40313;stroke-linecap:round;paint-order:fill markers stroke;stop-color:#000000"
     transform="matrix(0.90692835,-0.42128489,0.19787136,0.980228,0,0)"
     d="m 5.3662228,6.3663225 6.6284332,1.0066452 c 1.843043,0.8751563 0.760972,2.3970242 0.02538,2.5899707 L 5.6067537,8.798086 C 4.1017951,7.9956103 4.6230455,7.1058374 5.3662228,6.3663225 Z"
     sodipodi:nodetypes="ccccc" />
</svg>
