<?xml version="1.0" encoding="UTF-8" standalone="no"?>
<svg
   width="16"
   height="16"
   version="1.1"
   id="svg6"
   sodipodi:docname="network-workgroup-symbolic.svg"
   inkscape:version="1.2.2 (b0a8486541, 2022-12-01)"
   xmlns:inkscape="http://www.inkscape.org/namespaces/inkscape"
   xmlns:sodipodi="http://sodipodi.sourceforge.net/DTD/sodipodi-0.dtd"
   xmlns="http://www.w3.org/2000/svg"
   xmlns:svg="http://www.w3.org/2000/svg">
  <defs
     id="defs10" />
  <sodipodi:namedview
     id="namedview8"
     pagecolor="#ffffff"
     bordercolor="#000000"
     borderopacity="0.25"
     inkscape:showpageshadow="2"
     inkscape:pageopacity="0.0"
     inkscape:pagecheckerboard="0"
     inkscape:deskcolor="#d1d1d1"
     showgrid="true"
     inkscape:zoom="64.1875"
     inkscape:cx="6.6368062"
     inkscape:cy="7.9922103"
     inkscape:window-width="2400"
     inkscape:window-height="1281"
     inkscape:window-x="1920"
     inkscape:window-y="32"
     inkscape:window-maximized="1"
     inkscape:current-layer="svg6">
    <inkscape:grid
       type="xygrid"
       id="grid847" />
  </sodipodi:namedview>
  <path
     id="rect6517"
     style="fill:#000000;fill-opacity:1;fill-rule:evenodd;stroke-width:1.3443;stroke-opacity:0;-inkscape-stroke:none;paint-order:fill markers stroke;stop-color:#000000"
     d="M 4,3 C 3.4460006,3 3,3.4460006 3,4 v 8 c 0,0.553999 0.4460006,1 1,1 h 9 c 0.553999,0 1,-0.446001 1,-1 V 4 C 14,3.4460006 13.553999,3 13,3 Z m 1,1 h 7 c 0.453272,0 1,0.5467277 1,1 v 6 c 0,0.453272 -0.546728,1 -1,1 H 5 C 4.5467277,12 4,11.453272 4,11 V 5 C 4,4.5467277 4.5467277,4 5,4 Z"
     sodipodi:nodetypes="ssssssssssssssssss" />
  <path
     id="rect7090"
     style="fill-rule:evenodd;stroke-width:1.3443;stroke-opacity:0;paint-order:fill markers stroke;stop-color:#000000"
     d="m 7,13 h 3 l 1,2 H 6 Z"
     sodipodi:nodetypes="ccccc" />
  <path
     id="path7151"
     style="fill:#000000;fill-opacity:1;fill-rule:evenodd;stroke-width:1.3443;stroke-opacity:0;-inkscape-stroke:none;paint-order:fill markers stroke;stop-color:#000000"
     d="M 1 0 C 0.44600115 0 0 0.44600115 0 1 L 0 9 C 0 9.5539984 0.44600115 10 1 10 L 3 10 L 3 9 L 2 9 C 1.5467282 9 1 8.4532715 1 8 L 1 2 C 1 1.5467282 1.5467282 1 2 1 L 9 1 C 9.4532715 1 10 1.5467282 10 2 L 10 3 L 11 3 L 11 1 C 11 0.44600115 10.553998 0 10 0 L 1 0 z " />
  <rect
     style="fill:#000000;fill-opacity:1;fill-rule:evenodd;stroke-width:1.3443;stroke-opacity:0;-inkscape-stroke:none;paint-order:fill markers stroke;stop-color:#000000;opacity:0.24722738"
     id="rect7164"
     width="7"
     height="6"
     x="5"
     y="5"
     ry="0.81818181" />
</svg>
