<?xml version="1.0" encoding="UTF-8" standalone="no"?>
<svg
   height="16"
   width="16"
   version="1.1"
   id="svg2547"
   sodipodi:docname="user-trash-full-symbolic.svg"
   inkscape:version="1.2.2 (b0a8486541, 2022-12-01)"
   xmlns:inkscape="http://www.inkscape.org/namespaces/inkscape"
   xmlns:sodipodi="http://sodipodi.sourceforge.net/DTD/sodipodi-0.dtd"
   xmlns="http://www.w3.org/2000/svg"
   xmlns:svg="http://www.w3.org/2000/svg">
  <defs
     id="defs2551" />
  <sodipodi:namedview
     id="namedview2549"
     pagecolor="#ffffff"
     bordercolor="#000000"
     borderopacity="0.25"
     inkscape:showpageshadow="2"
     inkscape:pageopacity="0.0"
     inkscape:pagecheckerboard="0"
     inkscape:deskcolor="#d1d1d1"
     showgrid="true"
     inkscape:zoom="64.1875"
     inkscape:cx="5.2658228"
     inkscape:cy="7.9922103"
     inkscape:window-width="2400"
     inkscape:window-height="1281"
     inkscape:window-x="1920"
     inkscape:window-y="32"
     inkscape:window-maximized="1"
     inkscape:current-layer="g2545">
    <inkscape:grid
       type="xygrid"
       id="grid2670" />
  </sodipodi:namedview>
  <g
     transform="translate(-171 445)"
     id="g2545">
    <path
       d="m 173,-441 v 9 c 0,2 2,2 2,2 h 8 c 0,0 2,0 2,-2 v -9 h -1 v 9 c 0,1 -1,1 -1,1 h -8 c -1,0 -1,-1 -1,-1 v -9 z"
       fill="#f9f9f9"
       id="path2529"
       style="fill:#010101;fill-opacity:1"
       sodipodi:nodetypes="csccscccccccc" />
    <path
       d="M173-444c-.554 0-1 .446-1 1v1h14v-1c0-.554-.446-1-1-1z"
       fill="#fff"
       fill-opacity=".863"
       id="path2531"
       style="fill:#000000;fill-opacity:1" />
    <path
       id="rect2533"
       style="display:block;overflow:visible;opacity:0.7;marker:none;paint-order:fill markers stroke"
       d="m 175,-434 h 8 v 1.00687 c 0,0 0,0.99313 -1,0.99313 h -6 c 0,0 -1,0 -1,-1 z"
       sodipodi:nodetypes="ccccccc" />
    <path
       id="rect2535"
       style="display:block;overflow:visible;opacity:0.6;marker:none;paint-order:fill markers stroke"
       d="m 175,-436 h 8 v 2 h -8 z" />
    <path
       id="rect2537"
       style="display:block;overflow:visible;opacity:0.5;marker:none;paint-order:fill markers stroke"
       d="m 175,-438 h 8 v 2 h -8 z" />
    <path
       id="rect3266"
       style="display:block;overflow:visible;opacity:0.3;fill-opacity:0.549;marker:none;paint-order:fill markers stroke"
       d="m 175,-440 h 8 v 2 h -8 z" />
    <path
       id="rect2541"
       style="display:block;overflow:visible;opacity:0.2;fill-opacity:0.471;marker:none;paint-order:fill markers stroke"
       d="m 175,-441 h 8 v 1 h -8 z" />
    <path
       style="isolation:auto;mix-blend-mode:normal;fill:#000000;fill-opacity:0.995;marker:none"
       color="#000000"
       display="block"
       overflow="visible"
       fill="#fff"
       fill-opacity=".995"
       d="m 177,-445 h 4 c 1,0 1,1 1,1 h -6 c 0,0 0,-1 1,-1 z"
       id="path2543"
       sodipodi:nodetypes="ccccc" />
  </g>
</svg>
