<?xml version="1.0" encoding="UTF-8" standalone="no"?>
<svg
   height="128"
   width="128"
   version="1.1"
   id="svg30"
   sodipodi:docname="folder-pictures.svg"
   inkscape:version="1.2.2 (b0a8486541, 2022-12-01)"
   xmlns:inkscape="http://www.inkscape.org/namespaces/inkscape"
   xmlns:sodipodi="http://sodipodi.sourceforge.net/DTD/sodipodi-0.dtd"
   xmlns:xlink="http://www.w3.org/1999/xlink"
   xmlns="http://www.w3.org/2000/svg"
   xmlns:svg="http://www.w3.org/2000/svg">
  <sodipodi:namedview
     id="namedview32"
     pagecolor="#ffffff"
     bordercolor="#000000"
     borderopacity="0.25"
     inkscape:showpageshadow="2"
     inkscape:pageopacity="0.0"
     inkscape:pagecheckerboard="0"
     inkscape:deskcolor="#d1d1d1"
     showgrid="true"
     guidecolor="#000000"
     guideopacity="0.6"
     showguides="true"
     inkscape:zoom="6.992191"
     inkscape:cx="39.043556"
     inkscape:cy="74.368678"
     inkscape:window-width="2560"
     inkscape:window-height="1371"
     inkscape:window-x="0"
     inkscape:window-y="32"
     inkscape:window-maximized="1"
     inkscape:current-layer="svg30">
    <inkscape:grid
       type="xygrid"
       id="grid261"
       color="#000000"
       opacity="0.14901961"
       empcolor="#000000"
       empopacity="0.30196078" />
    <sodipodi:guide
       position="-5,78"
       orientation="0,-1"
       id="guide920"
       inkscape:locked="false" />
    <sodipodi:guide
       position="5,33"
       orientation="0,-1"
       id="guide922"
       inkscape:locked="false" />
  </sodipodi:namedview>
  <defs
     id="defs18">
    <linearGradient
       id="linearGradient2553"
       inkscape:swatch="solid">
      <stop
         style="stop-color:#0867e1;stop-opacity:1;"
         offset="0"
         id="stop2551" />
    </linearGradient>
    <linearGradient
       id="linearGradient2547"
       inkscape:swatch="solid">
      <stop
         style="stop-color:#0867e1;stop-opacity:1;"
         offset="0"
         id="stop2545" />
    </linearGradient>
    <linearGradient
       id="linearGradient2541"
       inkscape:swatch="solid">
      <stop
         style="stop-color:#0867e1;stop-opacity:1;"
         offset="0"
         id="stop2539" />
    </linearGradient>
    <linearGradient
       id="blue-back"
       inkscape:swatch="solid">
      <stop
         style="stop-color:#0867e1;stop-opacity:1;"
         offset="0"
         id="stop2497" />
    </linearGradient>
    <linearGradient
       id="d">
      <stop
         style="stop-color:#1d7df7;stop-opacity:1"
         offset="0"
         id="stop2" />
    </linearGradient>
    <linearGradient
       id="c">
      <stop
         style="stop-color:#0855bd;stop-opacity:1"
         offset="0"
         id="stop5" />
    </linearGradient>
    <linearGradient
       id="a">
      <stop
         style="stop-color:#3f8ff8;stop-opacity:1"
         offset="0"
         id="stop11" />
    </linearGradient>
    <linearGradient
       xlink:href="#a"
       id="g"
       x1="216.756"
       y1="270"
       x2="328.756"
       y2="270"
       gradientUnits="userSpaceOnUse"
       gradientTransform="translate(-208.756,-208)" />
    <linearGradient
       xlink:href="#c"
       id="e"
       x1="216.882"
       y1="270"
       x2="328.882"
       y2="270"
       gradientUnits="userSpaceOnUse"
       gradientTransform="translate(-208.882,-208)" />
    <linearGradient
       xlink:href="#d"
       id="h"
       x1="232"
       y1="236"
       x2="256"
       y2="236"
       gradientUnits="userSpaceOnUse"
       gradientTransform="translate(-208,-208)" />
    <linearGradient
       inkscape:collect="always"
       xlink:href="#blue-back"
       id="linearGradient2501"
       x1="45"
       y1="90.5"
       x2="80"
       y2="90.5"
       gradientUnits="userSpaceOnUse"
       gradientTransform="translate(-208,-208)" />
    <linearGradient
       xlink:href="#i"
       id="n"
       gradientUnits="userSpaceOnUse"
       gradientTransform="matrix(1.21463,0,0,1.21463,-427.806,-220.807)"
       x1="428"
       y1="172"
       x2="468.09399"
       y2="172" />
    <linearGradient
       id="i">
      <stop
         offset="0"
         stop-color="#345086"
         stop-opacity=".278"
         id="stop287" />
    </linearGradient>
    <linearGradient
       xlink:href="#i"
       id="o"
       gradientUnits="userSpaceOnUse"
       gradientTransform="matrix(1.51829,0,0,1.51829,-348.633,-147.509)"
       x1="428"
       y1="172"
       x2="468.09399"
       y2="172" />
    <linearGradient
       inkscape:collect="always"
       xlink:href="#blue-back"
       id="linearGradient1985"
       gradientUnits="userSpaceOnUse"
       gradientTransform="matrix(3.0203082,0,0,3.0203082,-404.79313,-395.36672)"
       x1="28"
       y1="74"
       x2="96"
       y2="74" />
    <linearGradient
       inkscape:collect="always"
       xlink:href="#blue-back"
       id="linearGradient558"
       gradientUnits="userSpaceOnUse"
       gradientTransform="matrix(3.0203082,0,0,3.0203082,-404.79313,-395.36672)"
       x1="28"
       y1="74"
       x2="96"
       y2="74" />
    <linearGradient
       inkscape:collect="always"
       xlink:href="#blue-back"
       id="linearGradient560"
       gradientUnits="userSpaceOnUse"
       gradientTransform="matrix(3.0203082,0,0,3.0203082,-404.79313,-395.36672)"
       x1="28"
       y1="74"
       x2="96"
       y2="74" />
    <linearGradient
       inkscape:collect="always"
       xlink:href="#blue-back"
       id="linearGradient562"
       gradientUnits="userSpaceOnUse"
       gradientTransform="matrix(3.0203082,0,0,3.0203082,-404.79313,-395.36672)"
       x1="28"
       y1="74"
       x2="96"
       y2="74" />
  </defs>
  <path
     style="display:inline;fill:url(#e);fill-opacity:1;stroke-width:1.03704"
     d="M 28,12 C 16.92,12 8,20.92 8,32 v 60 c 0,11.08 8.92,20 20,20 h 72 c 11.08,0 20,-8.92 20,-20 V 52 C 120,40.92 111.08,32.05 100,32 81.575,32 85.795,12 63.118,12 Z"
     id="path20" />
  <path
     style="font-variation-settings:normal;display:inline;vector-effect:none;fill:url(#linearGradient2501);fill-opacity:1;stroke:none;stroke-width:2;stroke-linecap:butt;stroke-linejoin:miter;stroke-miterlimit:4;stroke-dasharray:none;stroke-dashoffset:0;stroke-opacity:0.355871;-inkscape-stroke:none;paint-order:fill markers stroke;stop-color:#000000"
     d="M 28,12 C 16.92,12 8,20.92 8,32 v 64 c 0,11.08 8.92,20 20,20 h 72 c 11.08,0 20,-8.92 20,-20 V 52 C 120,40.92 111.076,32.297 100,32 63.118,32 79.118,12 51.118,12 Z"
     id="path22" />
  <path
     style="fill:url(#g);fill-opacity:1;stroke-width:1.03704"
     d="M 28,12 C 16.92,12 8,20.92 8,32 v 60 c 0,11.08 8.92,20 20,20 h 72 c 11.08,0 20,-8.92 20,-20 V 52 C 120,40.92 111.08,32.05 100,32 44,32 68,12 40,12 Z"
     id="path24"
     sodipodi:nodetypes="ssssssscss" />
  <path
     style="fill:url(#h);fill-opacity:1"
     d="m 28,24 h 16 c 2.216,0 4,1.784 4,4 0,2.216 -1.784,4 -4,4 H 28 c -2.216,0 -4,-1.784 -4,-4 0,-2.216 1.784,-4 4,-4 z"
     id="path26" />
  <path
     style="color:#000000;line-height:normal;font-variant-ligatures:normal;font-variant-position:normal;font-variant-caps:normal;font-variant-numeric:normal;font-variant-alternates:normal;font-feature-settings:normal;font-variation-settings:normal;text-indent:0;text-align:start;text-decoration-line:none;text-decoration-style:solid;text-decoration-color:#000000;text-transform:none;text-orientation:mixed;shape-padding:0;opacity:1;isolation:auto;mix-blend-mode:normal;vector-effect:none;fill:url(#linearGradient558);fill-opacity:1;stroke-width:2.92025;stroke-linecap:butt;stroke-linejoin:miter;stroke-miterlimit:4;stroke-dasharray:none;stroke-dashoffset:0;stroke-opacity:1;-inkscape-stroke:none;marker:none;paint-order:fill markers stroke;stop-color:#000000;stop-opacity:1"
     d="m 57.260959,81.421355 c 0,0 -2.609137,-3.077008 -3.858049,-3.083673 -1.936643,-0.01035 -3.923391,3.017618 -6.443972,5.538195 v 2.7328 c 0,2.732802 2.631488,2.732802 2.631488,2.732802 h 19.230917 c 2.732799,0 2.7452,-2.669898 2.7452,-2.669898 l 0.04226,-9.097541 c 0,0 -1.9625,-4.663239 -4.336205,-4.829 -2.373703,-0.165773 -6.656979,5.45501 -10.011634,8.676315 z"
     font-weight="400"
     font-family="sans-serif"
     overflow="visible"
     fill="#ffffff"
     fill-rule="evenodd"
     id="path6"
     sodipodi:nodetypes="cscccccczc" />
  <path
     style="color:#000000;font-variation-settings:normal;opacity:1;vector-effect:none;fill:url(#linearGradient560);fill-opacity:1;fill-rule:evenodd;stroke-width:2.92025;stroke-linecap:butt;stroke-linejoin:miter;stroke-miterlimit:4;stroke-dasharray:none;stroke-dashoffset:0;stroke-opacity:1;-inkscape-stroke:none;marker:none;paint-order:fill markers stroke;stop-color:#000000;stop-opacity:1"
     d="m 45.411065,59.280675 c -2.146456,0 -3.917726,1.771269 -3.917726,3.917725 v 27.690952 c 0,2.146456 1.77127,3.917726 3.917726,3.917726 h 27.690952 c 2.146456,0 3.917725,-1.77127 3.917725,-3.917726 V 63.1984 c 0,-2.146456 -1.771269,-3.917725 -3.917725,-3.917725 z m 0,2.7328 h 27.690952 c 0.680332,0 1.184925,0.504593 1.184925,1.184925 v 27.690952 c 0,0.680334 -0.504593,1.184927 -1.184925,1.184927 H 45.411065 c -0.680334,0 -1.184927,-0.504593 -1.184927,-1.184927 V 63.1984 c 0,-0.680332 0.504593,-1.184925 1.184927,-1.184925 z"
     id="rect857" />
  <path
     id="rect1061"
     style="color:#000000;font-variation-settings:normal;opacity:1;vector-effect:none;fill:url(#linearGradient562);fill-opacity:1;fill-rule:evenodd;stroke-width:2.92025;stroke-linecap:butt;stroke-linejoin:miter;stroke-miterlimit:4;stroke-dasharray:none;stroke-dashoffset:0;stroke-opacity:1;-inkscape-stroke:none;marker:none;paint-order:fill markers stroke;stop-color:#000000;stop-opacity:1"
     d="m 53.609465,51.082274 c -2.146453,0 -3.917725,1.771272 -3.917725,3.917726 v 4.280675 h 2.7328 V 55 c 0,-0.680334 0.504594,-1.184927 1.184925,-1.184927 h 27.690952 c 0.680334,0 1.184927,0.504593 1.184927,1.184927 v 27.690952 c 0,0.680332 -0.504593,1.184925 -1.184927,1.184925 h -4.280675 v 2.7328 h 4.280675 c 2.146454,0 3.917726,-1.771272 3.917726,-3.917725 V 55 c 0,-2.146454 -1.771272,-3.917726 -3.917726,-3.917726 z" />
  <circle
     style="font-variation-settings:normal;opacity:1;vector-effect:none;fill:url(#linearGradient1985);fill-opacity:1;fill-rule:evenodd;stroke-width:2.92025;stroke-linecap:butt;stroke-linejoin:miter;stroke-miterlimit:4;stroke-dasharray:none;stroke-dashoffset:0;stroke-opacity:1;-inkscape-stroke:none;marker:none;paint-order:fill markers stroke;stop-color:#000000;stop-opacity:1"
     id="path1759"
     cx="52.424541"
     cy="70.211876"
     r="2.7328005" />
</svg>
