<?xml version="1.0" encoding="UTF-8" standalone="no"?>
<svg
   height="128"
   width="128"
   version="1.1"
   id="svg30"
   sodipodi:docname="folder-drag-accept.svg"
   inkscape:version="1.2.2 (b0a8486541, 2022-12-01)"
   xmlns:inkscape="http://www.inkscape.org/namespaces/inkscape"
   xmlns:sodipodi="http://sodipodi.sourceforge.net/DTD/sodipodi-0.dtd"
   xmlns:xlink="http://www.w3.org/1999/xlink"
   xmlns="http://www.w3.org/2000/svg"
   xmlns:svg="http://www.w3.org/2000/svg">
  <sodipodi:namedview
     id="namedview32"
     pagecolor="#ffffff"
     bordercolor="#000000"
     borderopacity="0.25"
     inkscape:showpageshadow="2"
     inkscape:pageopacity="0.0"
     inkscape:pagecheckerboard="0"
     inkscape:deskcolor="#d1d1d1"
     showgrid="true"
     inkscape:zoom="8.0234375"
     inkscape:cx="63.252191"
     inkscape:cy="64.062317"
     inkscape:window-width="2400"
     inkscape:window-height="1281"
     inkscape:window-x="1920"
     inkscape:window-y="32"
     inkscape:window-maximized="1"
     inkscape:current-layer="g28">
    <inkscape:grid
       type="xygrid"
       id="grid1675" />
  </sodipodi:namedview>
  <defs
     id="defs18">
    <linearGradient
       id="d">
      <stop
         style="stop-color:#1d7df7;stop-opacity:1;"
         offset="0"
         id="stop2" />
    </linearGradient>
    <linearGradient
       id="c">
      <stop
         style="stop-color:#0855bd;stop-opacity:1"
         offset="0"
         id="stop5" />
    </linearGradient>
    <linearGradient
       id="b">
      <stop
         style="stop-color:#0867e1;stop-opacity:1"
         offset="0"
         id="stop8" />
    </linearGradient>
    <linearGradient
       id="a">
      <stop
         style="stop-color:#3f8ff8;stop-opacity:1"
         offset="0"
         id="stop11" />
    </linearGradient>
    <linearGradient
       xlink:href="#a"
       id="g"
       x1="216.756"
       y1="270"
       x2="328.756"
       y2="270"
       gradientUnits="userSpaceOnUse"
       gradientTransform="translate(-.756)" />
    <linearGradient
       xlink:href="#b"
       id="f"
       x1="216.882"
       y1="272"
       x2="328.882"
       y2="272"
       gradientUnits="userSpaceOnUse"
       gradientTransform="translate(-.882)" />
    <linearGradient
       xlink:href="#c"
       id="e"
       x1="216.882"
       y1="270"
       x2="328.882"
       y2="270"
       gradientUnits="userSpaceOnUse"
       gradientTransform="translate(-.882)" />
    <linearGradient
       xlink:href="#d"
       id="h"
       x1="232"
       y1="236"
       x2="256"
       y2="236"
       gradientUnits="userSpaceOnUse" />
    <linearGradient
       id="blue-back"
       inkscape:swatch="solid">
      <stop
         style="stop-color:#076ff7;stop-opacity:1;"
         offset="0"
         id="stop2497" />
    </linearGradient>
    <linearGradient
       inkscape:collect="always"
       xlink:href="#blue-back"
       id="linearGradient4744"
       gradientUnits="userSpaceOnUse"
       gradientTransform="matrix(0,-9.5198189,9.5198189,0,-1384.9199,1311.4187)"
       x1="28"
       y1="74"
       x2="96"
       y2="74" />
  </defs>
  <g
     style="display:inline"
     id="g28">
    <path
       style="display:inline;fill:url(#e);fill-opacity:1;stroke-width:1.03704"
       d="M236 220c-11.08 0-20 8.92-20 20v60c0 11.08 8.92 20 20 20h72c11.08 0 20-8.92 20-20v-40c0-11.08-8.92-19.95-20-20-18.425 0-14.205-20-36.882-20z"
       transform="translate(-208 -208)"
       id="path20" />
    <path
       style="display:inline;fill:url(#f);fill-opacity:1;stroke-width:1.03704"
       d="M236 220c-11.08 0-20 8.92-20 20v64c0 11.08 8.92 20 20 20h72c11.08 0 20-8.92 20-20v-44c0-11.08-8.924-19.703-20-20-36.882 0-20.882-20-48.882-20z"
       transform="translate(-208 -208)"
       id="path22" />
    <path
       style="fill:#2580f8;fill-opacity:1;stroke-width:1.03704"
       d="m 28.141675,11.893744 c -11.08,0 -20.0000002,8.92 -20.0000002,20 v 60 c 0,11.079996 8.9200002,19.999996 20.0000002,19.999996 h 71.999995 c 11.08,0 20,-8.92 20,-19.999996 v -40 c 0,-11.08 -8.92,-19.95 -20,-20 -55.999995,0 -31.999995,-20 -59.999995,-20 z"
       id="path24" />
    <path
       style="fill:#086df0;fill-opacity:1"
       d="M236 232h16c2.216 0 4 1.784 4 4s-1.784 4-4 4h-16c-2.216 0-4-1.784-4-4s1.784-4 4-4z"
       transform="translate(-208 -208)"
       id="path26" />
    <path
       d="m 41.252186,76.369997 c 0,0.84455 0.333695,1.688833 0.980869,2.336007 l 18.687651,18.687654 c 0.08087,0.08083 0.158523,0.148653 0.245219,0.219377 h 0.01269 c 0.02118,0.01724 0.04296,0.03509 0.06474,0.05154 0.106126,0.08209 0.219642,0.15069 0.335546,0.219378 0.02189,0.01253 0.0423,0.02569 0.06476,0.03901 0.123104,0.06924 0.241914,0.140353 0.374269,0.193626 0.03371,0.0141 0.06883,0.02648 0.103306,0.03916 0.139677,0.05294 0.28156,0.09617 0.425875,0.128916 0.120741,0.02648 0.24892,0.05217 0.374272,0.06485 0.0043,4.38e-4 0.0085,-3.92e-4 0.01317,0 h 0.01269 c 0.206225,0.01973 0.41332,0.01973 0.619486,0 h 0.01268 c 0.129778,-0.01253 0.262333,-0.03776 0.38716,-0.06485 0.183491,-0.04089 0.366198,-0.09446 0.542044,-0.167686 0.07206,-0.02898 0.137064,-0.06907 0.206487,-0.103227 0.09696,-0.04887 0.191183,-0.09634 0.28393,-0.154919 0.08961,-0.05545 0.174609,-0.116855 0.258115,-0.180656 0.0271,-0.02052 0.05091,-0.04292 0.07738,-0.0647 h 0.0141 c 0.08396,-0.06892 0.166699,-0.140822 0.245208,-0.219377 L 84.281485,78.706437 c 1.294273,-1.294277 1.294273,-3.377665 0,-4.671946 -1.294288,-1.294277 -3.377678,-1.294277 -4.671952,0 L 66.561669,87.082351 V 52.817826 c 0,-1.830376 -1.473552,-3.303923 -3.303918,-3.303923 -1.830924,0 -3.304477,1.473547 -3.304477,3.303923 V 87.08211 L 46.90542,74.034254 c -1.294281,-1.29428 -3.377667,-1.29428 -4.671947,0 -0.647107,0.647108 -0.98087,1.491457 -0.98087,2.336006 z"
       style="font-variation-settings:normal;vector-effect:none;fill:url(#linearGradient4744);fill-opacity:1;stroke-width:9.20446;stroke-linecap:butt;stroke-linejoin:miter;stroke-miterlimit:4;stroke-dasharray:none;stroke-dashoffset:0;stroke-opacity:1;-inkscape-stroke:none;marker:none;paint-order:fill markers stroke;stop-color:#000000"
       id="path4715"
       sodipodi:nodetypes="cscccccccccscccccccccccccsccssscsscc" />
  </g>
</svg>
