<?xml version="1.0" encoding="UTF-8" standalone="no"?>
<svg
   height="128"
   width="128"
   version="1.1"
   id="svg30"
   sodipodi:docname="folder-videos.svg"
   inkscape:version="1.2.2 (b0a8486541, 2022-12-01)"
   xmlns:inkscape="http://www.inkscape.org/namespaces/inkscape"
   xmlns:sodipodi="http://sodipodi.sourceforge.net/DTD/sodipodi-0.dtd"
   xmlns:xlink="http://www.w3.org/1999/xlink"
   xmlns="http://www.w3.org/2000/svg"
   xmlns:svg="http://www.w3.org/2000/svg">
  <sodipodi:namedview
     id="namedview32"
     pagecolor="#ffffff"
     bordercolor="#000000"
     borderopacity="0.25"
     inkscape:showpageshadow="2"
     inkscape:pageopacity="0.0"
     inkscape:pagecheckerboard="0"
     inkscape:deskcolor="#d1d1d1"
     showgrid="true"
     guidecolor="#000000"
     guideopacity="0.6"
     showguides="true"
     inkscape:zoom="6.992191"
     inkscape:cx="39.043556"
     inkscape:cy="74.368678"
     inkscape:window-width="2560"
     inkscape:window-height="1371"
     inkscape:window-x="0"
     inkscape:window-y="32"
     inkscape:window-maximized="1"
     inkscape:current-layer="svg30">
    <inkscape:grid
       type="xygrid"
       id="grid261"
       color="#000000"
       opacity="0.14901961"
       empcolor="#000000"
       empopacity="0.30196078" />
    <sodipodi:guide
       position="-5,78"
       orientation="0,-1"
       id="guide920"
       inkscape:locked="false" />
    <sodipodi:guide
       position="5,33"
       orientation="0,-1"
       id="guide922"
       inkscape:locked="false" />
  </sodipodi:namedview>
  <defs
     id="defs18">
    <linearGradient
       id="linearGradient2553"
       inkscape:swatch="solid">
      <stop
         style="stop-color:#0867e1;stop-opacity:1;"
         offset="0"
         id="stop2551" />
    </linearGradient>
    <linearGradient
       id="linearGradient2547"
       inkscape:swatch="solid">
      <stop
         style="stop-color:#0867e1;stop-opacity:1;"
         offset="0"
         id="stop2545" />
    </linearGradient>
    <linearGradient
       id="linearGradient2541"
       inkscape:swatch="solid">
      <stop
         style="stop-color:#0867e1;stop-opacity:1;"
         offset="0"
         id="stop2539" />
    </linearGradient>
    <linearGradient
       id="blue-back"
       inkscape:swatch="solid">
      <stop
         style="stop-color:#0867e1;stop-opacity:1;"
         offset="0"
         id="stop2497" />
    </linearGradient>
    <linearGradient
       id="d">
      <stop
         style="stop-color:#1d7df7;stop-opacity:1"
         offset="0"
         id="stop2" />
    </linearGradient>
    <linearGradient
       id="c">
      <stop
         style="stop-color:#0855bd;stop-opacity:1"
         offset="0"
         id="stop5" />
    </linearGradient>
    <linearGradient
       id="a">
      <stop
         style="stop-color:#3f8ff8;stop-opacity:1"
         offset="0"
         id="stop11" />
    </linearGradient>
    <linearGradient
       xlink:href="#a"
       id="g"
       x1="216.756"
       y1="270"
       x2="328.756"
       y2="270"
       gradientUnits="userSpaceOnUse"
       gradientTransform="translate(-208.756,-208)" />
    <linearGradient
       xlink:href="#c"
       id="e"
       x1="216.882"
       y1="270"
       x2="328.882"
       y2="270"
       gradientUnits="userSpaceOnUse"
       gradientTransform="translate(-208.882,-208)" />
    <linearGradient
       xlink:href="#d"
       id="h"
       x1="232"
       y1="236"
       x2="256"
       y2="236"
       gradientUnits="userSpaceOnUse"
       gradientTransform="translate(-208,-208)" />
    <linearGradient
       inkscape:collect="always"
       xlink:href="#blue-back"
       id="linearGradient2501"
       x1="45"
       y1="90.5"
       x2="80"
       y2="90.5"
       gradientUnits="userSpaceOnUse"
       gradientTransform="translate(-208,-208)" />
    <linearGradient
       xlink:href="#i"
       id="n"
       gradientUnits="userSpaceOnUse"
       gradientTransform="matrix(1.21463,0,0,1.21463,-427.806,-220.807)"
       x1="428"
       y1="172"
       x2="468.09399"
       y2="172" />
    <linearGradient
       id="i">
      <stop
         offset="0"
         stop-color="#345086"
         stop-opacity=".278"
         id="stop287" />
    </linearGradient>
    <linearGradient
       xlink:href="#i"
       id="o"
       gradientUnits="userSpaceOnUse"
       gradientTransform="matrix(1.51829,0,0,1.51829,-348.633,-147.509)"
       x1="428"
       y1="172"
       x2="468.09399"
       y2="172" />
    <linearGradient
       inkscape:collect="always"
       xlink:href="#blue-back"
       id="linearGradient1985"
       gradientUnits="userSpaceOnUse"
       gradientTransform="matrix(3.1699131,0,0,3.1699131,-412.73321,-419.40145)"
       x1="28"
       y1="74"
       x2="96"
       y2="74" />
  </defs>
  <path
     style="display:inline;fill:url(#e);fill-opacity:1;stroke-width:1.03704"
     d="M 28,12 C 16.92,12 8,20.92 8,32 v 60 c 0,11.08 8.92,20 20,20 h 72 c 11.08,0 20,-8.92 20,-20 V 52 C 120,40.92 111.08,32.05 100,32 81.575,32 85.795,12 63.118,12 Z"
     id="path20" />
  <path
     style="font-variation-settings:normal;display:inline;vector-effect:none;fill:url(#linearGradient2501);fill-opacity:1;stroke:none;stroke-width:2;stroke-linecap:butt;stroke-linejoin:miter;stroke-miterlimit:4;stroke-dasharray:none;stroke-dashoffset:0;stroke-opacity:0.355871;-inkscape-stroke:none;paint-order:fill markers stroke;stop-color:#000000"
     d="M 28,12 C 16.92,12 8,20.92 8,32 v 64 c 0,11.08 8.92,20 20,20 h 72 c 11.08,0 20,-8.92 20,-20 V 52 C 120,40.92 111.076,32.297 100,32 63.118,32 79.118,12 51.118,12 Z"
     id="path22" />
  <path
     style="fill:url(#g);fill-opacity:1;stroke-width:1.03704"
     d="M 28,12 C 16.92,12 8,20.92 8,32 v 60 c 0,11.08 8.92,20 20,20 h 72 c 11.08,0 20,-8.92 20,-20 V 52 C 120,40.92 111.08,32.05 100,32 44,32 68,12 40,12 Z"
     id="path24"
     sodipodi:nodetypes="ssssssscss" />
  <path
     style="fill:url(#h);fill-opacity:1"
     d="m 28,24 h 16 c 2.216,0 4,1.784 4,4 0,2.216 -1.784,4 -4,4 H 28 c -2.216,0 -4,-1.784 -4,-4 0,-2.216 1.784,-4 4,-4 z"
     id="path26" />
  <path
     id="path2-3"
     style="font-variation-settings:normal;opacity:1;isolation:auto;mix-blend-mode:normal;vector-effect:none;fill:url(#linearGradient1985);fill-opacity:1;stroke-width:3.06489;stroke-linecap:butt;stroke-linejoin:miter;stroke-miterlimit:4;stroke-dasharray:none;stroke-dashoffset:0;stroke-opacity:1;-inkscape-stroke:none;marker:none;paint-order:fill markers stroke;stop-color:#000000;stop-opacity:1"
     d="m 58.510538,49.161509 c 0,0 -5.719524,6e-6 -5.719524,5.736329 v 5.736328 h 8.604493 v -5.736328 c 0,0 -4.6e-5,-2.868165 2.82895,-2.868165 h 11.511871 c 2.868161,0 2.868164,2.812146 2.868164,2.812146 v 25.869497 h 2.868165 c 5.736322,0 5.736328,-5.803553 5.736328,-5.803553 V 55.049087 c 0,0 -6e-6,-5.887578 -5.736328,-5.887578 z m -2.85136,2.868164 h 2.868165 v 2.868165 h -2.868165 z m 25.813479,0 h 2.868164 v 2.868165 h -2.868164 z m 0,8.733337 h 2.868164 v 2.896172 h -2.868164 z m -34.384359,2.73932 c 0,0 -5.769941,6e-6 -5.769941,5.736329 v 20.07715 c 0,5.736322 5.736329,5.736328 5.736329,5.736328 H 70 c 5.736322,0 5.736328,-5.736328 5.736328,-5.736328 v -20.07715 c 0,0 -6e-6,-5.736329 -5.736328,-5.736329 z m -2.901777,2.868165 h 2.868165 v 2.868164 h -2.868165 z m 8.442037,0 h 11.635113 c 2.868161,0 2.868164,2.817747 2.868164,2.817747 v 5.6523 c 0,0 -3e-6,3.00261 -2.868164,3.00261 H 52.729394 c 0,0 -2.806544,-3e-6 -2.806544,-2.868165 v -5.736328 c 0,-2.868162 2.705708,-2.868164 2.705708,-2.868164 z m 17.371442,0 h 2.868164 v 2.868164 H 70 Z m 11.472657,2.868164 h 2.868164 v 2.94099 h -2.868164 z m -37.286136,5.736328 h 2.868165 v 2.868165 h -2.868165 z m 37.286136,0 h 2.868164 v 2.868165 H 81.472657 Z M 70,75.103825 h 2.868164 V 78 H 70 Z m -17.208986,5.607491 h 11.472657 c 2.868161,0 2.868164,2.845758 2.868164,2.845758 v 5.635492 c 0,0 -3e-6,2.991407 -2.868164,2.991407 H 52.791014 c -2.868161,0 -2.868164,-2.929784 -2.868164,-2.929784 v -5.876375 c 0,0 3e-6,-2.666498 2.868164,-2.666498 z m -8.604493,2.868164 h 2.868165 v 2.868164 h -2.868165 z m 25.813479,0 h 2.868164 v 2.94099 H 70 Z m -25.813479,5.736329 h 2.868165 v 2.868164 h -2.868165 z m 25.813479,0 h 2.868164 v 2.868164 H 70 Z" />
</svg>
