<?xml version="1.0" encoding="UTF-8" standalone="no"?>
<svg
   width="64"
   height="64"
   version="1.1"
   id="svg72"
   sodipodi:docname="network-workgroup.svg"
   inkscape:version="1.2.2 (b0a8486541, 2022-12-01)"
   xmlns:inkscape="http://www.inkscape.org/namespaces/inkscape"
   xmlns:sodipodi="http://sodipodi.sourceforge.net/DTD/sodipodi-0.dtd"
   xmlns:xlink="http://www.w3.org/1999/xlink"
   xmlns="http://www.w3.org/2000/svg"
   xmlns:svg="http://www.w3.org/2000/svg">
  <defs
     id="defs76">
    <linearGradient
       inkscape:collect="always"
       id="linearGradient1111">
      <stop
         style="stop-color:#1bd2fa;stop-opacity:1;"
         offset="0"
         id="stop1107" />
      <stop
         style="stop-color:#1c80f2;stop-opacity:1;"
         offset="1"
         id="stop1109" />
    </linearGradient>
    <linearGradient
       inkscape:collect="always"
       xlink:href="#linearGradient1111"
       id="linearGradient1113"
       x1="29.500309"
       y1="10.143403"
       x2="29.500309"
       y2="50.791168"
       gradientUnits="userSpaceOnUse"
       gradientTransform="matrix(0.80339791,0,0,0.80339791,12.447825,11.189796)" />
    <linearGradient
       inkscape:collect="always"
       xlink:href="#linearGradient1111"
       id="linearGradient6291"
       gradientUnits="userSpaceOnUse"
       gradientTransform="matrix(0.80339791,0,0,0.80339791,1.5170612,0.86181105)"
       x1="29.500309"
       y1="10.143403"
       x2="29.500309"
       y2="50.791168" />
    <linearGradient
       inkscape:collect="always"
       xlink:href="#linearGradient1111"
       id="linearGradient8056"
       gradientUnits="userSpaceOnUse"
       gradientTransform="matrix(0.80339791,0,0,0.80339791,12.447825,11.189796)"
       x1="29.500309"
       y1="10.143403"
       x2="29.500309"
       y2="50.791168" />
  </defs>
  <sodipodi:namedview
     id="namedview74"
     pagecolor="#ffffff"
     bordercolor="#000000"
     borderopacity="0.25"
     inkscape:showpageshadow="2"
     inkscape:pageopacity="0.0"
     inkscape:pagecheckerboard="0"
     inkscape:deskcolor="#d1d1d1"
     showgrid="true"
     inkscape:zoom="15.723869"
     inkscape:cx="33.961107"
     inkscape:cy="33.643119"
     inkscape:window-width="2400"
     inkscape:window-height="1281"
     inkscape:window-x="1920"
     inkscape:window-y="32"
     inkscape:window-maximized="1"
     inkscape:current-layer="svg72">
    <inkscape:grid
       type="xygrid"
       id="grid549" />
  </sodipodi:namedview>
  <linearGradient
     id="a">
    <stop
       stop-color="#909090"
       offset="0"
       id="stop2" />
    <stop
       stop-color="#636363"
       stop-opacity="0"
       offset="1"
       id="stop4" />
  </linearGradient>
  <radialGradient
     id="c"
     cx="199.22"
     cy="60.978"
     r="62.148"
     gradientTransform="matrix(0.39807318,0,0,1.7678014,-41.144877,-72.524901)"
     gradientUnits="userSpaceOnUse">
    <stop
       stop-color="#e6e6e8"
       offset="0"
       id="stop7" />
    <stop
       stop-color="#cbccce"
       offset="1"
       id="stop9" />
  </radialGradient>
  <radialGradient
     id="d"
     cx="199.22"
     cy="60.978"
     r="62.148"
     gradientTransform="matrix(0.6416015,0,0,1.7428036,-93.51551,-79.575683)"
     gradientUnits="userSpaceOnUse">
    <stop
       stop-color="#ececef"
       offset="0"
       id="stop12" />
    <stop
       stop-color="#cbccce"
       stop-opacity="0"
       offset="1"
       id="stop14" />
  </radialGradient>
  <filter
     id="b"
     x="-0.014481094"
     y="-0.017316018"
     width="1.0289622"
     height="1.034632"
     color-interpolation-filters="sRGB">
    <feGaussianBlur
       stdDeviation=".75"
       id="feGaussianBlur17" />
  </filter>
  <linearGradient
     id="g"
     x1="174.79"
     x2="174.86"
     y1="109.47"
     y2="118.12"
     gradientUnits="userSpaceOnUse"
     gradientTransform="matrix(0.39339182,0,0,0.3873101,-32.175544,9.5053912)">
    <stop
       stop-color="#909090"
       offset="0"
       id="stop20" />
    <stop
       stop-color="#727272"
       stop-opacity="0"
       offset="1"
       id="stop22" />
  </linearGradient>
  <radialGradient
     id="h"
     cx="178.79"
     cy="120.7"
     r="22.055"
     gradientTransform="matrix(1.5181384,0,0,0.05375864,-233.26564,49.766276)"
     gradientUnits="userSpaceOnUse"
     xlink:href="#a" />
  <filter
     id="i"
     x="-0.024968283"
     y="-0.50332482"
     width="1.0499366"
     height="2.0066496"
     color-interpolation-filters="sRGB">
    <feGaussianBlur
       stdDeviation=".328"
       id="feGaussianBlur26" />
  </filter>
  <filter
     id="f"
     x="-0.080469841"
     y="-0.2454602"
     width="1.1609397"
     height="1.4909204"
     color-interpolation-filters="sRGB">
    <feGaussianBlur
       stdDeviation="1.479"
       id="feGaussianBlur29" />
  </filter>
  <linearGradient
     id="j"
     x1="183.06"
     x2="183.06"
     y1="129.42"
     y2="127.06"
     gradientUnits="userSpaceOnUse"
     xlink:href="#a"
     gradientTransform="matrix(0.39339182,0,0,0.3873101,-32.175544,9.5053912)" />
  <linearGradient
     id="e"
     x1="23.844"
     x2="23.816"
     y1="17.574"
     y2="85.151"
     gradientUnits="userSpaceOnUse"
     gradientTransform="matrix(0.48966,0,0,0.48209,-68.446714,-1.7978698)">
    <stop
       stop-color="#1bd2fa"
       offset="0"
       id="stop33" />
    <stop
       stop-color="#1c7ef2"
       offset="1"
       id="stop35" />
  </linearGradient>
  <g
     id="rect6289">
    <path
       style="color:#000000;fill:url(#linearGradient6291);stroke-width:1.1168;-inkscape-stroke:none"
       d="m 6.379375,7.8393164 h 41.694536 c 1.751019,0 3.160684,1.4096649 3.160684,3.1606836 v 28.891043 c 0,1.751018 -1.409665,3.160683 -3.160684,3.160683 H 6.379375 c -1.7510188,0 -3.1606837,-1.409665 -3.1606837,-3.160683 V 11 c 0,-1.7510187 1.4096649,-3.1606836 3.1606837,-3.1606836 z"
       id="path8062" />
    <path
       style="color:#000000;fill:#000000;-inkscape-stroke:none"
       d="m 6.3789062,7.28125 c -2.0507114,0 -3.71875,1.6680385 -3.7187499,3.71875 v 28.890625 c 0,2.050711 1.6680385,3.71875 3.7187499,3.71875 H 48.074219 c 2.050711,0 3.71875,-1.668039 3.71875,-3.71875 V 11 c 0,-2.0507115 -1.668039,-3.71875 -3.71875,-3.71875 z m 0,1.1171875 H 48.074219 c 1.451322,0 2.601562,1.15024 2.601562,2.6015625 v 28.890625 c 0,1.451322 -1.15024,2.603516 -2.601562,2.603516 H 6.3789062 c -1.4513224,0 -2.6015624,-1.152194 -2.6015624,-2.603516 V 11 c 0,-1.4513225 1.15024,-2.6015625 2.6015624,-2.6015625 z"
       id="path8064" />
  </g>
  <rect
     x="5.1560001"
     y="8.7790003"
     width="124.3"
     height="103.95"
     rx="11.710238"
     fill="#1a1a1a"
     filter="url(#b)"
     opacity="0.887"
     id="rect38"
     transform="matrix(0.39339182,0,0,0.34789935,11.679777,14.58996)"
     style="display:none;stroke-width:2.058" />
  <path
     d="m 194.34,114.95 c -0.088,3.7 -0.946,7.822 4.95,11.334 4.707,2.926 -2.61,3.127 -4.429,3.127 h -32.145 c -1.818,0 -9.136,-0.201 -4.43,-3.127 5.898,-3.513 5.04,-7.635 4.951,-11.334 z"
     filter="url(#f)"
     id="path50"
     transform="matrix(0.39339182,0,0,0.3873101,-32.175544,9.5053913)"
     style="stroke-width:2.058" />
  <path
     d="m 44.276223,53.453469 c -0.03462,1.433047 -0.372148,3.02954 1.947289,4.389773 1.851696,1.133269 -1.026752,1.211118 -1.742332,1.211118 -4.127466,0.178938 -8.324958,0.295131 -12.645579,0 -0.715187,0 -3.594028,-0.07785 -1.742726,-1.211118 2.320224,-1.360621 1.982694,-2.957113 1.947682,-4.389773 z"
     fill="#e0e1e6"
     id="path52"
     style="stroke-width:0.803318" />
  <path
     d="m 44.276223,53.453469 c -0.03462,1.433047 -0.372148,3.02954 1.947289,4.389773 1.851696,1.133269 -1.026752,1.211118 -1.742332,1.211118 H 31.835601 c -0.715187,0 -3.594028,-0.07785 -1.742726,-1.211118 2.320224,-1.360621 1.982694,-2.957113 1.947682,-4.389773 z"
     fill="url(#g)"
     id="path54"
     style="fill:url(#g);stroke-width:0.803318" />
  <path
     d="m 44.276223,53.453469 c -0.03462,1.433047 -0.372148,3.02954 1.947289,4.389773 1.851696,1.133269 -1.026752,1.211118 -1.742332,1.211118 H 31.835601 c -0.715187,0 -3.594028,-0.07785 -1.742726,-1.211118 2.320224,-1.360621 1.982694,-2.957113 1.947682,-4.389773 z"
     fill="url(#h)"
     id="path56"
     style="fill:url(#h);stroke-width:0.803318" />
  <ellipse
     cx="178.28999"
     cy="127.15"
     rx="15.764"
     ry="0.78200001"
     fill="#ffffff"
     filter="url(#i)"
     opacity="0.887"
     id="ellipse58"
     transform="matrix(0.39339182,0,0,0.3873101,-32.175544,9.5053913)"
     style="stroke-width:2.058" />
  <path
     d="m 44.276223,53.453469 c -0.03462,1.433047 -0.372148,3.02954 1.947289,4.389773 1.851696,1.133269 -1.026752,1.211118 -1.742332,1.211118 H 31.835601 c -0.715187,0 -3.594028,-0.07785 -1.742726,-1.211118 2.320224,-1.360621 1.982694,-2.957113 1.947682,-4.389773 z"
     fill="url(#j)"
     id="path60"
     style="fill:url(#j);stroke-width:0.803318" />
  <rect
     x="14.149455"
     y="18.167301"
     width="48.015903"
     height="35.21241"
     rx="0"
     fill="url(#c)"
     id="rect551"
     style="display:none;fill:url(#linearGradient1113);fill-opacity:1;stroke:#000000;stroke-width:1.1168;stroke-dasharray:none;stroke-opacity:1"
     ry="3.8326988" />
  <path
     style="color:#000000;display:inline;fill:url(#linearGradient8056);stroke-width:1.1168;-inkscape-stroke:none"
     d="M 17.982154,18.167301 H 58.33266 c 2.123315,0 3.832699,1.709384 3.832699,3.832699 v 27.547012 c 0,2.123315 -1.709384,3.832699 -3.832699,3.832699 H 17.982154 c -2.123315,0 -3.832699,-1.709384 -3.832699,-3.832699 V 22 c 0,-2.123315 1.709384,-3.832699 3.832699,-3.832699 z"
     id="path8052" />
  <path
     style="color:#000000;display:inline;fill:#000000;-inkscape-stroke:none"
     d="m 17.982422,17.609375 c -2.423008,0 -4.390625,1.967617 -4.390625,4.390625 v 27.546875 c 0,2.423008 1.967617,4.390625 4.390625,4.390625 h 40.349609 c 2.423008,0 4.392578,-1.967617 4.392578,-4.390625 V 22 c 0,-2.423008 -1.96957,-4.390625 -4.392578,-4.390625 z m 0,1.117187 h 40.349609 c 1.823619,0 3.275391,1.449819 3.275391,3.273438 v 27.546875 c 0,1.823619 -1.451772,3.275391 -3.275391,3.275391 H 17.982422 c -1.823619,0 -3.275391,-1.451772 -3.275391,-3.275391 V 22 c 0,-1.823619 1.451772,-3.273438 3.275391,-3.273438 z"
     id="path8054"
     sodipodi:insensitive="true" />
</svg>
