<?xml version="1.0" encoding="UTF-8" standalone="no"?>
<svg
   width="16"
   height="16"
   version="1.1"
   id="svg4"
   sodipodi:docname="chromium-symbolic.svg"
   inkscape:version="1.2.2 (b0a8486541, 2022-12-01)"
   xmlns:inkscape="http://www.inkscape.org/namespaces/inkscape"
   xmlns:sodipodi="http://sodipodi.sourceforge.net/DTD/sodipodi-0.dtd"
   xmlns="http://www.w3.org/2000/svg"
   xmlns:svg="http://www.w3.org/2000/svg">
  <defs
     id="defs8" />
  <sodipodi:namedview
     id="namedview6"
     pagecolor="#ffffff"
     bordercolor="#000000"
     borderopacity="0.25"
     inkscape:showpageshadow="2"
     inkscape:pageopacity="0.0"
     inkscape:pagecheckerboard="0"
     inkscape:deskcolor="#d1d1d1"
     showgrid="false"
     inkscape:zoom="64.1875"
     inkscape:cx="6.6212269"
     inkscape:cy="7.9922103"
     inkscape:window-width="2560"
     inkscape:window-height="1371"
     inkscape:window-x="0"
     inkscape:window-y="32"
     inkscape:window-maximized="1"
     inkscape:current-layer="svg4" />
  <path
     d="m8 0a8 8 0 0 0-8 8 8 8 0 0 0 8 8 8 8 0 0 0 8-8 8 8 0 0 0-8-8zm0 1a7 7 0 0 1 5.7422 3h-5.7422c-1.9044 7.039e-4 -3.5442 1.344-3.9199 3.2109l-1.834-3.1777a7 7 0 0 1 5.7539-3.0332zm0 4c1.6569 0 3 1.3431 3 3s-1.3431 3-3 3-3-1.3431-3-3 1.3431-3 3-3zm2.6387 0h3.6836a7 7 0 0 1 0.67773 3 7 7 0 0 1-6.3945 6.9531l2.8594-4.9531h-0.003906c0.35218-0.60777 0.5381-1.2976 0.53906-2-0.001791-1.1491-0.4977-2.242-1.3613-3zm-8.9668 0.041016 2.8633 4.959h0.0058594c0.71362 1.236 2.0318 1.9982 3.459 2 0.43507-2.72e-4 0.86717-0.071521 1.2793-0.21094l-1.832 3.168a7 7 0 0 1-6.4473-6.957 7 7 0 0 1 0.67188-2.959z"
     fill="#363636"
     id="path2"
     style="fill:#ececec;fill-opacity:1" />
</svg>
